<?xml version="1.0" encoding="utf-8"?>
<!-- Generator: Adobe Illustrator 19.0.0, SVG Export Plug-In . SVG Version: 6.00 Build 0)  -->
<svg version="1.1" id="Слой_1" xmlns="http://www.w3.org/2000/svg" xmlns:xlink="http://www.w3.org/1999/xlink" x="0px" y="0px"
	 viewBox="0 0 448.1 148.1" style="enable-background:new 0 0 448.1 148.1;" xml:space="preserve">
<style type="text/css">
	.st0{fill:#FEFEFE;}
	.st1{fill:#737372;}
	.st2{fill:#44AC3D;}
</style>
<g>
	<path class="st0" d="M79,0.2c122.8,0,245.7,0,368.5,0c1,0,1.1,0.3,1.1,1.2c0,48.7,0,97.4,0,146c0,1-0.2,1.2-1.2,1.2
		c-148.7,0-297.3,0-446,0c-1.1,0-1.2-0.3-1.2-1.3c0-48.7,0-97.4,0-146c0-0.9,0.2-1.1,1.1-1.1c22.8,0,45.5,0,68.3,0
		c0,0.1,0.1,0.2,0.1,0.2c-4.4,0.2-8.7,0.9-12.9,1.9C17.1,11.9-7.6,53,2.8,92.6C12.9,131.2,51,154.8,90,146.4
		c38.6-8.2,65.2-46.2,56.7-87c-5-24.3-19.3-41.7-41.6-52.4C96.8,3,88,0.9,78.9,0.5C78.9,0.4,78.9,0.3,79,0.2z M361.8,58.5
		c-0.2-0.6-0.3-1-0.4-1.3c-1.6-6-3.2-11.9-4.7-17.9c-0.2-1-0.6-1.2-1.5-1.1c-2,0.1-4,0.1-6,0c-1.1-0.1-1.5,0.2-1.7,1.3
		c-0.8,3.5-1.6,7-2.5,10.5c-1.1,4.4-2.1,8.8-3.2,13.3c-0.2,1,0,1.3,1,1.2c1-0.1,1.9-0.1,2.9,0c1.1,0.1,1.5-0.4,1.7-1.4
		c1.4-6.3,2.9-12.6,4.4-19c0.2,0.5,0.3,0.9,0.4,1.2c1.6,6,3.2,12.1,4.8,18.1c0.2,0.7,0.4,1.1,1.3,1c2.3-0.1,4.6,0,6.8,0
		c0.6,0,0.9-0.2,1-0.8c2-8.2,3.9-16.4,5.9-24.7c0.2-0.7-0.1-0.8-0.7-0.8c-1.1,0-2.2,0.1-3.2,0c-1.2-0.1-1.5,0.3-1.8,1.4
		C364.8,45.7,363.3,52,361.8,58.5z M205,64.3c2.1,0,4.2,0,6.2,0c4.7,0,8-2.2,9.8-6.5c1.7-4,2.6-8.1,3.3-12.3
		c0.6-3.9-1.3-6.4-4.9-7.1c-0.9-0.2-1.7-0.2-2.6-0.3c-4.1,0-8.2,0-12.4,0c-0.8,0-1.1,0.2-1.3,1c-1.9,8.1-3.8,16.1-5.8,24.2
		c-0.2,0.8-0.1,1.1,0.8,1C200.4,64.3,202.7,64.3,205,64.3z M264.7,53.3c1.6-0.5,2.8-1.3,3.5-2.7c1.4-2.7,2.1-5.5,1.9-8.5
		c-0.1-1.6-1-2.7-2.4-3.3c-1.2-0.5-2.5-0.7-3.9-0.7c-3.3,0-6.6,0-9.8,0c-1.2,0-2.7-0.5-3.5,0.2c-0.7,0.6-0.7,2.1-1,3.2
		c-1.7,7.2-3.5,14.5-5.2,21.7c-0.2,0.9,0,1,0.8,1c1.2-0.1,2.3-0.1,3.5,0c0.8,0.1,1.1-0.3,1.3-1c0.5-2.3,1-4.5,1.6-6.8
		c0.1-0.4,0.1-0.9,0.9-0.9c2.1,0.1,4.2,0,6.4,0c2,0.1,2.6,1,2.2,2.9c-0.4,1.6-0.7,3.3-1.2,4.9c-0.2,0.6,0,0.8,0.6,0.8
		c1.4,0,2.8,0,4.2,0c0.5,0,0.8-0.2,0.9-0.7c0.4-1.9,0.9-3.8,1.3-5.7C267.1,55.7,266.5,54.5,264.7,53.3z M310.7,53.3
		c1.7-0.5,3-1.5,3.7-3c1.1-2.3,1.8-4.7,1.8-7.3c0-2.6-1.1-4-3.6-4.6c-0.8-0.2-1.6-0.3-2.4-0.3c-4.3,0-8.6,0-13,0
		c-0.8,0-0.9,0.3-1.1,0.9c-0.3,1.2-0.6,2.4-0.9,3.6c-1.6,6.9-3.3,13.7-5,20.6c-0.2,1,0,1.2,0.9,1.1c1.1-0.1,2.2-0.1,3.4,0
		c0.8,0.1,1.1-0.3,1.3-1c0.5-2.3,1.1-4.5,1.6-6.8c0.1-0.7,0.4-0.9,1.1-0.9c2,0.1,3.9,0,5.9,0c2.2,0,2.9,1,2.4,3.1
		c-0.4,1.6-0.7,3.2-1.1,4.8c-0.2,0.6,0,0.8,0.6,0.8c1.4,0,2.8,0,4.2,0c0.5,0,0.8-0.2,0.9-0.7c0.4-1.9,1-3.8,1.4-5.7
		C313.1,55.7,312.6,54.5,310.7,53.3z M378.6,64.4c2.2,0,3.9,0,5.7-0.2c3.2-0.4,5.4-1.9,6.6-5c0.5-1.4,1-2.8,1.2-4.3
		c0.5-3.6-0.8-5.4-4.4-6c-2.3-0.4-4.7-0.2-7.1-0.4c-0.7-0.1-1.5-0.1-1.8-0.9c-0.6-1.3,0.7-4.4,2.1-4.7c2.1-0.6,4.2-0.5,6.3-0.2
		c1,0.1,1.3,0.7,1.3,1.7c0,0.6-0.5,1.5,0,1.9c0.5,0.3,1.3,0.1,2,0.1c0.1,0,0.2,0,0.2,0c3.1,0,3.4-0.2,3.4-3.5c0.1-2.5-1.1-4-3.6-4.5
		c-3.3-0.6-6.7-0.4-10-0.1c-3.8,0.4-6,2.6-7,6.1c-0.3,0.9-0.4,1.8-0.6,2.7c-0.5,3.8,0.9,5.5,4.7,6c0.2,0,0.3,0,0.5,0
		c2.2,0.4,4.5,0.2,6.7,0.4c1,0.1,1.6,0.5,1.6,1.6c0.1,2.4-1.4,4.2-3.7,4.7c-1.9,0.4-3.7,0-5.6-0.1c-1.1-0.1-1.4-0.8-1.4-1.9
		c0-0.8,0.8-1.8,0.1-2.3c-0.6-0.4-1.6-0.1-2.5-0.1c-2.7,0-2.7,0-3.2,2.6c-0.6,3.6,0.8,5.6,4.4,6.1C376,64.4,377.5,64.3,378.6,64.4z
		 M332.7,38.1c-0.9,0-1.8,0.1-2.8,0c-0.8-0.1-1.2,0.3-1.6,0.9c-2.2,3.9-4.4,7.7-6.6,11.5c-2.4,4.2-4.8,8.4-7.2,12.6
		c-0.7,1.2-0.7,1.2,0.7,1.2c1.2,0,2.5,0,3.7,0c0.6,0,0.9-0.2,1.2-0.7c0.6-1.2,1.3-2.4,2-3.6c0.3-0.5,0.6-0.7,1.1-0.7
		c3,0,5.9,0,8.9,0c0.8,0,0.9,0.3,1,1c0,1,0.2,2.1,0.2,3.1c0,0.7,0.3,0.9,0.9,0.9c1.2,0,2.5-0.1,3.7,0c1.1,0.1,1.2-0.4,1.1-1.3
		c-0.3-2.1-0.4-4.1-0.6-6.2c-0.6-5.9-1.2-11.8-1.7-17.8c-0.1-0.7-0.3-1-1-0.9C334.7,38.2,333.7,38.1,332.7,38.1z M232,64.3
		c1.8,0,3.6,0,5.4,0c1.2,0,2.7,0.5,3.5-0.2c0.7-0.7,0.7-2.2,1-3.4c0.3-1,0-1.2-1-1.2c-3.4,0.1-6.8,0-10.2,0c-1,0-1.1-0.3-0.9-1.2
		c0.4-1.5,0.8-3,1.1-4.5c0.1-0.6,0.4-0.8,1-0.8c2.6,0,5.3,0,7.9,0c3.2,0,3.2,0,3.9-3.1c0.2-0.9,0.1-1.3-1-1.2c-3.2,0.1-6.4,0-9.6,0
		c-0.9,0-1.1-0.3-0.9-1.1c0.3-1.3,0.7-2.5,0.9-3.8c0.1-0.8,0.5-1,1.3-1c3.5,0,7,0,10.4,0c0.8,0,1.2-0.1,1.3-1c0.1-1,0.4-2,0.7-2.9
		c0.2-0.7,0-0.9-0.7-0.9c-5.4,0-10.9,0-16.3,0c-0.7,0-0.9,0.2-1,0.8c-1.9,8.1-3.9,16.3-5.9,24.4c-0.2,0.9,0.1,1,0.8,1
		C226.6,64.3,229.3,64.3,232,64.3z M342.2,91.7c-0.1,0-0.2-0.1-0.2-0.1c-0.1-3.6-0.2-7.2-0.3-10.8c0-1,0.4-2.4-0.3-3
		c-0.7-0.6-2.1-0.1-3.1-0.2c-0.8-0.1-1.1,0.3-1.5,0.9c-2.1,4.2-4.3,8.4-6.5,12.6c-0.1,0.3-0.2,0.7-0.7,0.8c0-3.8,0-7.6,0-11.4
		c0-2.9,0-2.9-3-2.8c-0.6,0-0.9,0.1-0.9,0.9c0.1,5.6,0.2,11.3,0.3,16.9c0,0.6,0.2,0.8,0.8,0.8c1.2,0,2.4-0.1,3.6,0
		c0.7,0,1.1-0.2,1.4-0.9c1.8-3.7,3.7-7.3,5.6-11c0.2-0.3,0.2-0.8,0.6-1c0.2,0.2,0.1,0.5,0.1,0.8c0.1,3.6,0.2,7.2,0.2,10.8
		c0,1,0.3,1.3,1.3,1.2c1-0.1,2.1-0.1,3.1,0c0.8,0.1,1.2-0.3,1.5-1c2.5-5,5.1-10.1,7.6-15.1c1.3-2.5,1.3-2.5-1.6-2.6
		c-0.8,0-1.3,0.2-1.6,1c-1.9,4-3.9,7.9-5.8,11.8C342.6,90.9,342.4,91.3,342.2,91.7z M283.7,38.1c-2.1,0-4.2,0-6.2,0
		c-1.3,0-3.1-0.6-3.9,0.2c-0.8,0.8-0.8,2.6-1.2,3.9c-0.2,0.7,0,0.9,0.7,0.9c1.8,0,3.7,0,5.5,0c0.7,0,0.9,0.2,0.7,0.9
		c-0.4,1.3-0.6,2.6-1,3.9c-1.2,5.1-2.4,10.2-3.7,15.2c-0.2,0.9,0,1.2,0.9,1.1c1-0.1,2.1-0.1,3.1,0c1.2,0.2,1.5-0.4,1.8-1.5
		c1.5-6.3,3-12.6,4.5-18.8c0.2-0.7,0.4-0.9,1.1-0.9c1.9,0,3.8,0,5.8,0c0.7,0,1-0.2,1.1-0.9c0.2-1.1,0.4-2.2,0.8-3.3
		c0.3-0.8,0-0.9-0.7-0.9C289.8,38.1,286.7,38.1,283.7,38.1z M423.4,91.8c-0.1,0-0.2,0-0.2,0c-1.1-4.4-2.3-8.7-3.4-13.1
		c-0.2-0.7-0.5-1-1.3-1c-1.3,0.1-2.6,0.1-3.8,0c-1-0.1-1.4,0.3-1.6,1.2c-1.1,4.9-2.3,9.7-3.5,14.6c-0.7,2.8-0.7,2.8,2.2,2.8
		c0.8,0,1-0.3,1.2-1c0.6-2.9,1.3-5.8,2-8.8c0.3-1.4,0.7-2.9,1-4.3c0.3,0.2,0.4,0.4,0.4,0.6c1.1,4.2,2.2,8.3,3.3,12.5
		c0.2,0.7,0.5,1,1.2,0.9c1.3-0.1,2.6-0.1,4,0c1,0.1,1.3-0.3,1.5-1.2c1.1-4.9,2.3-9.7,3.5-14.6c0.7-3,0.7-2.9-2.4-2.9
		c-0.7,0-0.9,0.3-1,0.9c-0.5,2.1-1,4.3-1.5,6.4C424.5,87.3,424,89.5,423.4,91.8z M228,86.7c2.5-1.5,2.9-3.7,3-6.1
		c0.1-1.3-0.6-2.1-1.9-2.6c-0.7-0.2-1.4-0.3-2.1-0.3c-3,0-5.9,0-8.9,0c-0.8,0-1,0.3-1.2,1c-1.3,5.5-2.6,11.1-4,16.6
		c-0.2,0.9,0.1,1,0.8,1c2.9,0,5.8,0,8.7,0c4,0.1,6.2-1.7,6.9-6.5C229.6,88.6,229.4,87.4,228,86.7z M177.1,64.3c2.6,0,5.2,0,7.8,0
		c0.7,0,1.1-0.1,1.2-0.9c0.2-1.1,0.4-2.1,0.7-3.1c0.3-1-0.1-1-0.9-1c-2.5,0-5,0-7.4,0c-1,0-2.4,0.5-2.9-0.2
		c-0.5-0.7,0.3-1.9,0.5-2.9c1.3-5.7,2.7-11.3,4.1-17c0.2-0.8,0-1-0.8-1c-1.2,0.1-2.5,0.1-3.7,0c-0.7,0-1,0.2-1.1,0.9
		c-1.9,8.1-3.9,16.3-5.8,24.4c-0.2,0.8-0.1,1,0.7,0.9C171.9,64.3,174.5,64.3,177.1,64.3z M390,96.3C390,96.3,390,96.3,390,96.3
		c1.6,0,3.1,0,4.7,0c2.9-0.1,5-1.4,6.2-4c1.5-3.1,2.3-6.5,2.7-9.9c0.3-2.4-0.9-3.9-3.2-4.4c-0.7-0.2-1.4-0.2-2.1-0.2
		c-2.8,0-5.7,0-8.5,0c-0.7,0-1,0.2-1.2,0.9c-1.3,5.6-2.6,11.2-4,16.8c-0.2,0.9,0.1,0.9,0.8,0.9C386.8,96.3,388.4,96.3,390,96.3z
		 M443,86.2c-1.1,0-2.2,0-3.4,0c-0.5,0-0.8,0.1-0.9,0.6c-0.7,2.4-0.7,2.4,1.8,2.4c0,0,0.1,0,0.1,0c0.6,0.1,1.6-0.3,1.9,0.2
		c0.3,0.7-0.3,1.5-0.7,2.2c-0.4,0.7-1.1,1.1-2,1.2c-1.3,0.2-2.5,0.2-3.8,0.1c-1.7-0.2-2.1-0.6-1.9-2.3c0.4-2.6,1-5.1,1.8-7.6
		c0.3-0.9,0.9-1.6,1.9-1.9c1.7-0.4,3.4-0.5,5.1-0.1c0.6,0.1,1.2,0.5,1.1,1.2c-0.2,1.4,0.6,1.3,1.5,1.3c0.6,0,1.1,0,1.7,0
		c0.3,0,0.5,0,0.7-0.3c1.3-2.1,0-5.1-2.5-5.5c-2.3-0.4-4.6-0.3-6.9-0.1c-3.3,0.2-5.5,2.1-6.6,5.1c-1.1,2.9-1.7,5.9-2,9
		c-0.3,2.3,0.9,3.8,3.2,4.3c2.5,0.6,5,0.5,7.5,0.2c2.3-0.2,3.9-1.4,4.9-3.5c0.8-1.8,1.1-3.8,1.6-5.8c0.1-0.6-0.1-0.8-0.7-0.8
		C445.3,86.2,444.1,86.2,443,86.2z M175.6,89.3c-0.7,3-1.2,3.5-4,3.8c-1,0.1-1.9,0-2.9-0.1c-1.4-0.2-1.9-0.8-1.7-2.2
		c0.5-2.6,1-5.1,1.8-7.6c0.3-0.9,0.8-1.7,1.8-1.9c1.7-0.5,3.5-0.5,5.2-0.1c0.6,0.1,1.2,0.5,1.1,1.2c-0.2,1.4,0.6,1.3,1.5,1.3
		c0.6,0,1.1,0,1.7,0c0.3,0,0.5,0,0.7-0.3c1.3-2.3-0.1-5.1-2.6-5.5c-2.2-0.3-4.5-0.3-6.7-0.1c-2.8,0.2-5,1.5-6.2,4.1
		c-1.5,3.3-2.2,6.8-2.5,10.4c-0.2,2.1,0.9,3.4,3,3.9c2.5,0.6,5.1,0.5,7.6,0.3c2.4-0.2,4-1.4,5-3.6c0.8-1.8,1.1-3.8,1.6-5.8
		c0.2-0.7-0.2-0.7-0.7-0.7c-1.6,0-3.3,0-4.9,0c-2.9,0-2.9,0-3.3,2.9c0,0,0,0.1,0.1,0.2C172.7,89.3,174.1,89.3,175.6,89.3z
		 M381.6,88.5c1-0.4,1.8-0.8,2.3-1.7c1.1-1.8,1.6-3.8,1.5-6c0-1.6-0.9-2.4-2.4-2.9c-0.8-0.2-1.6-0.3-2.4-0.3c-2.8,0-5.5,0-8.3,0
		c-0.8,0-1.1,0.3-1.3,1c-1.1,4.9-2.3,9.8-3.5,14.7c-0.7,3.1-0.7,3.1,2.5,2.9c0.5,0,0.8-0.2,0.9-0.7c0.3-1.5,0.8-3,1.1-4.5
		c0.1-0.7,0.4-0.8,1.1-0.8c1.4,0,2.7,0,4.1,0c1.5,0,1.9,0.5,1.7,2c-0.2,1.1-0.5,2.2-0.7,3.3c-0.1,0.4-0.2,0.7,0.4,0.8
		c2.8,0.4,3.3,0.1,4-2.6c0.1-0.5,0.2-0.9,0.4-1.4C383.1,90.8,383.1,89.4,381.6,88.5z M318.9,88.5c1.7-0.6,2.5-1.7,3-3.1
		c0.4-1.1,0.6-2.1,0.8-3.2c0.4-2.4-0.6-3.8-3-4.3c-0.6-0.1-1.2-0.1-1.8-0.1c-2.7,0-5.4,0-8.2,0c-0.9,0-1.1,0.3-1.3,1.1
		c-1.1,4.9-2.3,9.8-3.5,14.7c-0.7,2.9-0.7,2.9,2.4,2.8c0.7,0,1-0.3,1.1-0.9c0.3-1.5,0.7-2.9,1-4.4c0.1-0.5,0.3-0.8,0.9-0.7
		c1.5,0,3,0,4.4,0c1.3,0,1.7,0.5,1.5,1.8c-0.2,1.1-0.5,2.2-0.7,3.3c-0.2,0.7-0.1,1.1,0.7,1c0.8-0.1,1.5-0.1,2.3,0
		c0.6,0,0.8-0.3,1-0.8c0.3-1.2,0.5-2.3,0.8-3.5C320.5,90.6,320.4,89.4,318.9,88.5z M202.1,96.5c1,0.1,2.1-0.1,3.2-0.2
		c2.7-0.4,4.6-1.7,5.6-4.3c1.1-3.1,1.9-6.3,2.4-9.6c0.3-2.2-0.7-3.8-2.9-4.3c-2.7-0.7-5.4-0.7-8.1,0c-1.7,0.4-3.2,1.4-4,3.1
		c-1.7,3.6-2.8,7.5-3,11.5c-0.1,1.9,0.9,3,2.6,3.5C199.3,96.4,200.6,96.5,202.1,96.5z M294,96.4c0.6,0,1.1,0,1.7,0
		c3.3-0.2,6.1-1.2,7.3-4.7c1-2.9,1.7-5.9,2.2-8.9c0.5-2.8-0.7-4.5-3.4-5c-1.8-0.3-3.7-0.4-5.5-0.2c-2.9,0.3-5.2,1.4-6.3,4.2
		c-1.3,3.3-2.3,6.6-2.6,10.2c-0.2,2.3,1,3.8,3.3,4.3C291.8,96.4,292.9,96.5,294,96.4z M360.3,77.7c-0.7,0-1.4,0-2,0
		c-0.5,0-0.7,0.2-0.9,0.6c-3.3,5.8-6.6,11.5-9.9,17.2c-0.3,0.6-0.2,0.7,0.4,0.8c3.1,0.2,3.1,0.2,4.7-2.5c0.1-0.1,0.1-0.2,0.2-0.3
		c0.2-0.5,0.5-0.6,1-0.6c2,0,4.1,0,6.1,0c0.6,0,0.8,0.2,0.8,0.8c0,0.9-0.2,2,0.4,2.5c0.6,0.5,1.8,0.1,2.7,0.2c0.1,0,0.2,0,0.2,0
		c0.7,0.1,1-0.1,0.9-0.9c-0.5-4.9-1-9.8-1.5-14.8C363.1,77.7,363.1,77.7,360.3,77.7z M242.8,77.7c-0.7,0-1.4,0-2,0
		c-0.5,0-0.7,0.2-1,0.5c-3.3,5.8-6.6,11.5-9.9,17.2c-0.3,0.5-0.3,0.7,0.4,0.8c3.1,0.2,3.1,0.2,4.7-2.5c0.1-0.1,0.1-0.2,0.2-0.3
		c0.2-0.5,0.5-0.6,1-0.6c2,0,4.1,0,6.1,0c0.6,0,0.8,0.2,0.8,0.8c0,0.9-0.2,2,0.4,2.5c0.6,0.6,1.8,0.1,2.7,0.2c0,0,0.1,0,0.1,0
		c0.8,0.1,1.1-0.1,1-1c-0.5-4.9-1-9.8-1.5-14.7C245.5,77.7,245.5,77.7,242.8,77.7z M191.2,64.3c0.6,0,1.2,0,1.8,0
		c0.8,0.1,1.1-0.2,1.3-1c0.3-1.4,0.7-2.8,1-4.2c1.6-6.7,3.2-13.3,4.8-20c0.2-0.8,0.1-1.1-0.8-1c-1.2,0.1-2.3,0.1-3.5,0
		c-1-0.1-1.2,0.4-1.4,1.2c-1.8,7.5-3.6,14.9-5.3,22.3C188.4,64.3,188.4,64.3,191.2,64.3z M283.7,81.1c0.6,0,1.2,0,1.8,0
		c2.5,0,2.4,0,3.1-2.4c0.2-0.9,0-1-0.8-1c-3.4,0-6.8,0.1-10.2,0c-1,0-1.3,0.4-1.6,1.3c-1.1,4.8-2.3,9.5-3.4,14.3
		c-0.8,3.2-0.7,3.2,2.5,3c0.6,0,0.8-0.2,0.9-0.8c0.4-1.9,0.9-3.9,1.4-5.8c0.1-0.7,0.4-0.9,1.1-0.9c1.6,0.1,3.2,0,4.8,0
		c2.4,0,2.4,0,2.9-2.3c0.2-0.8,0-1-0.8-1c-2,0.1-4.1,0-6.1,0c-0.3,0-0.9,0.2-0.8-0.4c0.2-1.3,0.3-2.6,0.9-3.7
		c0.4-0.7,1.6-0.2,2.5-0.3C282.6,81,283.2,81.1,283.7,81.1z M255.4,96.3c1.2,0,2.3,0,3.5,0c2.7,0,2.7,0,3.3-2.7
		c0.2-0.7,0-0.8-0.6-0.8c-2.1,0-4.2,0-6.2,0c-1.1,0-1.3-0.3-1-1.3c1.1-4.3,2.1-8.5,3.1-12.8c0.1-0.3,0.4-0.8-0.1-0.9
		c-1.1-0.1-2.2,0-3.4,0c-0.3,0-0.4,0.4-0.4,0.6c-1.4,5.7-2.7,11.3-4.1,17c-0.2,0.8,0.1,0.9,0.8,0.9
		C251.9,96.3,253.7,96.3,255.4,96.3z M186.6,96.3c1.2,0,2.3,0,3.5,0c2.8,0,2.7,0,3.3-2.7c0.2-0.8-0.1-0.9-0.8-0.9
		c-2.1,0-4.2,0-6.2,0c-0.9,0-1.2-0.1-0.9-1.1c1.1-4.3,2.1-8.5,3.1-12.8c0.2-0.8,0.1-1.2-0.8-1.1c-0.7,0.1-1.4,0.1-2,0
		c-0.6,0-0.9,0.2-1.1,0.8c-1.3,5.6-2.7,11.3-4.1,16.9c-0.2,0.7,0,0.9,0.7,0.9C183,96.2,184.8,96.3,186.6,96.3z M404.7,96.3
		c1.9,0,1.9,0,2.3-1.8c1.1-4.7,2.3-9.4,3.4-14.1c0.6-2.7,0.6-2.7-2.1-2.7c-0.9,0-1.2,0.3-1.4,1.1c-1.2,5.2-2.4,10.3-3.7,15.5
		C402.7,96.3,402.6,96.3,404.7,96.3z M428.3,120.8c-0.3-0.7-0.5-1.1-0.6-1.6c-0.9-2.2-1.8-4.5-2.6-6.7c-0.2-0.5-0.5-0.7-1.1-0.7
		c-0.4,0-0.7,0.1-0.8,0.6c-0.8,3.2-1.7,6.4-2.5,9.6c-0.1,0.2-0.2,0.5,0.1,0.6c0.3,0.1,0.7,0.2,0.8-0.2c0.1-0.2,0.2-0.5,0.2-0.8
		c0.7-2.6,1.3-5.1,2-7.7c0.4,0.3,0.5,0.8,0.6,1.2c0.9,2.3,1.8,4.6,2.7,6.9c0.2,0.5,0.5,0.7,1.1,0.7c0.4,0,0.6-0.1,0.8-0.6
		c0.8-3.2,1.7-6.4,2.5-9.6c0.1-0.2,0.2-0.5-0.1-0.6c-0.3-0.1-0.7-0.2-0.9,0.2c-0.1,0.3-0.2,0.6-0.3,0.9
		C429.7,115.5,429,118.1,428.3,120.8z M259.6,113.8c0.5,0.3,0.5,0.7,0.6,1.1c0.9,2.3,1.8,4.7,2.7,7c0.2,0.5,0.5,0.7,1.1,0.7
		c0.6,0,0.7-0.3,0.8-0.8c0.8-3.1,1.6-6.2,2.4-9.3c0.1-0.3,0.4-0.6-0.2-0.7c-0.4,0-0.7-0.1-0.8,0.4c0,0.3-0.2,0.5-0.2,0.8
		c-0.7,2.5-1.3,5-2,7.7c-1.1-2.9-2.2-5.5-3.2-8.2c-0.2-0.6-0.5-0.8-1.1-0.8c-0.7,0-0.7,0.5-0.9,0.9c-0.8,2.9-1.5,5.9-2.3,8.8
		c-0.1,0.3-0.6,0.8,0.1,1c0.6,0.2,0.8-0.3,0.9-0.8C258.2,119.1,258.9,116.5,259.6,113.8z M368.6,113.9c0.5,0.4,0.5,0.8,0.7,1.2
		c0.9,2.2,1.7,4.5,2.6,6.7c0.2,0.6,0.4,0.9,1.2,0.9c0.7,0,0.7-0.5,0.8-1c0.8-2.9,1.5-5.9,2.3-8.8c0.1-0.3,0.5-0.8-0.1-1
		c-0.6-0.2-0.8,0.2-0.9,0.7c-0.6,2.4-1.2,4.8-1.8,7.2c-0.1,0.2,0,0.6-0.4,0.6c-0.2-0.4-0.4-0.9-0.5-1.3c-0.9-2.2-1.8-4.5-2.6-6.7
		c-0.2-0.5-0.5-0.6-1-0.6c-0.4,0-0.7,0.1-0.8,0.5c-0.8,3.2-1.7,6.4-2.5,9.6c-0.1,0.2-0.1,0.5,0.2,0.6c0.3,0.1,0.7,0.1,0.8-0.3
		c0.1-0.4,0.2-0.8,0.3-1.1C367.3,118.8,367.9,116.4,368.6,113.9z M167.5,119.2c0,2.4,1.6,3.7,4.1,3.5c3.5-0.3,6.2-3.3,6.3-7.2
		c0.1-2.4-1.2-3.8-3.6-3.9C170.6,111.5,167.5,114.9,167.5,119.2z M363.4,115.2c0-2.5-1.9-3.9-4.7-3.5c-3.1,0.5-5.3,3-5.7,6.7
		c-0.3,3.1,1.2,4.6,4.3,4.3C360.8,122.3,363.5,119,363.4,115.2z M273.9,111.8c-0.5,0-0.8,0-1.2,0c-1-0.2-1.5,0.2-1.7,1.3
		c-0.4,2.1-1.1,4.1-1.5,6.1c-0.3,1.1-1.2,2.6-0.6,3.2c0.7,0.6,2.3,0.2,3.5,0.2c3.8-0.3,6.7-3.5,6.5-7.4c-0.1-1.6-0.9-2.7-2.5-3.1
		C275.5,111.8,274.7,111.9,273.9,111.8z M318,122.6c4.7,0,7.3-2.1,8-6.5c0.4-2.3-0.9-4-3.3-4.2c-1.1-0.1-2.2,0-3.2-0.1
		c-0.7,0-1,0.2-1.1,0.9c-0.6,2.6-1.3,5.2-2,7.8C315.8,122.6,315.8,122.6,318,122.6z M187.7,117c-0.4,0-0.9,0-1.3,0
		c-0.5,0-0.6,0.4-0.6,0.8c0,0.5,0.4,0.3,0.6,0.4c0.5,0.2,1.5-0.5,1.5,0.5c0.1,2.3-0.8,3.2-3.2,3.1c-0.2,0-0.5,0-0.7-0.1
		c-1.7-0.3-2.5-1.3-2.4-3c0.2-4.2,3.5-6.6,7.5-5.5c0.6,0.2,1,0.1,1.2-0.5c0.2-0.7-0.5-0.6-0.8-0.7c-4.7-1.3-9.3,2.3-9.3,7.2
		c0,2,1.1,3.2,3,3.5c1,0.2,2.1,0,3.1-0.1c1.2-0.1,2.1-0.5,2.2-1.9c0-0.6,0.3-1.2,0.5-1.9C189.6,116.9,189.6,116.9,187.7,117z
		 M441,116.9c-0.3,0-0.6,0-1,0c-0.2,0-0.3,0-0.5,0c-0.5,0-0.6,0.4-0.6,0.8c0,0.4,0.4,0.2,0.6,0.3c0.5,0.2,1.3-0.4,1.5,0.4
		c0.3,1.8-0.9,3.2-2.8,3.2c-0.4,0-0.7,0-1.1-0.1c-1.8-0.3-2.5-1.3-2.4-3.1c0.2-4.2,3.5-6.6,7.6-5.4c0.7,0.2,1.1,0,1.2-0.5
		c0.2-0.7-0.5-0.6-0.8-0.7c-4.8-1.3-9.3,2.3-9.3,7.3c0,1.9,1.1,3.1,3,3.5c1.1,0.2,2.2,0,3.3-0.1c1.2-0.1,1.9-0.5,2-1.8
		c0.1-0.7,0.3-1.4,0.5-2.1C442.8,116.9,442.8,116.9,441,116.9z M300,111.9C300,111.9,300,111.8,300,111.9c-0.3,0-0.6,0-0.8,0
		c-1.2-0.2-1.6,0.3-1.9,1.5c-0.6,2.8-1.4,5.6-2.1,8.3c-0.1,0.3-0.5,0.8,0.2,0.9c0.5,0.1,0.8-0.1,0.9-0.6c0.2-1,0.5-1.9,0.7-2.9
		c0.1-0.7,0.4-1.1,1.2-1c0.7,0.1,1.4-0.2,1.6,0.9c0.2,1.1,0.7,2.1,1,3.2c0.2,0.7,0.8,0.5,1.2,0.4c0.6-0.1,0.2-0.6,0.1-0.8
		c-0.3-1.1-0.7-2.1-1.1-3.2c-0.2-0.5-0.1-0.8,0.5-1.1c1-0.4,1.8-1.2,2.1-2.3c0.6-2-0.1-3.1-2.2-3.3C301,111.8,300.5,111.9,300,111.9
		z M244.2,122.4c0.9,0.4,1.3,0.1,1.6-0.6c0.9-2.4,2.8-3.1,5.2-2.7c0.6,0.1,1,0.2,1,0.9c0,0.7,0.2,1.3,0.2,2c0.1,0.6,0.5,0.5,0.9,0.5
		c0.5,0,0.4-0.4,0.4-0.7c-0.4-3.1-0.8-6.3-1.2-9.4c0-0.3,0-0.7-0.4-0.8c-0.4-0.1-0.8,0.1-1,0.5C248.7,115.6,246.5,119,244.2,122.4z
		 M303.8,122.5c0.8,0.3,1.2,0.1,1.6-0.5c0.2-0.5,0.6-0.9,0.8-1.3c0.5-1.2,1.4-1.6,2.7-1.5c2.5,0.1,2.5,0,3,2.5c0.1,0.4,0,1,0.8,0.9
		c0.9-0.1,0.5-0.7,0.5-1.1c-0.4-3-0.8-6-1.2-9c0-0.3,0-0.7-0.4-0.7c-0.4-0.1-0.7,0-0.9,0.4c-0.4,0.6-0.7,1.1-1.1,1.7
		C307.6,116.7,305.7,119.6,303.8,122.5z M385.4,122.5c1.2,0.1,1.3,0.1,2.1-1.3c0.8-1.6,2-2.2,3.8-2.1c2,0.2,2-0.3,2.2,2
		c0,0.3,0.1,0.6,0.1,0.8c0,0.6,0.4,0.7,0.9,0.7c0.6,0,0.4-0.5,0.3-0.8c-0.4-3-0.8-6.1-1.2-9.1c0-0.4,0.1-0.8-0.5-0.9
		c-0.5,0-0.7,0.2-1,0.5C389.9,115.7,387.7,119,385.4,122.5z M330.7,122.6c1,0,1.8,0,2.6,0c0.6,0,0.7-0.4,0.7-0.8
		c0-0.5-0.4-0.3-0.7-0.3c-0.3,0-0.6,0-0.8,0c-3.2,0-3.2,0-2.3-3.1c0.2-0.8,0.5-0.9,1.2-0.9c0.9,0,1.8,0,2.8,0c0.5,0,0.9-0.1,0.9-0.7
		c0-0.6-0.5-0.3-0.8-0.4c-0.4,0-0.7,0-1.1,0c-2.5,0-2.5,0-1.8-2.5c0.2-0.8,0.6-1.1,1.4-1.1c1,0.1,2,0,3,0c0.5,0,0.8-0.1,0.8-0.7
		c0-0.6-0.5-0.4-0.8-0.4c-1.4,0-2.7,0-4.1,0c-0.7,0-1,0.2-1.2,0.9c-0.5,2.3-1.2,4.6-1.8,6.9c-0.2,0.9-0.9,2.2-0.5,2.7
		C328.6,123,329.9,122.5,330.7,122.6z M198.7,122.7c2.8,0,4.5-1.1,5.1-3c0.3-1.1,0-2-1-2.5c-0.7-0.4-1.5-0.6-2.2-1
		c-1-0.5-1.2-1.3-0.6-2.2c0.4-0.8,1.1-1.1,2-1.2c0.8-0.1,1.7,0,2.5,0.4c0.6,0.2,0.7-0.3,0.9-0.6c0.2-0.3,0-0.4-0.3-0.5
		c-1.7-0.9-4.6-0.3-5.8,1.2c-1.2,1.5-0.9,3.3,0.9,4.2c0.4,0.2,0.7,0.3,1.1,0.5c0.7,0.4,1.5,0.7,1.4,1.7c-0.1,1-0.7,1.6-1.7,2
		c-1.2,0.4-2.4,0.2-3.5-0.2c-0.5-0.2-0.7-0.1-0.9,0.4c-0.1,0.5,0.1,0.7,0.5,0.7C197.7,122.6,198.3,122.7,198.7,122.7z M233.1,122.8
		c1.8-0.1,3.2-0.3,4.3-1.5c1.5-1.7,1.1-3.4-0.8-4.3c-0.3-0.2-0.7-0.3-1-0.4c-0.8-0.4-1.6-0.8-1.4-1.9c0.2-1.1,1-1.6,2-1.7
		c0.9-0.1,1.8,0,2.6,0.3c0.6,0.2,0.7-0.3,0.8-0.6c0.2-0.4-0.2-0.5-0.4-0.5c-1.8-0.6-3.5-0.6-5,0.6c-2,1.5-1.8,3.9,0.5,4.9
		c0.3,0.1,0.5,0.2,0.8,0.3c0.8,0.4,1.6,0.7,1.5,1.8c-0.1,1.1-0.8,1.7-1.8,2c-1.2,0.3-2.3,0.1-3.4-0.2c-0.4-0.1-0.7-0.1-0.8,0.4
		c-0.1,0.4,0,0.7,0.5,0.8C232.1,122.6,232.7,122.7,233.1,122.8z M379.4,122.8c2.7,0,4.4-1,5-2.8c0.4-1.3,0.1-2.1-1-2.7
		c-0.7-0.4-1.4-0.6-2-1c-1.1-0.6-1.2-1.7-0.4-2.6c0.5-0.5,1.1-0.8,1.8-0.8c0.8-0.1,1.6,0,2.3,0.3c0.6,0.2,0.7-0.2,0.9-0.5
		c0.2-0.5-0.2-0.5-0.5-0.6c-1.7-0.5-3.4-0.5-4.9,0.6c-2.1,1.5-1.8,3.8,0.5,4.9c0.3,0.1,0.6,0.2,0.9,0.4c0.7,0.3,1.5,0.7,1.4,1.7
		c-0.1,1-0.7,1.6-1.7,1.9c-1.2,0.4-2.3,0.2-3.4-0.1c-0.4-0.1-0.8-0.3-0.9,0.3c-0.2,0.6,0.2,0.8,0.7,0.9
		C378.4,122.7,379,122.7,379.4,122.8z M349.5,121.4c-0.9,0.1-1.8,0.3-2.6,0.3c-1.5,0-2.6-0.7-2.8-1.8c-0.4-2.2,0.3-4.1,1.8-5.7
		c1.4-1.4,3.1-1.7,5-1.1c0.7,0.3,1-0.1,1.2-0.6c0.2-0.6-0.5-0.5-0.8-0.6c-3.4-1-6.8,0.9-8.2,4.5c-1.7,4.5,0.3,6.9,5,6.2
		c0.1,0,0.2,0,0.4-0.1C349.3,122.4,349.6,122.1,349.5,121.4z M228.8,111.7c-4,0-6.7,2.6-7.3,6.8c-0.2,1.5-0.1,2.9,1.3,3.7
		c1.6,1,3.4,0.7,5.1,0.2c0.3-0.1,0.4-0.4,0.3-0.7c-0.1-0.5-0.4-0.2-0.7-0.2c-0.6,0.1-1.3,0.2-1.9,0.2c-1.5,0-2.4-0.6-2.8-1.8
		c-0.8-2.7,1.4-6.5,4.2-7c1-0.2,1.9-0.1,2.8,0.3c0.6,0.3,0.8-0.2,1-0.6c0.3-0.6-0.3-0.5-0.6-0.6C229.7,111.8,229,111.7,228.8,111.7z
		 M291,111.8c-1.2,0-2.3,0-3.5,0c-0.4,0-0.7,0.1-0.7,0.6c-0.1,0.6,0.4,0.5,0.7,0.5c0.4,0,0.9,0,1.3,0c1-0.1,1.2,0.3,0.9,1.2
		c-0.7,2.5-1.4,5.1-2,7.6c-0.1,0.2-0.4,0.6,0.1,0.8c0.3,0.1,0.7,0.2,0.9-0.2c0.1-0.2,0.2-0.5,0.2-0.8c0.7-2.6,1.4-5.2,2-7.8
		c0.2-0.7,0.5-1,1.2-1c0.7,0.1,1.4,0,2,0c0.4,0,0.5-0.3,0.6-0.6c0.1-0.5-0.4-0.4-0.6-0.4C293.2,111.8,292.1,111.8,291,111.8z
		 M411.5,111.8c-1.1,0-2.2,0-3.4,0c-0.5,0-0.9,0.1-0.9,0.7c0,0.6,0.5,0.4,0.8,0.4c0.4,0,0.8,0,1.2,0c1-0.1,1.3,0.2,1,1.2
		c-0.7,2.6-1.4,5.2-2,7.8c-0.1,0.2-0.4,0.6,0.1,0.7c0.3,0.1,0.6,0,0.8-0.1c0.3-0.1,0.2-0.5,0.3-0.7c0.7-2.6,1.4-5.2,2-7.8
		c0.2-0.9,0.6-1.2,1.5-1.1c0.6,0.1,1.1,0,1.7,0c0.5,0,0.7-0.3,0.7-0.7c0-0.5-0.5-0.3-0.7-0.3C413.6,111.8,412.6,111.8,411.5,111.8z
		 M215.7,112.2c0.1-0.4-0.2-0.4-0.4-0.4c-2.3,0-4.6,0-7,0c-0.4,0-0.7,0.2-0.7,0.6c0,0.5,0.4,0.4,0.7,0.4c0.5,0,1,0,1.6,0
		c0.9-0.1,1,0.2,0.8,1.1c-0.7,2.5-1.3,5-2,7.5c-0.1,0.3-0.6,0.9,0.1,1.1c0.7,0.2,0.9-0.3,1.1-0.9c0.5-2,1-3.9,1.6-5.9
		c0.2-0.9,0.3-2,0.8-2.6c0.6-0.7,1.7-0.2,2.6-0.3c0.2,0,0.3,0,0.5,0C215.6,112.8,215.6,112.5,215.7,112.2z M400.5,122.6
		c0.8,0,1.6,0,2.4,0c0.6,0,0.7-0.4,0.7-0.8c0-0.5-0.4-0.3-0.7-0.4c-0.9,0-1.8-0.1-2.8,0c-1.1,0.1-1.2-0.3-0.9-1.2
		c0.7-2.5,1.3-4.9,1.9-7.4c0.1-0.3,0.5-0.8-0.1-1c-0.6-0.2-0.9,0.1-1.1,0.7c-0.6,2.6-1.4,5.2-2,7.8c-0.6,2.2-0.6,2.2,1.8,2.2
		C400,122.6,400.3,122.6,400.5,122.6z M161.3,122.6c0.9,0,1.7,0,2.5,0c0.6,0,0.9-0.2,0.9-0.7c0-0.6-0.5-0.4-0.8-0.4
		c-1,0-1.9-0.1-2.9,0c-0.8,0-0.9-0.2-0.7-1c0.7-2.7,1.4-5.3,2.1-8c0.1-0.2,0.3-0.5,0-0.6c-0.3-0.1-0.7-0.2-0.9,0
		c-0.2,0.2-0.2,0.5-0.3,0.8c-0.6,2.3-1.2,4.6-1.8,6.9c-0.2,0.9-0.9,2.2-0.5,2.7C159.2,123.1,160.5,122.5,161.3,122.6z M195.7,112.1
		c0.1-0.2-0.1-0.3-0.4-0.3c-0.5-0.1-0.8,0.1-0.9,0.7c-0.8,3.1-1.6,6.1-2.4,9.1c-0.1,0.3-0.6,0.8,0.1,0.9c0.6,0.1,0.9-0.1,1-0.7
		c0.5-1.9,1-3.8,1.5-5.7C195,114.9,195.3,113.6,195.7,112.1z M219.5,112.5c0-0.3,0.2-0.6-0.3-0.6c-0.5-0.1-0.8,0-1,0.6
		c-0.8,3.1-1.6,6.2-2.4,9.4c-0.1,0.3-0.3,0.7,0.3,0.8c0.4,0.1,0.8,0.1,0.9-0.5C217.8,118.9,218.7,115.7,219.5,112.5z M419.2,112.6
		c0.2-0.6,0-0.8-0.4-0.8c-0.6-0.1-0.7,0.3-0.9,0.7c-0.8,3-1.6,6-2.3,9c-0.1,0.3-0.5,0.8,0.2,1c0.6,0.2,0.8-0.2,1-0.7
		c0.5-2.1,1.1-4.1,1.6-6.1C418.6,114.6,418.9,113.5,419.2,112.6z"/>
	<path class="st1" d="M79,0.2c0,0.1-0.1,0.2-0.1,0.2c-3,0-6.1,0-9.1,0c0-0.1-0.1-0.2-0.1-0.2C72.7,0.2,75.8,0.2,79,0.2z"/>
	<path class="st2" d="M69.7,0.5c3,0,6.1,0,9.1,0C88,0.9,96.8,3,105.1,7c22.4,10.7,36.6,28.1,41.6,52.4c8.5,40.8-18.2,78.8-56.7,87
		c-39,8.3-77.1-15.2-87.2-53.8C-7.6,53,17.1,11.9,56.8,2.4C61.1,1.4,65.4,0.6,69.7,0.5z M145.6,74.1c0-39.3-32-71.2-71.3-71.2
		C35,2.9,3.1,34.9,3.1,74.2c0,39.4,31.9,71.2,71.4,71.2C113.8,145.4,145.7,113.4,145.6,74.1z"/>
	<path class="st1" d="M361.8,58.5c1.5-6.5,3-12.7,4.4-19c0.2-1.1,0.6-1.5,1.8-1.4c1.1,0.1,2.2,0,3.2,0c0.6,0,0.8,0.1,0.7,0.8
		c-2,8.2-4,16.4-5.9,24.7c-0.1,0.5-0.4,0.8-1,0.8c-2.3,0-4.6-0.1-6.8,0c-0.8,0-1.1-0.4-1.3-1c-1.6-6.1-3.2-12.1-4.8-18.1
		c-0.1-0.3-0.2-0.7-0.4-1.2c-1.5,6.5-3,12.7-4.4,19c-0.2,1-0.6,1.5-1.7,1.4c-0.9-0.1-1.9-0.1-2.9,0c-1,0.1-1.2-0.2-1-1.2
		c1.1-4.4,2.2-8.8,3.2-13.3c0.8-3.5,1.7-7,2.5-10.5c0.2-1.1,0.7-1.4,1.7-1.3c2,0.1,4,0.1,6,0c0.9,0,1.3,0.2,1.5,1.1
		c1.5,6,3.1,12,4.7,17.9C361.5,57.5,361.6,57.9,361.8,58.5z"/>
	<path class="st1" d="M205,64.3c-2.3,0-4.6,0-6.8,0c-0.9,0-1-0.2-0.8-1c2-8.1,3.9-16.1,5.8-24.2c0.2-0.8,0.5-1,1.3-1
		c4.1,0,8.2,0,12.4,0c0.9,0,1.8,0.1,2.6,0.3c3.6,0.7,5.5,3.2,4.9,7.1c-0.6,4.2-1.6,8.4-3.3,12.3c-1.8,4.3-5.1,6.5-9.8,6.5
		C209.2,64.3,207.1,64.3,205,64.3z M207.9,59.4C207.9,59.4,207.9,59.4,207.9,59.4c1,0,1.9,0,2.9,0c2.1-0.1,4-0.6,4.9-2.7
		c1.6-3.6,2.3-7.4,2.8-11.2c0.2-1.4-0.5-2-1.9-2.3c-0.6-0.1-1.3-0.2-1.9-0.2c-1.9,0-3.8,0-5.6,0c-0.9,0-1.2,0.3-1.4,1.1
		c-1.1,4.7-2.2,9.3-3.3,14c-0.3,1.4-0.3,1.4,1.2,1.4C206.3,59.4,207.1,59.4,207.9,59.4z"/>
	<path class="st1" d="M264.7,53.3c1.9,1.2,2.4,2.4,1.9,4.6c-0.4,1.9-0.9,3.8-1.3,5.7c-0.1,0.5-0.4,0.7-0.9,0.7c-1.4,0-2.8,0-4.2,0
		c-0.6,0-0.7-0.2-0.6-0.8c0.4-1.6,0.8-3.3,1.2-4.9c0.4-1.9-0.2-2.9-2.2-2.9c-2.1-0.1-4.2,0-6.4,0c-0.7,0-0.7,0.4-0.9,0.9
		c-0.5,2.2-1.1,4.5-1.6,6.8c-0.2,0.8-0.5,1.1-1.3,1c-1.2-0.1-2.3-0.1-3.5,0c-0.8,0-1-0.1-0.8-1c1.8-7.2,3.5-14.5,5.2-21.7
		c0.3-1.1,0.3-2.6,1-3.2c0.8-0.7,2.3-0.2,3.5-0.2c3.3,0,6.6,0,9.8,0c1.3,0,2.6,0.2,3.9,0.7c1.5,0.6,2.3,1.7,2.4,3.3
		c0.2,3-0.5,5.9-1.9,8.5C267.5,52,266.2,52.8,264.7,53.3z M258.9,43.1c-1.3,0-2.4,0-3.4,0c-0.6,0-0.9,0.2-1,0.8
		c-0.5,2.1-1,4.3-1.5,6.4c-0.2,0.7-0.1,0.9,0.6,0.8c1.4,0,2.7,0,4.1,0c4.8,0,5.7-0.8,6.5-5.5c0-0.1,0-0.2,0-0.2
		c0.2-1.3-0.2-1.8-1.5-2.1C261.3,42.9,260,43.1,258.9,43.1z"/>
	<path class="st1" d="M310.7,53.3c1.9,1.2,2.4,2.4,1.9,4.6c-0.4,1.9-0.9,3.8-1.4,5.7c-0.1,0.5-0.3,0.7-0.9,0.7c-1.4,0-2.8,0-4.2,0
		c-0.6,0-0.8-0.1-0.6-0.8c0.4-1.6,0.8-3.2,1.1-4.8c0.5-2.1-0.2-3-2.4-3.1c-2,0-3.9,0-5.9,0c-0.7,0-1,0.2-1.1,0.9
		c-0.5,2.3-1.1,4.5-1.6,6.8c-0.2,0.7-0.4,1.1-1.3,1c-1.1-0.1-2.2-0.1-3.4,0c-0.9,0.1-1.2-0.1-0.9-1.1c1.7-6.9,3.3-13.7,5-20.6
		c0.3-1.2,0.6-2.4,0.9-3.6c0.1-0.6,0.3-0.9,1.1-0.9c4.3,0,8.6,0,13,0c0.8,0,1.6,0.1,2.4,0.3c2.5,0.6,3.7,2,3.6,4.6
		c0,2.6-0.7,5-1.8,7.3C313.7,51.8,312.5,52.8,310.7,53.3z M304.9,43.1c-1.3,0-2.4,0-3.5,0c-0.5,0-0.8,0.1-0.9,0.7
		c-0.5,2.2-1,4.4-1.6,6.6c-0.2,0.6,0.1,0.7,0.6,0.7c1.4,0,2.7,0,4.1,0c4.9,0,5.9-0.8,6.6-5.7c0-0.1,0-0.2,0-0.2
		c0.1-1.2-0.3-1.7-1.4-1.9C307.4,42.9,306.1,43.1,304.9,43.1z"/>
	<path class="st1" d="M378.6,64.4c-1.1,0-2.6,0.1-4-0.2c-3.6-0.6-5-2.5-4.4-6.1c0.5-2.6,0.5-2.6,3.2-2.6c0.8,0,1.9-0.3,2.5,0.1
		c0.6,0.5-0.1,1.5-0.1,2.3c0,1,0.3,1.8,1.4,1.9c1.9,0.1,3.7,0.5,5.6,0.1c2.4-0.5,3.8-2.3,3.7-4.7c0-1-0.6-1.5-1.6-1.6
		c-2.2-0.3-4.5,0-6.7-0.4c-0.2,0-0.3,0-0.5,0c-3.8-0.5-5.2-2.2-4.7-6c0.1-0.9,0.3-1.8,0.6-2.7c1.1-3.5,3.3-5.7,7-6.1
		c3.3-0.4,6.7-0.6,10,0.1c2.5,0.5,3.6,2,3.6,4.5c-0.1,3.2-0.3,3.5-3.4,3.5c-0.1,0-0.2,0-0.2,0c-0.7,0-1.5,0.2-2-0.1
		c-0.5-0.4,0-1.2,0-1.9c0-0.9-0.4-1.5-1.3-1.7c-2.1-0.3-4.2-0.4-6.3,0.2c-1.4,0.4-2.7,3.5-2.1,4.7c0.4,0.8,1.1,0.8,1.8,0.9
		c2.3,0.3,4.7,0.1,7.1,0.4c3.6,0.5,5,2.4,4.4,6c-0.2,1.5-0.6,2.9-1.2,4.3c-1.2,3-3.4,4.6-6.6,5C382.5,64.3,380.7,64.4,378.6,64.4z"
		/>
	<path class="st1" d="M332.7,38.1c1,0,2,0.1,3,0c0.8-0.1,1,0.3,1,0.9c0.6,5.9,1.2,11.8,1.7,17.8c0.2,2.1,0.4,4.1,0.6,6.2
		c0.1,0.9,0,1.4-1.1,1.3c-1.2-0.1-2.5-0.1-3.7,0c-0.7,0-0.9-0.2-0.9-0.9c0-1-0.2-2.1-0.2-3.1c0-0.7-0.2-1-1-1c-3,0-5.9,0-8.9,0
		c-0.6,0-0.9,0.2-1.1,0.7c-0.6,1.2-1.3,2.4-2,3.6c-0.3,0.5-0.6,0.8-1.2,0.7c-1.2,0-2.5,0-3.7,0c-1.4,0-1.4,0-0.7-1.2
		c2.4-4.2,4.8-8.4,7.2-12.6c2.2-3.8,4.4-7.7,6.6-11.5c0.4-0.7,0.8-1,1.6-0.9C330.8,38.2,331.7,38.1,332.7,38.1z M324.9,55
		c1.8,0,3.4,0,5,0c0.9,0,2,0.3,2.5-0.2c0.6-0.6,0-1.7,0-2.6c0-0.2,0-0.4,0-0.6c-0.3-2.7-0.5-5.3-0.8-8.3
		C329.3,47.4,327.2,51.1,324.9,55z"/>
	<path class="st1" d="M232,64.3c-2.7,0-5.4,0-8,0c-0.7,0-1.1,0-0.8-1c2-8.1,3.9-16.3,5.9-24.4c0.1-0.6,0.4-0.8,1-0.8
		c5.4,0,10.9,0,16.3,0c0.7,0,0.9,0.2,0.7,0.9c-0.3,1-0.6,1.9-0.7,2.9c-0.1,0.8-0.5,1-1.3,1c-3.5,0-7,0-10.4,0c-0.8,0-1.2,0.2-1.3,1
		c-0.2,1.3-0.6,2.6-0.9,3.8c-0.2,0.8-0.1,1.1,0.9,1.1c3.2-0.1,6.4,0,9.6,0c1.1,0,1.2,0.3,1,1.2c-0.8,3.1-0.7,3.1-3.9,3.1
		c-2.6,0-5.3,0-7.9,0c-0.6,0-0.9,0.2-1,0.8c-0.3,1.5-0.7,3-1.1,4.5c-0.2,0.9-0.1,1.2,0.9,1.2c3.4-0.1,6.8,0,10.2,0
		c1,0,1.3,0.3,1,1.2c-0.4,1.1-0.3,2.7-1,3.4c-0.8,0.7-2.3,0.2-3.5,0.2C235.6,64.4,233.8,64.3,232,64.3z"/>
	<path class="st1" d="M342.2,91.7c0.2-0.4,0.4-0.8,0.6-1.2c2-3.9,3.9-7.8,5.8-11.8c0.4-0.8,0.8-1,1.6-1c2.9,0,2.9,0,1.6,2.6
		c-2.5,5-5.1,10-7.6,15.1c-0.3,0.7-0.7,1-1.5,1c-1-0.1-2.1-0.1-3.1,0c-1,0.1-1.3-0.2-1.3-1.2c0-3.6-0.1-7.2-0.2-10.8
		c0-0.3,0.1-0.5-0.1-0.8c-0.4,0.2-0.5,0.6-0.6,1c-1.9,3.7-3.8,7.3-5.6,11c-0.3,0.6-0.7,0.9-1.4,0.9c-1.2-0.1-2.4,0-3.6,0
		c-0.6,0-0.8-0.2-0.8-0.8c-0.1-5.6-0.2-11.3-0.3-16.9c0-0.7,0.3-0.8,0.9-0.9c3-0.1,3-0.1,3,2.8c0,3.8,0,7.6,0,11.4
		c0.6-0.1,0.6-0.5,0.7-0.8c2.2-4.2,4.3-8.4,6.5-12.6c0.3-0.7,0.7-1,1.5-0.9c1.1,0.1,2.4-0.4,3.1,0.2c0.7,0.6,0.2,2,0.3,3
		c0.1,3.6,0.2,7.2,0.3,10.8C342,91.7,342.1,91.7,342.2,91.7z"/>
	<path class="st1" d="M283.7,38.1c3.1,0,6.2,0,9.2,0c0.7,0,1,0.1,0.7,0.9c-0.3,1.1-0.6,2.2-0.8,3.3c-0.1,0.7-0.4,0.9-1.1,0.9
		c-1.9,0-3.8,0-5.8,0c-0.7,0-1,0.2-1.1,0.9c-1.5,6.3-3,12.6-4.5,18.8c-0.2,1-0.5,1.6-1.8,1.5c-1-0.1-2.1-0.1-3.1,0
		c-0.9,0.1-1.2-0.2-0.9-1.1c1.3-5.1,2.5-10.1,3.7-15.2c0.3-1.3,0.6-2.6,1-3.9c0.2-0.7,0-0.9-0.7-0.9c-1.8,0-3.7,0-5.5,0
		c-0.7,0-0.9-0.2-0.7-0.9c0.4-1.3,0.3-3.1,1.2-3.9c0.8-0.8,2.6-0.2,3.9-0.2C279.5,38.1,281.6,38.1,283.7,38.1z"/>
	<path class="st1" d="M423.4,91.8c0.5-2.3,1.1-4.6,1.6-6.8c0.5-2.1,1-4.3,1.5-6.4c0.1-0.6,0.4-0.8,1-0.9c3.1-0.1,3.1-0.1,2.4,2.9
		c-1.2,4.9-2.3,9.7-3.5,14.6c-0.2,0.9-0.5,1.3-1.5,1.2c-1.3-0.1-2.6-0.1-4,0c-0.8,0-1-0.3-1.2-0.9c-1.1-4.2-2.2-8.3-3.3-12.5
		c0-0.2-0.1-0.4-0.4-0.6c-0.3,1.4-0.7,2.9-1,4.3c-0.7,2.9-1.4,5.8-2,8.8c-0.2,0.7-0.4,1-1.2,1c-2.9,0-2.9,0-2.2-2.8
		c1.2-4.9,2.4-9.7,3.5-14.6c0.2-1,0.6-1.3,1.6-1.2c1.3,0.1,2.6,0.1,3.8,0c0.8,0,1.1,0.3,1.3,1c1.1,4.4,2.3,8.7,3.4,13.1
		C423.2,91.8,423.3,91.8,423.4,91.8z"/>
	<path class="st1" d="M228,86.7c1.4,0.7,1.6,1.9,1.4,3.1c-0.7,4.8-2.9,6.5-6.9,6.5c-2.9,0-5.8,0-8.7,0c-0.8,0-1.1-0.1-0.8-1
		c1.4-5.5,2.7-11.1,4-16.6c0.2-0.7,0.4-1,1.2-1c3,0.1,5.9,0,8.9,0c0.7,0,1.4,0.1,2.1,0.3c1.3,0.4,2,1.2,1.9,2.6
		C230.9,82.9,230.5,85.2,228,86.7z M221.7,88.3c-3.1,0-3.1,0-3.8,3c0,0.2-0.1,0.4-0.2,0.6c-0.2,0.7-0.1,1.1,0.8,1.1
		c1.2-0.1,2.4,0,3.6,0c2.3-0.1,3-0.7,3.3-2.9c0.2-1.2-0.1-1.6-1.3-1.7C223.3,88.3,222.5,88.3,221.7,88.3z M223.4,81.1
		c-3,0-3,0-3.7,2.9c-0.1,0.2-0.1,0.5-0.2,0.7c-0.2,0.5,0,0.6,0.5,0.6c1.6,0,3.1,0,4.7-0.1c1.4-0.1,2.6-2.2,2.2-3.5
		c-0.2-0.5-0.5-0.6-0.9-0.6C225.1,81.1,224.2,81.1,223.4,81.1z"/>
	<path class="st1" d="M177.1,64.3c-2.6,0-5.1,0-7.7,0c-0.8,0-0.9-0.2-0.7-0.9c2-8.1,3.9-16.3,5.8-24.4c0.2-0.7,0.4-0.9,1.1-0.9
		c1.2,0.1,2.5,0.1,3.7,0c0.8,0,1,0.2,0.8,1c-1.4,5.7-2.7,11.3-4.1,17c-0.2,1-1,2.3-0.5,2.9c0.5,0.7,1.9,0.2,2.9,0.2c2.5,0,5,0,7.4,0
		c0.8,0,1.2,0.1,0.9,1c-0.3,1-0.6,2.1-0.7,3.1c-0.1,0.8-0.5,0.9-1.2,0.9C182.2,64.3,179.6,64.3,177.1,64.3z"/>
	<path class="st1" d="M390,96.3c-1.6,0-3.2,0-4.8,0c-0.7,0-1,0-0.8-0.9c1.4-5.6,2.7-11.2,4-16.8c0.2-0.7,0.5-0.9,1.2-0.9
		c2.8,0,5.7,0,8.5,0c0.7,0,1.4,0,2.1,0.2c2.3,0.6,3.5,2.1,3.2,4.4c-0.4,3.4-1.1,6.8-2.7,9.9c-1.2,2.6-3.4,3.9-6.2,4
		C393.1,96.3,391.5,96.3,390,96.3C390,96.3,390,96.3,390,96.3z M389,92.8c1.9,0,3.7,0.1,5.5,0c1.6-0.1,2.7-1,3.2-2.5
		c0.8-2.2,1.3-4.4,1.7-6.7c0.3-1.7-0.4-2.4-2.1-2.5c-1.6-0.1-3.2,0-4.8,0c-0.4,0-0.7,0-0.8,0.5C390.8,85.3,389.9,89,389,92.8z"/>
	<path class="st1" d="M443,86.2c1.2,0,2.3,0,3.5,0c0.6,0,0.8,0.2,0.7,0.8c-0.5,1.9-0.8,3.9-1.6,5.8c-0.9,2.1-2.6,3.3-4.9,3.5
		c-2.5,0.3-5,0.4-7.5-0.2c-2.3-0.5-3.5-2-3.2-4.3c0.4-3.1,1-6.1,2-9c1.1-3.1,3.3-4.9,6.6-5.1c2.3-0.2,4.6-0.3,6.9,0.1
		c2.4,0.4,3.8,3.4,2.5,5.5c-0.2,0.3-0.4,0.3-0.7,0.3c-0.6,0-1.1,0-1.7,0c-0.9,0-1.8,0.1-1.5-1.3c0.1-0.7-0.5-1.1-1.1-1.2
		c-1.7-0.4-3.4-0.3-5.1,0.1c-1,0.2-1.6,1-1.9,1.9c-0.8,2.5-1.5,5-1.8,7.6c-0.2,1.7,0.2,2.1,1.9,2.3c1.3,0.2,2.6,0.1,3.8-0.1
		c0.8-0.1,1.5-0.5,2-1.2c0.4-0.7,1-1.5,0.7-2.2c-0.2-0.5-1.2-0.1-1.9-0.2c0,0-0.1,0-0.1,0c-2.5,0-2.5,0-1.8-2.4
		c0.2-0.6,0.4-0.7,0.9-0.6C440.7,86.2,441.8,86.2,443,86.2z"/>
	<path class="st1" d="M175.6,89.3c-1.5,0-2.9,0-4.3,0c0-0.1-0.1-0.2-0.1-0.2c0.4-2.9,0.4-2.9,3.3-2.9c1.6,0,3.3,0,4.9,0
		c0.5,0,0.9,0,0.7,0.7c-0.5,1.9-0.8,3.9-1.6,5.8c-0.9,2.2-2.6,3.4-5,3.6c-2.6,0.2-5.1,0.3-7.6-0.3c-2.1-0.5-3.2-1.7-3-3.9
		c0.3-3.6,0.9-7.1,2.5-10.4c1.2-2.6,3.4-3.9,6.2-4.1c2.2-0.2,4.5-0.2,6.7,0.1c2.6,0.4,3.9,3.2,2.6,5.5c-0.2,0.3-0.4,0.3-0.7,0.3
		c-0.6,0-1.1,0-1.7,0c-0.9,0-1.8,0.1-1.5-1.3c0.1-0.7-0.5-1.1-1.1-1.2c-1.7-0.4-3.5-0.3-5.2,0.1c-1,0.3-1.5,1-1.8,1.9
		c-0.8,2.5-1.4,5-1.8,7.6c-0.2,1.4,0.3,2,1.7,2.2c1,0.1,1.9,0.2,2.9,0.1C174.4,92.7,175,92.3,175.6,89.3z"/>
	<path class="st1" d="M381.6,88.5c1.6,1,1.5,2.4,1.2,3.8c-0.1,0.5-0.2,0.9-0.4,1.4c-0.7,2.7-1.1,3-4,2.6c-0.7-0.1-0.5-0.5-0.4-0.8
		c0.2-1.1,0.6-2.2,0.7-3.3c0.2-1.4-0.2-1.9-1.7-2c-1.4,0-2.7,0-4.1,0c-0.6,0-0.9,0.2-1.1,0.8c-0.3,1.5-0.7,3-1.1,4.5
		c-0.1,0.5-0.3,0.7-0.9,0.7c-3.2,0.2-3.2,0.2-2.5-2.9c1.2-4.9,2.4-9.8,3.5-14.7c0.2-0.8,0.5-1,1.3-1c2.8,0.1,5.5,0,8.3,0
		c0.8,0,1.6,0,2.4,0.3c1.5,0.4,2.4,1.3,2.4,2.9c0,2.1-0.5,4.1-1.5,6C383.4,87.6,382.5,88.1,381.6,88.5z M373,86.9c1.3,0,2.5,0,3.8,0
		c3.1,0,4.1-0.9,4.4-3.9c0.1-1.3-0.2-1.7-1.4-1.8c-1.5-0.1-3.1,0-4.7,0c-0.5,0-0.7,0.1-0.8,0.6C373.8,83.4,373.4,85.1,373,86.9z"/>
	<path class="st1" d="M318.9,88.5c1.5,0.9,1.6,2.1,1.3,3.5c-0.3,1.2-0.6,2.3-0.8,3.5c-0.1,0.5-0.3,0.8-1,0.8c-0.8-0.1-1.5-0.1-2.3,0
		c-0.9,0.1-0.9-0.4-0.7-1c0.3-1.1,0.6-2.2,0.7-3.3c0.2-1.2-0.2-1.7-1.5-1.8c-1.5-0.1-3,0-4.4,0c-0.6,0-0.8,0.2-0.9,0.7
		c-0.3,1.5-0.7,2.9-1,4.4c-0.1,0.6-0.4,0.9-1.1,0.9c-3,0-3,0.1-2.4-2.8c1.2-4.9,2.4-9.8,3.5-14.7c0.2-0.8,0.4-1.1,1.3-1.1
		c2.7,0.1,5.4,0,8.2,0c0.6,0,1.2,0,1.8,0.1c2.4,0.4,3.4,1.8,3,4.3c-0.2,1.1-0.4,2.2-0.8,3.2C321.4,86.8,320.6,87.9,318.9,88.5z
		 M314.7,81.2C314.7,81.2,314.7,81.2,314.7,81.2c-0.8,0-1.5,0-2.3,0c-0.5,0-0.8,0.1-0.9,0.6c-0.3,1.5-0.7,3-1.1,4.5
		c-0.1,0.5,0,0.6,0.5,0.6c1.1,0,2.2,0,3.2,0c3,0,4-1,4.3-4c0.1-1.2-0.4-1.6-1.4-1.7C316.3,81.1,315.5,81.2,314.7,81.2z"/>
	<path class="st1" d="M202.1,96.5c-1.5,0-2.8,0-4-0.4c-1.8-0.6-2.7-1.7-2.6-3.5c0.2-4,1.3-7.9,3-11.5c0.8-1.6,2.2-2.6,4-3.1
		c2.7-0.7,5.4-0.7,8.1,0c2.1,0.5,3.2,2.2,2.9,4.3c-0.5,3.3-1.3,6.5-2.4,9.6c-0.9,2.6-2.9,3.9-5.6,4.3
		C204.2,96.4,203.1,96.5,202.1,96.5z M206,80.9c-0.8,0.1-1.5,0.1-2.3,0.2c-0.9,0.1-1.8,0.5-2.1,1.4c-1.1,2.8-1.8,5.8-2.2,8.8
		c-0.1,0.9,0.4,1.5,1.4,1.6c1.1,0.1,2.1,0.1,3.2,0c1.8-0.1,2.9-1.1,3.3-2.7c0.5-1.9,1-3.8,1.5-5.7C209.6,81.5,209.1,80.9,206,80.9z"
		/>
	<path class="st1" d="M294,96.4c-1.1,0.1-2.2,0-3.3-0.2c-2.3-0.5-3.5-1.9-3.3-4.3c0.4-3.5,1.3-6.9,2.6-10.2c1.1-2.8,3.5-3.9,6.3-4.2
		c1.8-0.2,3.7-0.1,5.5,0.2c2.7,0.5,3.9,2.2,3.4,5c-0.5,3-1.2,6-2.2,8.9c-1.2,3.5-4,4.5-7.3,4.7C295.1,96.5,294.6,96.4,294,96.4z
		 M294.8,93.1c1.4-0.1,3.3,0.1,4.2-1.8c1.2-2.7,1.8-5.7,2.2-8.6c0.1-0.9-0.4-1.4-1.3-1.5c-1.2-0.2-2.5-0.1-3.7,0
		c-1.5,0.2-2.5,0.9-2.9,2.4c-0.5,2-1,4-1.5,6C291.1,92.5,291.6,93.1,294.8,93.1z"/>
	<path class="st1" d="M360.3,77.7c2.8,0,2.8,0,3.1,2.9c0.5,4.9,1,9.9,1.5,14.8c0.1,0.8-0.2,1-0.9,0.9c-0.1,0-0.2,0-0.2,0
		c-0.9-0.1-2,0.4-2.7-0.2c-0.6-0.5-0.4-1.6-0.4-2.5c0-0.6-0.2-0.8-0.8-0.8c-2,0-4.1,0-6.1,0c-0.5,0-0.8,0.1-1,0.6
		c0,0.1-0.1,0.2-0.2,0.3c-1.6,2.8-1.6,2.8-4.7,2.5c-0.7,0-0.8-0.2-0.4-0.8c3.3-5.7,6.6-11.5,9.9-17.2c0.2-0.4,0.5-0.6,0.9-0.6
		C359,77.7,359.7,77.7,360.3,77.7z M354.8,89.8c1.8,0,3.5,0,5.1,0c0.3,0,0.5-0.1,0.5-0.5c-0.2-2.5-0.5-5-0.7-7.5
		c-0.1,0-0.2,0-0.2-0.1C357.9,84.3,356.4,86.9,354.8,89.8z"/>
	<path class="st1" d="M242.8,77.7c2.8,0,2.8,0,3,2.9c0.5,4.9,0.9,9.8,1.5,14.7c0.1,1-0.2,1.1-1,1c0,0-0.1,0-0.1,0
		c-0.9-0.1-2,0.4-2.7-0.2c-0.6-0.5-0.4-1.6-0.4-2.5c0-0.6-0.3-0.8-0.8-0.8c-2,0-4.1,0-6.1,0c-0.5,0-0.8,0.1-1,0.6
		c0,0.1-0.1,0.2-0.2,0.3c-1.6,2.8-1.6,2.8-4.7,2.5c-0.7,0-0.7-0.2-0.4-0.8c3.3-5.7,6.6-11.5,9.9-17.2c0.2-0.4,0.5-0.6,1-0.5
		C241.4,77.7,242.1,77.7,242.8,77.7z M242.1,81.8c-0.1,0-0.2-0.1-0.3-0.1c-1.5,2.6-3,5.3-4.6,8.1c1.8,0,3.4,0,5,0
		c0.5,0,0.6-0.2,0.6-0.6C242.5,86.7,242.3,84.2,242.1,81.8z"/>
	<path class="st1" d="M191.2,64.3c-2.7,0-2.8,0-2.1-2.7c1.8-7.4,3.6-14.9,5.3-22.3c0.2-0.8,0.4-1.2,1.4-1.2c1.1,0.1,2.3,0.1,3.5,0
		c0.8,0,1,0.2,0.8,1c-1.6,6.7-3.2,13.3-4.8,20c-0.3,1.4-0.7,2.8-1,4.2c-0.1,0.8-0.5,1.1-1.3,1C192.4,64.3,191.8,64.3,191.2,64.3z"/>
	<path class="st1" d="M283.7,81.1c-0.6,0-1.1,0-1.7,0c-0.9,0.1-2.1-0.5-2.5,0.3c-0.6,1.1-0.7,2.4-0.9,3.7c-0.1,0.6,0.5,0.4,0.8,0.4
		c2,0,4.1,0,6.1,0c0.8,0,1,0.2,0.8,1c-0.5,2.3-0.5,2.3-2.9,2.3c-1.6,0-3.2,0-4.8,0c-0.7,0-1,0.2-1.1,0.9c-0.4,1.9-0.9,3.9-1.4,5.8
		c-0.1,0.6-0.3,0.8-0.9,0.8c-3.3,0.1-3.3,0.2-2.5-3c1.1-4.8,2.3-9.5,3.4-14.3c0.2-0.9,0.5-1.3,1.6-1.3c3.4,0.1,6.8,0,10.2,0
		c0.8,0,1,0.1,0.8,1c-0.6,2.4-0.6,2.4-3.1,2.4C284.9,81.1,284.3,81.1,283.7,81.1z"/>
	<path class="st1" d="M255.4,96.3c-1.8,0-3.5,0-5.3,0c-0.7,0-1,0-0.8-0.9c1.4-5.7,2.7-11.3,4.1-17c0.1-0.3,0.1-0.6,0.4-0.6
		c1.1,0,2.2-0.1,3.4,0c0.5,0.1,0.2,0.6,0.1,0.9c-1,4.3-2,8.5-3.1,12.8c-0.3,1-0.1,1.3,1,1.3c2.1-0.1,4.2,0,6.2,0
		c0.7,0,0.8,0.1,0.6,0.8c-0.6,2.7-0.6,2.7-3.3,2.7C257.7,96.3,256.6,96.3,255.4,96.3z"/>
	<path class="st1" d="M186.6,96.3c-1.8,0-3.5,0-5.3,0c-0.7,0-0.9-0.2-0.7-0.9c1.4-5.6,2.7-11.3,4.1-16.9c0.1-0.6,0.4-0.8,1.1-0.8
		c0.7,0.1,1.4,0.1,2,0c1-0.1,1,0.3,0.8,1.1c-1.1,4.3-2,8.5-3.1,12.8c-0.3,1,0,1.2,0.9,1.1c2.1,0,4.2,0,6.2,0c0.7,0,0.9,0.1,0.8,0.9
		c-0.6,2.7-0.5,2.7-3.3,2.7C188.9,96.3,187.7,96.3,186.6,96.3z"/>
	<path class="st1" d="M404.7,96.3c-2,0-2,0-1.6-2c1.2-5.2,2.5-10.3,3.7-15.5c0.2-0.8,0.5-1.1,1.4-1.1c2.8,0.1,2.8,0,2.1,2.7
		c-1.1,4.7-2.3,9.4-3.4,14.1C406.6,96.3,406.6,96.3,404.7,96.3z"/>
	<path class="st1" d="M428.3,120.8c0.7-2.8,1.4-5.3,2-7.8c0.1-0.3,0.1-0.6,0.3-0.9c0.2-0.4,0.6-0.3,0.9-0.2c0.4,0.1,0.2,0.4,0.1,0.6
		c-0.8,3.2-1.7,6.4-2.5,9.6c-0.1,0.5-0.4,0.5-0.8,0.6c-0.6,0-0.9-0.2-1.1-0.7c-0.9-2.3-1.8-4.6-2.7-6.9c-0.2-0.4-0.2-0.9-0.6-1.2
		c-0.7,2.6-1.3,5.2-2,7.7c-0.1,0.3-0.1,0.5-0.2,0.8c-0.2,0.4-0.6,0.3-0.8,0.2c-0.4-0.1-0.2-0.4-0.1-0.6c0.8-3.2,1.7-6.4,2.5-9.6
		c0.1-0.4,0.4-0.5,0.8-0.6c0.6,0,0.9,0.2,1.1,0.7c0.8,2.2,1.7,4.5,2.6,6.7C427.8,119.7,428,120.2,428.3,120.8z"/>
	<path class="st1" d="M259.6,113.8c-0.7,2.7-1.4,5.3-2,7.9c-0.1,0.5-0.3,1-0.9,0.8c-0.7-0.2-0.2-0.7-0.1-1c0.7-2.9,1.5-5.9,2.3-8.8
		c0.1-0.5,0.2-0.9,0.9-0.9c0.6,0,0.9,0.3,1.1,0.8c1,2.7,2.1,5.3,3.2,8.2c0.7-2.7,1.4-5.2,2-7.7c0.1-0.3,0.2-0.5,0.2-0.8
		c0.1-0.5,0.5-0.5,0.8-0.4c0.6,0.1,0.3,0.4,0.2,0.7c-0.8,3.1-1.6,6.2-2.4,9.3c-0.1,0.5-0.2,0.8-0.8,0.8c-0.6,0-0.9-0.2-1.1-0.7
		c-0.9-2.4-1.8-4.7-2.7-7C260,114.5,260,114.1,259.6,113.8z"/>
	<path class="st1" d="M368.6,113.9c-0.6,2.5-1.3,4.9-1.9,7.3c-0.1,0.4-0.2,0.8-0.3,1.1c-0.2,0.4-0.5,0.3-0.8,0.3
		c-0.3-0.1-0.2-0.4-0.2-0.6c0.8-3.2,1.7-6.4,2.5-9.6c0.1-0.5,0.4-0.5,0.8-0.5c0.5,0,0.8,0.1,1,0.6c0.8,2.2,1.7,4.5,2.6,6.7
		c0.2,0.4,0.4,0.9,0.5,1.3c0.4-0.1,0.4-0.4,0.4-0.6c0.6-2.4,1.2-4.8,1.8-7.2c0.1-0.6,0.3-0.9,0.9-0.7c0.6,0.2,0.2,0.7,0.1,1
		c-0.7,2.9-1.5,5.9-2.3,8.8c-0.1,0.4-0.1,0.9-0.8,1c-0.7,0-1-0.3-1.2-0.9c-0.9-2.2-1.7-4.5-2.6-6.7
		C369.1,114.7,369,114.3,368.6,113.9z"/>
	<path class="st1" d="M167.5,119.2c0-4.3,3.1-7.7,6.9-7.6c2.4,0.1,3.7,1.5,3.6,3.9c-0.2,3.9-2.9,7-6.3,7.2
		C169.1,122.9,167.6,121.6,167.5,119.2z M176.7,115.5c0-1.5-0.6-2.5-1.8-2.7c-1.7-0.3-3.2,0.1-4.4,1.5c-1,1.2-1.4,2.6-1.6,4.1
		c-0.2,2.6,1.3,3.8,3.8,3.2C175,121,176.6,118.5,176.7,115.5z"/>
	<path class="st1" d="M363.4,115.2c0,3.9-2.6,7.2-6.1,7.5c-3,0.3-4.6-1.3-4.3-4.3c0.4-3.6,2.6-6.2,5.7-6.7
		C361.6,111.2,363.4,112.6,363.4,115.2z M359.3,112.8c-1.6,0-2.8,0.7-3.7,1.9c-0.7,1-1,2-1.3,3.2c-0.6,3,1.1,4.5,4,3.6
		c1-0.3,1.7-0.8,2.3-1.6c0.9-1.3,1.4-2.7,1.5-4.2C362.3,113.7,361.3,112.7,359.3,112.8z"/>
	<path class="st1" d="M273.9,111.8c0.8,0,1.6-0.1,2.5,0.2c1.6,0.5,2.4,1.5,2.5,3.1c0.1,3.8-2.7,7.1-6.5,7.4
		c-1.2,0.1-2.8,0.4-3.5-0.2c-0.6-0.5,0.3-2.1,0.6-3.2c0.5-2.1,1.1-4.1,1.5-6.1c0.2-1,0.7-1.4,1.7-1.3
		C273.1,111.9,273.4,111.8,273.9,111.8z M271.6,121.5c2.4,0,4.2-1,5.3-3.2c1.6-3.6,0.3-5.6-3.6-5.5c-0.7,0-1,0.2-1.2,0.9
		c-0.5,2.1-1.1,4.2-1.6,6.3C270.1,121.5,270.1,121.5,271.6,121.5z"/>
	<path class="st1" d="M318,122.6c-2.2,0-2.2,0-1.7-2.1c0.7-2.6,1.4-5.2,2-7.8c0.2-0.7,0.4-0.9,1.1-0.9c1.1,0.1,2.2,0,3.2,0.1
		c2.4,0.2,3.7,1.9,3.3,4.2C325.4,120.4,322.7,122.6,318,122.6z M319,121.5c2.4,0,4.2-1,5.1-3.2c1.6-3.7,0.3-5.7-3.7-5.5
		c-0.6,0-0.9,0.2-1,0.9c-0.5,2.1-1.1,4.2-1.6,6.3C317.3,121.5,317.3,121.5,319,121.5z"/>
	<path class="st1" d="M187.7,117c1.9,0,1.9,0,1.4,1.9c-0.2,0.6-0.4,1.2-0.5,1.9c-0.1,1.4-1,1.9-2.2,1.9c-1,0.1-2.1,0.2-3.1,0.1
		c-2-0.3-3-1.5-3-3.5c0-4.9,4.6-8.5,9.3-7.2c0.3,0.1,1,0,0.8,0.7c-0.2,0.6-0.6,0.7-1.2,0.5c-4-1.2-7.3,1.3-7.5,5.5
		c-0.1,1.7,0.6,2.7,2.4,3c0.2,0,0.5,0.1,0.7,0.1c2.3,0.1,3.3-0.8,3.2-3.1c-0.1-1-1-0.3-1.5-0.5c-0.2-0.1-0.6,0.1-0.6-0.4
		c0-0.4,0.1-0.7,0.6-0.8C186.8,116.9,187.3,117,187.7,117z"/>
	<path class="st1" d="M441,116.9c1.8,0,1.8,0,1.4,1.7c-0.2,0.7-0.5,1.4-0.5,2.1c-0.1,1.3-0.9,1.8-2,1.8c-1.1,0.1-2.2,0.3-3.3,0.1
		c-1.9-0.3-2.9-1.5-3-3.5c0-5,4.5-8.5,9.3-7.3c0.3,0.1,1,0,0.8,0.7c-0.2,0.5-0.5,0.7-1.2,0.5c-4-1.2-7.3,1.2-7.6,5.4
		c-0.1,1.8,0.7,2.8,2.4,3.1c0.4,0.1,0.7,0.1,1.1,0.1c1.9,0,3.1-1.4,2.8-3.2c-0.1-0.9-1-0.2-1.5-0.4c-0.2-0.1-0.6,0.1-0.6-0.3
		c0-0.4,0.1-0.7,0.6-0.8c0.2,0,0.3,0,0.5,0C440.4,116.9,440.7,116.9,441,116.9z"/>
	<path class="st1" d="M300,111.9c0.5,0,1,0,1.4,0c2.1,0.1,2.8,1.3,2.2,3.3c-0.4,1.1-1.1,1.9-2.1,2.3c-0.6,0.3-0.7,0.6-0.5,1.1
		c0.4,1,0.7,2.1,1.1,3.2c0.1,0.3,0.5,0.7-0.1,0.8c-0.4,0.1-1,0.3-1.2-0.4c-0.3-1.1-0.8-2.1-1-3.2c-0.2-1.1-1-0.8-1.6-0.9
		c-0.8-0.1-1,0.3-1.2,1c-0.2,1-0.5,1.9-0.7,2.9c-0.1,0.5-0.4,0.8-0.9,0.6c-0.7-0.2-0.3-0.6-0.2-0.9c0.7-2.8,1.5-5.5,2.1-8.3
		c0.3-1.1,0.7-1.7,1.9-1.5C299.4,111.9,299.7,111.8,300,111.9C300,111.8,300,111.9,300,111.9z M299.9,112.8c-1-0.3-1.4,0.3-1.6,1.4
		c0,0.2-0.1,0.4-0.2,0.6c-0.7,2.5-0.3,2.8,2.3,2.2c0.2-0.1,0.5-0.1,0.7-0.2c1-0.5,1.6-1.7,1.4-2.7c-0.2-1.2-1.3-1-2.1-1.2
		C300.3,112.8,300.1,112.8,299.9,112.8z"/>
	<path class="st1" d="M244.2,122.4c2.3-3.5,4.5-6.8,6.7-10.2c0.3-0.4,0.6-0.5,1-0.5c0.4,0.1,0.4,0.5,0.4,0.8
		c0.4,3.1,0.8,6.3,1.2,9.4c0,0.3,0.1,0.7-0.4,0.7c-0.4,0-0.8,0.1-0.9-0.5c-0.1-0.7-0.2-1.3-0.2-2c0-0.8-0.4-0.8-1-0.9
		c-2.4-0.4-4.3,0.3-5.2,2.7C245.6,122.5,245.1,122.8,244.2,122.4z M251.3,113.3c-1.1,1.7-2,3.1-3,4.8c1.1,0,2,0,2.9,0
		c0.4,0,0.6-0.2,0.5-0.6C251.6,116.2,251.5,114.9,251.3,113.3z"/>
	<path class="st1" d="M303.8,122.5c1.9-2.9,3.8-5.8,5.6-8.6c0.4-0.6,0.8-1.1,1.1-1.7c0.2-0.4,0.6-0.4,0.9-0.4
		c0.4,0.1,0.4,0.4,0.4,0.7c0.4,3,0.8,6,1.2,9c0,0.4,0.4,1-0.5,1.1c-0.8,0.1-0.7-0.5-0.8-0.9c-0.5-2.5-0.5-2.4-3-2.5
		c-1.3-0.1-2.1,0.3-2.7,1.5c-0.2,0.5-0.6,0.9-0.8,1.3C305.1,122.6,304.6,122.7,303.8,122.5z M311,113.3c-0.9,1.5-1.8,2.7-2.6,4
		c-0.2,0.3-0.6,0.7,0.1,0.7c0.8,0.1,1.7,0,2.5,0c0.5,0,0.4-0.4,0.4-0.7C311.3,116.1,311.1,114.8,311,113.3z"/>
	<path class="st1" d="M385.4,122.5c2.3-3.5,4.5-6.9,6.7-10.2c0.2-0.4,0.5-0.6,1-0.5c0.6,0.1,0.5,0.6,0.5,0.9c0.4,3,0.8,6.1,1.2,9.1
		c0,0.3,0.3,0.7-0.3,0.8c-0.5,0-0.9,0-0.9-0.7c0-0.3-0.1-0.5-0.1-0.8c-0.2-2.3-0.2-1.8-2.2-2c-1.8-0.2-3,0.4-3.8,2.1
		C386.8,122.7,386.6,122.6,385.4,122.5z M392.6,113.3c-0.9,1.5-1.7,2.7-2.6,4c-0.3,0.5-0.3,0.8,0.4,0.8c0.7,0,1.4,0,2,0
		c0.5,0,0.7-0.2,0.6-0.7C392.9,116.1,392.8,114.8,392.6,113.3z"/>
	<path class="st1" d="M330.7,122.6c-0.8-0.1-2.1,0.4-2.6-0.2c-0.4-0.5,0.3-1.8,0.5-2.7c0.6-2.3,1.3-4.6,1.8-6.9
		c0.2-0.8,0.5-0.9,1.2-0.9c1.4,0,2.7,0,4.1,0c0.3,0,0.8-0.2,0.8,0.4c0,0.5-0.3,0.7-0.8,0.7c-1,0-2,0.1-3,0c-0.8-0.1-1.2,0.2-1.4,1.1
		c-0.6,2.5-0.7,2.5,1.8,2.5c0.4,0,0.7,0,1.1,0c0.3,0,0.8-0.3,0.8,0.4c0,0.6-0.4,0.7-0.9,0.7c-0.9,0-1.8,0-2.8,0
		c-0.7,0-1,0.2-1.2,0.9c-0.8,3.1-0.9,3.1,2.3,3.1c0.3,0,0.6,0,0.8,0c0.3,0,0.7-0.2,0.7,0.3c0,0.4-0.1,0.8-0.7,0.8
		C332.5,122.6,331.7,122.6,330.7,122.6z"/>
	<path class="st1" d="M198.7,122.7c-0.4-0.1-1-0.1-1.7-0.3c-0.4-0.1-0.7-0.2-0.5-0.7c0.1-0.5,0.4-0.6,0.9-0.4
		c1.2,0.4,2.3,0.6,3.5,0.2c1-0.3,1.6-0.9,1.7-2c0.1-1-0.7-1.3-1.4-1.7c-0.4-0.2-0.7-0.3-1.1-0.5c-1.7-0.9-2.1-2.6-0.9-4.2
		c1.2-1.5,4.2-2.1,5.8-1.2c0.2,0.1,0.5,0.2,0.3,0.5c-0.2,0.3-0.3,0.8-0.9,0.6c-0.8-0.3-1.6-0.4-2.5-0.4c-0.8,0.1-1.5,0.4-2,1.2
		c-0.5,1-0.3,1.7,0.6,2.2c0.7,0.4,1.5,0.6,2.2,1c1,0.6,1.3,1.4,1,2.5C203.2,121.7,201.5,122.8,198.7,122.7z"/>
	<path class="st1" d="M233.1,122.8c-0.4-0.1-1.1-0.2-1.8-0.3c-0.4-0.1-0.6-0.4-0.5-0.8c0.1-0.5,0.4-0.5,0.8-0.4
		c1.1,0.3,2.2,0.5,3.4,0.2c1-0.3,1.7-0.9,1.8-2c0.1-1.1-0.7-1.4-1.5-1.8c-0.3-0.1-0.5-0.2-0.8-0.3c-2.3-1-2.5-3.4-0.5-4.9
		c1.5-1.1,3.3-1.1,5-0.6c0.2,0.1,0.6,0.2,0.4,0.5c-0.2,0.3-0.3,0.8-0.8,0.6c-0.8-0.3-1.7-0.5-2.6-0.3c-1,0.2-1.8,0.6-2,1.7
		c-0.2,1.1,0.5,1.6,1.4,1.9c0.3,0.1,0.7,0.3,1,0.4c2,1,2.3,2.7,0.8,4.3C236.3,122.4,234.9,122.7,233.1,122.8z"/>
	<path class="st1" d="M379.4,122.8c-0.3,0-1-0.1-1.6-0.2c-0.5-0.1-0.8-0.3-0.7-0.9c0.2-0.6,0.5-0.4,0.9-0.3c1.1,0.3,2.3,0.5,3.4,0.1
		c1-0.3,1.6-0.9,1.7-1.9c0.1-1-0.7-1.3-1.4-1.7c-0.3-0.1-0.6-0.3-0.9-0.4c-2.3-1.1-2.5-3.4-0.5-4.9c1.5-1.1,3.2-1.1,4.9-0.6
		c0.3,0.1,0.7,0.1,0.5,0.6c-0.2,0.3-0.3,0.8-0.9,0.5c-0.7-0.3-1.5-0.4-2.3-0.3c-0.7,0.1-1.3,0.3-1.8,0.8c-0.8,0.9-0.6,2,0.4,2.6
		c0.7,0.4,1.4,0.6,2,1c1.1,0.6,1.4,1.5,1,2.7C383.7,121.7,382.1,122.7,379.4,122.8z"/>
	<path class="st1" d="M349.5,121.4c0.1,0.7-0.3,1.1-0.9,1.2c-0.1,0-0.2,0-0.4,0.1c-4.7,0.7-6.7-1.7-5-6.2c1.3-3.6,4.8-5.5,8.2-4.5
		c0.3,0.1,0.9,0,0.8,0.6c-0.1,0.5-0.5,0.8-1.2,0.6c-1.8-0.7-3.6-0.4-5,1.1c-1.6,1.6-2.2,3.5-1.8,5.7c0.2,1.2,1.3,1.9,2.8,1.8
		C347.8,121.6,348.6,121.5,349.5,121.4z"/>
	<path class="st1" d="M228.8,111.7c0.3,0,0.9,0.1,1.5,0.3c0.2,0.1,0.9,0,0.6,0.6c-0.2,0.3-0.3,0.9-1,0.6c-0.9-0.4-1.9-0.5-2.8-0.3
		c-2.8,0.6-5,4.3-4.2,7c0.3,1.2,1.3,1.8,2.8,1.8c0.6,0,1.3-0.2,1.9-0.2c0.2,0,0.6-0.3,0.7,0.2c0,0.3,0,0.6-0.3,0.7
		c-1.7,0.5-3.5,0.8-5.1-0.2c-1.4-0.8-1.5-2.2-1.3-3.7C222.1,114.3,224.8,111.6,228.8,111.7z"/>
	<path class="st1" d="M291,111.8c1.1,0,2.2,0,3.2,0c0.3,0,0.7-0.1,0.6,0.4c0,0.4-0.2,0.6-0.6,0.6c-0.7,0-1.4,0.1-2,0
		c-0.7-0.1-1,0.3-1.2,1c-0.6,2.6-1.3,5.2-2,7.8c-0.1,0.3-0.1,0.6-0.2,0.8c-0.2,0.3-0.6,0.2-0.9,0.2c-0.5-0.1-0.2-0.6-0.1-0.8
		c0.6-2.6,1.3-5.1,2-7.6c0.3-1,0.1-1.4-0.9-1.2c-0.4,0-0.9,0-1.3,0c-0.3,0-0.8,0.1-0.7-0.5c0-0.4,0.3-0.6,0.7-0.6
		C288.7,111.8,289.9,111.8,291,111.8z"/>
	<path class="st1" d="M411.5,111.8c1,0,2.1,0,3.1,0c0.3,0,0.7-0.2,0.7,0.3c0,0.5-0.2,0.7-0.7,0.7c-0.6,0-1.1,0-1.7,0
		c-0.9-0.1-1.3,0.2-1.5,1.1c-0.6,2.6-1.3,5.2-2,7.8c-0.1,0.3,0,0.6-0.3,0.7c-0.2,0.1-0.6,0.1-0.8,0.1c-0.5-0.1-0.2-0.5-0.1-0.7
		c0.7-2.6,1.3-5.2,2-7.8c0.3-1,0-1.3-1-1.2c-0.4,0-0.8,0-1.2,0c-0.3,0-0.8,0.2-0.8-0.4c0-0.6,0.4-0.7,0.9-0.7
		C409.3,111.8,410.4,111.8,411.5,111.8z"/>
	<path class="st1" d="M215.7,112.2c-0.1,0.2-0.1,0.5-0.4,0.6c-0.2,0-0.3,0-0.5,0c-0.9,0.1-2-0.4-2.6,0.3c-0.5,0.6-0.6,1.7-0.8,2.6
		c-0.5,2-1.1,3.9-1.6,5.9c-0.2,0.6-0.4,1.1-1.1,0.9c-0.7-0.2-0.2-0.8-0.1-1.1c0.6-2.5,1.3-5,2-7.5c0.2-0.8,0.1-1.1-0.8-1.1
		c-0.5,0-1,0-1.6,0c-0.3,0-0.7,0.1-0.7-0.4c0-0.4,0.2-0.6,0.7-0.6c2.3,0,4.6,0,7,0C215.5,111.8,215.7,111.8,215.7,112.2z"/>
	<path class="st1" d="M400.5,122.6c-0.2,0-0.5,0-0.7,0c-2.4,0-2.4,0-1.8-2.2c0.7-2.6,1.4-5.2,2-7.8c0.2-0.7,0.5-0.9,1.1-0.7
		c0.6,0.2,0.2,0.7,0.1,1c-0.6,2.5-1.2,5-1.9,7.4c-0.3,0.9-0.2,1.3,0.9,1.2c0.9-0.1,1.8,0,2.8,0c0.3,0,0.7-0.2,0.7,0.4
		c0,0.4-0.1,0.8-0.7,0.8C402.1,122.6,401.3,122.6,400.5,122.6z"/>
	<path class="st1" d="M161.3,122.6c-0.8-0.1-2.1,0.5-2.6-0.2c-0.4-0.5,0.3-1.8,0.5-2.7c0.6-2.3,1.2-4.6,1.8-6.9
		c0.1-0.3,0.1-0.6,0.3-0.8c0.2-0.2,0.6-0.2,0.9,0c0.3,0.1,0.1,0.4,0,0.6c-0.7,2.7-1.4,5.3-2.1,8c-0.2,0.7-0.1,1,0.7,1
		c1-0.1,1.9,0,2.9,0c0.3,0,0.8-0.2,0.8,0.4c0,0.5-0.3,0.8-0.9,0.7C163,122.6,162.2,122.6,161.3,122.6z"/>
	<path class="st1" d="M195.7,112.1c-0.4,1.4-0.7,2.7-1.1,4.1c-0.5,1.9-1,3.8-1.5,5.7c-0.1,0.6-0.5,0.8-1,0.7
		c-0.7-0.2-0.2-0.7-0.1-0.9c0.8-3.1,1.6-6.1,2.4-9.1c0.1-0.6,0.4-0.7,0.9-0.7C195.6,111.9,195.8,111.9,195.7,112.1z"/>
	<path class="st1" d="M219.5,112.5c-0.8,3.2-1.7,6.4-2.5,9.6c-0.1,0.6-0.5,0.6-0.9,0.5c-0.5-0.1-0.3-0.5-0.3-0.8
		c0.8-3.1,1.6-6.2,2.4-9.4c0.1-0.6,0.5-0.7,1-0.6C219.7,111.9,219.6,112.2,219.5,112.5z"/>
	<path class="st1" d="M419.2,112.6c-0.2,0.8-0.5,1.9-0.8,3.1c-0.5,2-1.1,4.1-1.6,6.1c-0.1,0.5-0.4,0.9-1,0.7c-0.6-0.2-0.3-0.6-0.2-1
		c0.8-3,1.6-6,2.3-9c0.1-0.5,0.3-0.8,0.9-0.7C419.2,111.9,419.3,112,419.2,112.6z"/>
	<path class="st0" d="M145.6,74.1c0,39.3-31.9,71.3-71.1,71.3c-39.5,0-71.4-31.8-71.4-71.2C3.1,34.9,35,2.9,74.3,2.9
		C113.7,2.9,145.6,34.8,145.6,74.1z M27.8,46.8c-2.3,0-4.5,0-6.7,0c-0.3,0-0.6,0-0.7,0.5c-0.6,2.3-1.2,4.6-1.8,7
		c-0.2,0.6,0,0.7,0.6,0.7c2.2,0,4.4,0,6.6,0.1c1,0,1.4,0.5,1.1,1.4c-0.5,1.9-1,3.8-1.5,5.7c-0.2,0.8-0.6,1.1-1.4,1
		c-1.6,0-3.2,0-4.8,0c-1,0-2.3-0.3-3,0.2c-0.8,0.5-0.7,2-1,3c-0.1,0.2-0.1,0.4-0.2,0.6c-0.1,0.8-0.6,1-1.3,1c-1.1,0-2.2,0-3.2,0
		c-2.3,0-2.3,0-2.9,2.3c-0.2,0.7-0.1,1,0.7,1c1.5,0,3,0.1,4.4,0c1.1,0,1.2,0.5,1,1.3c-0.2,0.8-0.4,1.6-0.6,2.3
		c-0.4,1-0.3,1.7,1.1,1.5c0.3-0.1,0.8-0.1,0.8,0.4c0.1,1.2-0.7,2.2-1.9,2.2c-0.2,0-0.4,0-0.6,0c-1,0.1-1.4-0.2-1-1.2
		c0.3-0.7,0-0.8-0.6-0.8c-1,0-2,0-3,0c-0.6,0-0.7,0.2-0.7,0.8c0.3,4.4,0.9,8.7,2,12.9c0.6,2.4,1.3,4.8,2.3,7.2
		c0.6-1.4,0.6-1.4,1.9-1.4c2,0,3.9,0.1,5.9,0.1c0.6,0,0.9-0.1,1.1-0.8c0.4-1.6,0.9-3.2,1.3-4.8c0.2-0.7,0.1-1-0.7-1
		c-1.3,0.1-2.6,0-4,0.1c-0.8,0-1.1-0.3-0.8-1.1c0.4-1.3,0.7-2.5,1-3.8c0.2-0.6,0.5-0.9,1.2-0.9c1.2,0.1,2.4,0,3.6,0.1
		c1.3,0.2,1.8-0.3,2.1-1.6c0.4-1.8,0.5-1.7-1.4-1.7c-2.1,0-2.1,0-1.5-2c0.3-1,0-1.3-0.9-1.1c-0.6,0.1-0.9-0.1-0.7-0.8
		c0.4-1.6,0.5-1.7,2.5-1.6c0.6,0.1,0.8,0.3,0.6,0.8c-0.5,1.1,0.2,1.1,0.9,1.1c0.3,0,0.6,0,1,0c1.5,0,1.5,0,1.2,1.5
		c-0.5,1.8-0.5,1.8,1.4,1.8c0.1,0,0.2,0,0.2,0c3,0.1,3,0,2.3,3c-0.3,1.3-0.8,1.8-2.2,1.7c-3.3-0.1-3.2,0-4.1,3.1
		c-0.2,0.9-0.1,1.1,0.8,1.1c2.1,0,4.2,0,6.2,0c1.3,0,1.6,0.4,1.3,1.7c-0.4,1.5-0.8,3.1-1.2,4.6c-0.2,0.6-0.1,0.9,0.6,0.8
		c0.9,0,1.8,0,2.8,0c0.7,0.1,1-0.2,1.1-0.9c0.3-1.2,0.7-2.5,1-3.7c0.2-0.9,0.6-1.3,1.6-1.3c1.4,0.1,2.7,0.1,4.1,0.1
		c2.5,0,2.5,0,1.9,2.4c-0.4,1.3-0.2,2.9-1.2,3.7c-1,0.8-2.6,0.3-4,0.3c-3.1,0.1-3.1,0-3.8,3.1c-0.2,0.7-0.1,1,0.7,1
		c2.3,0,4.6,0.1,7,0.1c1.3,0,1.6,0.4,1.2,1.6c-0.4,1.7-0.9,3.3-1.3,5c-0.2,1.1-0.8,1.6-2,1.6c-2.4-0.1-4.8,0-7.2,0
		c-0.7,0-0.9,0.4-0.9,0.9c-0.1,0.8,0.6,0.5,0.9,0.5c1.2,0.1,2.3,0.1,3.5,0c0.8,0,1,0.3,0.8,1.1c-0.3,1-0.6,2.1-0.8,3.1
		c-0.1,0.7-0.5,0.9-1.2,0.9c-1.2,0-2.3,0-3.5,0c-0.7,0-1,0.2-1.2,0.8c-0.5,2-0.6,2,1.5,2.1c0.1,0,0.2,0,0.4,0c0.7,0,0.8,0.3,0.7,0.9
		c-0.5,2.4-0.5,2.5-2.9,2.5c-0.2,0-0.3,0-0.5,0c-0.4,0-0.7,0-0.8,0.5c-0.1,0.4,0,0.8,0.4,0.9c1.1,0.4,1.5,1.4,2.4,2.1
		c15.8,12.5,33.7,17.5,53.6,14.2c20.3-3.4,35.9-14.2,46.6-31.8c7.5-12.2,10.4-25.7,9.3-40c-0.5-6-1.7-11.8-3.8-17.4
		c-0.2-0.5-0.3-0.9-1-0.9c-0.8,0-0.7,0.6-0.9,1c0,0.1,0,0.2-0.1,0.4c-0.5,1.9-0.5,1.9-2.5,1.9c-0.2,0-0.3,0-0.5,0
		c-2.4,0-2.5,0-2-2.4c0.1-0.6,0-0.8-0.6-0.8c-1.5,0-3,0-4.6,0c-0.4,0-0.8,0.1-0.9,0.6c-0.9,3.4-1.7,6.9-2.6,10.4c0.9,0,1.7,0,2.5,0
		c0.8,0,1.1,0.3,0.9,1.1c-0.3,0.9-0.5,1.8-0.7,2.7c-0.2,0.8-0.6,1.1-1.4,1.1c-1,0-1.9,0-2.9,0c-0.6,0-0.9,0.2-1.1,0.8
		c-0.3,1.5-0.8,2.9-1.1,4.4c-0.2,1-0.8,1.4-1.8,1.4c-2,0-4.1,0-6.1,0c-1.2,0-1.4-0.4-1.2-1.5c0.3-1.4,0.8-2.8,1.1-4.2
		c0.3-1.2,1-1.7,2.2-1.7c1.8,0,3.5,0,5.3,0c0.8,0,1.5-0.9,1.4-1.9c-0.1-0.8-0.8-0.4-1.2-0.4c-4.4,0-8.8,0-13.2,0
		c-1.6,0-2.5-0.8-2.1-2.3c1-4.2,2-8.4,3.3-12.6c-2,0-4.1,0.1-6.2,0c-1.3-0.1-1.8,0.2-2.1,1.6c-0.6,2.9-1.4,5.7-2.2,8.6
		c1,0,2,0,2.9,0c0.8,0,1,0.2,0.8,1c-0.2,0.7-0.4,1.5-0.6,2.2c-0.1,0.5-0.5,0.8-1,0.8c-1.1,0-2.2,0-3.4,0c-0.5,0-0.8-0.3-0.6-0.9
		c0.2-0.8,0.4-1.5,0.6-2.3c-3.9,0-7.8,0-11.6,0c-1.6,0-2.1-0.6-1.7-2.2c0.6-2.4,1.2-4.8,1.8-7.2c0.1-0.2,0.4-0.7-0.2-0.7
		c-1.5,0-3.1-0.3-4.5,0.1c-0.7,0.2-0.6,1.8-0.9,2.7c0,0,0,0.1,0,0.1c-0.2,0.8-0.6,1.1-1.5,1.1c-1.4,0-2.9,0-4.3,0
		c-0.9,0-1.1-0.4-0.9-1.1c0.3-1,0.5-2.1,0.8-3.1c0.2-0.7,0.6-1.1,1.4-1.1c1,0,1.9,0,2.9,0c0.9,0.1,1.3-0.2,1.4-1.1
		c0.2-1.1,0.5-2.1,0.8-3.1c0.2-0.8,0.7-1.3,1.5-1.3c2,0,3.9,0,5.9,0c0.8,0,1.1,0.4,0.9,1.2c-0.2,0.9-0.4,1.9-0.7,2.8
		c-0.2,0.7,0,0.9,0.7,0.9c3.3,0,6.6,0,10,0c0.6,0,0.9-0.2,1-0.8c0.3-1.2,0.6-2.4,0.9-3.6c0.2-0.8,0.7-1.8,0.4-2.3
		c-0.4-0.7-1.5-0.3-2.3-0.3c-0.9,0-1.1-0.4-0.9-1.2c1-3.4,0.2-2.8,3.5-2.8c2.2,0,2.2,0,1.7,2.1c-0.2,0.9,0,1,0.8,1c2.3,0,4.6,0,7,0
		c1.3,0,1.6,0.4,1.3,1.7c-0.1,0.3-0.2,0.7-0.3,1c-0.4,1.7-0.9,3.4-1.3,5.2c4.4,0,8.6,0,12.8,0c3.2,0,3.2,0,3.8-3.1c0,0,0-0.1,0-0.2
		c-0.5,0-1.1,0-1.6,0c-0.3,0-0.6,0.1-0.7-0.3c-0.3-0.9,0.6-2.3,1.6-2.3c0.4,0,0.9,0,1.3,0c0.6,0,0.8,0.2,0.6,0.8
		c-0.3,0.7,0,0.9,0.7,0.9c2,0,4.1,0,6.1,0c1.1,0,1.4,0.4,1.1,1.4c-0.2,0.8-0.4,1.6-0.6,2.4c-0.7,2.8-0.7,2.8,2.3,2.6
		c0.3,0,0.6,0,0.7-0.3c0.2-0.8,0.6-1.5,0.2-2.4c-12.3-27.4-41-43.6-71.2-39.2C48.9,10.1,35.8,17.2,25,28.7c-0.9,0.9-1.7,1.9-2.5,2.9
		c2.2,0.3,2.3,0.4,1.8,2.5c-0.4,1.5-0.8,3-1.2,4.5c-0.2,0.7-0.2,1,0.7,1c1.7,0,3.4,0,5.2,0c0.6,0,0.8-0.2,1-0.8
		c0.4-1.6,0.9-3.2,1.3-4.9c0.2-1,0.7-1.4,1.8-1.3c2.4,0.1,4.7,0.1,7.1,0.2c1.2,0,1.5,0.4,1.2,1.6c-0.4,1.6-0.8,3.2-1.3,4.9
		c-0.2,0.6,0,0.9,0.6,0.8c1.1,0,2.2,0,3.2,0c0.7,0,1,0.3,0.8,1.1c-0.3,1-0.5,1.9-0.8,2.9c-0.1,0.5-0.4,0.8-0.9,0.7
		c-1.4,0-2.8,0-4.2,0c-0.7,0-0.9-0.3-0.7-0.9c0.2-0.8,0.4-1.5,0.6-2.3c0.2-0.6,0-0.7-0.5-0.7c-2.4,0-4.9,0-7.3,0
		c-0.5,0-0.7,0.2-0.8,0.7c-0.4,1.6-0.8,3.2-1.3,4.9c0.7,0,1.2,0,1.8,0c2.5,0,2.5,0,1.9,2.4C32,49.9,32.3,50,33,50
		c2.2,0,4.3,0.1,6.5,0.1c1.1,0,1.4,0.4,1.1,1.5c-0.5,1.8-1,3.6-1.4,5.4c-0.2,0.9-0.7,1.2-1.6,1.2c-2.4,0-4.9,0-7.3,0
		c-1.2,0-1.5-0.4-1.1-1.6c0.5-1.7,0.9-3.5,1.4-5.2c0.2-0.6,0.1-0.9-0.6-0.8c-0.7,0-1.4,0-2.2,0c-0.7,0-1.1-0.1-0.8-1
		C27.4,48.8,27.6,47.9,27.8,46.8z M18.4,111.3c1.6,2.4,3.2,4.5,4.9,6.5c0.4,0.4,0.7,1.3,1.3,1.2c0.6-0.1,0.5-1,0.6-1.6
		c0.8-2.5,0.2-2,2.6-2c2.4,0,2.4,0,3-2.3c0.4-1.4,0.4-1.4-1.1-1.4c-0.3,0-0.9,0.2-1-0.4c-0.2-1.1,0.8-2.2,1.9-2.1
		c0.9,0.1,1.2-0.3,1.4-1c0.4-1.8,0.9-3.6,1.5-5.4c0.2-0.6,0.1-0.8-0.6-0.7c-1.4,0-2.7,0-4.1,0c-0.7,0-1-0.2-0.7-0.9
		c0.3-0.8,0.4-1.6,0.7-2.4c0.2-0.6,0-0.8-0.6-0.8c-2.4,0-4.7,0-7.1,0c-0.5,0-0.7,0.1-0.8,0.6c-0.3,1.2-0.6,2.4-0.9,3.6
		c-0.2,0.7,0,0.9,0.7,0.9c2.3,0,4.6,0.1,6.9,0.1c1.2,0,1.5,0.4,1.2,1.5c-0.4,1.7-1,3.5-1.3,5.2c-0.2,1.1-0.8,1.4-1.8,1.4
		C23,111.3,20.8,111.3,18.4,111.3z M7.9,67.4c0.4-1.4,0.8-2.9,1.2-4.3c0.2-0.7,0.5-1,1.3-0.9c1.4,0.1,2.8,0,4.2,0.1
		c0.6,0,0.8-0.2,1-0.7c0.4-1.7,0.9-3.4,1.4-5.1c0.2-0.6,0.1-0.9-0.6-0.8c-1.9,0-3.8,0.1-5.7,0.1c-0.5,0-0.8,0.1-0.9,0.6
		C8.7,59.8,7.9,63.5,7.9,67.4z M16.7,45.9C16.7,45.9,16.7,45.9,16.7,45.9c0.8,0.1,1.7,0,2.5,0.1c0.5,0,0.7-0.1,0.8-0.6
		c0.4-1.6,0.9-3.1,1.3-4.7c0.1-0.2,0.2-0.6-0.2-0.7c-1.4,0-2.9,0-4.3,0c-0.1,0-0.3,0.2-0.4,0.4c-0.9,1.6-1.7,3.2-2.6,4.8
		c-0.3,0.6,0,0.7,0.5,0.7C15.1,45.8,15.9,45.9,16.7,45.9z M18.4,104c-1.4,0-2.8,0-4.3,0c0.9,1.8,1.7,3.4,2.9,5.1
		C17.5,107.3,18,105.6,18.4,104z M25.1,119.8c0.8,0.8,1.3,1.4,1.9,2c0.5,0.5,1.2,0.5,1.5,0.2c0.4-0.5,0.6-1.3,0.5-2
		c0-0.1-0.3-0.2-0.4-0.2C27.6,119.8,26.5,119.8,25.1,119.8z"/>
	<path class="st0" d="M207.9,59.4c-0.8,0-1.6,0-2.4,0c-1.5,0-1.5,0-1.2-1.4c1.1-4.7,2.3-9.3,3.3-14c0.2-0.8,0.5-1.1,1.4-1.1
		c1.9,0.1,3.8,0,5.6,0c0.6,0,1.3,0.1,1.9,0.2c1.4,0.3,2,0.9,1.9,2.3c-0.5,3.8-1.2,7.7-2.8,11.2c-0.9,2-2.8,2.6-4.9,2.7
		C209.8,59.5,208.8,59.4,207.9,59.4C207.9,59.4,207.9,59.4,207.9,59.4z"/>
	<path class="st0" d="M258.9,43.1c1.1,0.1,2.4-0.1,3.7,0.1c1.3,0.2,1.7,0.7,1.5,2.1c0,0.1,0,0.2,0,0.2c-0.7,4.7-1.7,5.5-6.5,5.5
		c-1.4,0-2.7,0-4.1,0c-0.7,0-0.8-0.2-0.6-0.8c0.6-2.1,1-4.3,1.5-6.4c0.1-0.6,0.4-0.8,1-0.8C256.5,43.1,257.6,43.1,258.9,43.1z"/>
	<path class="st0" d="M304.9,43.1c1.1,0.1,2.5-0.1,3.9,0.1c1.2,0.2,1.6,0.7,1.4,1.9c0,0.1,0,0.2,0,0.2c-0.7,4.9-1.7,5.7-6.6,5.7
		c-1.4,0-2.7,0-4.1,0c-0.5,0-0.7-0.1-0.6-0.7c0.6-2.2,1.1-4.4,1.6-6.6c0.1-0.5,0.4-0.7,0.9-0.7C302.5,43.1,303.6,43.1,304.9,43.1z"
		/>
	<path class="st0" d="M324.9,55c2.3-3.9,4.4-7.7,6.7-11.6c0.3,2.9,0.5,5.6,0.8,8.3c0,0.2,0,0.4,0,0.6c0,0.9,0.6,2.1,0,2.6
		c-0.5,0.4-1.7,0.2-2.5,0.2C328.3,55.1,326.7,55,324.9,55z"/>
	<path class="st0" d="M221.7,88.3c0.8,0,1.6,0,2.4,0c1.2,0.1,1.6,0.5,1.3,1.7c-0.4,2.2-1.1,2.8-3.3,2.9c-1.2,0-2.4,0-3.6,0
		c-0.9,0-1-0.3-0.8-1.1c0.1-0.2,0.1-0.4,0.2-0.6C218.6,88.3,218.6,88.3,221.7,88.3z"/>
	<path class="st0" d="M223.4,81.1c0.8,0,1.7,0,2.5,0c0.4,0,0.8,0.1,0.9,0.6c0.5,1.4-0.7,3.4-2.2,3.5c-1.6,0.1-3.1,0.1-4.7,0.1
		c-0.5,0-0.7-0.1-0.5-0.6c0.1-0.2,0.1-0.5,0.2-0.7C220.4,81,220.4,81,223.4,81.1z"/>
	<path class="st0" d="M389,92.8c0.9-3.8,1.8-7.5,2.7-11.2c0.1-0.5,0.4-0.5,0.8-0.5c1.6,0,3.2,0,4.8,0c1.7,0.1,2.3,0.8,2.1,2.5
		c-0.4,2.3-0.9,4.5-1.7,6.7c-0.5,1.5-1.6,2.4-3.2,2.5C392.7,92.9,390.9,92.8,389,92.8z"/>
	<path class="st0" d="M373,86.9c0.4-1.8,0.8-3.4,1.2-5.1c0.1-0.5,0.4-0.6,0.8-0.6c1.6,0,3.1,0,4.7,0c1.3,0.1,1.6,0.5,1.4,1.8
		c-0.3,3.1-1.3,3.9-4.4,3.9C375.5,86.9,374.3,86.9,373,86.9z"/>
	<path class="st0" d="M314.7,81.2c0.8,0,1.6,0,2.4,0c1.1,0,1.6,0.5,1.4,1.7c-0.3,3.1-1.3,4-4.3,4c-1.1,0-2.2,0-3.2,0
		c-0.5,0-0.6-0.1-0.5-0.6c0.4-1.5,0.7-3,1.1-4.5c0.1-0.5,0.4-0.6,0.9-0.6C313.2,81.2,313.9,81.2,314.7,81.2
		C314.7,81.2,314.7,81.2,314.7,81.2z"/>
	<path class="st0" d="M206,80.9c3.1,0,3.6,0.6,2.9,3.7c-0.5,1.9-1,3.8-1.5,5.7c-0.5,1.7-1.5,2.6-3.3,2.7c-1.1,0.1-2.1,0.1-3.2,0
		c-1-0.1-1.5-0.7-1.4-1.6c0.4-3,1.1-6,2.2-8.8c0.3-0.9,1.2-1.3,2.1-1.4C204.5,81,205.3,81,206,80.9z"/>
	<path class="st0" d="M294.8,93.1c-3.3,0-3.7-0.5-3-3.6c0.5-2,1-4,1.5-6c0.4-1.5,1.4-2.2,2.9-2.4c1.2-0.1,2.5-0.2,3.7,0
		c0.9,0.2,1.4,0.6,1.3,1.5c-0.4,3-1,5.9-2.2,8.6C298.2,93.2,296.3,92.9,294.8,93.1z"/>
	<path class="st0" d="M354.8,89.8c1.6-2.8,3.1-5.4,4.6-8.1c0.1,0,0.2,0,0.2,0.1c0.2,2.5,0.5,5,0.7,7.5c0,0.4-0.2,0.5-0.5,0.5
		C358.3,89.8,356.6,89.8,354.8,89.8z"/>
	<path class="st0" d="M242.1,81.8c0.2,2.4,0.4,4.9,0.7,7.3c0,0.5-0.1,0.6-0.6,0.6c-1.6,0-3.2,0-5,0c1.6-2.8,3.1-5.4,4.6-8.1
		C241.9,81.7,242,81.8,242.1,81.8z"/>
	<path class="st0" d="M176.7,115.5c-0.1,3-1.7,5.4-4,6c-2.5,0.6-4-0.6-3.8-3.2c0.1-1.5,0.6-2.9,1.6-4.1c1.2-1.4,2.7-1.8,4.4-1.5
		C176.1,113,176.7,114,176.7,115.5z"/>
	<path class="st0" d="M359.3,112.8c2,0,3,1,2.8,2.9c-0.1,1.5-0.6,3-1.5,4.2c-0.6,0.8-1.3,1.4-2.3,1.6c-2.9,0.8-4.5-0.7-4-3.6
		c0.2-1.2,0.6-2.2,1.3-3.2C356.6,113.4,357.8,112.7,359.3,112.8z"/>
	<path class="st0" d="M271.6,121.5c-1.6,0-1.6,0-1.2-1.6c0.6-2.1,1.1-4.2,1.6-6.3c0.2-0.7,0.5-0.9,1.2-0.9c4-0.1,5.3,1.9,3.6,5.5
		C275.9,120.5,274.1,121.6,271.6,121.5z"/>
	<path class="st0" d="M319,121.5c-1.7,0-1.7,0-1.3-1.6c0.6-2.1,1.1-4.2,1.6-6.3c0.1-0.6,0.4-0.8,1-0.9c4-0.2,5.4,1.8,3.7,5.5
		C323.1,120.5,321.4,121.5,319,121.5z"/>
	<path class="st0" d="M299.9,112.8c0.3,0,0.4,0,0.5,0c0.8,0.2,1.9,0,2.1,1.2c0.2,1-0.4,2.2-1.4,2.7c-0.2,0.1-0.4,0.2-0.7,0.2
		c-2.6,0.6-2.9,0.3-2.3-2.2c0.1-0.2,0.1-0.4,0.2-0.6C298.4,113.2,298.9,112.5,299.9,112.8z"/>
	<path class="st0" d="M251.3,113.3c0.2,1.6,0.3,2.9,0.5,4.2c0,0.4-0.1,0.6-0.5,0.6c-0.9,0-1.8,0-2.9,0
		C249.3,116.4,250.2,115,251.3,113.3z"/>
	<path class="st0" d="M311,113.3c0.2,1.5,0.3,2.8,0.4,4.1c0,0.3,0.1,0.7-0.4,0.7c-0.8,0-1.7,0.1-2.5,0c-0.7-0.1-0.3-0.5-0.1-0.7
		C309.2,116,310,114.8,311,113.3z"/>
	<path class="st0" d="M392.6,113.3c0.2,1.5,0.3,2.8,0.5,4c0.1,0.5-0.1,0.7-0.6,0.7c-0.7,0-1.4,0-2,0c-0.7,0-0.7-0.3-0.4-0.8
		C390.8,116.1,391.7,114.8,392.6,113.3z"/>
	<path class="st2" d="M27.8,46.8c-0.3,1.1-0.5,2-0.8,2.9c-0.3,0.8,0,1,0.8,1c0.7,0,1.4,0,2.2,0c0.7,0,0.8,0.2,0.6,0.8
		c-0.5,1.7-1,3.5-1.4,5.2c-0.3,1.2-0.1,1.6,1.1,1.6c2.4,0,4.9,0,7.3,0c0.9,0,1.4-0.3,1.6-1.2c0.4-1.8,1-3.6,1.4-5.4
		c0.3-1.1,0-1.5-1.1-1.5C37.4,50.1,35.2,50,33,50c-0.7,0-1-0.1-0.8-0.9c0.6-2.4,0.6-2.4-1.9-2.4c-0.6,0-1.1,0-1.8,0
		c0.5-1.7,0.9-3.3,1.3-4.9c0.1-0.4,0.3-0.7,0.8-0.7c2.4,0,4.9,0,7.3,0c0.5,0,0.7,0.1,0.5,0.7c-0.2,0.8-0.4,1.5-0.6,2.3
		c-0.2,0.6,0,0.9,0.7,0.9c1.4,0,2.8,0,4.2,0c0.5,0,0.8-0.2,0.9-0.7c0.2-1,0.5-1.9,0.8-2.9c0.2-0.8,0-1.1-0.8-1.1
		c-1.1,0-2.2-0.1-3.2,0c-0.7,0-0.8-0.2-0.6-0.8c0.5-1.6,0.9-3.2,1.3-4.9c0.3-1.2,0-1.5-1.2-1.6c-2.4-0.1-4.7-0.1-7.1-0.2
		c-1,0-1.5,0.3-1.8,1.3c-0.4,1.6-0.9,3.2-1.3,4.9c-0.1,0.6-0.4,0.8-1,0.8c-1.7,0-3.4-0.1-5.2,0c-0.9,0-0.9-0.3-0.7-1
		c0.5-1.5,0.8-3,1.2-4.5c0.5-2.1,0.5-2.2-1.8-2.5c0.9-1,1.7-2,2.5-2.9c10.8-11.5,24-18.6,39.6-20.9c30.2-4.4,58.9,11.8,71.2,39.2
		c0.4,0.9,0,1.6-0.2,2.4c-0.1,0.4-0.4,0.3-0.7,0.3c-3,0.3-3,0.3-2.3-2.6c0.2-0.8,0.4-1.6,0.6-2.4c0.2-1,0-1.4-1.1-1.4
		c-2,0-4.1,0-6.1,0c-0.7,0-1-0.1-0.7-0.9c0.2-0.6,0-0.8-0.6-0.8c-0.4,0-0.9,0-1.3,0c-0.9,0-1.9,1.4-1.6,2.3c0.1,0.4,0.4,0.3,0.7,0.3
		c0.6,0,1.1,0,1.6,0c0,0.1,0,0.2,0,0.2c-0.6,3.1-0.6,3.1-3.8,3.1c-4.2,0-8.4,0-12.8,0c0.4-1.8,0.9-3.5,1.3-5.2
		c0.1-0.3,0.2-0.7,0.3-1c0.3-1.2,0-1.6-1.3-1.7c-2.3,0-4.6,0-7,0c-0.8,0-1-0.1-0.8-1c0.6-2.1,0.5-2.2-1.7-2.1
		c-3.3,0-2.6-0.5-3.5,2.8c-0.2,0.8-0.1,1.2,0.9,1.2c0.8,0,1.9-0.4,2.3,0.3c0.3,0.5-0.3,1.5-0.4,2.3c-0.3,1.2-0.6,2.4-0.9,3.6
		c-0.1,0.6-0.4,0.8-1,0.8c-3.3,0-6.6,0-10,0c-0.7,0-0.9-0.3-0.7-0.9c0.3-0.9,0.5-1.9,0.7-2.8c0.2-0.8-0.1-1.2-0.9-1.2
		c-2,0-3.9,0-5.9,0c-0.8,0-1.3,0.5-1.5,1.3c-0.3,1-0.6,2.1-0.8,3.1c-0.1,0.9-0.6,1.1-1.4,1.1c-1-0.1-1.9,0-2.9,0
		c-0.8,0-1.2,0.4-1.4,1.1c-0.3,1-0.5,2.1-0.8,3.1c-0.2,0.7,0,1.1,0.9,1.1c1.4,0,2.9,0,4.3,0c0.8,0,1.3-0.4,1.5-1.1c0,0,0-0.1,0-0.1
		c0.3-0.9,0.2-2.5,0.9-2.7c1.4-0.4,3-0.2,4.5-0.1c0.6,0,0.2,0.5,0.2,0.7c-0.6,2.4-1.2,4.8-1.8,7.2c-0.4,1.6,0.1,2.2,1.7,2.2
		c3.8,0,7.7,0,11.6,0c-0.2,0.8-0.3,1.6-0.6,2.3c-0.2,0.6,0.1,0.8,0.6,0.9c1.1,0,2.2,0,3.4,0c0.6,0,0.9-0.3,1-0.8
		c0.2-0.7,0.4-1.5,0.6-2.2c0.2-0.7-0.1-1-0.8-1c-1,0-1.9,0-2.9,0c0.8-2.9,1.6-5.7,2.2-8.6c0.3-1.4,0.8-1.7,2.1-1.6
		c2.1,0.1,4.1,0,6.2,0c-1.4,4.2-2.3,8.4-3.3,12.6c-0.4,1.4,0.5,2.3,2.1,2.3c4.4,0,8.8,0,13.2,0c0.4,0,1.1-0.4,1.2,0.4
		c0.1,1-0.6,1.9-1.4,1.9c-1.8,0-3.5,0-5.3,0c-1.2,0-1.9,0.4-2.2,1.7c-0.3,1.4-0.7,2.8-1.1,4.2c-0.3,1.1,0,1.5,1.2,1.5
		c2,0,4.1,0,6.1,0c1,0,1.6-0.5,1.8-1.4c0.4-1.5,0.8-2.9,1.1-4.4c0.1-0.6,0.4-0.8,1.1-0.8c1,0,1.9,0,2.9,0c0.8,0,1.3-0.3,1.4-1.1
		c0.2-0.9,0.4-1.8,0.7-2.7c0.2-0.8-0.1-1.1-0.9-1.1c-0.8,0-1.6,0-2.5,0c0.9-3.5,1.8-6.9,2.6-10.4c0.1-0.5,0.4-0.6,0.9-0.6
		c1.5,0,3,0,4.6,0c0.6,0,0.7,0.1,0.6,0.8c-0.5,2.4-0.5,2.4,2,2.4c0.2,0,0.3,0,0.5,0c2,0,2,0,2.5-1.9c0-0.1,0-0.2,0.1-0.4
		c0.2-0.4,0.1-1,0.9-1c0.7,0,0.8,0.5,1,0.9c2,5.6,3.3,11.4,3.8,17.4c1.1,14.3-1.8,27.7-9.3,40c-10.7,17.5-26.3,28.4-46.6,31.8
		c-19.9,3.3-37.8-1.7-53.6-14.2c-0.8-0.7-1.3-1.7-2.4-2.1c-0.3-0.1-0.5-0.5-0.4-0.9c0.1-0.5,0.4-0.5,0.8-0.5c0.2,0,0.3,0,0.5,0
		c2.4,0,2.4,0,2.9-2.5c0.1-0.6,0-0.9-0.7-0.9c-0.1,0-0.2,0-0.4,0c-2.1-0.1-2.1,0-1.5-2.1c0.2-0.7,0.5-0.9,1.2-0.8
		c1.2,0.1,2.3,0,3.5,0c0.7,0,1-0.2,1.2-0.9c0.2-1.1,0.5-2.1,0.8-3.1c0.2-0.7-0.1-1.1-0.8-1.1c-1.2,0-2.3,0-3.5,0
		c-0.3,0-1,0.3-0.9-0.5c0.1-0.6,0.2-0.9,0.9-0.9c2.4,0,4.8,0,7.2,0c1.2,0,1.7-0.4,2-1.6c0.4-1.7,0.9-3.3,1.3-5
		c0.3-1.2,0-1.6-1.2-1.6c-2.3-0.1-4.6-0.1-7-0.1c-0.8,0-0.9-0.3-0.7-1c0.7-3,0.7-3,3.8-3.1c1.3,0,2.9,0.5,4-0.3
		c1-0.8,0.8-2.4,1.2-3.7c0.7-2.3,0.6-2.4-1.9-2.4c-1.4,0-2.7,0-4.1-0.1c-1-0.1-1.4,0.4-1.6,1.3c-0.3,1.2-0.7,2.5-1,3.7
		c-0.1,0.7-0.4,1-1.1,0.9c-0.9-0.1-1.8-0.1-2.8,0c-0.7,0-0.8-0.2-0.6-0.8c0.4-1.5,0.8-3.1,1.2-4.6c0.3-1.3,0-1.7-1.3-1.7
		c-2.1,0-4.2-0.1-6.2,0c-0.9,0-1-0.2-0.8-1.1c0.8-3.1,0.8-3.2,4.1-3.1c1.4,0,1.9-0.4,2.2-1.7c0.7-2.9,0.7-2.9-2.3-3
		c-0.1,0-0.2,0-0.2,0c-1.9,0-1.9,0-1.4-1.8c0.4-1.4,0.4-1.4-1.2-1.5c-0.3,0-0.6,0-1,0c-0.8,0-1.4,0-0.9-1.1c0.2-0.5,0-0.8-0.6-0.8
		c-2-0.2-2.1-0.1-2.5,1.6c-0.2,0.7,0.1,0.9,0.7,0.8c0.9-0.1,1.3,0.1,0.9,1.1c-0.6,2-0.6,2,1.5,2c1.8,0,1.8,0,1.4,1.7
		c-0.3,1.2-0.7,1.8-2.1,1.6c-1.2-0.2-2.4-0.1-3.6-0.1c-0.7,0-1,0.3-1.2,0.9c-0.3,1.3-0.7,2.6-1,3.8c-0.2,0.8,0,1.1,0.8,1.1
		c1.3,0,2.6,0,4-0.1c0.8,0,0.9,0.3,0.7,1c-0.5,1.6-0.9,3.2-1.3,4.8c-0.2,0.7-0.5,0.8-1.1,0.8c-2-0.1-3.9-0.1-5.9-0.1
		c-1.4,0-1.4,0-1.9,1.4c-1-2.4-1.7-4.8-2.3-7.2c-1.1-4.2-1.7-8.5-2-12.9C7.3,77.2,7.4,77,8,77c1,0,2,0,3,0c0.6,0,0.9,0.1,0.6,0.8
		c-0.4,1,0,1.3,1,1.2c0.2,0,0.4,0,0.6,0c1.2,0,2.1-1,1.9-2.2c-0.1-0.6-0.5-0.5-0.8-0.4c-1.4,0.2-1.4-0.4-1.1-1.5
		c0.3-0.7,0.4-1.5,0.6-2.3c0.2-0.9,0.1-1.4-1-1.3c-1.5,0-3-0.1-4.4,0c-0.8,0-0.9-0.3-0.7-1c0.5-2.3,0.5-2.3,2.9-2.3
		c1.1,0,2.2,0,3.2,0c0.8,0,1.2-0.2,1.3-1c0-0.2,0.1-0.4,0.2-0.6c0.3-1,0.2-2.4,1-3c0.7-0.5,2-0.2,3-0.2c1.6,0,3.2,0,4.8,0
		c0.8,0,1.2-0.3,1.4-1c0.5-1.9,1-3.8,1.5-5.7c0.2-1-0.1-1.4-1.1-1.4c-2.2,0-4.4-0.1-6.6-0.1c-0.6,0-0.8-0.1-0.6-0.7
		c0.6-2.3,1.2-4.6,1.8-7c0.1-0.4,0.4-0.5,0.7-0.5C23.3,46.8,25.5,46.8,27.8,46.8z M84.5,78.2c0.6-2.1,1.1-4,1.6-5.9
		c0.3-1.1,0-1.5-1.1-1.5c-2.2-0.1-4.5-0.1-6.7-0.2c-1,0-1.4,0.4-1.7,1.3c-0.4,1.8-1,3.5-1.4,5.3c-0.2,0.9-0.9,0.6-1.4,0.5
		c-0.6-0.1-0.2-0.6-0.1-0.8c0.1-0.6,0.3-1.2,0.4-1.7c0.1-0.4,0-0.7-0.5-0.7c-1.3,0-2.8-0.4-3.9,0.1c-0.8,0.4-0.6,1.8-1,2.7
		c-0.3,0.8,0.1,1,0.8,1c0.8,0,1.7,0,2.5,0c0.6,0,0.8,0.2,0.6,0.8c-0.1,0.3-0.4,0.7,0,1c0.6,0.5,2.5-0.1,2.7-0.8
		c0.1-0.4,0.3-0.7,0.8-0.7c2.4,0,4.7,0,7.2,0c-0.5,1.7-0.9,3.3-1.3,4.9c-0.2,0.7-0.5,0.8-1.2,0.8c-2.6-0.1-5.3-0.1-7.9-0.2
		c-1.1,0-1.6,0.3-1.9,1.4c-0.5,2.1-1.1,4.2-1.7,6.2c-0.4,1.4-0.1,1.7,1.3,1.7c2.5,0,5,0,7.4,0c0.9,0,1,0.3,0.8,1
		c-0.4,1.5-0.8,2.9-1.2,4.4c-0.5,1.7-0.4,1.8,1.5,1.8c2,0,4,0,6,0c0.3,0,0.9-0.2,0.7,0.4c-0.2,0.8-0.3,1.6-0.7,2.3
		c-0.3,0.5-1,0.1-1.6,0.2c-0.1,0-0.2,0-0.4,0c-0.5,0.1-1.2,1.9-0.9,2.1c0.6,0.4,1.4,0.1,2.1,0.1c0.5,0,0.6-0.4,0.6-0.7
		c0.1-0.9,0.6-1.1,1.4-1c0.4,0.1,0.8,0,1.2,0c1.9,0,1.9,0,1.4,1.8c-0.8,2.7-0.8,2.7-3.5,2.7c-2.3,0-2.3,0-2.9,2.2
		c-0.6,2.2-0.6,2.2,1.7,2.2c1,0,2.3,0.4,3.1-0.2c0.8-0.6,0.7-1.9,1-2.9c0.2-0.6,0.4-0.8,1.1-0.8c1.5,0,3,0,4.6,0
		c0.7,0,1-0.2,1.2-0.9c0.3-1.1,0.6-2.2,0.9-3.4c0.2-0.8,0-1.1-0.9-1.1c-1.1,0-2.2,0-3.4,0c-1.9-0.1-1.8,0-1.4-1.9
		c0.2-1,0.7-1.4,1.7-1.3c1.3,0.1,2.6,0,4,0c0.6,0,1-0.1,1.2-0.8c0.3-1.2,0.6-2.4,0.9-3.6c0.2-0.7-0.1-1-0.8-1c-0.9,0-1.8,0-2.6,0
		c-2.9,0-2.9,0-3.7,2.7c-0.7,2.5-0.7,2.4-3.2,2.3c-0.7,0-0.8-0.2-0.6-0.9c0.5-1.6,0.9-3.2,1.3-4.9c0.3-1.1,0-1.5-1.2-1.5
		c-2,0-3.9-0.1-5.9-0.1c-0.8,0-1-0.2-0.8-1c0.6-2,1.1-4.1,1.6-6.1c0.1-0.6,0.5-0.6,0.9-0.6c1.4,0,2.8,0,4.2,0c1.9,0,1.9,0,1.4,1.8
		c-0.5,1.9-0.5,1.9,1.5,1.9c3,0,2.9,0,3.6-2.9c0.2-0.8-0.1-0.9-0.7-0.9c-1,0-2,0-3.1,0c0.4-1.7,0.8-3.1,1.2-4.6
		c0.1-0.5,0.4-0.8,1-0.8c2.2,0,4.3,0,6.5,0c0.8,0,0.9,0.2,0.7,1c-0.8,2.8-0.7,2.8,2.2,2.8c1.6,0,1.6,0.1,1.1,1.6
		c-0.2,0.5-0.4,0.6-0.9,0.6c-0.8,0-1.6,0-2.4,0c-2.2,0-1.9-0.5-2.5,1.9c-0.8,2.8-0.8,2.8,2.2,2.8c2.9,0,2.9,0,3.6-2.8
		c0.2-0.9,0.6-1.1,1.6-1.1c2.4,0.1,2.4,0,3-2.3c0-0.1,0-0.2,0.1-0.2c0.2-0.6,0-0.8-0.6-0.9c-0.7-0.1-1.8,0.3-2.1-0.3
		c-0.3-0.6,0.3-1.5,0.4-2.3c0-0.1,0-0.2,0.1-0.2c0.2-0.8,0-1.2-0.9-1.2c-1.2,0-2.4,0-3.7,0c0.5-1.9,1-3.6,1.4-5.3
		c0.3-1.2,0-1.6-1.3-1.6c-2.2,0-4.5,0-6.7-0.1c-0.9,0-1.3,0.3-1.5,1.2c-0.4,1.5-0.8,3.1-1.2,4.6c-0.1,0.5-0.2,0.8-0.8,0.8
		C88.5,78.2,86.5,78.2,84.5,78.2z M60.5,31C60.5,31,60.5,31,60.5,31c0.9,0,1.8,0,2.8,0c0.6,0,0.7,0.2,0.6,0.7
		c-0.1,0.3-0.1,0.5-0.2,0.8c-0.3,0.7-0.1,1,0.7,1c1,0,2,0,3,0c0.5,0,0.8-0.1,1-0.6c0.3-0.8,0.1-1.9,0.9-2.2c0.7-0.3,1.7-0.1,2.5-0.1
		c0.2,0,0.5,0,0.7,0c2.2,0,1.9,0.3,2.4-1.9c0.8-3,1.3-2.8-2.1-2.9c-2.9-0.1-2.9-0.1-3.8,2.8c-0.3,1-1,1.4-2.1,1
		c-0.8-0.3-0.1-0.9,0-1.4c0-0.6,0.3-1.2,0.4-1.7c0.5-2,0.5-2,2.6-2c2.7,0,2.1,0.2,2.7-2.1c0.7-2.3,0.6-2.3-1.8-2.3
		c-0.1,0-0.2,0-0.4,0c-2.6,0-2.6,0-3.4,2.5c-0.2,0.6-0.4,0.9-1.1,0.9c-2.1-0.1-4.2-0.1-6.2-0.2c-0.8,0-1.2,0.3-1.4,1.1
		c-0.5,1.9-1,3.7-1.5,5.5c-0.3,0.9,0.1,1.3,1,1.3C58.7,31,59.6,31,60.5,31z M35.4,69.9c-0.4,2.3-0.4,2.2,1.6,2.2
		c1.4,0,1.1-1.1,1.2-1.8c0.2-0.8-0.7-0.4-1.1-0.5c-0.2-0.1-0.5,0-0.7,0c-0.4,0-0.6-0.2-0.5-0.6c0.5-1.3-0.4-1-1.1-1.1
		c-1.2-0.1-1.1,0.8-1.2,1.4c-0.1,0.9,0.7,0.3,1.1,0.5C35,69.9,35.2,69.9,35.4,69.9z"/>
	<path class="st2" d="M18.4,111.3c2.4,0,4.5,0,6.7,0c1.1,0,1.6-0.4,1.8-1.4c0.4-1.8,0.9-3.5,1.3-5.2c0.3-1.2,0-1.5-1.2-1.5
		c-2.3-0.1-4.6-0.1-6.9-0.1c-0.7,0-0.9-0.2-0.7-0.9c0.3-1.2,0.7-2.4,0.9-3.6c0.1-0.5,0.4-0.6,0.8-0.6c2.4,0,4.7,0,7.1,0
		c0.6,0,0.8,0.1,0.6,0.8c-0.3,0.8-0.4,1.6-0.7,2.4c-0.2,0.7,0.1,0.9,0.7,0.9c1.4,0,2.7,0,4.1,0c0.6,0,0.7,0.1,0.6,0.7
		c-0.5,1.8-1,3.6-1.5,5.4c-0.2,0.8-0.5,1.1-1.4,1c-1.2-0.1-2.1,1-1.9,2.1c0.1,0.6,0.6,0.4,1,0.4c1.4,0.1,1.4,0,1.1,1.4
		c-0.6,2.4-0.6,2.3-3,2.3c-2.5,0-1.9-0.4-2.6,2c-0.2,0.6-0.1,1.4-0.6,1.6c-0.5,0.1-0.9-0.7-1.3-1.2C21.6,115.9,20,113.8,18.4,111.3z
		"/>
	<path class="st2" d="M7.9,67.4c0-3.8,0.8-7.5,1.8-11.2c0.1-0.5,0.4-0.6,0.9-0.6c1.9,0,3.8,0,5.7-0.1c0.7,0,0.8,0.2,0.6,0.8
		c-0.5,1.7-1,3.4-1.4,5.1c-0.1,0.6-0.4,0.8-1,0.7c-1.4-0.1-2.8,0-4.2-0.1c-0.7,0-1.1,0.2-1.3,0.9C8.7,64.5,8.3,65.9,7.9,67.4z"/>
	<path class="st2" d="M16.7,45.9c-0.8,0-1.6,0-2.4,0c-0.5,0-0.8-0.1-0.5-0.7c0.9-1.6,1.7-3.2,2.6-4.8c0.1-0.2,0.3-0.4,0.4-0.4
		c1.4,0,2.9-0.1,4.3,0c0.4,0,0.3,0.4,0.2,0.7c-0.4,1.6-0.9,3.1-1.3,4.7c-0.1,0.5-0.4,0.6-0.8,0.6C18.3,45.9,17.5,45.9,16.7,45.9
		C16.7,45.9,16.7,45.9,16.7,45.9z"/>
	<path class="st2" d="M18.4,104c-0.5,1.7-0.9,3.3-1.4,5.1c-1.1-1.7-2-3.3-2.9-5.1C15.6,104,17,104,18.4,104z"/>
	<path class="st2" d="M25.1,119.8c1.4,0,2.5,0,3.5,0c0.1,0,0.4,0.1,0.4,0.2c0.1,0.7-0.1,1.5-0.5,2c-0.3,0.4-1,0.3-1.5-0.2
		C26.4,121.2,25.9,120.6,25.1,119.8z"/>
	<path class="st0" d="M84.5,78.2c2.1,0,4,0,5.9,0c0.6,0,0.7-0.3,0.8-0.8c0.4-1.5,0.8-3.1,1.2-4.6c0.2-0.8,0.6-1.2,1.5-1.2
		c2.2,0.1,4.5,0.1,6.7,0.1c1.3,0,1.6,0.4,1.3,1.6c-0.4,1.7-0.9,3.5-1.4,5.3c1.3,0,2.5,0,3.7,0c0.9,0,1.1,0.4,0.9,1.2
		c0,0.1,0,0.2-0.1,0.2c-0.2,0.8-0.8,1.7-0.4,2.3c0.3,0.6,1.4,0.2,2.1,0.3c0.6,0.1,0.8,0.3,0.6,0.9c0,0.1,0,0.2-0.1,0.2
		c-0.6,2.4-0.6,2.4-3,2.3c-0.9,0-1.3,0.2-1.6,1.1c-0.7,2.8-0.7,2.8-3.6,2.8c-3,0-3,0-2.2-2.8c0.6-2.4,0.4-1.9,2.5-1.9
		c0.8,0,1.6,0,2.4,0c0.5,0,0.7-0.1,0.9-0.6c0.5-1.5,0.5-1.6-1.1-1.6c-2.9,0-2.9,0-2.2-2.8c0.2-0.8,0.1-1-0.7-1
		c-2.2,0.1-4.3,0.1-6.5,0c-0.6,0-0.9,0.2-1,0.8c-0.4,1.5-0.8,2.9-1.2,4.6c1.1,0,2.1,0,3.1,0c0.7,0,0.9,0.2,0.7,0.9
		c-0.6,2.9-0.6,2.9-3.6,2.9c-2,0-2,0-1.5-1.9c0.5-1.8,0.5-1.8-1.4-1.8c-1.4,0-2.8,0-4.2,0c-0.5,0-0.8,0-0.9,0.6
		c-0.5,2.1-1,4.1-1.6,6.1c-0.2,0.8,0,1,0.8,1c2,0,3.9,0.1,5.9,0.1c1.1,0,1.4,0.4,1.2,1.5c-0.4,1.6-0.8,3.2-1.3,4.9
		c-0.2,0.6,0,0.8,0.6,0.9c2.5,0.1,2.5,0.2,3.2-2.3c0.8-2.8,0.8-2.8,3.7-2.7c0.9,0,1.8,0,2.6,0c0.7,0,1,0.3,0.8,1
		c-0.3,1.2-0.7,2.4-0.9,3.6c-0.2,0.7-0.6,0.8-1.2,0.8c-1.3,0-2.6,0.1-4,0c-1-0.1-1.5,0.3-1.7,1.3c-0.4,1.9-0.5,1.8,1.4,1.9
		c1.1,0,2.2,0.1,3.4,0c0.8,0,1.1,0.4,0.9,1.1c-0.3,1.1-0.6,2.2-0.9,3.4c-0.2,0.7-0.5,0.9-1.2,0.9c-1.5,0-3,0-4.6,0
		c-0.6,0-0.9,0.2-1.1,0.8c-0.3,1-0.2,2.3-1,2.9c-0.8,0.6-2,0.2-3.1,0.2c-2.3,0-2.3,0-1.7-2.2c0.6-2.2,0.6-2.2,2.9-2.2
		c2.8,0,2.8,0,3.5-2.7c0.5-1.8,0.5-1.8-1.4-1.8c-0.4,0-0.8,0-1.2,0c-0.8-0.1-1.3,0.1-1.4,1c0,0.4-0.2,0.7-0.6,0.7
		c-0.7,0-1.5,0.2-2.1-0.1c-0.4-0.2,0.4-2,0.9-2.1c0.1,0,0.2,0,0.4,0c0.5-0.1,1.3,0.3,1.6-0.2c0.4-0.7,0.5-1.5,0.7-2.3
		c0.1-0.7-0.5-0.4-0.7-0.4c-2,0-4,0-6,0c-1.8,0-1.9-0.1-1.5-1.8c0.4-1.5,0.8-2.9,1.2-4.4c0.2-0.7,0.1-1.1-0.8-1c-2.5,0.1-5,0-7.4,0
		c-1.5,0-1.7-0.3-1.3-1.7c0.6-2.1,1.2-4.2,1.7-6.2c0.3-1,0.8-1.4,1.9-1.4c2.6,0.1,5.3,0.1,7.9,0.2c0.7,0,1-0.1,1.2-0.8
		c0.4-1.6,0.8-3.2,1.3-4.9c-2.5,0-4.8,0-7.2,0c-0.5,0-0.7,0.2-0.8,0.7c-0.2,0.7-2.1,1.3-2.7,0.8c-0.4-0.3-0.1-0.7,0-1
		c0.2-0.6,0-0.8-0.6-0.8c-0.8,0-1.7,0-2.5,0c-0.7,0-1.1-0.2-0.8-1c0.3-0.9,0.2-2.3,1-2.7c1.1-0.6,2.6-0.1,3.9-0.1
		c0.5,0,0.6,0.3,0.5,0.7c-0.1,0.6-0.3,1.2-0.4,1.7c-0.1,0.3-0.5,0.7,0.1,0.8c0.5,0.1,1.1,0.3,1.4-0.5c0.5-1.8,1-3.5,1.4-5.3
		c0.2-0.9,0.7-1.3,1.7-1.3c2.2,0.1,4.5,0.1,6.7,0.2c1.1,0,1.4,0.4,1.1,1.5C85.6,74.2,85.1,76.1,84.5,78.2z"/>
	<path class="st0" d="M60.5,31c-0.9,0-1.8,0-2.8,0c-0.9,0-1.3-0.4-1-1.3c0.5-1.8,1.1-3.7,1.5-5.5c0.2-0.8,0.6-1.1,1.4-1.1
		c2.1,0.1,4.2,0.1,6.2,0.2c0.7,0,1-0.2,1.1-0.9c0.7-2.5,0.7-2.5,3.4-2.5c0.1,0,0.2,0,0.4,0c2.5,0,2.5,0,1.8,2.3
		c-0.7,2.4-0.1,2.1-2.7,2.1c-2.1,0-2.1,0-2.6,2c-0.2,0.6-0.4,1.2-0.4,1.7c0,0.5-0.8,1.1,0,1.4c1,0.4,1.8,0,2.1-1
		c0.8-2.9,0.8-2.9,3.8-2.8c3.4,0.1,2.9-0.2,2.1,2.9c-0.6,2.2-0.2,1.8-2.4,1.9c-0.2,0-0.5,0-0.7,0c-0.8,0-1.8-0.2-2.5,0.1
		c-0.8,0.3-0.6,1.5-0.9,2.2c-0.2,0.5-0.5,0.7-1,0.6c-1,0-2,0-3,0c-0.8,0-1-0.3-0.7-1c0.1-0.3,0.2-0.5,0.2-0.8c0.2-0.5,0-0.7-0.6-0.7
		C62.3,31,61.4,31,60.5,31C60.5,31,60.5,31,60.5,31z"/>
	<path class="st0" d="M35.4,69.9c-0.2,0-0.5,0-0.7-0.1c-0.4-0.1-1.1,0.4-1.1-0.5c0.1-0.6,0-1.5,1.2-1.4c0.7,0.1,1.7-0.2,1.1,1.1
		c-0.2,0.4,0,0.6,0.5,0.6c0.2,0,0.5,0,0.7,0c0.4,0.1,1.3-0.3,1.1,0.5c-0.1,0.7,0.1,1.8-1.2,1.8C35.1,72.1,35.1,72.1,35.4,69.9z"/>
</g>
</svg>
