<?xml version="1.0" encoding="utf-8"?>
<!-- Generator: Adobe Illustrator 19.0.0, SVG Export Plug-In . SVG Version: 6.00 Build 0)  -->
<svg version="1.1" id="Слой_1" xmlns="http://www.w3.org/2000/svg" xmlns:xlink="http://www.w3.org/1999/xlink" x="0px" y="0px"
	 viewBox="444 18 1500 758" style="enable-background:new 444 18 1500 758;" xml:space="preserve">
<style type="text/css">
	.st0{fill:#599893;}
	.st1{fill:#FEFDFC;}
	.st2{fill:#D73E02;}
	.st3{fill:#2E3033;}
	.st4{fill:#81B1AD;}
	.st5{fill:#2C2E2F;}
	.st6{fill:#94C5C0;}
	.st7{fill:#9DCBC6;}
	.st8{fill:#498E89;}
	.st9{fill:#2F3134;}
	.st10{fill:#303235;}
	.st11{fill:#842600;}
	.st12{fill:#B1B2B3;}
</style>
<g>
	<path class="st0" d="M1015,19c18,0,36,0,54,0c1.3,3.4,4.3,1.9,6.5,1.9c137,0.1,274.1,0.1,411.1,0c1.8,0,3.7,0.5,5.3-0.7
		c4.2,1,8.5,1.7,12.2,4c12.1,7.3,19,17.8,19,32.3c0,158,0,316,0,474c0,2-0.1,4,0.2,6c0.7,4.1,0.1,7.9-1.1,11.8
		c-1.8,1.4-2.3,3.6-3.4,5.4c-6.7,10.7-15,17.7-28.9,17.7c-335.5-0.2-670.9-0.2-1006.4,0c-10.2,0-17.3-4.5-23.7-11.5
		c-4.7-5.1-6.2-11.7-8.8-17.8c0.1-1.7,0.2-3.4,0.3-5.1c2.3-1,1.6-3.1,1.6-4.8C453,373.8,453,215.5,453,57.1c0-1.8,0.4-3.7-1.1-5.2
		c1-15.3,14.8-29.8,29.5-31.3c1.9,0.1,3.7,0.4,5.5,0.4c143.9,0,287.9,0,431.8,0c5.8,0,11.5-0.4,17.3-0.3c24.8,0.5,49.6,0.2,74.5,0.2
		C1012.2,20.9,1014.3,21.6,1015,19z M1458.1,64c-0.4-0.3-0.7-0.6-1.1-1c-1-0.4-1.9-0.8-2.9-1.2c-0.8-0.9-2-0.8-3.1-1
		c-0.6-0.3-1.3-0.6-1.9-1c-5.1-1.7-10.5-0.8-15.7-0.7c-7.2,0.1-14.5-1.1-21.6,0.7c-0.3,0-0.6,0-0.8,0.1c-3.7,0.9-7.5,1.5-10.6,4.1
		c-6.8,5.7-10.4,12.6-10.3,21.7c0.1,142.6,0,285.2,0,427.8c0,1.3-0.2,2.7,0.1,4c1.4,5.7,2.2,11.9,8.7,14.6l0,0
		c2.2,5.5,7.1,6.5,12.1,7c0.6,0,1.2,0.1,1.7,0.1c1.2,0.8,2.5,0.8,3.8,0.8c10.1,0,20.2-0.1,30.4-0.1c0.7-0.2,1.4-0.4,2.1-0.6
		c5.4-0.6,9.7-3,13.2-7.2c0.3-0.3,0.6-0.6,0.8-0.8c3-2.3,4.7-5.4,5.2-9.2c1-0.7,1-1.8,1-2.9c1.2-1.8,0.8-3.9,0.8-5.8
		c0-142.5,0-285.1,0-427.6c0-2.3,0.1-4.7-0.9-6.9c0-0.8-0.2-1.5-0.9-1.9c-0.3-2.4-0.8-4.7-3.2-6l0,0c-0.1-1.5-0.9-2.4-2-3.2
		c-0.6-0.6-1.2-1.2-1.9-1.8C1460.4,64.9,1459.5,63.9,1458.1,64C1458.1,63.9,1458.1,64,1458.1,64z M681.1,299.5c0,26.5,0,53,0,79.5
		c0,44.7,0,89.3,0,134c0,16,11.1,27.1,27,27.1c8.3,0,16.7-0.5,25,0.1c15.8,1.2,28.9-11,28.9-28.9c-0.2-129.1-0.1-258.2-0.1-387.4
		c0-12.5,0-25,0-37.5c0-16.3-11-27.4-27.2-27.4c-8.2,0-16.3,0-24.5,0c-18.8,0-29,10.3-29,29.1C681.1,158.6,681.1,229,681.1,299.5z
		 M1293,299.7c0-71.6,0-143.3,0-214.9c0-15-10.8-25.7-25.8-25.8c-8.8,0-17.7,0-26.5,0c-17.2,0-27.7,10.4-27.7,27.6
		c0,25.7,0,51.3,0,77c0,116.1,0,232.2,0,348.4c0,17.8,10.3,28.1,28.3,28.1c8.3,0,16.7-0.3,25,0.1c16.1,0.7,27.1-13.3,27-27
		C1292.8,442,1293,370.9,1293,299.7z M1036,299.3c0,71.8,0,143.6,0,215.4c0,9.8,4.5,16.8,12.4,21.9c3.9,2.5,8.2,3.5,12.8,3.5
		c9.3,0,18.7,0,28,0c15.8,0,26.7-10.8,26.7-26.6c0-142.6,0-285.2,0-427.8c0-0.8,0-1.7,0-2.5c-0.6-11.4-9.1-21.5-20.3-23.4
		c-11-1.9-22.3-0.2-33.4-0.8c-15.2-0.8-26.5,12.8-26.4,26.4C1036.2,156.6,1036,227.9,1036,299.3z M584.1,299.5
		c0-71.8-0.1-143.7,0.1-215.5c0.1-13.2-12-25.3-25.1-25.1c-8.7,0.2-17.3,0-26,0c-18.8,0-29,10.2-29,29c0,141,0,282,0,423
		c0,1.2,0,2.3,0,3.5c0.5,14.9,11.5,25.5,26.4,25.6c8.5,0,17,0,25.5,0c18.2,0,28.1-9.8,28.1-28.1
		C584.1,441.2,584.1,370.4,584.1,299.5z M858.9,299.1c0,71.7,0,143.3,0,215c0,15.4,10.6,26,26.1,26c9.5,0,19,0,28.5,0
		c4.2,0,8.3-0.8,11.9-3.1c9.4-5.8,13.5-14.1,13.5-25.1c-0.1-135.3,0-270.6,0-405.9c0-6.7,0.1-13.3,0-20c-0.3-16.6-10.9-27-27.5-27
		c-8,0-16,0-24,0c-18.9,0-28.5,9.6-28.5,28.6C858.9,158.1,858.9,228.6,858.9,299.1z"/>
	
		<rect x="1868.8" y="528.8" transform="matrix(0.9979 -6.449239e-002 6.449239e-002 0.9979 -32.8195 124.0293)" class="st1" width="72" height="83.3"/>
	<path class="st2" d="M1880.9,538c-1.5,0.7-2.2,1.8-2.1,3.5c-1.2,1-1.2,2.2-0.9,3.5c-1.1,14.1-0.4,28.2-0.4,42.3
		c0,5.9-1,11.9,0.6,17.7c1.5,2,3.6,1.3,5.5,1.3c18.4,0,36.8,0,55.1,0c1.7,0,3.7-0.7,5,1.2c-0.4,0.9-0.4,1.7,0.1,2.6
		c-0.9,6.4,1.4,12.6,1,19c0,1.7,0,3.3,0,5c-2.2,0.1-4.3,0.3-6.5,0.3c-32.5,0-64.9,0-97.4,0c-2.2-0.4-2.5-2.5-3.5-4
		c-15.7-24.5-36-43.9-64.2-52.8c-37.3-11.8-70.6-3-99.9,22c-11.8,10.1-21.9,21.7-29.5,35.5c-0.4,0.3-0.8,0.7-1.2,1h0.3
		c-32.4-1.1-64.8-2.1-97.2-3.2c-0.3-17.3-0.8-34.6-0.9-52c-0.6-83.1-0.7-166.3,0.9-249.4c0.4-22,1-44,3-65.9
		c0.9-10.5,2.6-12.4,13-13.9c23.2-3.3,46.5-3.2,69.8-2.2c10.9,0.5,21.6-0.6,32.4-1.3c20.6-1.2,41.2-2.2,61.9-1.3
		c7.8,0.4,13.6,3,18.3,9.8c22,32.1,42.6,65.2,64.1,97.7c12.8,19.5,25.3,39.2,39.2,57.9c2.2,3,4.7,5.6,7.3,8.1
		c25.9,25,51,50.7,73.8,78.7c3.9,4.7,8.1,9.4,9,15.8c0.4,4.3,0.8,8.6,1.2,12.9c0,1.4,0.1,2.8,0.1,4.2c-0.6,0.6-1.1,1.2-1.7,1.8
		c-3.6-0.4-7.1-0.2-10.7,0.2c-1.3-0.3-2.6-0.4-3.9,0.1c-2-0.3-4.1-0.3-6.1,0.2c-8.6,0.3-17.2,0.6-25.9,0.9c-2.1-0.4-4.1-0.3-6.1,0.6
		C1883.3,536,1881.9,536.4,1880.9,538z M1811.5,431.6c-0.7-1.3-1-1.8-1.4-2.4c-29.4-45-58.8-90-88.1-135.1c-1.7-2.7-3.8-3.2-6.6-3.2
		c-41.7,0.1-83.3,0.1-125-0.1c-4.4,0-5.6,0.9-5.5,5.5c0.7,42.3,1.2,84.6,1.8,126.9c0.1,6.8,0.1,6.7,6.8,6.8
		c59.3,0.5,118.6,1,177.9,1.5C1784.5,431.7,1797.6,431.6,1811.5,431.6z M1618.9,491.9c6.7,0,13.3,0,20,0c0.2,0,0.3,0,0.5,0
		c6.5-0.1,11.6-4.8,11.5-10.6c-0.1-5.7-4.8-10.2-11.3-10.3c-14-0.1-28-0.1-41.9,0c-6,0-10.6,4.7-10.7,10.3
		c-0.1,5.8,4.6,10.4,10.9,10.5C1604.9,492,1611.9,491.9,1618.9,491.9z"/>
	<path class="st3" d="M1841.1,634.3c32.5,0,64.9,0,97.4,0c2.2,0,4.3-0.2,6.5-0.3c0,15.7,0,31.3,0,47c-29-1-57.9-2.1-86.9-3.1
		c-3.4-0.1-4.9-0.7-5.4-4.5C1851,659.8,1846.1,647.1,1841.1,634.3z"/>
	<path class="st4" d="M481.4,20.6c0.2-0.6,0.4-1.1,0.6-1.6c177.7,0,355.3,0,533,0c-0.7,2.6-2.8,1.9-4.5,1.9
		c-24.8,0-49.7,0.3-74.5-0.2c-5.8-0.1-11.5,0.3-17.3,0.3c-143.9,0-287.9,0-431.8,0C485.1,21,483.3,20.7,481.4,20.6z"/>
	<path class="st4" d="M1492,19c0,0.4-0.1,0.8-0.1,1.2c-1.6,1.3-3.5,0.7-5.3,0.7c-137,0-274.1,0-411.1-0.1c-2.2,0-5.2,1.5-6.5-1.9
		C1210,19,1351,19,1492,19z"/>
	<path class="st1" d="M1945,629c0.3-6.4-1.9-12.6-1-19c0.3,0,0.7,0,1,0C1945,616.3,1945,622.7,1945,629z"/>
	<path class="st5" d="M1522.2,548.2c0.1,21.2,0.1,42.3,0.3,63.5c0,3.2-1.5,3.5-4,3.5c-9.8-0.1-19.7,0-29.5,0c-43,0-86,0-129,0.1
		c-3.5,0-5.8-1.1-8.2-3.5c-17.7-17.7-39.7-26.9-63.9-31.3c-41.7-7.4-77.6,4.6-108.8,32.4c-2.1,1.9-4.2,2.3-6.8,2.3
		c-25.3-0.1-50.7,0-76,0c-99,0-197.9,0-296.9,0.1c-3.8,0-6.1-0.8-8.4-4.3c-8.9-13.4-22.3-20.9-37.2-25.3
		c-27.6-8.3-55.6-10.5-83.7-2.2c-18.1,5.3-33.6,15.1-46.6,28.8c-2.2,2.3-4.3,3.1-7.3,3.1c-53.5-0.1-107-0.1-160.5,0
		c-4.1,0-5.3-1-5.3-5.2c0.2-20.8,0.1-41.7,0.1-62.5c0-1.8,0.2-3.6,0.3-5.5c2.5,6.1,4.1,12.7,8.8,17.8c6.4,7,13.5,11.5,23.7,11.5
		c335.5-0.1,670.9-0.2,1006.4,0c13.9,0,22.3-7,28.9-17.7C1520,551.8,1520.4,549.6,1522.2,548.2z"/>
	<path class="st6" d="M681.1,299.5c0-70.5,0-141,0-211.4c0-18.8,10.3-29.1,29-29.1c8.2,0,16.3,0,24.5,0c16.2,0,27.2,11,27.2,27.4
		c0,12.5,0,25,0,37.5c0,129.1-0.1,258.2,0.1,387.4c0,17.9-13.1,30.1-28.9,28.9c-8.3-0.6-16.7-0.1-25-0.1c-15.9,0-27-11.1-27-27.1
		c0-44.7,0-89.3,0-134C681.1,352.5,681.1,326,681.1,299.5z"/>
	<path class="st6" d="M1293,299.7c0,71.1-0.2,142.3,0.2,213.4c0.1,13.7-10.9,27.7-27,27c-8.3-0.4-16.7-0.1-25-0.1
		c-17.9,0-28.3-10.3-28.3-28.1c0-116.1,0-232.2,0-348.4c0-25.7,0-51.3,0-77c0-17.2,10.5-27.6,27.7-27.6c8.8,0,17.7,0,26.5,0
		c15,0.1,25.8,10.8,25.8,25.8C1293,156.4,1293,228.1,1293,299.7z"/>
	<path class="st6" d="M1036,299.3c0-71.3,0.2-142.6-0.2-213.9c-0.1-13.6,11.3-27.2,26.4-26.4c11.1,0.6,22.4-1.1,33.4,0.8
		c11.2,1.9,19.6,12.1,20.3,23.4c0,0.8,0,1.7,0,2.5c0,142.6,0,285.2,0,427.8c0,15.7-10.9,26.5-26.7,26.6c-9.3,0-18.7,0-28,0
		c-4.6,0-9-1-12.8-3.5c-7.9-5.1-12.5-12.1-12.4-21.9C1036,442.9,1036,371.1,1036,299.3z"/>
	<path class="st6" d="M584.1,299.5c0,70.8,0,141.7,0,212.5c0,18.2-9.8,28-28.1,28.1c-8.5,0-17,0-25.5,0
		c-14.9-0.1-25.9-10.7-26.4-25.6c0-1.2,0-2.3,0-3.5c0-141,0-282,0-423c0-18.8,10.2-29,29-29c8.7,0,17.3,0.1,26,0
		c13.1-0.2,25.2,11.9,25.1,25.1C583.9,155.9,584.1,227.7,584.1,299.5z"/>
	<path class="st6" d="M858.9,299.1c0-70.5,0-141,0-211.5c0-19,9.6-28.6,28.5-28.6c8,0,16,0,24,0c16.6,0,27.2,10.4,27.5,27
		c0.1,6.7,0,13.3,0,20c0,135.3,0,270.6,0,405.9c0,10.9-4.1,19.3-13.5,25.1c-3.7,2.3-7.7,3-11.9,3.1c-9.5,0-19,0-28.5,0
		c-15.5-0.1-26.1-10.6-26.1-26C858.9,442.4,858.9,370.7,858.9,299.1z"/>
	<path class="st6" d="M1468.2,76.9c0.7,0.5,0.9,1.1,0.9,1.9c-1.6,1.6-1.1,3.7-1.1,5.7c0,143,0,286,0,429c0,1.9-0.5,4.1,1.2,5.7
		c0,1.1,0,2.1-1,2.9c-3.6,2-4.1,5.8-5.2,9.2c-0.3,0.3-0.6,0.6-0.8,0.8c-4.7,1.8-9.8,3-13.2,7.2c-0.7,0.2-1.4,0.4-2.1,0.6
		c-0.5-2-2.1-1.9-3.6-1.9c-9,0-18,0-27,0c-1.4,0-2.7,0.2-3.7,1.2c-0.6,0-1.2-0.1-1.7-0.1c-3.3-3.6-7.7-5.4-12.1-7l0,0
		c-7.6-9.6-5.9-20.9-5.9-31.9c0-138.8,0.1-277.6-0.1-416.4c0-9.8,7.4-18.7,14.9-20.7c1.8-0.5,3.1-1.2,3.3-3.2
		c0.3-0.1,0.5-0.1,0.8-0.1c0.7,0.4,1.5,1,2.2,1c11,0.1,21.9,0.1,32.9,0c0.7,0,1.5-0.7,2.2-1c0.6,0.3,1.3,0.6,1.9,1
		c0.4,2.3,1.5,2.6,3.1,1c1,0.4,1.9,0.8,2.9,1.2c0.4,0.3,0.7,0.6,1.1,1v-0.1c0.2,2,1.6,2.1,3.2,2c0.6,0.6,1.2,1.2,1.9,1.8
		c-0.1,1.5,0,3,2,3.2l0,0C1465.4,73.3,1465,76.1,1468.2,76.9z"/>
	<path class="st7" d="M1411,59.9c-0.2,2-1.4,2.7-3.3,3.2c-7.4,2-14.9,10.9-14.9,20.7c0.2,138.8,0.1,277.6,0.1,416.4
		c0,11-1.7,22.3,5.9,31.9c-6.5-2.7-7.3-8.9-8.7-14.6c-0.3-1.3-0.1-2.7-0.1-4c0-142.6,0-285.2,0-427.8c0-9,3.6-16,10.3-21.7
		C1403.5,61.4,1407.3,60.9,1411,59.9z"/>
	<path class="st8" d="M451.4,537c0-2.5-0.1-5-0.1-7.5c0-156.2,0-312.4,0-468.6c0-3-0.3-6,0.6-8.9c1.5,1.4,1.1,3.3,1.1,5.1
		c0,158.4,0,316.7,0,475.1C453,533.9,453.7,536,451.4,537z"/>
	<path class="st7" d="M1469.2,519.2c-1.7-1.6-1.2-3.7-1.2-5.7c0-143,0-286,0-429c0-1.9-0.5-4,1.1-5.7c1,2.2,0.9,4.5,0.9,6.9
		c0,142.5,0,285.1,0,427.6C1470,515.3,1470.4,517.4,1469.2,519.2z"/>
	<path class="st7" d="M1449.1,59.9c-0.7,0.4-1.5,1-2.2,1c-11,0.1-21.9,0.1-32.9,0c-0.7,0-1.5-0.7-2.2-1c7.1-1.8,14.4-0.6,21.6-0.7
		C1438.7,59.1,1444,58.1,1449.1,59.9z"/>
	<path class="st7" d="M1412.8,539.2c1-1.1,2.3-1.2,3.7-1.2c9,0,18,0,27,0c1.5,0,3.1-0.1,3.6,1.9c-10.1,0-20.2,0.1-30.4,0.1
		C1415.3,540,1413.9,540,1412.8,539.2z"/>
	<path class="st7" d="M1398.9,532.1c4.4,1.7,8.8,3.4,12.1,7C1406,538.6,1401.1,537.6,1398.9,532.1z"/>
	<path class="st7" d="M1449.1,539.3c3.4-4.2,8.4-5.4,13.2-7.2C1458.8,536.2,1454.4,538.7,1449.1,539.3z"/>
	<path class="st7" d="M1463.1,531.2c1.1-3.4,1.6-7.2,5.2-9.2C1467.7,525.8,1466.1,528.9,1463.1,531.2z"/>
	<path class="st7" d="M1468.2,76.9c-3.3-0.8-2.9-3.6-3.2-6C1467.4,72.2,1467.9,74.6,1468.2,76.9z"/>
	<path class="st7" d="M1454.1,61.8c-1.6,1.6-2.7,1.3-3.1-1C1452.1,61,1453.3,60.9,1454.1,61.8z"/>
	<path class="st7" d="M1461.2,65.9c-1.5,0.1-2.9,0-3.2-2C1459.5,63.9,1460.4,64.9,1461.2,65.9z"/>
	<path class="st7" d="M1465.1,70.9c-2-0.2-2.1-1.6-2-3.2C1464.2,68.5,1465,69.5,1465.1,70.9z"/>
	<path class="st7" d="M1458.1,64c-0.4-0.3-0.7-0.6-1.1-1C1457.4,63.3,1457.7,63.7,1458.1,64z"/>
	<path class="st9" d="M1166.3,637c-5.9,13.9-8.2,28.5-10.2,43.1c-0.5,3.7-2.8,3.1-5,3.1c-17.5,0.1-35,0.3-52.5,0.4
		c-89.4,0.3-178.9,0.7-268.3,0c-4.5,0-9.8,1.4-13.2-1.1c-3.2-2.4-2.3-8-3.4-12.1c-2.6-9.5-4.9-19-7.7-28.4c-1.1-3.5,0.1-4.1,3.1-4
		c1.3,0.1,2.7,0,4,0c110.1-0.1,220.2-0.1,330.3-1.1C1150.9,636.9,1158.4,637,1166.3,637z"/>
	<path class="st3" d="M615.8,685c0-49.8,40-89.9,89.8-89.9c49.6,0,90,40.2,90.2,89.8c0.2,49.4-40.4,90.2-89.8,90.3
		C656.1,775.3,615.8,735,615.8,685z M704.6,741.2c31.9-0.1,57.2-25.4,57.2-57.1c0-31.6-25.7-57.2-57.3-57.1
		c-31.8,0.1-57.1,25.9-56.9,58C647.8,715.9,673.5,741.3,704.6,741.2z"/>
	<path class="st3" d="M1354.2,685.2c-0.1,50-40.4,90.2-90.4,90c-49.2-0.2-89.6-40.7-89.6-90c-0.1-49.8,40.5-90.2,90.4-90.1
		C1314.4,595.2,1354.3,635.3,1354.2,685.2z M1262.8,741.2c31.4,0.4,57.2-24.6,57.8-56.1c0.6-31.1-24.9-57.6-55.9-58.1
		c-32.4-0.5-57.9,24.4-58.3,57C1206,715.3,1231.1,740.7,1262.8,741.2z"/>
	<path class="st3" d="M1834.2,685.4c-0.2,50-40.6,90.1-90.5,89.8c-49.2-0.3-89.5-40.9-89.5-90.1c0-49.8,40.6-90.1,90.5-90
		C1794.5,595.3,1834.4,635.5,1834.2,685.4z M1742.9,741.2c31.3,0.4,57.2-24.7,57.8-56.2c0.5-31.2-24.9-57.6-56-58.1
		c-32.3-0.5-57.9,24.5-58.3,57C1686.1,715.3,1711.1,740.8,1742.9,741.2z"/>
	<path class="st3" d="M1546.1,632.8c32.4,1.1,64.8,2.1,97.2,3.2c-5.8,13.5-8.1,27.7-8.9,42.2c-0.2,4-1.6,5-5.4,4.9
		c-78.3-0.3-156.6-0.5-234.9-0.7c-5.3,0-10.7-0.1-16,0c-1.9,0-3.1-0.3-3-2.7c0.4-16.1-4.2-31.1-10.3-46.8c2.1,0,3.8,0,5.5,0
		c57,0,113.9,0.1,170.9,0.1C1542.7,633.1,1544.4,632.9,1546.1,632.8z"/>
	<path class="st10" d="M523.4,680.9c-22.5,0-45-0.1-67.5,0.1c-3.7,0-5.2-0.5-5.1-4.8c0.3-12.7,0.2-25.3,0-38c0-3.1,0.9-3.9,3.9-3.9
		c49.5,0.1,99,0.1,148.5,0c2.7,0,3.8,0.1,2.8,3.5c-3.9,13.4-8.2,26.8-9.7,40.7c-0.4,3.4-2.8,2.3-4.5,2.2c-19.3-0.2-38.6-0.5-58-0.7
		c-3.5,0-7,0-10.5,0C523.4,680.4,523.4,680.7,523.4,680.9z"/>
	<path class="st3" d="M1643,636.1c0.4-0.3,0.8-0.7,1.2-1C1644,635.7,1643.8,636.3,1643,636.1z"/>
	<path class="st1" d="M1811.5,431.6c-13.9,0-27,0.1-40.1,0c-59.3-0.5-118.6-1-177.9-1.5c-6.7-0.1-6.7,0-6.8-6.8
		c-0.6-42.3-1-84.6-1.8-126.9c-0.1-4.5,1.2-5.5,5.5-5.5c41.7,0.2,83.3,0.1,125,0.1c2.9,0,4.9,0.5,6.6,3.2
		c29.3,45.1,58.7,90.1,88.1,135.1C1810.5,429.7,1810.8,430.3,1811.5,431.6z"/>
	<path class="st11" d="M1618.9,491.9c-7,0-14,0.1-21,0c-6.3-0.1-11-4.7-10.9-10.5c0.1-5.6,4.7-10.3,10.7-10.3c14-0.1,28-0.1,41.9,0
		c6.5,0.1,11.2,4.6,11.3,10.3c0.1,5.8-5,10.5-11.5,10.6c-0.2,0-0.3,0-0.5,0C1632.2,491.9,1625.5,491.9,1618.9,491.9z"/>
	<path class="st12" d="M704.6,741.2c-31.1,0.1-56.9-25.3-57-56.2c-0.2-32.1,25.2-57.9,56.9-58c31.6-0.1,57.3,25.5,57.3,57.1
		C761.8,715.8,736.6,741,704.6,741.2z"/>
	<path class="st12" d="M1262.8,741.2c-31.8-0.4-56.8-25.9-56.4-57.3c0.4-32.5,26-57.4,58.3-57c31,0.5,56.5,27,55.9,58.1
		C1320.1,716.5,1294.2,741.6,1262.8,741.2z"/>
	<path class="st12" d="M1742.9,741.2c-31.8-0.4-56.9-25.8-56.5-57.2c0.4-32.5,25.9-57.5,58.3-57c31,0.5,56.5,26.9,56,58.1
		C1800.1,716.4,1774.3,741.6,1742.9,741.2z"/>
</g>
</svg>
