<?xml version="1.0" encoding="utf-8"?>
<!-- Generator: Adobe Illustrator 19.0.0, SVG Export Plug-In . SVG Version: 6.00 Build 0)  -->
<svg version="1.1" xmlns="http://www.w3.org/2000/svg" xmlns:xlink="http://www.w3.org/1999/xlink" x="0px" y="0px"
	 viewBox="-174 -7.5 1353.1 535.5" style="enable-background:new -174 -7.5 1353.1 535.5;" xml:space="preserve">
<style type="text/css">
	.st0{fill:#F3B000;}
	.st1{fill:#B68400;}
</style>
<g id="Слой_1__x28_копия_x29_">
	<title>Ресурс 1</title>
	<g id="Слой_2_1_">
		<g id="Layer_1_1_">
			<rect x="-174" y="267" class="st0" width="261" height="261"/>
			<path d="M-12.5,474.8V442h-36.7v32.9c0,8.7,6.1,16.1,14.5,17.9v17.1c-7.1,0.6-12.7,2.6-14.2,5.2h35.9c-1.5-2.6-7.1-4.7-14.1-5.2
				v-17.1C-18.6,490.9-12.5,483.4-12.5,474.8z"/>
			<polygon points="8,515 58.9,515 58.9,507.5 8,507.4 			"/>
			<polygon points="15.9,504.6 23.5,504.6 23.5,453.7 31.5,453.7 19.7,441.9 8,453.7 15.9,453.7 			"/>
			<polygon points="43.4,504.6 50.9,504.6 50.9,453.7 58.9,453.7 47.2,441.9 35.4,453.7 43.4,453.7 			"/>
			<rect x="-72.4" y="267" class="st1" width="57.8" height="70.4"/>
		</g>
	</g>
</g>
<g id="Слой_1">
	<title>Ресурс 1</title>
	<g id="Слой_2">
		<g id="Layer_1">
			<rect x="100" y="267" class="st0" width="261" height="261"/>
			<path d="M261.5,474.8V442h-36.7v32.9c0,8.7,6.1,16.1,14.5,17.9v17.1c-7.1,0.6-12.7,2.6-14.2,5.2h35.9c-1.5-2.6-7.1-4.7-14.1-5.2
				v-17.1C255.4,490.9,261.5,483.4,261.5,474.8z"/>
			<polygon points="282,515 332.9,515 332.9,507.5 282,507.4 			"/>
			<polygon points="290,504.6 297.5,504.6 297.5,453.7 305.5,453.7 293.7,441.9 282,453.7 290,453.7 			"/>
			<polygon points="317.4,504.6 325,504.6 325,453.7 332.9,453.7 321.2,441.9 309.4,453.7 317.4,453.7 			"/>
			<rect x="201.6" y="267" class="st1" width="57.8" height="70.4"/>
		</g>
	</g>
	<g id="Слой_2_5_">
		<g id="Layer_1_5_">
			<rect x="100" y="-0.1" class="st0" width="261" height="261"/>
			<path d="M261.5,207.7v-32.8h-36.6v32.9c0,8.7,6.1,16.1,14.5,17.9v17.1c-7.1,0.6-12.7,2.6-14.2,5.2h35.9
				c-1.5-2.6-7.1-4.7-14.1-5.2v-17.1C255.4,223.9,261.5,216.4,261.5,207.7z"/>
			<polygon points="282,248 332.9,248 332.9,240.4 282,240.4 			"/>
			<polygon points="289.9,237.6 297.5,237.6 297.5,186.6 305.5,186.6 293.7,174.9 282,186.6 289.9,186.6 			"/>
			<polygon points="317.4,237.6 324.9,237.6 324.9,186.6 332.9,186.6 321.2,174.9 309.4,186.6 317.4,186.6 			"/>
			<rect x="201.6" y="-0.1" class="st1" width="57.8" height="70.4"/>
		</g>
	</g>
	<g id="Слой_2_2_">
		<g id="Layer_1_2_">
			<rect x="373.8" y="267" class="st0" width="261" height="261"/>
			<path d="M535.3,474.8V442h-36.6v32.9c0,8.7,6.1,16.1,14.5,17.9v17.1c-7.1,0.6-12.7,2.6-14.1,5.2h35.9c-1.5-2.6-7.1-4.7-14.1-5.2
				v-17.1C529.3,490.9,535.3,483.4,535.3,474.8z"/>
			<polygon points="555.8,515 606.7,515 606.7,507.5 555.8,507.4 			"/>
			<polygon points="563.8,504.6 571.3,504.6 571.3,453.7 579.3,453.7 567.6,441.9 555.8,453.7 563.8,453.7 			"/>
			<polygon points="591.2,504.6 598.8,504.6 598.8,453.7 606.7,453.7 595,441.9 583.2,453.7 591.2,453.7 			"/>
			<rect x="475.5" y="267" class="st1" width="57.8" height="70.4"/>
		</g>
	</g>
	<g id="Слой_2_6_">
		<g id="Layer_1_6_">
			<rect x="373.8" y="0.5" class="st0" width="261" height="261"/>
			<path d="M535.3,208.3v-32.8h-36.6v32.9c0,8.7,6.1,16.1,14.5,17.9v17.1c-7.1,0.6-12.7,2.6-14.1,5.2h35.9
				c-1.5-2.6-7.1-4.7-14.1-5.2v-17.1C529.3,224.4,535.3,217,535.3,208.3z"/>
			<polygon points="555.8,248.5 606.7,248.5 606.7,241 555.8,241 			"/>
			<polygon points="563.8,238.1 571.3,238.1 571.3,187.2 579.3,187.2 567.6,175.5 555.8,187.2 563.8,187.2 			"/>
			<polygon points="591.2,238.1 598.8,238.1 598.8,187.2 606.7,187.2 595,175.5 583.2,187.2 591.2,187.2 			"/>
			<rect x="475.5" y="0.5" class="st1" width="57.8" height="70.4"/>
		</g>
	</g>
	<g id="Слой_2_3_">
		<g id="Layer_1_3_">
			<rect x="647.7" y="267" class="st0" width="261" height="261"/>
			<path d="M809.2,474.8V442h-36.7v32.9c0,8.7,6.1,16.1,14.5,17.9v17.1c-7.1,0.6-12.7,2.6-14.2,5.2h35.9c-1.5-2.6-7.1-4.7-14.1-5.2
				v-17.1C803.2,490.9,809.2,483.4,809.2,474.8z"/>
			<polygon points="829.7,515 880.6,515 880.6,507.5 829.7,507.4 			"/>
			<polygon points="837.7,504.6 845.2,504.6 845.2,453.7 853.2,453.7 841.5,441.9 829.7,453.7 837.7,453.7 			"/>
			<polygon points="865.1,504.6 872.7,504.6 872.7,453.7 880.6,453.7 868.9,441.9 857.1,453.7 865.1,453.7 			"/>
			<rect x="749.4" y="267" class="st1" width="57.8" height="70.4"/>
		</g>
	</g>
	<g id="Слой_2_4_">
		<g id="Layer_1_4_">
			<rect x="918.1" y="267" class="st0" width="261" height="261"/>
			<path d="M1079.6,474.8V442h-36.7v32.9c0,8.7,6.1,16.1,14.5,17.9v17.1c-7.1,0.6-12.7,2.6-14.2,5.2h35.9c-1.5-2.6-7.1-4.7-14.1-5.2
				v-17.1C1073.5,490.9,1079.6,483.4,1079.6,474.8z"/>
			<polygon points="1100,515 1151,515 1151,507.5 1100,507.4 			"/>
			<polygon points="1108,504.6 1115.6,504.6 1115.6,453.7 1123.5,453.7 1111.8,441.9 1100,453.7 1108,453.7 			"/>
			<polygon points="1135.4,504.6 1143,504.6 1143,453.7 1151,453.7 1139.2,441.9 1127.5,453.7 1135.4,453.7 			"/>
			<rect x="1019.7" y="267" class="st1" width="57.8" height="70.4"/>
		</g>
	</g>
</g>
</svg>
