<?xml version="1.0" encoding="utf-8"?>
<!-- Generator: Adobe Illustrator 19.0.0, SVG Export Plug-In . SVG Version: 6.00 Build 0)  -->
<svg version="1.1" id="Слой_1" xmlns="http://www.w3.org/2000/svg" xmlns:xlink="http://www.w3.org/1999/xlink" x="0px" y="0px"
	 viewBox="0 0 1130 824" style="enable-background:new 0 0 1130 824;" xml:space="preserve">
<style type="text/css">
	.st0{fill:#F9C684;}
	.st1{fill:#FFFFFF;}
	.st2{fill:#00AD2C;}
	.st3{fill:#039023;}
	.st4{fill:#069025;}
</style>
<g>
	<path class="st0" d="M19.2,175.3c-4.7-3.4-5.8-8.8-5.9-13.7c-0.5-26.4,1.4-52.5,9.1-77.9C26.4,69.8,33,65.9,47.6,64.8
		c10.9-0.8,22,0,32.8-2.6c4.3-1.1,7-3.3,8.6-7.4c3.3-8.2,8.6-15,15.5-20.5c3.3-2.7,7.1-4.2,11.5-4.3c9.5-0.1,19-0.1,28.4-0.8
		c6.7-0.5,11.6-3,15.7-8.1c4.6-5.7,9-11.6,15.1-15.9c4.7-3.4,9.6-4,15.1-2.3c6.8,2,12.5,6.2,18.5,9.8c2.7,1.6,5.3,2.7,8.4,2.5
		c13.8-0.8,27.6,1,41.4,0.9c3.7,0,5.2,2.2,6.8,4.8c14.1,22.7,23.3,47.4,29.7,73.2c2.8,11.1,6.1,22.1,11.8,32.3
		c5.8,10.5,15.6,17.1,24.2,25c4.1,3.7,8.1,7.5,12.6,10.6c3.6,2.5,2.8,4.3,0.7,7.1c-12.2,16.5-24.2,33-36.3,49.5
		c-17.2,23.5-34.5,47-51.6,70.5c-2.1,2.9-4.1,3.6-7.6,2.3c-18.7-7.1-38.2-11.5-58-13.9c-13.4-1.6-26.9-1.1-40.3,0.3
		c-15.9,1.6-31.8,2.9-47.6,4.5c-10.5,1.1-20.9,1.5-31.2-0.9c-6.8-1.6-13.3-4.2-19.6-7.2c-7.2-3.3-12-8.8-14.9-16.1
		c-2.1-5.4-4.5-10.8-6-16.4C27,225.7,16.8,214,5.9,202.6c-1.7-1.8-3.3-3.7-4.9-5.6c0-1.3,0-2.7,0-4c3-4.2,7.7-5.4,12.2-7.1
		c4.7,3.4,8.9-0.1,13.3-1.1c1.1,0.3,2.2,0.8,3.3,1c15.8,2.2,29,8.8,39.3,21.3c7.6,9.3,17,15.7,29.4,17.2c7.7,0.9,15.3,0.5,22.9,0.6
		c9.6,0.1,13.4-4.5,11.2-13.9c-4.3-18-12.8-33.4-27.8-44.8c-3.7-2.8-7.3-5.8-10.1-9.5c18.1-8.2,36.8-15.3,55.2-22.9
		c3.2-1.3,6.2-2.6,10-1.9c3.5,0.6,6.3-1.5,8.5-4.3c5-6.3,5.1-16.4,0.2-22.9c-4.6-6.1-11.6-6.3-16.5-0.5c-1.2,1.4-2.1,2.9-3.9,3.8
		c-23,11.9-46,23.9-69,35.8c-3.6-4.3-8.2-7.2-13.3-9.4c-7.4-3.2-11.9-1.3-15.1,6.2c-3,6.9-4.9,14-6.6,21.3
		C35.8,166.4,27.5,170.9,19.2,175.3z"/>
	
		<rect x="283.4" y="151.1" transform="matrix(-0.8078 -0.5894 0.5894 -0.8078 411.953 645.2223)" class="st1" width="55.6" height="208.7"/>
	<path class="st2" d="M311.7,295.6c10.5-14.8,21-29.6,31.5-44.3c16.8-23.8,34.1-47.2,49.4-72.3c12.2,8.7,23.5,18.5,34.9,28.2
		c110.1,93.8,218.5,189.5,327,285.1c123.1,108.5,246,217.4,368.9,326.1c2.3,2,5.2,3.5,6.5,6.6c-78.7,0-157.3,0-236,0
		c0-2.1-1.6-3.2-3-4.4c-6.3-5.7-12.6-11.3-18.9-17c-18.6-16.8-37.1-33.7-55.6-50.6c-14.5-13.2-29-26.3-43.5-39.5
		c-18.5-16.9-37.1-33.7-55.6-50.6c-14.5-13.2-29-26.3-43.5-39.5c-14.7-13.4-29.5-26.8-44.2-40.2c-14.6-13.3-29.2-26.6-43.8-39.8
		c-14.7-13.4-29.5-26.8-44.2-40.2c-14.6-13.3-29.2-26.6-43.8-39.8c-14.7-13.4-29.5-26.8-44.2-40.2c-14.6-13.3-29.2-26.6-43.8-39.8
		c-18.4-16.7-36.9-33.5-55.2-50.3c-12.7-11.6-25.4-23.4-38.1-35.1C315.1,296.6,313.6,295.9,311.7,295.6z"/>
	<path class="st3" d="M311.7,295.6c1.8,0.3,3.4,1,4.8,2.4c12.6,11.8,25.3,23.5,38.1,35.1c18.4,16.8,36.8,33.5,55.2,50.3
		c14.6,13.3,29.2,26.6,43.8,39.8c14.7,13.4,29.5,26.8,44.2,40.2c14.6,13.3,29.2,26.6,43.8,39.8c14.7,13.4,29.5,26.8,44.2,40.2
		c14.6,13.3,29.2,26.6,43.8,39.8c14.7,13.4,29.5,26.8,44.2,40.2c14.5,13.2,29,26.3,43.5,39.5c18.5,16.9,37.1,33.7,55.6,50.6
		c14.5,13.2,29,26.3,43.5,39.5c18.5,16.9,37.1,33.7,55.6,50.6c6.3,5.7,12.6,11.3,18.9,17c1.3,1.2,3,2.3,3,4.4c-59.3,0-118.7,0-178,0
		c-92.2-94.2-185.6-187.2-278.4-280.7c-57.2-57.6-114.5-115-171.8-172.5c-5.2-5.3-5.3-5.3-0.9-11.4c15.3-21.2,30.6-42.3,45.9-63.5
		C311.1,296.5,311.4,296.1,311.7,295.6L311.7,295.6z"/>
	<path class="st4" d="M26.4,184.9c-4.4,1-8.5,4.5-13.3,1.1c-2.3-1.3-3-2.5-0.4-4.5c2.3-1.8,4.3-4.1,6.4-6.2
		c8.3-4.4,16.6-8.9,25-13.3c12-5.5,23.5-11.9,35-18.1c23-12,46-23.9,69-35.8c1.7-0.9,2.7-2.4,3.9-3.8c4.9-5.8,11.9-5.6,16.5,0.5
		c4.8,6.4,4.7,16.6-0.2,22.9c-2.2,2.7-5,4.9-8.5,4.3c-3.8-0.7-6.8,0.6-10,1.9c-18.4,7.6-37,14.7-55.1,22.9
		c-3.8,1.5-7.7,2.8-11.5,4.4C64.1,169,45.3,177,26.4,184.9z"/>
	<path class="st2" d="M311.7,295.7c-0.3,0.4-0.6,0.9-0.9,1.3C311.1,296.5,311.4,296.1,311.7,295.7z"/>
</g>
</svg>
