<?xml version="1.0" encoding="utf-8"?>
<!-- Generator: Adobe Illustrator 19.0.0, SVG Export Plug-In . SVG Version: 6.00 Build 0)  -->
<svg version="1.1" id="Слой_1" xmlns="http://www.w3.org/2000/svg" xmlns:xlink="http://www.w3.org/1999/xlink" x="0px" y="0px"
	 viewBox="0 0 356 1000" style="enable-background:new 0 0 356 1000;" xml:space="preserve">
<style type="text/css">
	.st0{fill:#FFFFFF;}
	.st1{fill:#898989;}
	.st2{fill:#2C2C2C;}
	.st3{fill:#F8C785;}
	.st4{fill:#8B8C8B;}
	.st5{fill:#6F6F6F;}
	.st6{fill:#F8C684;}
	.st7{fill:#2C2E2D;}
</style>
<g>
	
		<rect x="28.1" y="136.4" transform="matrix(0.9157 0.4018 -0.4018 0.9157 70.1723 -12.7534)" class="st0" width="74.7" height="49.1"/>
	<path class="st1" d="M14.4,189.8c0.1-0.6,0.3-1.2,0.4-1.8c1-0.5,1.1-1.2,0.3-2c0.1-1.2,0.3-2.4,0.4-3.6c1-0.6,1.5-1.4,0.9-2.6
		c0.2-0.9,0.3-1.9,0.5-2.8c0.8-0.5,1.1-1.2,0.7-2.2c3.3-12.9,3.3-13,15.3-8.1c27,11.1,53.1,23.7,76.8,41.1c5.1,3.8,10,7.8,14.1,12.6
		c5.5,6.4,9.4,13.2,10.7,22c3.4,23.7,7.9,47.2,11.9,70.8c0.6,3.3,0.9,6.6,1.4,9.8c-3.3-0.8-4.3-4-6.2-6.1
		C126.6,300.6,115,282,104.1,263c-6-10.5-11-21.5-16.7-32.1c-4.7-8.6-11.6-14.5-21.9-14.9c-10.3-0.4-18.8,6.1-23.9,17.9
		c-9.3,21.5-7.1,42.5,3.8,62.6c11.6,21.2,28.9,37.6,47,53c13.6,11.6,28.5,21.6,42.9,32.3c3.8,2.8,7.7,4.8,12.2,6.4
		c3.2,1.1,6.5,0.7,9.5,2.1c-2.4,0.9-1.8,2.9-1.8,4.7c0.5,30.1,2.3,60.1,5.5,90c1.7,16.2,3.3,32.4,5.8,48.5c0.5,3-0.9,3.4-3.3,3.3
		c-7-0.3-14-0.5-20.9-0.7c-8.6-0.2-8.5-0.2-8.7,8.6c-0.1,5.4,0.8,10.9-0.7,16.3c-1.5-1.3-0.9-3.1-1-4.7c-0.1-5.5,0-11,0-16.5
		c0-1.9,0.2-3.7-2.6-3.9c-3-0.2-5.9-1-8.9-0.9c-19.6,0.6-39.2-1-58.8-1.1c-8.1,0-16.3,0.7-24.4-0.8c-2.4-0.5-5-0.5-7.3,0.9
		c-1.8-1.2-3.8-0.9-5.8-1c-7.8-0.3-15.5-0.7-23.3-1c0-2.3,0-4.7,0-7c3.3-2.6,1.7-5.9,1.2-9c0.1-3.3,0.3-6.6,0.4-9.9
		c2.2-1.8,1.2-4.1,0.8-6.3c0.2-3.3,0.3-6.5,0.5-9.8c1.3-1.9,1.4-3.9,0.4-6c0.2-1.7,0.4-3.3,0.6-5c1.4-1.3,1.2-2.6,0.2-4
		c0.2-4,0.4-8,0.7-12c1.9-2.6,1.1-5.4,0.7-8.2c0.2-3.9,0.3-7.9,0.5-11.8c1.6-2.6,1.1-5.4,0.6-8.2c0.1-2.9,0.3-5.9,0.4-8.8
		c1-1,1-2,0.1-3c0.2-4.7,0.4-9.4,0.7-14c1.9-4.3,1.4-8.6,0.5-13c0.2-7,0.4-14,0.6-21c0.9-0.7,1-1.6,1-2.7c0-10.9,0-21.8,0-32.6
		c0-1-0.1-2-1-2.7c-0.2-5-0.4-10-0.6-15c0.8-3.5,1.7-7.1-0.8-10.4c-0.5-18.1-0.4-36.2,0-54.3c2.6-4.3,1.5-8.8,0.8-13.4
		c0.2-4.3,0.4-8.7,0.6-13c1.8-2.2,1.1-4.7,0.8-7.1c0.1-2.3,0.2-4.6,0.4-6.8c0.8-0.6,1-1.3,0.1-2c0.1-1.2,0.2-2.5,0.2-3.7
		c2.1-1.5,1.8-3.3,0.8-5.3c0.2-2,0.4-4,0.6-6c1.5-1.2,1.2-2.6,0.8-4.2c0.1-1.3,0.3-2.5,0.4-3.8C14.7,191.4,14.9,190.7,14.4,189.8z"
		/>
	<path class="st2" d="M41,1001c0.2-0.8,0.8-1.7,0.7-2.4c-2.8-12.2-0.2-24.4-0.5-36.6c13.8-0.3,27.5-0.6,41.3-1
		c3.8-0.1,7.6-0.3,11.4-0.5c10.2-0.5,20.5-0.4,30.7-0.5c11.8,7.7,24.4,12.8,38.7,12.4c6.7-0.2,13.3-0.7,20,0.1
		c8,1,12.2,4.4,13.4,10.6c1.1,5.8-0.3,8.4-5.7,10.6c-6.2,2.5-12.9,3.5-19.5,4.2c-23.9,2.4-47.9,2.4-71.8-0.7
		c-3.5-0.4-7-0.3-10.5-0.8c-4.1-0.5-4.7,1.2-3.3,4.5C71,1001,56,1001,41,1001z"/>
	<path class="st3" d="M288.4,340c2.7,0.4,4.8-1.2,7.1-1.9c10-3.2,20-2,30,0.3c4.8,1.1,9.6,2.5,14.6,2.8c4.2,0.3,7.5,3.3,10.6,6.1
		c2.1,1.9,4.1,3.8,6.2,5.7c0,1,0,2,0,3c-2.5,3.8-3,8.3-4.4,12.5c-3.8,11.5-11.3,17.1-23.4,16.4c-13.6-0.7-27.2-1.3-40.8-1
		C288.5,369.3,288.4,354.7,288.4,340z"/>
	<path class="st4" d="M70,2.2c0-0.4,0-0.8,0-1.2c6.7,0,13.3,0,20,0c0,0.4,0,0.9,0,1.3C83.3,2.9,76.7,3.1,70,2.2z"/>
	<path class="st4" d="M101,1c-1.4,1,0.1,1.7,0.2,2.5C99,4.1,96.9,4.3,95,2.8C95.6,1.5,98,3.4,98,1C99,1,100,1,101,1z"/>
	<path class="st5" d="M124.6,960c-10.2,0.1-20.5,0-30.7,0.5c-3.8,0.2-7.6,0.4-11.4,0.5c-13.8,0.4-27.5,0.7-41.3,1
		c-7.2,0.6-7.2,0.6-7.3-6.2c-0.8-85-1.5-169.9-2.3-254.9c-0.4-40.5-0.6-81-1-121.4c-0.1-15.2-0.4-30.3-0.6-45.5
		c2.3-1.4,4.9-1.3,7.3-0.9c8.1,1.6,16.3,0.8,24.4,0.8c19.6,0.1,39.2,1.7,58.8,1.1c2.9-0.1,5.9,0.7,8.9,0.9c2.8,0.2,2.6,2,2.6,3.9
		c0,5.5-0.1,11,0,16.5c0,1.6-0.6,3.4,1,4.7c-0.3,37.7-0.6,75.3-0.9,113c-1.6,2-1.6,4,0,6c-0.3,38.4-0.6,76.9-0.9,115.3
		c-0.4,52.9-0.9,105.8-1.2,158.7C129.8,958.1,129,960.3,124.6,960z"/>
	<path class="st5" d="M288.4,340c0,14.7,0.1,29.3,0.1,44c-0.9,1.8-2.8,1.7-4.3,1.9c-37.8,4.8-75.6,8.6-113.8,6.4
		c-4.5-0.3-8.9-1.1-13.3-1.7c-3-1.4-6.3-1-9.5-2.1c-4.5-1.6-8.5-3.6-12.2-6.4c-14.4-10.7-29.3-20.7-42.9-32.3
		c-18.1-15.5-35.5-31.8-47-53c-11-20.1-13.1-41.1-3.8-62.6c5.1-11.8,13.6-18.3,23.9-17.9c10.4,0.4,17.2,6.3,21.9,14.9
		c5.8,10.6,10.7,21.6,16.7,32.1c10.9,19,22.5,37.6,37.3,53.9c2,2.2,2.9,5.4,6.2,6.1c5.1,6.2,11.2,10.5,19.7,11
		c38.7,2.6,77.4,2.9,116.1,4C285.2,338.2,287.7,337,288.4,340z"/>
	<path class="st1" d="M132.1,680c-1.6-2-1.6-4,0-6C132.9,676,133,678,132.1,680z"/>
	<path class="st6" d="M123.7,28c3,6.4,6.2,12.8,9.1,19.2c6.6,14.7,11.3,30,9.9,46.1c-1.1,13.1-3.3,26.1-6.9,38.9
		c-3.1,10.9-6.9,21.3-13.6,30.5c-4.2,5.8-9.9,9.3-16.8,10.8c-4.1,0.9-7.8-0.1-11.4-2.2c-14.8-8.9-29.7-17.6-44.6-26.5
		c-4.5-2.7-9.7-4.5-12.6-9.3c1.7-3.5,0.1-9.4,6.7-9.7c0.3,0,0.5-1.8,0.6-2.7c0.3-2.9-0.4-5.6-1.3-8.3c-1.5-4.8-0.6-9.1,3.5-12.1
		c10.2-7.6,14-18.6,16.4-30.4c1.8-8.8,3-17.7,7.1-25.8c2.4-4.9,6.2-7.5,11.4-8.5c5.7-1.1,11.3-2.6,17-3.8
		C106.8,32.6,114.9,28.8,123.7,28z"/>
	<path class="st7" d="M123.7,28c-8.8,0.8-16.9,4.6-25.5,6.3c-5.7,1.1-11.3,2.7-17,3.8c-5.3,1-9,3.6-11.4,8.5
		c-4,8.2-5.3,17.1-7.1,25.8c-2.4,11.8-6.2,22.7-16.4,30.4c-4,3-5,7.3-3.5,12.1c0.9,2.7,1.6,5.4,1.3,8.3c-0.1,1-0.4,2.7-0.6,2.7
		c-6.6,0.3-5,6.1-6.7,9.7c-0.2,0.1-0.3,0.1-0.4,0.2c-11.5,8.8-18.2,7.3-21.6-6.5c-5.9-23.7-9.6-47.9-0.8-71.7
		c7.8-21.2,22.7-37.3,41.3-49.8c4.5-3,9.6-4.5,14.8-5.7c6.6,1,13.3,0.8,19.9,0.2c1.7,0.2,3.3,0.3,5,0.5c1.9,1.5,4.1,1.4,6.3,0.7
		c3.9,0.2,7.8,0.3,11.8,0.5c2.1,1,4.2,1.2,6.4,0.4c0.9,0.1,1.8,0.2,2.6,0.3c0.9,1.2,1.9,1.2,3,0.4c1.2,0.2,2.5,0.4,3.7,0.5
		c0.6,1,1.5,1.4,2.6,0.8c0.6,0.1,1.1,0.3,1.7,0.4c0.5,0.8,1.2,1.2,2.1,1c5,2,8.4,5.7,10.5,10.6c1.7,4.2,0.8,5.9-3.8,7
		C135.9,27,129.6,26.1,123.7,28z"/>
	<path class="st4" d="M119.4,4.4C117.2,5.2,115.1,5,113,4C115.2,3.3,117.3,3,119.4,4.4z"/>
	<path class="st4" d="M125,5.1c-1.1,0.9-2.1,0.8-3-0.4C123.1,3.8,124.1,4.3,125,5.1z"/>
	<path class="st4" d="M131.3,6.5c-1.1,0.6-2,0.2-2.6-0.8C129.8,5.1,130.7,5.6,131.3,6.5z"/>
	<path class="st4" d="M135.1,7.9c-1,0.3-1.6-0.2-2.1-1C134.1,6.2,134.8,6.7,135.1,7.9z"/>
</g>
</svg>
