<?xml version="1.0" encoding="utf-8"?>
<!-- Generator: Adobe Illustrator 19.0.0, SVG Export Plug-In . SVG Version: 6.00 Build 0)  -->
<svg version="1.1" id="Слой_1" xmlns="http://www.w3.org/2000/svg" xmlns:xlink="http://www.w3.org/1999/xlink" x="0px" y="0px"
	 viewBox="0 0 379 1000" style="enable-background:new 0 0 379 1000;" xml:space="preserve">
<style type="text/css">
	.st0{fill:#F7FBF8;}
	.st1{fill:#03AC29;}
	.st2{fill:#059024;}
	.st3{fill:#04AC29;}
	.st4{fill:#FED9A8;}
	.st5{fill:#CFD0CF;}
	.st6{fill:#D0D0D0;}
	.st7{fill:#069025;}
	.st8{fill:#D0D1D0;}
	.st9{fill:#717171;}
	.st10{fill:#606060;}
	.st11{fill:#FDD8A7;}
	.st12{fill:#BB6109;}
	.st13{fill:#FDD8A8;}
</style>
<g>
	
		<rect x="274.7" y="144.4" transform="matrix(0.955 -0.2967 0.2967 0.955 -41.621 100.6104)" class="st0" width="71.8" height="86"/>
	<path class="st1" d="M212,335c4.3-21.9,8.4-43.8,14.7-65.2c4.8-16.3,9.7-32.5,17.8-47.5c3-5.6,6.9-9.9,12.5-13.2
		c24.1-14.2,47.4-29.6,72.2-42.4c3.1-1.6,6.3-3,9.5-4.3c6.1-2.3,8.2-1.7,11.5,4c6.9,11.8,9.8,25,12.7,38.2
		c9,41.6,13.8,83.7,15.8,126.2c0.1,1.1-0.8,2.8,1.3,3.2c0,1.7,0,3.3,0,5c-1.1,0.1-1.3,0.9-1.2,1.7c0.1,5.7,0.2,11.5,0.3,17.2
		c-0.1,0.7-0.2,1.3-0.3,2c-1.7,33-9.3,64.8-20,95.9c-0.8,2.2-1.4,4.1-4.6,4.2c-6.6,0.2-6.6,0.4-6.3,7.3c0.1,1.8,0.4,3.6,0.6,5.4
		c-7.3,0.1-14.7,0.2-22,0.3c1.5-16.9,2.8-33.8,4.5-50.7c1.7-17.4,1.6-34.9,3.1-52.3c1.6-19.6,8-38.4,9.6-58.1
		c2.5-29.9-5.6-57.1-20.9-82.3c-8.3-13.7-24.7-14.5-35.8-3c-7.3,7.5-10,16.7-10.6,26.8c-1.8,28.2,0.5,56.3,1.2,84.4
		c0.6,21.6,1.3,43.3-2.4,64.8c-2,11.7-3.9,23.3-4.4,35.1c-0.5,11.8-1.4,23.6-2.1,35.4c-11.4-0.3-22.8,0.6-34.3-0.5
		c0.6-4.9-0.7-8.2-5.4-11.4c-11.8-7.9-16.1-20.7-19.1-33.8c-2.6-11.2-2.9-22.7-3.1-34.2c0.3-6.4,0.7-12.9,1-19.3
		C208.3,360.8,210.7,347.9,212,335z"/>
	<path class="st2" d="M326.4,473c7.3-0.1,14.7-0.2,22-0.3c10.5,0.7,21-0.8,31.6,0.3c0,38.3,0,76.7,0,115c-12.3,0-24.7-0.1-37-0.1
		c-8.9-0.1-17.8-0.2-26.8-0.3c0.1-6.2,0.2-12.5,0.3-18.7c0.8-7.4,1.5-14.8,2.3-22.2C321.4,522.1,323.9,497.6,326.4,473z"/>
	<path class="st3" d="M296,1c1.2,2.3,3.5,1.3,5.2,1.7c30,8.4,50.7,35.1,55.7,63.1c0.1,0.4-0.2,1-0.3,1.4c-3.8-2.4-8.2-2.5-12.5-2.8
		c-14.1-1.1-28.1-1.3-42.2,0.2c-22.3-0.2-44.5,2-66.8,3.7c-10.8-0.4-20.4,4-30.3,7.2c-8.6,2.8-17.3,5.9-27,6.4
		c1.3-3.4,4.1-4.3,6.4-5.6c10.9-5.8,22.4-10,34.1-13.8c4.4-1.4,6.2-3.6,7.9-8c10.3-27,29.7-44.2,57.7-51.8c1.4-0.4,3.5,0.5,4.1-1.8
		C290.7,1,293.3,1,296,1z"/>
	<path class="st4" d="M1,355c5.1-3.9,8.9-10.1,15.6-11.1c8.4-1.3,16.4-3.6,24.8-5c15.1-2.5,27.8,3.8,40.6,10c0,11.7,0,23.4,0,35.2
		c-9.5,1.3-19.1,2.3-28.8,1.9c-8.8-0.4-17.6,1-26.4,1.1c-9.9,0.1-17.4-5.2-20.8-14.6c-1.8-4.8-2.2-10-5-14.5C1,357,1,356,1,355z"/>
	<path class="st5" d="M380,358l-0.5,0c0,0-0.5-0.1-0.5-0.1c-0.1-5.7-0.2-11.5-0.3-17.2c0-0.9,0.2-1.6,1.2-1.7
		C380,345.3,380,351.7,380,358z"/>
	<path class="st6" d="M316.2,587.6c8.9,0.1,17.8,0.2,26.8,0.3c0,39,0.8,78-0.3,116.9c-1,37.8,0.3,75.6-0.9,113.4
		c-1,33,0,65.9-1.1,98.9c-0.4,11.6-0.6,23.3-0.6,34.9c0,4.1-0.9,6.6-5.3,7c-2.9-1.3-5.9-0.8-8.9-0.6c-18.1,1.1-36.1,1.5-54.2,1.8
		c-3.8,0.1-7.6,0.7-11.4,0.6c-5.1-0.2-10.4,1.7-15.4-0.9c0-23.7,0.6-47.3-0.2-71c-1.5-41.3,0.2-82.6-1-123.9c-1-31,0.3-61.9-1-92.9
		c-1.1-26-0.2-51.9-0.7-77.9c0-2.2-0.3-4.4,1-6.3c9.2-0.1,18.5-0.1,27.7-0.2c2.2,1.8,1.1,4.3,1.2,6.5c0.5,7,4.5,12,9.4,16.4
		c3.4,3,6.9,0,10.3-0.5c1.8-0.2,3.6-0.7,5.3-1.1C309.5,606.6,315.4,599.9,316.2,587.6z"/>
	<path class="st7" d="M270.7,587.8c-9.2,0.1-18.5,0.1-27.7,0.2c-10.1-0.1-20.3-0.3-30.4-0.2c-3.4,0-4.5-0.8-4.5-4.4
		c0.1-35.6,0.1-71.2,0-106.8c0-3.4,1-4.2,4.2-4.2c7.3,0.2,14.6,0,21.9,0c11.4,1.1,22.8,0.2,34.3,0.5c0.1,1,0.2,2,0.2,3
		c-0.7,27.2-1.4,54.4-2.1,81.6c-0.1,2.5,0.1,4.6,2.9,5.4c0,3.1-0.1,6.2-0.1,9.3C269.3,577.5,271.6,582.5,270.7,587.8z"/>
	<path class="st8" d="M81.9,384.1c0-11.7,0-23.4,0-35.2c0.1-8.8,0.1-8.8,9.1-8.9c21.3-0.3,42.6-0.2,63.9-1.3
		c16.7-0.8,33.5-0.5,50.2-2.7c2.3-0.3,4.3-2.9,6.9-1.1c-1.3,13-3.7,25.8-4.4,38.8c-0.3,6.4-0.7,12.9-1,19.3
		c-13.3,2.4-26.8,2.4-40.1,1.7c-20-0.9-40-1.8-59.8-4.5c-6.7-0.9-13.5-1.5-20.2-2.3C84.1,387.7,81.8,387.3,81.9,384.1z"/>
	<path class="st9" d="M245,959.9c5,2.6,10.3,0.7,15.4,0.9c3.8,0.1,7.6-0.5,11.4-0.6c18.1-0.3,36.2-0.7,54.2-1.8
		c2.9-0.2,6-0.7,8.9,0.6c0.1,0.3,0.2,0.6,0.2,1c1.2,6.4,4.4,12.6-2.1,18.7c-5.3,5-10.1,9.1-17.8,9.6c-23.4,1.5-46.9,1.6-70.3,1
		c-0.3-0.4-0.6-1.1-0.9-1.1c-9.3-0.1-18.6-0.1-28,0c-0.3,0-0.6,0.7-1,1.1c-11.5,0.7-22.9-1.3-34.3-2.5c-3.2-0.3-1.7-2.8-1.1-4.2
		c3.5-8.6,10.5-13.1,19-15.5c5-1.5,10.1-2.1,15.3-1.7C224.8,966.1,235.2,964.7,245,959.9z"/>
	<path class="st10" d="M215.1,989.3c0.3-0.4,0.6-1.1,1-1.1c9.3-0.1,18.6-0.1,28,0c0.3,0,0.6,0.7,0.9,1.1
		C235,989.9,225,990,215.1,989.3z"/>
	<path class="st11" d="M235.1,68.4c22.2-1.7,44.4-3.9,66.8-3.7c1.8,5.3,3.3,10.7,4.5,16.3c2,9.5,6,17.9,14.1,23.8
		c5.4,3.9,7,8.9,4.7,15.3c-0.5,1.4-0.8,2.9-0.9,4.4c-0.1,2.8-0.6,5.9,3.8,5.9c1.9,0,2.2,1.8,2.2,3.4c0,2.4,1.3,4.4,2.4,6.4
		c-6,3.6-12.1,7.2-18.1,10.8c-13.1,7.8-26.4,15.5-39.4,23.5c-9.2,5.7-19,1.5-24.7-5.5c-5-6.1-7.3-13.6-9.8-20.9
		c-2.2-6.4-3.4-13.2-4-19.6c-0.9-9.7-3.3-19.2-3-29.1C234.1,89,234,78.7,235.1,68.4z"/>
	<path class="st12" d="M332.8,140.1c-1.2-2-2.4-3.9-2.4-6.4c0-1.5-0.3-3.3-2.2-3.4c-4.4-0.1-3.9-3.2-3.8-5.9c0.1-1.5,0.4-3,0.9-4.4
		c2.3-6.3,0.7-11.3-4.7-15.3c-8.2-5.9-12.1-14.4-14.1-23.8c-1.2-5.5-2.7-10.9-4.5-16.3c14.1-1.4,28.1-1.3,42.2-0.2
		c4.3,0.3,8.7,0.3,12.5,2.8c4.8,21.6,2.2,43-2.4,64.3c-0.1,0.3-0.2,0.6-0.3,1C349.7,145.7,344.4,147.6,332.8,140.1z"/>
	<path class="st5" d="M269.4,563c-2.8-0.8-3-2.9-2.9-5.4c0.8-27.2,1.4-54.4,2.1-81.6c0-1-0.1-2-0.2-3c0.7-11.8,1.6-23.6,2.1-35.4
		c0.5-11.8,2.4-23.5,4.4-35.1c3.7-21.5,3-43.1,2.4-64.8c-0.7-28.1-3-56.2-1.2-84.4c0.6-10.1,3.4-19.3,10.6-26.8
		c11.2-11.5,27.5-10.6,35.8,3c15.3,25.2,23.4,52.3,20.9,82.3c-1.7,19.7-8,38.5-9.6,58.1c-1.5,17.4-1.4,34.9-3.1,52.3
		c-1.6,16.9-3,33.8-4.5,50.7c-2.5,24.6-5.1,49.2-7.6,73.7c-0.8,7.4-1.5,14.8-2.3,22.2c-4.4,0.3-8.5-1.1-12.8-1.5
		C292.3,566.1,281,563.5,269.4,563z"/>
	<path class="st13" d="M269.4,563c11.6,0.5,22.9,3.1,34.4,4.4c4.3,0.5,8.4,1.9,12.8,1.5c-0.1,6.2-0.2,12.5-0.3,18.7
		c-0.8,12.3-6.7,18.9-19.2,21.5c-1.8,0.4-3.5,0.8-5.3,1.1c-3.4,0.5-6.9,3.5-10.3,0.5c-4.9-4.4-8.9-9.4-9.4-16.4
		c-0.2-2.2,1-4.7-1.2-6.5c0.9-5.3-1.4-10.3-1.4-15.5C269.3,569.2,269.4,566.1,269.4,563z"/>
</g>
</svg>
