<?xml version="1.0" encoding="utf-8"?>
<!-- Generator: Adobe Illustrator 19.0.0, SVG Export Plug-In . SVG Version: 6.00 Build 0)  -->
<svg version="1.1" id="Слой_1" xmlns="http://www.w3.org/2000/svg" xmlns:xlink="http://www.w3.org/1999/xlink" x="0px" y="0px"
	 viewBox="0 0 196 1000" style="enable-background:new 0 0 196 1000;" xml:space="preserve">
<style type="text/css">
	.st0{fill:#FBFBFB;}
	.st1{fill:#898989;}
	.st2{fill:#2D2E2D;}
	.st3{fill:#2B2B2B;}
	.st4{fill:#6F6F6F;}
	.st5{fill:#F7C584;}
	.st6{fill:#4C4B49;}
	.st7{fill:#F3C68A;}
	.st8{fill:#A7A8A8;}
	.st9{fill:#D0D0D0;}
	.st10{fill:#E5AD64;}
	.st11{fill:#8F7656;}
</style>
<g>
	
		<rect x="22.8" y="143" transform="matrix(0.9458 0.3246 -0.3246 0.9458 63.1961 -11.3951)" class="st0" width="85.8" height="81.3"/>
	<path class="st1" d="M156.3,396.3c-1.4,10.4-0.6,20.9,0,31.3c0.9,15.4,2.3,30.8,3.5,46.2c1.5,19.7,3.9,39.3,6.7,58.9
		c0.5,3.6-0.4,4.4-3.7,4.2c-7.8-0.4-15.6-0.3-23.4-0.9c-4.3-0.3-5.8,0.7-5.7,5.3c0.1,6.6,0.8,13.2-0.7,19.8
		c-2.3-5.1-0.8-10.4-1-15.6c-0.3-8.7-0.1-8.7-8.6-9.4c-2-0.2-3.9-0.9-5.9-0.9c-18.1,0.3-36.2-0.5-54.3-1.1
		c-9.3-0.3-18.6,0.9-27.9-0.9c-1.8-0.3-3.7-0.1-5.3,0.9c-1.8-1.2-3.8-0.9-5.8-1c-7.8-0.3-15.6,0.1-23.3-1c0-2.3,0-4.7,0-7
		c3.3-2.6,1.7-5.9,1.2-9c0.1-3.3,0.3-6.6,0.4-9.9c1.9-1.1,1.5-2.5,0.6-4c0.6-7.7,1.1-15.4,1.7-23c1.2-0.9,1.2-1.9,0.2-3
		c0.2-4.3,0.5-8.7,0.7-13c1.7-1.9,1.4-3.9,0.4-6c0.2-4.7,0.5-9.3,0.7-14c1.3-1.6,1.3-3.3,0.3-5c0.8-16.6,1.9-33.2,2.5-49.8
		c1-30-0.2-59.9-1.3-89.9c-1.2-32.3,0.7-64.5,4.4-96.6c1.4-11.9,3.1-23.7,7.6-35c1-2.4,1.6-4.5,5.3-3c18.6,7.7,36.9,15.9,54.6,25.6
		c6.5,3.5,12.3,8.4,19.5,10.7c2.1,4.4,1.9,9.2,2.9,13.8c6,27.5,11.4,55,16.8,82.6c1.1,5.5,2.6,11,2.3,17.4
		c-4.4-3.1-6.9-6.8-8.9-10.8c-6.8-13.8-10.5-28.6-15.1-43.1c-3.5-11.2-5.9-22.8-12.8-32.7c-9.1-13-26.4-15.3-36.4-4.1
		c-6.8,7.5-10.6,17-11.6,27c-2.2,20.7,3.9,39.3,15,56.5c12.9,20.1,29.1,37.3,47.5,52.6C117.1,373.8,135.2,387.2,156.3,396.3z"/>
	<path class="st2" d="M36.7,135.6c-11.7,9.1-18.6,7.6-22.1-6.4c-5.9-23.7-9.6-48-0.7-71.7c7.9-21.2,22.7-37.2,41.4-49.7
		c5-3.4,11-4.6,16.6-6.8c3,0,6,0,9,0c2.4,2.5,5.2,1.6,8,1.1c2.3,0.2,4.7,0.5,7,0.7c2,1.4,4.1,1.2,6.2,0.7c4.3,0.2,8.5,0.3,12.8,0.5
		c2,1,4.1,1.3,6.2,0.6c0.6,0.1,1.2,0.2,1.8,0.2c0.6,0.8,1.2,0.8,2,0.2c1.2,0.2,2.4,0.3,3.6,0.5c0.7,0.9,1.5,1.3,2.6,0.8
		c0.6,0.2,1.2,0.3,1.7,0.5c0.5,0.7,1.2,1.1,2.1,1c5,2.1,8.5,5.7,10.5,10.7c1.8,4.4,0.9,5.9-3.7,7.1c-6,1.5-12.3,0.6-18.2,2.5
		c-2-0.3-3.9,0.4-5.8,0.9c-11.5,3.3-22.9,7-34.8,8.7c-8.3,1.2-12.6,5.7-15.2,13c-2.6,7.2-3.7,14.8-5.4,22.2
		c-2.2,9.6-4.3,19.6-12.3,26.1c-6.7,5.5-9.9,11-6.6,19.8c1.1,2.9,2.6,7.9-4,8.3c-1.5,0.1-1.7,1.9-1.7,3.3
		C38,132.2,37.5,133.9,36.7,135.6z"/>
	<path class="st3" d="M41,1001c0.2-0.8,0.8-1.7,0.7-2.4c-2.7-12.2-0.2-24.4-0.5-36.7c13.8-0.3,27.5-0.6,41.3-1
		c3.6-0.1,7.3-0.2,10.9-0.4c10.4-0.5,20.8-0.4,31.3-0.6c11.8,7.7,24.4,12.8,38.7,12.4c5.2-0.1,10.3-0.2,15.5-0.2
		c7.4,0,14,1.8,18.1,8.8c0,3,0,6,0,9c-3,2.1-6,4.1-9.6,4.9c-6.5,1.5-13,2.6-19.6,3.2c-25.8,2.6-51.5,1-77.1-1.8
		c-4.1-0.4-5.9,0.5-5.6,4.6C70.3,1001,55.7,1001,41,1001z"/>
	<path class="st4" d="M124.7,960c-10.4,0.2-20.8,0.1-31.3,0.6c-3.6,0.2-7.3,0.3-10.9,0.4c-13.8,0.4-27.5,0.7-41.3,1
		c-7.2,0.6-7.2,0.6-7.3-6.2c-0.7-77.6-1.4-155.2-2.1-232.8c0-2.7,0.1-5.3,0.1-8c1.6-6.4,2.1-12.8-0.3-19.1c-0.2-16-0.4-32-0.6-47.9
		c-0.1-18-0.1-36-0.2-54c1.6-3.4,1.8-6.7-0.1-10.1c-0.8-16.6-0.7-33.3-0.7-50c1.7-1,3.5-1.3,5.3-0.9c9.2,1.8,18.6,0.6,27.9,0.9
		c18.1,0.6,36.2,1.4,54.3,1.1c2,0,3.9,0.7,5.9,0.9c8.6,0.8,8.4,0.7,8.6,9.4c0.2,5.2-1.4,10.6,1,15.6c-0.3,37.6-0.6,75.3-0.9,112.9
		c-1.9,3-1.7,6-0.1,9.1c-0.3,34.1-0.6,68.3-0.9,102.4c-0.5,56.1-1,112.3-1.3,168.4C129.9,958,128.9,960,124.7,960z"/>
	<path class="st4" d="M99.9,199.9c-1.4-9.3-4.6-18.3-5.3-27.7c0.6-0.3,1.1-0.7,1.7-1c9.6-2.5,18.7-6.1,27.8-9.9
		c0.3-0.1,0.7-0.2,1-0.3c3.2,0.4,6.4-4,9.1-1.3c2,2,2.2,5.8,3.2,8.8c13.1,42.8,24.6,86.1,32.1,130.3c3.9,22.8,7.1,45.8,4.8,69.1
		c-0.7,7-2.1,13.9-5.7,20c-2.7,4.6-6.3,8.2-12.1,8.4c-21.1-9.1-39.2-22.5-56.8-37.1c-18.4-15.3-34.5-32.4-47.5-52.6
		c-11.1-17.2-17.2-35.9-15-56.5c1.1-10.1,4.8-19.5,11.6-27c10-11.1,27.3-8.8,36.4,4.1c6.9,9.9,9.3,21.5,12.8,32.7
		c4.6,14.5,8.3,29.4,15.1,43.1c2,4,4.5,7.7,8.9,10.8c0.3-6.4-1.2-11.9-2.3-17.4c-5.4-27.6-10.8-55.2-16.8-82.6
		C101.7,209.2,101.9,204.3,99.9,199.9z"/>
	<path class="st5" d="M96.2,171.2c-0.6,0.3-1.1,0.7-1.7,1c-7.6-6-16.4-10.1-24.5-15.1c-8.9-5.5-17.9-10.8-27-15.9
		c-2.5-1.4-4.6-3.1-6.2-5.5c0.8-1.7,1.2-3.4,1.2-5.3c0-1.3,0.2-3.2,1.7-3.3c6.6-0.4,5-5.4,4-8.3c-3.3-8.7-0.1-14.3,6.6-19.8
		c8-6.5,10.1-16.5,12.3-26.1c1.7-7.4,2.7-15,5.4-22.2c2.7-7.3,6.9-11.8,15.2-13c11.8-1.8,23.3-5.4,34.8-8.7c1.9-0.6,3.8-1.2,5.8-0.9
		c2.9,5.9,6,11.8,8.6,17.8c6.5,14.8,11.1,30.2,10.5,46.6c-0.2,5.6-1.4,11.2-2.1,16.8c-11.2-6.4-22.4-12.7-33.7-19.1
		c-2.8-2.2-5.6-4.2-9.1-5.2c-7.3-4.3-14.7-8.5-21.9-12.8c-2.3-1.4-4.4-1.9-5.9,0.8c-6.7,11.5-13.3,23-19.9,34.5
		c-0.8,1.4-1.1,3.3,0.2,4.1c6,3.6,11.6,8,18.4,10.2c0.3,11.3,3.6,21.4,10.5,30.6C84.5,159.2,91,164.6,96.2,171.2z"/>
	<path class="st6" d="M107.1,90.1c11.2,6.4,22.4,12.7,33.7,19.1c2.5,1.9,2.1,4,0.7,6.5c-1.2,2.1-3.1,3.8-3.4,6.3
		c-5,8.3-10,16.5-15,24.8c-3-11.8-5.8-23.7-9.1-35.5c-1.8-6.6-1.3-14.1-7-19.2C107,91.4,107,90.8,107.1,90.1z"/>
	<path class="st7" d="M123,146.8c5-8.3,10-16.5,15-24.8c0.8,3.6-1,6.7-1.8,9.9c-2.1,8.2-4.7,16.2-9,23.6c-1,1.7-1.5,3.7-2.2,5.5
		c-0.3,0.1-0.7,0.2-1,0.3C124.1,156.5,124.2,151.6,123,146.8z"/>
	<path class="st1" d="M132.1,683c-1.7-3-1.8-6.1,0.1-9.1C133,677,133.1,680,132.1,683z"/>
	<path class="st8" d="M125,5c-0.7,0.6-1.4,0.6-2-0.2"/>
	<path class="st9" d="M6.9,443c-1.2-1.7-1.4-3.4,0.3-5C8.2,439.7,8.2,441.4,6.9,443z"/>
	<path class="st1" d="M31.6,695.9c2.4,6.3,1.9,12.7,0.3,19.1C30.7,708.7,31,702.3,31.6,695.9z"/>
	<path class="st1" d="M30.8,583.9c1.9,3.3,1.7,6.7,0.1,10.1C29.8,590.7,29.9,587.3,30.8,583.9z"/>
	<path class="st10" d="M123,146.8c1.1,4.8,1,9.6,0.9,14.5c-9.1,3.8-18.2,7.4-27.8,9.9c-5.2-6.6-11.7-12-16.8-18.8
		c-6.9-9.3-10.2-19.3-10.5-30.6c-0.8-5.6-1-11.2-1.7-16.8c-0.9-7.1,3.2-13,7-18.8c0.4-0.5,1.5-0.9,2.2-0.9
		c7.3,0.4,14.7-1.1,21.8,1.5c2.9,1.8,5.9,3.5,8.8,5.3c5.8,5.1,5.2,12.6,7,19.2C117.2,123.1,120,135,123,146.8z"/>
	<path class="st6" d="M98.1,86.8c-7.1-2.7-14.5-1.2-21.8-1.5c-0.7,0-1.8,0.3-2.2,0.9c-3.7,5.7-7.8,11.7-7,18.8
		c0.7,5.6,1,11.3,1.7,16.8c-6.8-2.1-12.4-6.6-18.4-10.2c-1.4-0.8-1-2.7-0.2-4.1C56.9,96,63.5,84.5,70.2,73c1.6-2.7,3.6-2.2,5.9-0.8
		c7.3,4.3,14.6,8.5,21.9,12.8C98.1,85.6,98.1,86.2,98.1,86.8z"/>
	<path class="st11" d="M98.1,86.8c0-0.6-0.1-1.3-0.1-1.9c3.4,1,6.3,3,9.1,5.2c-0.1,0.6-0.1,1.3-0.2,1.9C104,90.3,101,88.6,98.1,86.8
		z"/>
</g>
</svg>
