<?xml version="1.0" encoding="utf-8"?>
<!-- Generator: Adobe Illustrator 19.0.0, SVG Export Plug-In . SVG Version: 6.00 Build 0)  -->
<svg version="1.1" id="Слой_1" xmlns="http://www.w3.org/2000/svg" xmlns:xlink="http://www.w3.org/1999/xlink" x="0px" y="0px"
	 viewBox="0 0 1709 1007" style="enable-background:new 0 0 1709 1007;" xml:space="preserve">
<style type="text/css">
	.st0{fill:#04AE2F;}
	.st1{fill:#F9DDCF;}
	.st2{fill:#949494;}
	.st3{fill:#FDF9DB;}
	.st4{fill:#5A3D1C;}
	.st5{fill:#FEFEFE;}
	.st6{fill:#5A5D65;}
	.st7{fill:#4A4D56;}
	.st8{fill:#636363;}
	.st9{fill:#93704D;}
	.st10{fill:#383838;}
	.st11{fill:#474747;}
	.st12{fill:#CAAD47;}
	.st13{fill:#5E6065;}
	.st14{fill:#88240C;}
</style>
<g>
	<path class="st0" d="M1.9,385.3c2.6-37.1,15.7-70.6,35.8-101.5c23.6-36.4,54.4-66,88.7-92c55.4-41.9,116.8-72.6,181.3-97.7
		c67.9-26.5,137.9-45.6,209.3-60c50-10.1,100.3-17.6,151-22.8c51.4-5.3,102.9-8.5,154.6-9.3c0.5,0,1-0.1,1.5-0.2c21,0,41.9,0,62.9,0
		c25.6,0.7,51.3,1.5,76.9,3c42.1,2.5,84,6.5,125.8,11.9c51.8,6.8,103.2,16,154.1,28.2c91.1,21.8,179.3,51.4,261.8,96.2
		c46.6,25.3,90.1,55,127.4,93c29.2,29.8,53,63.2,66.4,103.2c5.3,15.8,8.7,32.1,9.6,48.8c0,8.2,0,16.3,0,24.5
		c-2.3,37.3-15.3,71-35.4,102.1c-23.8,36.9-54.9,66.8-89.7,93.1c-55,41.6-116,72-179.9,97c-67.9,26.5-137.8,45.7-209.2,60.1
		c-49.1,9.9-98.7,17.5-148.5,22.7c-86.6,9.1-173.5,12.1-260.5,8.5c-13.3-0.5-26.6-1.2-39.9-1.9c-2.4-0.1-3.7-0.2-3,3
		c6.8,27.7-3,50.4-21.9,70c-18.4,19.1-41.4,30.9-66.2,39.7c-10,3.6-20.3,6.3-30.7,8.7c-1.6,0.4-3.1,0.5-4.3,2.1
		c-14,18.2-33.4,28.2-54.5,35.3c-27.2,9.1-55.2,12.2-83.7,10.3c-3.7-0.2-5.2,0-4.6,4.4c1.4,9.6-2.2,17.7-8.7,24.5
		c-9.2,9.7-20.9,14.5-33.8,16.8c-0.9,0.2-2.1-0.2-2.6,1c-6.7,0-13.3,0-20,0c-4.6-1.3-9.2-2.4-13.7-3.9c-7.9-2.5-15-6.5-20.9-12.2
		c-14.5-14.1-14.2-33.4,0.8-47c4.2-3.8,9-6.8,14.1-9.3c-0.4-1.8-2-2.2-3.1-3.1c-7.1-5.3-13.6-11.3-18.6-18.7
		c-11.2-16.5-11.3-35-0.2-51.5c3.6-5.3,7.8-9.9,12.7-14c1.6-1.4,2.2-2.4,1.1-4.5c-15.5-31-8.4-58.3,13.6-83.2
		c6.6-7.5,14.4-13.7,23.3-19.9c-12.5-3.7-24.2-7.1-35.8-10.7c-69.3-21.3-136.3-48.2-199.1-84.9c-43.5-25.4-83.9-55-117.9-92.4
		c-28-30.8-49.9-65.3-60.5-106c-3-11.5-5-23.1-5.7-34.9C1.9,402.9,1.9,394.1,1.9,385.3z M545.3,754.2c0.8,0.3,1.5,0.6,2.4,0.8
		c30.2,5.5,60.6,10.2,91.2,13.8c14.3,1.7,28.7,3.9,43.1,4.3c0.5,0.7,1.2,0.8,2,0.5c4.4,0.4,8.9,1,13.3,1.3c15.5,1.1,31,2.4,46.6,3.3
		c22.7,1.2,45.3,2.9,68.1,2.7c3.7,0,7.3,0.1,11,0.1c4.5,0.3,8.9,0.7,13.4,0.8c26.2,0.7,52.5-0.7,78.7-1c11.6-0.1,23.2-1.2,34.8-1.8
		c6.7-0.3,13.3-0.5,20-0.9c42.2-2.4,84.3-6.6,126.2-12.4c65.6-9.1,130.5-21.9,194.4-39.7c22.2-6.2,44.4-12.6,66.1-20.7
		c3.5-1.1,7-2.1,10.4-3.3c23.1-8.2,46-16.8,68.3-27.1c0.5-0.1,1-0.2,1.4-0.4c56-24.7,109.2-54,156.4-93.3
		c30.8-25.6,58-54.6,77.6-89.9c22.4-40.3,30.9-83,21.5-128.6c-7.3-35.2-24.1-65.7-46.3-93.5c-29-36.2-64.4-65-103.1-90
		c-58.6-37.9-122-65.7-187.9-88.1c-63.4-21.6-128.3-37.4-194.2-49.3c-45.3-8.1-90.8-14.3-136.5-18.6c-35.8-3.4-71.8-5.6-107.7-6.7
		c-60-1.8-120-1.1-179.9,2.8C690,22.4,644,27.1,598.2,34c-17.6,2.7-35.2,5.2-52.6,8.9c-2.3-0.1-4.5,0.5-6.6,1.2c-0.7,0-1.3,0-2,0.1
		c-43.2,8.5-86.1,18.3-128.4,30.5c-61.6,17.9-121.5,40.1-178.8,69.3c-24.5,12.5-48.4,25.8-70.8,41.8c-2.6,1-4.8,2.7-6.8,4.5
		c-1.9,1.3-3.9,2.5-5.8,3.9c-15.9,11.5-31.3,23.8-45.7,37.2c-28,26.1-51.9,55.3-68.1,90.3c-13.9,30.3-19.8,62-16.3,95.2
		c3.4,32.4,15.3,61.8,33.1,88.9c26.7,40.7,62.1,72.7,101.8,100.3c2.9,2,5.9,3.9,8.8,5.9c5.3,4.6,11.4,7.9,17.3,11.6
		c15.9,9.9,32,19.4,48.9,27.5c4.3,2.9,8.9,5,13.7,6.9c1.4,0.8,2.8,1.7,4.3,2.4c28.9,13.9,58.5,26.4,88.6,37.4
		c53.9,19.6,109.1,35.1,165.2,47.1c13.6,2.9,27.2,6.1,41,8C540.9,754.2,543.2,754,545.3,754.2z M492.7,814
		c17.5,0.1,32.1,1.2,46.5,4.1c24.4,4.8,47.7,12.5,67.3,28.4c15.3,12.4,25.7,27.5,22.5,48.7c-0.4,2.8,0.6,3.2,2.9,2.4
		c7.1-2.3,14.4-4.1,21.4-6.7c23.3-8.7,45-20.2,61.6-39.3c14.2-16.4,20.3-34.9,13.7-56.4c-0.9-2.9-2.3-4.1-5.6-4.3
		c-33.6-2.3-67-5.7-100.4-10.1c-60.4-8-120.2-19.1-179.2-34.3c-1.9-0.5-3.8-0.9-5.8,0.2c-16.4,9.7-31.1,21.2-40.6,38.2
		c-9.1,16.4-9.8,33.2-1.9,50.3c0.9,2,1.6,3.3,4.3,1.7C429.3,820,461.8,814.7,492.7,814z M493.1,948c23.7-0.2,44.5-2.6,64.6-9.1
		c18.2-5.8,35.5-13.6,48.4-28.4c12.9-14.7,12.9-30.1,0.2-44.9c-8.9-10.4-20.1-17.5-32.5-22.5c-49-19.7-98.5-20.2-148.2-3.1
		c-16.2,5.6-31.1,13.8-41.9,27.7c-10.5,13.4-10.3,27.2,0,40.7c6,7.8,13.8,13.4,22.1,18.5c3.8,2.4,7.7,3.2,12.2,2.9
		c17-1,32.8,2.7,46.2,13.7c2.6,2.2,5.3,3.2,8.6,3.4C480.5,947.3,488.1,948.3,493.1,948z M421.5,994.1c12.4-0.2,23.8-2.7,33.4-10.4
		c11.5-9.1,11.4-21-0.1-30.1c-17.3-13.7-48.8-13.6-65.9,0.2c-11.1,8.9-11.3,20.5-0.3,29.5C398.3,991.2,409.7,993.8,421.5,994.1z"/>
	<path class="st1" d="M886.9,1.8c-21,0-41.9,0-62.9,0c0-0.3-0.1-0.5-0.1-0.8c21,0,42,0,63,0C887,1.3,887,1.5,886.9,1.8z"/>
	<path class="st2" d="M1.9,385.3c0,8.8,0,17.7,0,26.5c-0.3,0-0.6,0.1-0.9,0.3c0-9,0-18,0-27C1.3,385.2,1.6,385.3,1.9,385.3z"/>
	<path class="st2" d="M1709.1,410.7c0-8.2,0-16.3,0-24.5c0.3,0,0.6-0.1,0.9-0.3c0,8.3,0,16.7,0,25
		C1709.7,410.9,1709.4,410.8,1709.1,410.7z"/>
	<path class="st3" d="M545.5,42.9c17.4-3.7,35-6.3,52.6-8.9C644,27.1,690,22.4,736.2,19.3c59.9-3.9,119.9-4.7,179.9-2.8
		c36,1.1,71.9,3.3,107.7,6.7c45.8,4.3,91.3,10.5,136.5,18.6c65.9,11.8,130.8,27.7,194.2,49.3c65.9,22.4,129.3,50.2,187.9,88.1
		c38.7,25,74.1,53.8,103.1,90c22.2,27.8,39.1,58.3,46.3,93.5c9.4,45.6,0.9,88.3-21.5,128.6c-19.6,35.3-46.7,64.3-77.6,89.9
		c-47.2,39.3-100.5,68.6-156.4,93.3c-0.5,0.2-1,0.3-1.4,0.4c0.3-7.1-1.3-14.2,0.9-21.2c7.3,0,14.7,0,22,0.2c3.5,0.1,4.7-1,4.6-4.5
		c-0.2-10.7-0.3-21.3,0-32c0.2-4.7-1.1-6.2-6-6.2c-131.4,0.1-262.7,0.1-394.1,0.1c-1.8,0-3.6-0.2-5.5-0.3c0-62.2,0-124.4,0-186.5
		c0-1.8-0.3-3.6-0.4-5.4c-0.2-2.9-1.7-4.5-4.6-4.6c-10.6-0.9-21.3-0.2-32-0.4c-1-1.6-0.9-3.5-1-5.3c-0.7-11.8-1.3-23.5-2.2-35.2
		c-0.7-9-3.9-17.1-9.7-24c-3.9-4.7-9.4-8.2-11.4-14.4c-0.2-0.7-0.3-1.3-0.5-2c0-0.8,0.2-1.7,0-2.4c-2.9-8.5-5.5-17-8.8-25.3
		c-3.5-8.7-6-17.8-11.2-25.7c-0.3-0.5-0.6-1.1-0.9-1.6c-0.5-4.1-2.5-7.5-4.9-10.7c-0.3-0.5-0.5-0.9-0.8-1.4c0.3-1.2-0.3-2-1.3-2.6
		c-0.2-0.5-0.5-0.9-0.7-1.4c0.2-1.2-0.4-2-1.3-2.6c-0.2-0.5-0.5-0.9-0.7-1.4c-0.2-1.8-0.6-3.5-2.5-4.4c-0.5-0.9-0.9-1.8-1.4-2.7
		c-0.2-1.9-0.9-3.4-2.6-4.4c-0.5-0.9-1-1.7-1.4-2.6c-0.1-1.9-1-3.3-2.6-4.3c0-0.3-0.2-0.5-0.5-0.7c-1.2-4.1-3.5-7.4-6.6-10.2
		c0-0.3-0.2-0.6-0.5-0.8c0.2-1.8-1-2.7-2.4-3.5c0-0.3-0.1-0.5-0.4-0.6c0.1-1.2-0.6-1.9-1.7-2.3c0-0.3-0.1-0.5-0.4-0.7
		c0.1-1.3-0.5-1.9-1.7-2.2c-2.7-3.9-5.5-7.8-8.2-11.6c-2.5-6.9,0.5-13.7,0.2-20.6c-0.2-5.1-0.1-10.2,0.5-15.3
		c0.9-9,1.2-18.2-0.2-27.3c-1.5-9.6-3.9-19-5.2-28.7c-0.5-3.6-3.1-7.1-1.2-11c13.3-0.1,21.7-7.9,28.6-18c2.6-3.8,2.8-7.9,1.8-12.4
		c-1.4-6.6-5.3-12.2-7.1-18.6c-0.9-3.3-2.1-3.3-4.9-2.3c-8.9,3.3-17.7,6.8-26.9,9c-18.3,4.3-36.8,1.9-55.1,0.7
		c-22.9-1.4-45.8-3.1-68.6,0.3c-12,1.8-23.8,4.3-34.8,9.8c-7.1,3.6-12.2,8.8-13.6,16.8c-1.5,9-4.7,17.3-8.4,25.5
		c-5.5,12-7.7,24.5-7.3,37.7c0.3,10.5,2.1,20.8,3.3,31.2c-1.1,0.7-2.1,1.3-2.3,2.7c-4.1,3.2-7.6,6.9-10.8,11
		c-2.9,1.8-5.3,4.1-6.5,7.3c-0.5,0.6-1,1.1-1.4,1.7c-2.8,1.7-4.6,4.2-5.6,7.3c-0.5,0.6-0.9,1.1-1.4,1.7c-4.1,3.8-7.3,8.2-9.5,13.3
		c-0.3,0.1-0.5,0.3-0.5,0.7c-1.5,0.4-1.9,1.8-2.6,2.9c-10.1,15.5-18.6,31.8-26.1,48.6c-11.4,25.5-20.1,52-26.9,79.1
		c-1.9,7.5-4.5,14.9-4.5,22.8c-0.1,0.7-0.2,1.3-0.3,2c-2.1,2.7-2.4,5.8-1.8,9c-0.1,0.7-0.2,1.3-0.2,2c-1.9,2.8-2.5,5.8-1.8,9
		c-0.1,0.7-0.1,1.3-0.2,2c-1.5,3.5-2.5,7.1-1.8,11c-0.1,0.7-0.1,1.3-0.2,2c-0.3,0.8-0.7,1.5-0.8,2.3c-2.2,14.1-3.3,28.4-4.4,42.6
		c-2.5,33.1-2.4,66.1,0.8,99.1c1.6,15.9,4.6,31.5,8.3,47c-1.3,0.1-2.6,0.2-4,0.2c-27.4,0-54.9,0-82.3,0c-0.1-1.3-0.4-2.6-0.4-4
		C545.5,419.2,545.5,231.1,545.5,42.9z"/>
	<path class="st2" d="M158.9,185.8c22.4-16,46.4-29.3,70.8-41.8c57.2-29.2,117.1-51.4,178.8-69.3c42.3-12.3,85.2-22.1,128.4-30.5
		c0.6-0.1,1.3-0.1,2-0.1c0,0.3,0,0.7,0,1c0,186.9,0,373.8,0,560.8c0,1.9-0.1,3.7-1,5.3c-1.4,0-2.7,0-4.1,0c-0.7-1.2-1.3-1.2-1.9,0
		c-0.4-0.2-0.8-0.3-1.2-0.5c0-25-0.1-49.9,0-74.9c0-3.9-1.1-5.2-5-5.1c-17.8,0.2-35.6,0.1-53.4,0.1c-11.8,0-11.9,0-12.1,11.8
		c-0.1,3.2-0.5,4.5-4.2,3.3c-6.2-1.9-10.6,0.5-13.3,6.4c-1.9,4-2.8,8.2-3.4,12.5c-1.8,12.7,1.8,22.5,11.9,25.1
		c9.5,2.4,9.7,7.7,9,14.9c-0.2,2-0.1,4-0.1,6c-2.7,0.1-5.3,0.3-8,0.3c-65.3,0-130.5,0-195.8,0c-32.1,0-64.3,0.1-96.4,0.1
		c-1.4-2.3-1-4.8-1-7.3c0-137.2,0-274.4,0-411.6C159,190.2,158.9,188,158.9,185.8z M195,338.7c-0.8,16.5,13.5,32.8,30.5,33.1
		c16.8,0.3,31.9-15.6,31.3-33.5c-0.6-17.6-12.7-32-30.9-32.5C211.1,305.4,194.6,319.6,195,338.7z"/>
	<path class="st4" d="M534,611.3c1.4,0,2.7,0,4.1,0c2.6,0,5.2,0.1,7.8,0.1c27.4,0,54.9,0,82.3,0c1.3,0,2.6-0.2,4-0.2
		c0.6,0,1.2-0.1,1.7-0.1c17.4,0,34.7,0,52.1,0c17.4,0,34.7,0,52.1,0c2.1,1.3,4.5,0.9,6.8,0.9c93.7,0,187.5,0,281.2,0
		c10.3,0,20.6,0.8,30.8-0.9c1.8,0.1,3.6,0.3,5.5,0.3c131.4,0,262.7,0,394.1-0.1c4.9,0,6.2,1.4,6,6.2c-0.3,10.6-0.2,21.3,0,32
		c0.1,3.6-1.1,4.7-4.6,4.5c-7.3-0.3-14.6-0.2-22-0.2c-1.3-2.1-3.2-2.6-5.5-2.6c-23.3,0.1-46.6,0-69.9,0c-2,0-4.2-0.1-4.5,2.7
		c-118.1,0-236.2,0-354.3,0c-2,0-4,0.3-6,0.4c-15-0.1-29.9-0.1-44.9-0.2c-48,0-95.9,0-143.9,0c-0.7,0-1.3,0-2,0c-8,0-16,0-24,0
		c-25.7,0-51.3,0-77,0c-6,0-12,0-18,0c-0.7,0-1.3,0-2,0c-10.7,0-21.4,0-32.1,0c-0.9-0.2-1.8-1.6-2.8-0.2c-34.4,0-68.8,0-103.2,0
		c-2.6,0.2-5.3-1.1-7.9,0.1c-1.4,0-2.7,0-4.1-0.1c-1.6-1.4-3.5-0.8-5.3-0.8c-92.8,0-185.6,0-278.4,0c-1.8,0-3.7-0.6-5.3,0.8
		c-1.4,0-2.7,0-4.1,0c-1.2-2-3-2.9-5.4-2.8c-3.1,0.2-6.3,0.1-9.4,0.1c-16.9-8.1-33-17.6-48.9-27.5c-5.9-3.7-12-7-17.3-11.6
		c0.1-0.3,0.1-0.6,0.1-0.9c32.1,0,64.3-0.1,96.4-0.1c65.3,0,130.5,0,195.8,0c2.7,0,5.3-0.2,8-0.3c2,0.2,3.9,0.5,5.9,0.5
		c19.6,0,39.2,0,58.8,0c2,0,3.9-0.3,5.9-0.5c0.4,0.2,0.8,0.3,1.2,0.5C532.7,612.1,533.3,612.1,534,611.3z"/>
	<path class="st3" d="M995.8,654.3c2-0.1,4-0.4,6-0.4c118.1,0,236.2,0,354.3,0c0.1,1.8,0.2,3.7,0.2,5.5c0.1,15.3,0.1,30.6,0.2,46
		c-21.6,8.2-43.8,14.5-66.1,20.7c-63.8,17.9-128.7,30.7-194.4,39.7c-41.9,5.8-84,10-126.2,12.4c-6.6,0.4-13.3,0.6-20,0.9
		c0.1-13.1,0.4-26.1,0.2-39.2c-0.1-4.7,0.6-8.2,5.9-9c1-0.1,2-0.3,3-0.4c1.8,0.7,3.5,0.6,5.1-0.5c1.6-0.2,3.3-0.3,4.9-0.5
		c2.9,0.6,5.6-0.1,8.1-1.5c1.3-0.2,2.6-0.4,3.9-0.5c2,0.5,3.7-0.1,5.1-1.5c1-0.2,1.9-0.4,2.9-0.6c1.8,0.5,3-0.2,4.1-1.6
		c3.9-1,7.3-2.8,9.3-6.5c1.2-0.4,1.9-1.1,1.3-2.5c0.5-8.5-5.8-11.3-11.9-14.4c-0.6-1-1.3-1.7-2.6-1.5c-2.6-1.1-5-2.8-8-3
		c-1-1.4-2.3-2-4.1-1.6c-0.6-0.1-1.3-0.3-1.9-0.4c-0.5-0.8-1.1-1.1-2.1-0.7c-0.8-0.3-1.6-0.5-2.3-0.8c-0.7-1.1-0.8-2.2-0.3-3.4
		C981.4,679.4,990.2,668,995.8,654.3z"/>
	<path class="st2" d="M151.1,606.2c-39.7-27.6-75-59.6-101.8-100.3c-17.8-27.1-29.7-56.5-33.1-88.9c-3.5-33.2,2.4-64.9,16.3-95.2
		c16.1-35,40.1-64.2,68.1-90.3c14.4-13.4,29.7-25.6,45.7-37.2c1.9-1.4,3.9-2.6,5.8-3.9c0,137,0,274.1,0,411.1
		C152.1,603.1,152.5,604.9,151.1,606.2z M114,338.1c0.8-3.6-0.4-7.8-2.1-11.8c-4.4-10.9-12.3-18.3-24.1-20.1
		c-12.8-1.9-22.9,3.5-29.7,14.3c-8.1,13-7.1,26,1.3,38.8c5.2,8,19.3,14,28.7,12.3C103.3,368.8,115.1,354,114,338.1z"/>
	<path class="st5" d="M492.7,814c-30.9,0.7-63.4,6-93.2,22.9c-2.7,1.5-3.4,0.3-4.3-1.7c-7.9-17.1-7.2-33.9,1.9-50.3
		c9.5-17,24.2-28.6,40.6-38.2c2-1.2,3.8-0.7,5.8-0.2c59,15.2,118.8,26.3,179.2,34.3c33.3,4.4,66.8,7.8,100.4,10.1
		c3.2,0.2,4.6,1.3,5.6,4.3c6.7,21.5,0.5,40-13.7,56.4c-16.6,19.2-38.3,30.6-61.6,39.3c-7,2.6-14.3,4.5-21.4,6.7
		c-2.4,0.8-3.4,0.4-2.9-2.4c3.2-21.1-7.2-36.2-22.5-48.7c-19.6-15.9-42.9-23.7-67.3-28.4C524.8,815.3,510.2,814.1,492.7,814z"/>
	<path class="st5" d="M493.1,948c-5.1,0.3-12.7-0.7-20.3-1.2c-3.2-0.2-5.9-1.2-8.6-3.4c-13.4-11-29.3-14.6-46.2-13.7
		c-4.6,0.3-8.4-0.5-12.2-2.9c-8.3-5.1-16.1-10.7-22.1-18.5c-10.4-13.5-10.5-27.3,0-40.7c10.8-13.9,25.7-22.1,41.9-27.7
		c49.7-17.1,99.3-16.6,148.2,3.1c12.4,5,23.7,12.2,32.5,22.5c12.7,14.8,12.7,30.2-0.2,44.9c-13,14.8-30.2,22.6-48.4,28.4
		C537.6,945.4,516.8,947.9,493.1,948z"/>
	<path class="st2" d="M241,653.8c1.4,0,2.7,0,4.1,0c1.4,1.7,3.4,1,5.1,1c92.9,0,185.8,0,278.6,0c1.7,0,3.7,0.7,5.1-1
		c1.4,0,2.7,0,4.1,0.1c1.1,1.8,1,3.8,1,5.8c0,31.1,0,62.2,0,93.3c-13.8-1.9-27.4-5.1-41-8c-56.1-12-111.2-27.5-165.2-47.1
		c-30.2-11-59.7-23.5-88.6-37.4c-1.5-0.7-2.9-1.6-4.3-2.4C239.8,656.5,240.2,655.2,241,653.8z"/>
	<path class="st6" d="M956,730.9c-5.4,0.8-6,4.3-5.9,9c0.2,13-0.1,26.1-0.2,39.2c-11.6,0.6-23.2,1.7-34.8,1.8
		c-26.2,0.3-52.5,1.7-78.7,1c-4.5-0.1-8.9-0.5-13.4-0.8c0.6-5.7-0.9-11.2-0.9-16.8c-0.1-10.6,0-21.2,0-31.9c0-16.5,3.7-32,12-46.3
		c-0.3-2.2-1.2-2.7-2.9-1.1c-7.7,0-15.3,0-23,0c-1.3-1.4-4.3-1-3.4-4.8c2-8.5,2.4-17.3,2.4-26.1c48,0,95.9,0,143.9,0
		c-0.1,8.6,0.6,17.1,1.9,25.7c0.3,2.2,1.3,5.6-3,5.2c-5.3-0.4-5.1,1.8-3.9,5.9c3.4,11.6,5.1,23.4,4.1,35.5c-0.2,2.5,0.4,3.9,3.2,3.6
		C954.3,729.9,955.3,729.9,956,730.9z"/>
	<path class="st7" d="M807,654c0,8.8-0.3,17.6-2.4,26.1c-0.9,3.8,2.1,3.4,3.4,4.8c-2.7,1.7-1.7,3.9-0.9,6.1c4.2,11.7,6,23.6,6,36.1
		c0,18-0.4,35.9-1.1,53.8c-22.7,0.2-45.4-1.5-68.1-2.7c-15.6-0.8-31.1-2.2-46.6-3.3c-4.5-0.3-8.9-0.9-13.3-1.3
		c0-12.9,0-25.9,0.1-38.8c0-2.6-0.4-4.9-2.1-6.9c0-12.6-0.5-25.2,2.9-37.6c0.3-1.1,0.4-2.7-0.2-3.4c-2.5-3.3-1.5-7-1.7-10.6
		c-0.5-7.5,0.7-14.9,1-22.3c0.7,0,1.3,0,2,0c-0.3,8.4-1.5,16.8-1,25.3c0.1,1.1-0.6,2.7,0.9,3c1.9,0.4,1.6-1.5,2.2-2.6
		c2.8-5.5,5.1-11.3,8.8-16.4c2.3-3.2,6.1-5.2,7.1-9.3c25.7,0,51.3,0,77,0c0.1,0.3,0,0.8,0.2,1c6.9,6.2,13.2,12.9,18.1,20.7
		c0.5,0.8,1.5,1.4,2.6,1c1.4-0.6,1-1.9,1.1-3c0.7-6.5,1.3-13.1,2-19.6C805.7,654,806.3,654,807,654z"/>
	<path class="st3" d="M545.9,653.8c34.4,0,68.8,0,103.2,0c1.3,1.4,1.8,3.6,3.7,4.5c0,0.3,0.1,0.5,0.4,0.6c-0.2,1.2,0.4,2.1,1.5,2.4
		c0,0.3,0.2,0.5,0.4,0.6c-0.1,1.2,0.4,2,1.6,2.4c0,0.3,0.2,0.5,0.4,0.6c-0.1,1.2,0.4,2,1.6,2.4c0.4,0.6,0.8,1.1,1.3,1.7
		c0,1.8,1.3,2.7,2.7,3.4c5.2,6.6,10.9,12.6,17.7,17.5c-0.1,0.7-0.2,1.4-0.3,2.2c-0.7,0.2-1.3,0.4-2,0.6c-2-0.6-3.6,0.4-5.1,1.6
		c-1.5-0.1-2.8,0.4-3.9,1.4c-4,0.1-7.4,1.7-10.4,4.2c-2.8,0.7-5.2,2.2-7.3,4.1c-3.4,2.9-7.2,5.6-5.9,11c-0.5,1.3,0.1,2,1.4,2.3
		c0.5,1.5,1.5,2.4,3,2.9c0.3,1.3,1,1.8,2.3,1.4c0.5,0.2,1.1,0.5,1.6,0.7c0.4,1.2,1.1,1.7,2.4,1.3c0.6,0.2,1.3,0.3,1.9,0.5
		c1.1,1.3,2.3,2.1,4.1,1.5c1,0.2,1.9,0.3,2.9,0.5c1.8,1.3,3.7,2.4,6,1.5c0.7,0.1,1.5,0.2,2.2,0.2c0.7,0.3,1.5,0.9,2.2,1
		c5.5,0.1,6.7,3.1,6.5,8.1c-0.3,12.1-0.1,24.2-0.1,36.4c-14.5-0.4-28.8-2.6-43.1-4.3c-30.5-3.7-60.9-8.3-91.2-13.8
		c-0.8-0.1-1.6-0.5-2.3-0.8c0.1-0.8,0.2-1.7,0.2-2.5c0-30.7,0-61.4,0-92.1C545.5,657.7,544.9,655.7,545.9,653.8z"/>
	<path class="st8" d="M545.9,611.3c-2.6,0-5.2-0.1-7.8-0.1c0.8-1.7,1-3.5,1-5.3c0-186.9,0-373.8,0-560.8c0-0.3,0-0.7,0-1
		c2.2-0.7,4.3-1.3,6.6-1.2c0,188.1,0,376.3,0,564.4C545.5,608.7,545.8,610,545.9,611.3z"/>
	<path class="st5" d="M421.5,994.1c-11.8-0.3-23.2-2.9-32.8-10.8c-11-9-10.8-20.6,0.3-29.5c17.1-13.8,48.6-13.9,65.9-0.2
		c11.5,9.1,11.6,21,0.1,30.1C445.2,991.4,433.8,994,421.5,994.1z"/>
	<path class="st9" d="M1356.4,705.3c-0.1-15.3-0.1-30.6-0.2-46c0-1.8-0.1-3.7-0.2-5.5c0.3-2.8,2.5-2.7,4.5-2.7c23.3,0,46.6,0,69.9,0
		c2.3,0,4.3,0.5,5.5,2.6c-2.2,7-0.5,14.1-0.9,21.2c-22.3,10.2-45.2,18.9-68.3,27.1C1363.4,703.2,1359.9,704.2,1356.4,705.3z"/>
	<path class="st8" d="M151.1,606.2c1.4-1.3,1-3.1,1-4.7c0-137,0-274.1,0-411.1c2-1.9,4.2-3.5,6.8-4.5c0,2.2,0.1,4.3,0.1,6.5
		c0,137.2,0,274.4,0,411.6c0,2.5-0.4,5,1,7.3c0,0.3,0,0.6-0.1,0.9C157,610.2,154,608.2,151.1,606.2z"/>
	<path class="st10" d="M812,781c0.7-17.9,1.1-35.9,1.1-53.8c0-12.4-1.8-24.4-6-36.1c-0.8-2.2-1.8-4.4,0.9-6.1c7.7,0,15.3,0,23,0
		c0.7,1.2,1.9,1,2.9,1.1c-8.2,14.4-12,29.9-12,46.3c0,10.6,0,21.2,0,31.9c0,5.6,1.5,11.2,0.9,16.8C819.3,781,815.7,781,812,781z"/>
	<path class="st8" d="M545.9,653.8c-1,1.9-0.4,3.9-0.4,5.9c0,30.7,0,61.4,0,92.1c0,0.8-0.1,1.7-0.2,2.5c-2.1-0.2-4.4,0-6.3-1.2
		c0-31.1,0-62.2,0-93.3c0-2,0.1-4-1-5.8C540.6,652.7,543.3,654.1,545.9,653.8z"/>
	<path class="st8" d="M681.9,773.1c0-12.1-0.3-24.3,0.1-36.4c0.1-5-1.1-8-6.5-8.1c-0.7,0-1.5-0.6-2.2-1c3-1.5,5.8,0.7,8.7,0.3
		c1.7,2,2.1,4.3,2.1,6.9c-0.1,12.9-0.1,25.9-0.1,38.8C683.2,773.9,682.5,773.8,681.9,773.1z"/>
	<path class="st8" d="M241,653.8c-0.7,1.3-1.2,2.7-1.1,4.3c-4.8-1.9-9.4-4.1-13.7-6.9c3.1,0,6.3,0.1,9.4-0.1
		C238,650.9,239.7,651.8,241,653.8z"/>
	<path class="st11" d="M1056.9,611c-10.2,1.7-20.6,0.9-30.8,0.9c-93.7,0.1-187.5,0-281.2,0c-2.3,0-4.7,0.4-6.8-0.9c0-2.3,0-4.7,0-7
		c1.4-1.1,0.8-2.6,0.9-4c-0.1-4.7,0.6-9.4-0.9-14c1.6-1.5,0.8-3.4,1-5.2c0.6-7.8-2.1-15.6-0.8-23.3c1.4-8.3,0.5-16.6,0.8-24.8
		c0.1-1.6,0.6-3.4-0.9-4.7c0-35.3,0-70.7-0.1-106c0-2.7,0.3-4.9,3-6c1.4-0.5,2.2-2.1,4-1.8c13.4,1.9,26.9,0.4,40.4,0.8
		c2.1,0.1,4.5,0.6,5.7-2c0-1,0-2,0-3c2.8-0.3,1.1,4.5,4.3,3.9c4.2,0,8.3,0,12.5-0.1c14.4,0,28.8,0,43.2,0.1c6.1,0,12.2,0.2,18.2,0.1
		c3.2-0.1,6.6,0.9,9.6-1.1c2,1.2,4.1,1.1,6.3,1.1c13.1,0,26.3,0,39.4,0c31.8,0,63.6,0.1,95.5,0.1c10.7,0.1,21.3-0.6,32,0.4
		c0.9,2.2,2.4,3.8,4.6,4.6c0.2,1.8,0.4,3.6,0.4,5.4C1057,486.7,1057,548.8,1056.9,611z"/>
	<path class="st1" d="M926,104.3c-1.9,3.9,0.8,7.4,1.2,11c1.3,9.6,3.7,19.1,5.2,28.7c1.4,9,1.1,18.2,0.2,27.3
		c-0.5,5.1-0.7,10.3-0.5,15.3c0.3,6.9-2.7,13.8-0.2,20.6c-3.2,0.1-2.4,2.7-2.6,4.5c-4,25.8-8,51.6-14.7,77
		c-3.4,12.9-8.5,24.9-19.7,33.3c-2,0.1-1.4,1.7-1.6,2.9c-11.3,0.2-22.4,2.3-33.5,3.5c-2.7,0.3-7.1-1-8.3,3.6
		c-0.2,0.2-0.4,0.2-0.7,0.1c-5.6-4.1-12.4-3.9-18.8-5c-0.6-1.2-1.1-2.3-2.3-3.1c-10.1-6.7-18.9-15-27.8-23.2c2.5-7.5,3-15.2,3-23
		c0-0.9-0.4-2-1-2.8c-7.9-10.4-13-22.4-19-33.9c-4.2-8-8.8-16-19.6-16c-0.8,0-1.5-0.6-2.3-0.9c-12.5-4.6-18.3-14.5-19.8-27
		c-1-8.5-0.2-17,4.5-24.6c3.1-5.1,7.8-6.1,12.9-3.1c2.1,1.3,4,2.9,5.9,4.6c3.1,2.8,5.5,6.2,7.9,9.6c0.7,1,1.7,1.8,2.9,1.2
		c1.3-0.6,1.4-1.7,1-3c-0.6-2.1-0.3-4.2,0.2-6.4c5.7-23.6,16.1-45,30.1-64.7c2.2-3.2,4.9-5.9,8.1-8.1c2.5-1.7,4.9-2.1,7.3,0
		c2.4,2.1,5.3,2.4,8.4,2.5c10.3,0.3,20.1-2.4,30-4.4c15.4-3.2,30.7-7.4,46.7-6.8C916.8,94.2,923.8,95.3,926,104.3z M874.8,273.1
		c8.7,0.2,15.6-4.9,22.1-10.6c0.9-0.8,1.3-2,0.9-3.2c-0.5-1.4-1.8-1.2-2.9-1.3c-5.8-0.3-11.6,0.1-17.4-0.5
		c-9.5-1.1-18.9-2.8-28.4-4.4c-1.2-0.2-2.9-0.7-3.6,0.8c-1,1.7,0.7,2.7,1.7,3.7c2.3,2.1,4.6,4.4,7.2,6.1
		C860.4,267.8,865.9,273.3,874.8,273.1z M858.4,150.2c-7,1.1-13.6,4.4-20,8.4c-0.7,0.4-1.3,1.2-1,2.1c0.5,1.2,1.6,1.1,2.5,0.8
		c2.4-0.7,4.9-0.7,7.4-0.7c8.7,0.3,17.2,1.7,25.4,4.4c1.1,0.3,2.3,1,3.3,0c0.3-0.3,0.3-1.2,0.1-1.8
		C874.5,158.1,864.3,150.3,858.4,150.2z M888.5,167.9c11-1.4,20.7-2.6,30.4-3.9c1.2-0.2,3,0.5,3.4-1.2c0.4-1.5-1.1-2.3-2.2-3
		c-11.2-8.5-23.7-6.6-31.9,4.9c-0.4,0.6-0.9,1.5-0.8,2.2C887.6,168.2,888.8,167.9,888.5,167.9z M904.9,195.6
		c0.9-5.2-1.3-9.5-4.3-13.4c-1.8-2.4-4.4-3.3-6.9-1.2c-7.8,6.8-7.6,21.7,0.2,28.4c1.9,1.6,3.2,1.8,5.1,0.1
		C903.2,205.7,905.9,201.4,904.9,195.6z M868.9,195c0.7-4.8-0.6-9-4-12.7c-2.8-3-5.1-2.8-7.9,0.1c-3,3.1-1.9,7.3-3.6,10.5
		c-3.7,7,0.3,11.4,4.2,16.1c1.8,2.2,3.6,2.4,5.8,0.2C867.5,205.4,869.8,200.9,868.9,195z"/>
	<path class="st12" d="M926,104.3c-2.2-9-9.2-10.1-16.9-10.4c-16-0.6-31.3,3.6-46.7,6.8c-9.9,2.1-19.7,4.8-30,4.4
		c-3.1-0.1-6-0.4-8.4-2.5c-2.4-2.1-4.8-1.7-7.3,0c-3.2,2.2-5.8,4.9-8.1,8.1c-14,19.7-24.4,41.1-30.1,64.7c-0.5,2.2-0.8,4.3-0.2,6.4
		c0.3,1.3,0.2,2.4-1,3c-1.3,0.6-2.2-0.2-2.9-1.2c-2.4-3.4-4.8-6.8-7.9-9.6c-1.9-1.6-3.8-3.3-5.9-4.6c-5.1-3.1-9.7-2-12.9,3.1
		c-4.7,7.6-5.5,16.1-4.5,24.6c1.5,12.5,7.2,22.4,19.8,27c0.8,0.3,1.5,0.9,2.3,0.9c10.9,0.1,15.4,8,19.6,16c6,11.5,11.1,23.5,19,33.9
		c0.6,0.8,1,1.8,1,2.8c0,7.8-0.5,15.5-3,23c-2.5-1.8-5-3.8-7.6-5.5c-5.1-3.4-7.2-2.5-9.7,3.2c-2,4.6-1.5,9.8-4.1,14.2
		c-2.3-1.4-4.7-1.9-7.3-1.6c-4.6-9-8.6-18.2-11.4-28c-3.7-12.9-6.5-26.1-9.3-39.3c-4.2-19.6-13.2-37.6-18.4-56.8
		c0.1-1.1-0.1-2-1-2.7c-1.2-10.4-3-20.7-3.3-31.2c-0.4-13.2,1.7-25.7,7.3-37.7c3.7-8.2,7-16.5,8.4-25.5c1.3-8,6.5-13.2,13.6-16.8
		c11-5.5,22.8-8,34.8-9.8c22.9-3.4,45.7-1.8,68.6-0.3c18.4,1.1,36.8,3.6,55.1-0.7c9.2-2.2,18-5.8,26.9-9c2.7-1,3.9-1,4.9,2.3
		c1.8,6.4,5.7,12,7.1,18.6c1,4.5,0.8,8.6-1.8,12.4C947.7,96.5,939.3,104.3,926,104.3z"/>
	<path class="st10" d="M734.1,186.8c5.3,19.2,14.2,37.2,18.4,56.8c2.8,13.1,5.6,26.3,9.3,39.3c2.8,9.8,6.8,19,11.4,28
		c-11.9,1.1-23.6,4-35.3,6.1c-1.2,0.2-1.7,0.8-2,1.9c-1,0-1.9,0-2.9,0c-3-1.7-4.5-0.2-3.6,2.5c1.2,3.6-0.8,4.6-3.3,5.4
		c-6.3,2-12.6,3.9-19.1,5.3c-9,2-18.2-0.1-27.2,1.8c-12.4,2.7-23.9,6.6-31.7,17.5c-6.6,9.2-8.4,19.6-8.1,30.6
		c-0.8,0.5-0.9,1.2-0.9,2c-1.8,1.4-0.8,3.3-1,5c-0.1,2.5-0.3,5,1.8,7c0,1.6,0,3.3,0,4.9c-4.6,0.4-2.2,3.9-2.8,6.1c0,2.7,0,5.3,0,8
		c-0.9,2-1.9,4,0,6c0,2.3,0,4.7,0,7c0,2,0,4-0.1,6c-3.6,2.6-2,5.9-1,9c0.2,4-0.1,8-1,12c-1,4-2,8,0,12c0,9.3,0,18.7,0,28
		c-1.6,3.8-1.8,7.6,1,11c0,3,0,6,0,9c-1,2.2-2.4,4.5,1,6c0,1.3,0,2.6,0.1,4c0,1.3,0,2.7,0,4c-1.5,1.5-0.3,1.8,1,2l0,0
		c0,1.7,0,3.3,0,5c-1.5,1.6-1.1,2.6,0.9,3c0,3,0.1,6,0.1,9c0,1.4-0.1,2.9,1.9,3c0,2.3,0.1,4.6,0.1,7c0,1.3,0.6,2,1.9,2
		c0,1.7,0.1,3.3,0.1,5c0,1.3,0.6,2,1.9,2.1c1.2,7.5,4.4,14.1,9.1,20c1.9,2,4.4,3.7,5.7,6c1.9,3.4,4.7,4.6,8.2,5
		c1.8,3.5,5.2,2.2,8,2.9c0.3,0,0.7,0,1,0c1.9,3.9,5.4,1.1,8,2c0.1,1.1-0.2,2.3,1,3c0,1.7,0,3.3,0,5c-17.4,0-34.7,0-52.1,0
		c-1.7-9.4-4.3-18.6-5.6-28.1c-1.3-9.7-2.9-19.3-3.4-29c-0.3-6.3-0.5-12.6-1.1-18.9c-2-20.1-0.8-40.2,0.4-60.2
		c1-16.2,1.9-32.4,4.7-48.4c0.3-2,0.8-4.3-0.6-6.3c0.1-0.7,0.1-1.3,0.2-2c3.1-3.3,2.9-7.1,1.8-11c0.1-0.7,0.1-1.3,0.2-2
		c2.4-2.7,3.2-5.6,1.8-9c0.1-0.7,0.2-1.3,0.2-2c2.4-2.6,3.1-5.6,1.8-9c0.1-0.7,0.2-1.3,0.3-2c1.9-1.5,1.9-3.7,2.4-5.8
		c4.3-18.9,8.9-37.7,15.2-55.9c9.4-27.1,20.3-53.5,35.3-78.2c2.6-4.3,6.5-8.1,7.2-13.5c0-0.3,0.2-0.5,0.5-0.7
		c4.8-3.3,7.4-8.1,9.5-13.3c0.5-0.6,0.9-1.1,1.4-1.7c3.3-1.3,4.9-4,5.6-7.3c0.5-0.6,1-1.1,1.4-1.7c3.1-1.6,5.7-3.7,6.5-7.3
		c3.3-4,6.8-7.8,10.8-11C731.8,186.8,732.9,186.8,734.1,186.8z"/>
	<path class="st13" d="M893.4,324.8c0.1-1.2-0.5-2.7,1.6-2.9c1.3,3.5,2.6,7.1,4.4,12c0.4-2.2,0.6-2.8,0.7-3.4
		c0.4-8.6,0.4-8.6,8.7-6.1c11.5,3.6,23,7.2,34.5,10.8c1.5,0.5,3,1.1,4.2-0.2c1.9-2.2,4.4-2.1,6.9-2c6.5,0.3,13,0.4,19.4,1.1
		c6.1,0.7,12,2.4,17.6,4.8c1.3,0.6,2.6,2.3,3.9,1.5c1.7-1-0.4-2.7-0.2-4.1c0.1-0.4,0.4-0.9,0.6-1.3c2,6.2,7.5,9.7,11.4,14.4
		c5.8,7,9,15.1,9.7,24c0.9,11.7,1.5,23.5,2.2,35.2c0.1,1.8,0,3.7,1,5.3c-31.8,0-63.6-0.1-95.5-0.1c-13.1,0-26.3,0-39.4,0
		c-2.2,0-4.3,0.1-6.3-1.1c0.1-1.1,0.1-2.3,0.5-3.4c6.7-22.1,12.1-44.5,17.7-66.9C898.5,336.1,896.8,330.2,893.4,324.8z M890,385.8
		c-0.3-0.5-0.4-1.2-0.7-1.3c-0.8-0.2-1.2,0.4-1.1,1c0,0.4,0.4,0.9,0.7,0.9C889.2,386.5,889.6,386.1,890,385.8z M887.6,393.7
		c-0.3-0.1-0.6-0.2-0.8-0.4c-0.1,0.3-0.4,0.6-0.3,0.8c0.1,0.2,0.5,0.3,0.8,0.4C887.4,394.3,887.5,394,887.6,393.7z"/>
	<path class="st10" d="M995.7,335.1c-0.2,0.4-0.5,0.8-0.6,1.3c-0.2,1.4,1.9,3,0.2,4.1c-1.3,0.8-2.6-1-3.9-1.5
		c-5.7-2.4-11.6-4.2-17.6-4.8c-6.4-0.7-12.9-0.8-19.4-1.1c-2.5-0.1-5-0.2-6.9,2c-1.2,1.4-2.7,0.7-4.2,0.2
		c-11.5-3.6-23-7.3-34.5-10.8c-8.3-2.6-8.3-2.5-8.7,6.1c0,0.6-0.2,1.2-0.7,3.4c-1.8-4.9-3.1-8.4-4.4-12
		c11.2-8.4,16.3-20.4,19.7-33.3c6.6-25.3,10.7-51.1,14.7-77c0.3-1.8-0.5-4.3,2.6-4.5c2.7,3.9,5.5,7.8,8.2,11.6
		c-0.2,1.3,0.3,2.1,1.7,2.2c0.3,0.1,0.4,0.4,0.4,0.7c-0.3,1.4,0.2,2.2,1.7,2.3c0.3,0.1,0.4,0.3,0.4,0.6c-0.4,2,0.5,3,2.4,3.5
		c0.3,0.2,0.5,0.4,0.5,0.8c1,4.2,3.2,7.6,6.6,10.2c0.3,0.1,0.5,0.3,0.5,0.7c-0.1,2,0.3,3.7,2.6,4.3c0.5,0.9,1,1.7,1.4,2.6
		c-0.1,2,0.3,3.8,2.6,4.4c0.5,0.9,0.9,1.8,1.4,2.7c-0.1,1.9,0.3,3.7,2.5,4.4c0.2,0.5,0.5,0.9,0.7,1.4c-0.5,1.3-0.2,2.3,1.3,2.6
		c0.2,0.5,0.5,0.9,0.7,1.4c-0.5,1.3-0.3,2.3,1.3,2.6c0.3,0.5,0.5,0.9,0.8,1.4c0.1,4.3,2.2,7.6,4.9,10.7c0.3,0.5,0.6,1.1,0.9,1.6
		c-0.4,1.4,0,2.6,0.6,3.8c5.8,13,10.6,26.3,15.3,39.7c1.2,3.3,1.1,7.3,4.1,9.8C995.3,333.8,995.5,334.5,995.7,335.1z"/>
	<path class="st8" d="M628.3,420.1c1.4,2,0.9,4.3,0.6,6.3c-2.8,16-3.7,32.2-4.7,48.4c-1.2,20-2.4,40.1-0.4,60.2
		c0.6,6.3,0.8,12.6,1.1,18.9c0.5,9.8,2.1,19.4,3.4,29c1.3,9.5,3.8,18.7,5.6,28.1c-0.6,0-1.2,0.1-1.7,0.1c-3.7-15.5-6.7-31.1-8.3-47
		c-3.2-33-3.4-66-0.8-99.1c1.1-14.3,2.2-28.5,4.4-42.6C627.6,421.6,628,420.8,628.3,420.1z"/>
	<path class="st8" d="M694.9,229.8c-0.8,5.4-4.6,9.2-7.2,13.5c-14.9,24.7-25.9,51.1-35.3,78.2c-6.4,18.3-10.9,37.1-15.2,55.9
		c-0.5,2.1-0.5,4.3-2.4,5.8c0-7.9,2.6-15.3,4.5-22.8c6.8-27.1,15.4-53.6,26.9-79.1c7.6-16.8,16.1-33.2,26.1-48.6
		C692.9,231.6,693.4,230.2,694.9,229.8z"/>
	<path class="st13" d="M995.2,333.1c-3.1-2.6-3-6.5-4.1-9.8c-4.7-13.4-9.5-26.8-15.3-39.7c-0.6-1.2-1-2.5-0.6-3.8
		c5.2,7.9,7.7,17,11.2,25.7c3.3,8.3,5.9,16.9,8.8,25.3C995.4,331.5,995.2,332.3,995.2,333.1z"/>
	<path class="st8" d="M704.9,215.8c-2.1,5.2-4.7,10-9.5,13.3C697.6,224,700.7,219.5,704.9,215.8z"/>
	<path class="st8" d="M630.4,407.1c1.1,4,1.3,7.8-1.8,11C627.9,414.2,628.8,410.6,630.4,407.1z"/>
	<path class="st13" d="M953.7,239.1c-3.4-2.6-5.6-6-6.6-10.2C950.3,231.6,952.5,235,953.7,239.1z"/>
	<path class="st8" d="M632.3,396.1c1.4,3.4,0.6,6.4-1.8,9C629.9,401.9,630.4,398.8,632.3,396.1z"/>
	<path class="st8" d="M634.4,385.1c1.2,3.4,0.5,6.4-1.8,9C632,390.9,632.3,387.8,634.4,385.1z"/>
	<path class="st13" d="M974.3,278.1c-2.7-3.1-4.8-6.4-4.9-10.7C971.8,270.7,973.8,274,974.3,278.1z"/>
	<path class="st8" d="M719.9,197.8c-0.8,3.7-3.4,5.7-6.5,7.3C714.6,201.8,717,199.6,719.9,197.8z"/>
	<path class="st8" d="M711.9,206.8c-0.8,3.3-2.3,6-5.6,7.3C707.3,211,709.1,208.5,711.9,206.8z"/>
	<path class="st13" d="M1056.5,419.1c-2.2-0.8-3.8-2.4-4.6-4.6C1054.9,414.6,1056.3,416.2,1056.5,419.1z"/>
	<path class="st8" d="M734.1,186.8c-1.1,0-2.2,0-3.4,0c0.2-1.4,1.2-2.1,2.3-2.7C733.9,184.8,734.2,185.7,734.1,186.8z"/>
	<path class="st13" d="M964.6,258.1c-2.1-0.7-2.5-2.4-2.5-4.4C964,254.6,964.5,256.3,964.6,258.1z"/>
	<path class="st13" d="M960.8,251c-2.3-0.6-2.7-2.3-2.6-4.4C959.9,247.7,960.6,249.2,960.8,251z"/>
	<path class="st13" d="M956.8,244.1c-2.3-0.6-2.7-2.3-2.6-4.3C955.8,240.7,956.7,242.1,956.8,244.1z"/>
	<path class="st13" d="M946.6,228.1c-1.8-0.4-2.8-1.5-2.4-3.5C945.6,225.4,946.8,226.3,946.6,228.1z"/>
	<path class="st13" d="M968.7,266.1c-1.6-0.3-1.8-1.3-1.3-2.6C968.3,264.1,968.9,264.9,968.7,266.1z"/>
	<path class="st13" d="M966.7,262.1c-1.6-0.3-1.8-1.2-1.3-2.6C966.3,260.1,966.9,260.9,966.7,262.1z"/>
	<path class="st13" d="M943.9,224c-1.4-0.1-2-0.9-1.7-2.3C943.3,222.1,943.9,222.8,943.9,224z"/>
	<path class="st13" d="M941.8,221.1c-1.4-0.1-1.9-0.9-1.7-2.2C941.2,219.1,941.9,219.8,941.8,221.1z"/>
	<path class="st5" d="M530.8,610.8c-2,0.2-3.9,0.5-5.9,0.5c-19.6,0-39.2,0-58.8,0c-2,0-3.9-0.3-5.9-0.5c0-2-0.1-4,0.1-6
		c0.6-7.2,0.5-12.5-9-14.9c-10-2.5-13.7-12.3-11.9-25.1c0.6-4.2,1.5-8.5,3.4-12.5c2.7-5.8,7.1-8.3,13.3-6.4c3.7,1.1,4.2-0.1,4.2-3.3
		c0.2-11.8,0.3-11.8,12.1-11.8c17.8,0,35.6,0.1,53.4-0.1c4,0,5.1,1.2,5,5.1C530.7,560.9,530.8,585.8,530.8,610.8z M460.7,570.5
		C460.7,570.5,460.7,570.5,460.7,570.5c0-3,0-6,0-9c0-2.5,0.3-5.1-2.9-6c-3-0.9-5.6-0.3-7.7,2c-7.1,7.9-3.9,22.9,5.6,27.3
		c3.2,1.5,4.9,0.5,5-2.9C460.8,578.2,460.7,574.3,460.7,570.5z"/>
	<path class="st8" d="M195,338.7c-0.5-19.1,16.1-33.3,30.9-32.9c18.2,0.5,30.3,14.9,30.9,32.5c0.6,17.9-14.5,33.8-31.3,33.5
		C208.5,371.6,194.2,355.3,195,338.7z"/>
	<path class="st8" d="M534,611.3c-0.6,0.8-1.3,0.8-1.9,0C532.7,610.1,533.3,610.1,534,611.3z"/>
	<path class="st10" d="M956,730.9c-0.6-1-1.7-1-2.7-0.9c-2.8,0.2-3.4-1.1-3.2-3.6c1-12.1-0.7-24-4.1-35.5c-1.2-4.1-1.4-6.3,3.9-5.9
		c4.3,0.4,3.3-3.1,3-5.2c-1.3-8.5-2-17.1-1.9-25.7c15,0.1,29.9,0.1,44.9,0.2c-5.6,13.8-14.4,25.2-25.5,34.9
		c-1.6-0.2-2.4,0.6-2.2,2.2c0.2,1.4,1.3,1.6,2.5,1.2c0.8,0.3,1.6,0.5,2.3,0.8c0.3,1.4,0.8,2,2.1,0.7c0.6,0.1,1.3,0.3,1.9,0.4
		c0.9,1.6,1.9,3,4.1,1.6c3,0.2,5.4,1.9,8,3c0.2,1.7,1.2,2,2.6,1.5c6.1,3.1,12.4,5.9,11.9,14.4c-1.3,0.4-1.6,1.3-1.3,2.5
		c-2,3.7-5.3,5.5-9.3,6.5c-2.1-1.3-3.1,0-4.1,1.6c-1,0.2-1.9,0.4-2.9,0.6c-2.2-1.4-3.8-0.5-5.1,1.5c-1.3,0.2-2.6,0.4-3.9,0.5
		c-3-1.3-5.7-0.8-8.1,1.5c-1.6,0.2-3.3,0.3-4.9,0.5c-1.8-1.4-3.6-1.9-5.1,0.5C957.9,730.6,956.9,730.8,956,730.9z"/>
	<path class="st10" d="M682,727.9c-2.9,0.5-5.8-1.8-8.7-0.3c-0.7-0.1-1.5-0.1-2.2-0.2c-1.7-1.9-3.7-2.4-6-1.5
		c-1-0.2-1.9-0.3-2.9-0.5c-1-1.5-2.1-2.9-4.1-1.5c-0.6-0.2-1.3-0.3-1.9-0.5c-0.4-1.3-1.2-1.6-2.4-1.3c-0.5-0.2-1.1-0.5-1.6-0.7
		c-0.3-1.2-1.1-1.7-2.3-1.4c-1.5-0.5-2.5-1.4-3-2.9c0.3-1.2-0.1-2-1.4-2.3c-1.3-5.4,2.6-8.1,5.9-11c2.1-1.8,4.5-3.4,7.3-4.1
		c3.8-0.5,7.4-1.7,10.4-4.2c1.1-1,2.4-1.5,3.9-1.4c2.2,1,3.8,0.2,5.1-1.6c0.7-0.2,1.3-0.4,2-0.6c0.8,0,1.6-0.1,1.6-1.1
		c0-0.7-0.6-1-1.3-1c-6.8-4.9-12.6-10.9-17.7-17.5c0.4-2.1-0.6-3.2-2.7-3.4c-0.4-0.6-0.8-1.1-1.3-1.7c0.3-1.4-0.1-2.2-1.6-2.4
		c-0.3-0.1-0.4-0.3-0.4-0.6c0.3-1.4-0.1-2.3-1.6-2.4c-0.3-0.1-0.4-0.3-0.4-0.6c0.3-1.4-0.1-2.2-1.5-2.4c-0.3-0.1-0.4-0.3-0.4-0.6
		c-0.3-1.4-0.6-2.9-0.9-4.3c10.7,0,21.4,0,32.1,0c-0.3,7.4-1.5,14.9-1,22.3c0.2,3.6-0.8,7.3,1.7,10.6c0.6,0.8,0.5,2.3,0.2,3.4
		C681.5,702.7,682,715.3,682,727.9z"/>
	<path class="st8" d="M534,653.8c-1.4,1.7-3.4,1-5.1,1c-92.9,0-185.8,0-278.6,0c-1.7,0-3.7,0.7-5.1-1c1.6-1.4,3.5-0.8,5.3-0.8
		c92.8,0,185.6,0,278.4,0C530.4,653.1,532.4,652.5,534,653.8z"/>
	<path class="st6" d="M686,611c0-1.7,0-3.3,0-5c2.7-3,6.3-3.1,10-3.1c12.1,0.2,24.2,0.1,36.2,0.1c2,0,4-0.1,5.8,1c0,2.3,0,4.7,0,7
		C720.7,611,703.3,611,686,611z"/>
	<path class="st6" d="M805,654c-0.7,6.5-1.3,13.1-2,19.6c-0.1,1.1,0.3,2.4-1.1,3c-1.1,0.4-2.1-0.2-2.6-1c-5-7.9-11.2-14.6-18.1-20.7
		c-0.2-0.2-0.1-0.6-0.2-1C789,654,797,654,805,654z"/>
	<path class="st6" d="M704,654c-1,4.1-4.8,6.1-7.1,9.3c-3.7,5.1-6,10.9-8.8,16.4c-0.6,1.1-0.3,3-2.2,2.6c-1.4-0.3-0.8-2-0.9-3
		c-0.5-8.5,0.7-16.8,1-25.3C692,654,698,654,704,654z"/>
	<path class="st8" d="M651.9,654c0.3,1.4,0.6,2.9,0.9,4.3c-1.9-1-2.4-3.1-3.7-4.5C650.2,652.4,651,653.8,651.9,654z"/>
	<path class="st6" d="M968.9,729.6c2.4-2.3,5-2.9,8.1-1.5C974.5,729.5,971.8,730.2,968.9,729.6z"/>
	<path class="st6" d="M958.9,730.5c1.5-2.3,3.2-1.9,5.1-0.5C962.4,731.1,960.7,731.2,958.9,730.5z"/>
	<path class="st6" d="M980.9,727.5c1.3-2,2.9-2.9,5.1-1.5C984.6,727.5,982.9,728,980.9,727.5z"/>
	<path class="st6" d="M981,696c-2.1,1.4-3.1,0-4.1-1.6C978.7,694,979.9,694.7,981,696z"/>
	<path class="st6" d="M970.6,692.6c-1.2,0.4-2.3,0.2-2.5-1.2c-0.2-1.6,0.6-2.4,2.2-2.2C969.8,690.4,969.9,691.5,970.6,692.6z"/>
	<path class="st6" d="M988.9,725.5c1-1.5,2-2.9,4.1-1.6C991.9,725.2,990.7,726,988.9,725.5z"/>
	<path class="st6" d="M975,694c-1.2,1.4-1.8,0.7-2.1-0.7C973.8,692.9,974.5,693.2,975,694z"/>
	<path class="st6" d="M991.6,700.5c-1.5,0.6-2.4,0.2-2.6-1.5C990.3,698.8,991,699.6,991.6,700.5z"/>
	<path class="st6" d="M1002.2,717.4c-0.3-1.2,0-2.1,1.3-2.5C1004.2,716.3,1003.4,717,1002.2,717.4z"/>
	<path class="st8" d="M114,338.1c1.1,15.9-10.7,30.7-25.8,33.4c-9.5,1.7-23.5-4.3-28.7-12.3c-8.3-12.8-9.4-25.8-1.3-38.8
		c6.7-10.7,16.9-16.1,29.7-14.3c11.8,1.7,19.6,9.2,24.1,20.1C113.6,330.3,114.8,334.4,114,338.1z"/>
	<path class="st7" d="M833.9,686.1c-1.1-0.1-2.3,0.1-2.9-1.1C832.7,683.4,833.7,683.9,833.9,686.1z"/>
	<path class="st8" d="M669.1,695.6c-3,2.5-6.6,3.7-10.4,4.2C661.8,697.3,665.1,695.7,669.1,695.6z"/>
	<path class="st8" d="M665,725.9c2.4-0.9,4.4-0.4,6,1.5C668.7,728.3,666.8,727.2,665,725.9z"/>
	<path class="st8" d="M678.1,692.6c-1.3,1.8-2.9,2.6-5.1,1.6C674.5,693,676.1,692.1,678.1,692.6z"/>
	<path class="st8" d="M658,723.9c2-1.4,3.1,0,4.1,1.5C660.4,726,659.1,725.2,658,723.9z"/>
	<path class="st8" d="M660,669c2,0.3,3.1,1.3,2.7,3.4C661.3,671.7,660.1,670.8,660,669z"/>
	<path class="st8" d="M653.2,658.9c1.5,0.2,1.9,1.1,1.5,2.4C653.6,661,653,660.2,653.2,658.9z"/>
	<path class="st8" d="M657.2,664.9c1.5,0.2,1.9,1,1.6,2.4C657.6,667,657.1,666.2,657.2,664.9z"/>
	<path class="st8" d="M680.4,689.9c0.7,0,1.3,0.3,1.3,1c0,1-0.8,1.2-1.6,1.1C680.2,691.3,680.3,690.6,680.4,689.9z"/>
	<path class="st8" d="M645.5,714.9c1.2,0.3,1.6,1.1,1.4,2.3C645.6,716.9,645,716.2,645.5,714.9z"/>
	<path class="st8" d="M649.8,720.1c1.2-0.2,2,0.2,2.3,1.4C650.8,721.9,650.1,721.4,649.8,720.1z"/>
	<path class="st8" d="M653.7,722.2c1.2-0.4,2.1,0,2.4,1.3C654.9,723.9,654.1,723.4,653.7,722.2z"/>
	<path class="st8" d="M655.2,661.9c1.5,0.2,1.9,1.1,1.6,2.4C655.6,664,655.1,663.2,655.2,661.9z"/>
	<path class="st6" d="M668,598.1c-3.5-0.4-6.3-1.6-8.2-5c-1.3-2.3-3.7-4-5.7-6c1.4-1.2,0.7-2.2,0-3.5c-3.5-6.7-7.2-13.3-8.1-20.9
		c-0.1-1.3-0.9-2.1-2-2.6c0-0.7,0-1.3,0-2c0.1-2.6-1-4.8-2-7.1c0-1,0-2,0-2.9c0.5-3.3-1.5-6-2-9.1c0-1,0-2,0-2.9
		c-0.4-1.8,1.3-4.4-1.9-5c0,0,0,0,0,0c0-0.7,0-1.4,0.1-2c1.4-1.8,1.8-3.3-1-4c0-1.3,0-2.6-0.1-4c0-2,0-4,0-6c1-3.5,2.8-7-1-10
		c0-3.3,0-6.7,0-10c2-3,1-6.4,0.9-9.6c-0.2-6.1,1.3-12.4-0.9-18.4c0-4,0-8,0-12c3.8-3.7,2-7.9,1-12c0-3,0-6,0-9c0-2,0-4,0.1-6
		c3.4-1.9,2.3-4.4,1-7c0-2,0-4,0-6c3.9-1.9,1.2-5.4,1.9-8c0-2-0.1-4-0.1-6c0-1.6,0-3.3,0-4.9c1.8-2.3,1.7-4.7,0.1-7
		c-0.2-1.7,0.6-3.6-0.9-5c0-0.8,0.1-1.5,0.9-2c1.8-0.2,2.1-1.4,2-2.9c-0.4-4.9,0.8-9.5,2-14.2c1.9-7.7,5.7-14.2,12.1-18.9
		c14-10.2,30.2-11.7,46.8-11c2.5,0.1,3.9,1.6,4.1,4.1c0.7,9.7,1.9,19.5,1.9,29.2c0,15.1,0.8,30.2-0.7,45.3c-1,10-0.6,20.2-0.8,30.3
		c-0.4,23.2-2.1,46.4-2.3,69.7c0,2.8-0.3,5.5-1.4,8.2c-2.2,5.4,1.2,9.9,6.9,10c5.8,0,11.7,0.1,17.5,0c2.6-0.1,3.7,0.6,4,3.5
		c0.7,7.1,1.8,14.3,3.1,21.3c0.8,3.9,0.7,7.8,0.9,11.8c0.3,5.8,1.2,11.6,1.9,17.4c1.5,4.6,0.8,9.3,0.9,14c-16.3,0-32.5,0-48.8,0.1
		c-1.7,0-3.7-0.7-5.2,1c-2.7,0-5.3,0-8,0c-0.3,0-0.7,0-1,0C674.1,597.9,671.3,597.3,668,598.1z"/>
	<path class="st6" d="M741,416c-2.8,1.1-3,3.3-3,6c0.1,35.3,0.1,70.7,0.1,106c-1.8,1.1-3.9,1.4-5.8,0.9c-5.8-1.5-11.6-0.8-17.4-0.9
		c-6.8-0.1-7.9-0.7-6.8-7.4c2-11.4,0.4-22.8,1.6-34.3c2-18.2,1.8-36.7,1.9-55c0.2-31.5,2.3-63.2-1.6-94.6c-0.3-2.2,0.6-3.7,3-3.7
		c3.6,0,6.6-1.8,9.8-2.8c6.1-2,7.3-2,9,4c5.5,19.5,12.6,38.6,19.1,57.7c3,8.8,4,9.1-6,11.2c-0.6,0.1-1.2,0.5-1.8,0.8
		c-6.4,2.8-6.5,2.8-3,8.8C740.8,413.8,741,414.8,741,416z"/>
	<path class="st6" d="M733,318.9c1,0,1.9,0,2.9,0c3.1-0.5,6.2-0.9,9.3-1.5c8.8-1.5,17.4-3.8,26.3-4.4c2.7-0.2,4.8,0.6,4.5,3.8
		c-0.6,5.6,0.1,10.9,1.9,16.3c0.7,2.1,2.6,3.8,2.2,6.4c-1.2,7.6,3.3,14.7,2,22.4c-0.1,0.5,0.1,1,0.3,1.4c2.8,6.4,1.9,13.5,3.5,20.2
		c2.2,8.7,2,17.9,5.1,26.5c0,1,0,2,0,3c-11.5,0-23,0-34.5,0c-2.8,0-5.7,0-8.5,0c-2.4,0-4.4-0.8-4.9-3.3c-0.6-2.8,1.7-3.1,3.6-3.8
		c2.7-0.9,5.3-1.9,8-2.8c3.2-1.1,3.9-3.2,2.6-6.3c-1.7-4.1-3.3-8.3-4.8-12.5c-6.6-19.6-13.6-39-18.8-59
		C733.3,323.1,731.1,321.3,733,318.9z"/>
	<path class="st5" d="M780.5,312.5c2.5-4.4,2.1-9.6,4.1-14.2c2.4-5.7,4.5-6.6,9.7-3.2c2.6,1.7,5.1,3.6,7.6,5.5
		c8.8,8.2,17.7,16.5,27.8,23.2c1.2,0.8,1.7,2,2.3,3.1c-0.1,0.5-0.2,1.1-0.3,1.6l-0.1,0.1c-1.2,0.4-1.6,1.2-1.1,2.4
		c-3.9,9.2-9.3,17.7-12,27.3c-1.5,1.4-1.9,2.8,0.1,4.1c0.1,0.3,0.2,0.4,0.5,0.5c1.2,4.9-2.5,9.3-1.6,14.1c-0.1,0.6-0.3,1.3-0.4,1.9
		c-0.8,0.6-1,1.2-0.5,2.1c-0.2,0.6-0.4,1.3-0.5,1.9c-1,0.5-1.1,1.2-0.5,2.1c-0.2,0.6-0.3,1.3-0.5,1.9c-0.8,0.5-1,1.2-0.5,2.1
		c-0.2,0.6-0.4,1.3-0.6,1.9c-1,0.5-1.1,1.2-0.6,2.1c-0.1,0.6-0.3,1.3-0.4,1.9c-1.8,2.8-2.6,5.8-2.5,9.1c-0.2,0.6-0.4,1.3-0.6,1.9
		c-1.5,1.4-1.8,3.2-1.4,5.1c-0.3,0.9-0.6,1.8-0.9,2.7c-4.2,0-8.3,0-12.5,0.1c-0.1-1.3-0.3-2.6-0.4-3.9c1.5-1,1.1-1.6-0.4-2
		c-1-3.3-1.5-6.6-1.5-10c1.5-1.3,1.4-2.3-0.5-3c-1-3.3-1.6-6.6-1.4-10c1.5-1.3,1.4-2.3-0.5-3c-1-3.6-1.6-7.2-1.6-11
		c1.5-1,1.1-1.6-0.4-2c-0.9-3.6-1.7-7.2-1.6-11c1.6-1.3,1.5-2.3-0.5-3c-0.2-1-0.3-2-0.5-3c1.5-0.9,1-1.6-0.3-2
		c-0.8-1.6-0.9-3.3-0.6-5c1.5-1.3,1.5-2.3-0.5-3c-0.6-0.9-0.7-1.9-0.5-3c1.4-0.9,1-1.6-0.3-2c-1.1-2.1,0.2-4.8-1.6-6.6
		c-3.3-3.6-3.4-7.6-2.1-12C780.5,316.6,780.4,314.5,780.5,312.5z"/>
	<path class="st5" d="M893.4,324.8c3.5,5.5,5.2,11.4,3.6,17.8c-5.6,22.4-11,44.8-17.7,66.9c-0.3,1.1-0.3,2.3-0.5,3.4
		c-3,2-6.4,1.1-9.6,1.1c-6.1,0.1-12.2-0.1-18.2-0.1c0.1-8.3,0.4-16.6,1.3-24.9c2.8-1.9,2.3-3.9,0.4-6.1c0-3.3,0-6.6,0-9.8
		c1.2-0.4,1.4-1.2,1.2-2.3c2.4-4,0.9-7.8-0.6-11.5c-0.2-6.4-0.3-12.7-0.5-19.1c1.6-1.1,1.2-1.8-0.5-2.1c-0.3-2-0.5-4.1-0.8-6.1
		c1.3-4.5,5.6-3.3,8.3-3.6C871,327,882.1,324.9,893.4,324.8z"/>
	<path class="st14" d="M851.5,331.8c0.3,2,0.5,4.1,0.8,6.1c-0.2,0.7-0.4,1.4-0.7,2.1c-1.4,4.3-0.3,8.7-0.4,13.1
		c-0.1,2.2-0.4,4.7,2.1,6.1c1.5,3.8,3,7.6,0.6,11.5c-0.8-0.4-1.7-0.3-2.1,0.4c-0.4,0.8,0,1.5,0.9,1.9c0,3.3,0,6.6,0,9.8
		c-1.1,2-1.1,4-0.4,6.1c-1,8.3-1.3,16.6-1.3,24.9c-14.4,0-28.8,0-43.2-0.1c0.3-0.9,0.6-1.8,0.9-2.7c1.6-1.4,2.6-2.9,1.4-5.1
		c0.2-0.6,0.4-1.3,0.6-1.9c2.2-2.6,3-5.7,2.5-9.1c0.1-0.6,0.3-1.3,0.4-1.9c1.3-0.4,1.8-1,0.6-2.1c0.2-0.6,0.4-1.3,0.6-1.9
		c1.1-0.5,1.7-1.1,0.5-2.1c0.2-0.6,0.3-1.3,0.5-1.9c1.2-0.4,1.8-1,0.5-2.1c0.2-0.6,0.4-1.3,0.5-1.9c1.1-0.5,1.7-1.1,0.5-2.1
		c0.1-0.6,0.3-1.3,0.4-1.9c1.7-0.5,1.4-2.1,1.7-3.3c1.7-6.6,1.6-6.6,8.5-5.5c0.3,0.1,0.6,0.3,0.9,0.3c0.8,0.2,1.7,0.2,2-0.8
		c0.3-1-0.3-1.6-1.2-1.8c-3.6-0.8-6.5-3.4-10.4-3.1c-0.3,0-0.5-0.2-0.5-0.5c0.4-1.4,0.5-2.7-0.1-4.1c2.7-9.7,8.1-18.2,12-27.3
		c1.4-0.3,1.7-1.2,1.1-2.4c0,0,0.1-0.1,0.1-0.1c6.5,0.2,12.7,2.6,19.2,3.4C851,332.1,851.3,332,851.5,331.8z"/>
	<path class="st7" d="M733,318.9c-1.9,2.4,0.3,4.2,0.8,6.4c5.2,20,12.3,39.5,18.8,59c1.4,4.2,3.1,8.4,4.8,12.5
		c1.2,3.1,0.6,5.1-2.6,6.3c-2.7,0.9-5.3,1.9-8,2.8c-1.9,0.7-4.2,1-3.6,3.8c0.5,2.5,2.4,3.4,4.9,3.3c2.8-0.1,5.7,0,8.5,0
		c11.5,0,23,0,34.5,0c-1.2,2.6-3.6,2-5.7,2c-13.5-0.5-26.9,1.1-40.4-0.8c-1.8-0.2-2.6,1.3-4,1.8c0-1.2-0.2-2.2-0.8-3.3
		c-3.5-5.9-3.4-5.9,3-8.8c0.6-0.3,1.2-0.6,1.8-0.8c9.9-2.2,9-2.5,6-11.2c-6.5-19.2-13.6-38.2-19.1-57.7c-1.7-6-2.8-6-9-4
		c-3.2,1.1-6.3,2.9-9.8,2.8c-2.3,0-3.2,1.4-3,3.7c3.9,31.5,1.8,63.1,1.6,94.6c-0.1,18.3,0,36.8-1.9,55c-1.2,11.4,0.4,22.9-1.6,34.3
		c-1.2,6.7-0.1,7.3,6.8,7.4c5.8,0.1,11.6-0.6,17.4,0.9c1.9,0.5,4,0.2,5.8-0.9c1.5,1.3,1,3.1,0.9,4.7c-0.3,8.3,0.6,16.5-0.8,24.8
		c-1.3,7.7,1.4,15.5,0.8,23.3c-0.1,1.8,0.6,3.7-1,5.2c-0.7-5.8-1.7-11.6-1.9-17.4c-0.2-3.9-0.1-7.8-0.9-11.8
		c-1.3-7-2.4-14.2-3.1-21.3c-0.3-3-1.4-3.6-4-3.5c-5.8,0.1-11.7,0.1-17.5,0c-5.8,0-9.1-4.5-6.9-10c1.1-2.8,1.3-5.4,1.4-8.2
		c0.2-23.2,1.9-46.4,2.3-69.7c0.2-10.1-0.2-20.3,0.8-30.3c1.6-15.1,0.8-30.2,0.7-45.3c0-9.7-1.2-19.5-1.9-29.2
		c-0.2-2.5-1.6-4-4.1-4.1c-16.6-0.7-32.8,0.8-46.8,11c-6.4,4.6-10.2,11.2-12.1,18.9c-1.1,4.7-2.4,9.3-2,14.2c0.1,1.4-0.2,2.7-2,2.9
		c-0.3-11,1.5-21.4,8.1-30.6c7.8-10.9,19.3-14.8,31.7-17.5c9-1.9,18.2,0.2,27.2-1.8c6.5-1.5,12.8-3.3,19.1-5.3
		c2.5-0.8,4.4-1.8,3.3-5.4C728.5,318.7,730,317.2,733,318.9z"/>
	<path class="st7" d="M785.9,352c0.2,1,0.3,2,0.5,3c-0.5,1.1-0.6,2.2,0.5,3c-0.1,3.8,0.6,7.4,1.6,11c-0.5,0.8-0.5,1.5,0.4,2
		c0,3.7,0.6,7.4,1.6,11c-0.5,1.1-0.6,2.2,0.5,3c-0.1,3.4,0.4,6.8,1.4,10c-0.5,1.1-0.6,2.2,0.5,3c0,3.4,0.5,6.7,1.5,10
		c-0.5,0.8-0.4,1.5,0.4,2c0.1,1.3,0.3,2.6,0.4,3.9c-3.2,0.6-1.4-4.1-4.3-3.9c-3.2-8.6-3-17.8-5.1-26.5c-1.7-6.7-0.7-13.8-3.5-20.2
		c-0.2-0.4-0.4-1-0.3-1.4c1.2-7.6-3.2-14.8-2-22.4c0.4-2.6-1.5-4.3-2.2-6.4c-1.8-5.4-2.5-10.7-1.9-16.3c0.4-3.2-1.8-3.9-4.5-3.8
		c-8.9,0.6-17.5,3-26.3,4.4c-3.1,0.5-6.2,1-9.3,1.5c0.2-1.1,0.8-1.7,2-1.9c11.8-2.1,23.4-5,35.3-6.1c2.6-0.3,5.1,0.3,7.3,1.6
		c-0.2,2,0,4-0.6,5.9c-1.3,4.4-1.2,8.4,2.1,12c1.7,1.9,0.4,4.5,1.6,6.6c-0.5,0.8-0.5,1.5,0.3,2c-0.2,1.1-0.1,2.1,0.5,3
		c-0.6,1.1-0.6,2.1,0.5,3c-0.2,1.7-0.2,3.4,0.6,5C785,350.7,785.1,351.4,785.9,352z"/>
	<path class="st7" d="M685,601c1.5-1.6,3.4-1,5.2-1c16.3-0.1,32.5-0.1,48.8-0.1c-0.1,1.4,0.5,2.9-0.9,4c-1.8-1.1-3.8-1-5.8-1
		c-12.1,0-24.2,0.1-36.2-0.1c-3.8-0.1-7.3,0-10,3.1c-1.2-0.7-1-1.9-1-3C685,602.3,685,601.7,685,601z"/>
	<path class="st5" d="M874.8,273.1c-8.8,0.2-14.3-5.3-20.5-9.4c-2.6-1.7-4.8-4-7.2-6.1c-1-1-2.7-2-1.7-3.7c0.8-1.4,2.4-1,3.6-0.8
		c9.4,1.6,18.9,3.3,28.4,4.4c5.8,0.7,11.6,0.2,17.4,0.5c1.1,0.1,2.4-0.2,2.9,1.3c0.4,1.2,0.1,2.4-0.9,3.2
		C890.3,268.1,883.5,273.3,874.8,273.1z"/>
	<path class="st9" d="M858.4,150.2c5.9,0.1,16.1,7.9,17.8,13.2c0.2,0.6,0.2,1.5-0.1,1.8c-1,1-2.2,0.3-3.3,0
		c-8.3-2.7-16.8-4.1-25.4-4.4c-2.5-0.1-5-0.1-7.4,0.7c-0.9,0.3-2.1,0.5-2.5-0.8c-0.3-0.9,0.3-1.6,1-2.1
		C844.8,154.6,851.5,151.3,858.4,150.2z"/>
	<path class="st9" d="M888.5,167.9c0.4,0-0.9,0.3-1.1-1c-0.1-0.7,0.4-1.6,0.8-2.2c8.2-11.5,20.8-13.5,31.9-4.9c1,0.8,2.5,1.6,2.2,3
		c-0.4,1.7-2.2,1-3.4,1.2C909.1,165.3,899.5,166.5,888.5,167.9z"/>
	<path class="st3" d="M904.9,195.6c1,5.9-1.7,10.2-5.9,14c-1.9,1.7-3.3,1.5-5.1-0.1c-7.8-6.7-8-21.6-0.2-28.4
		c2.5-2.2,5.1-1.2,6.9,1.2C903.6,186.1,905.8,190.3,904.9,195.6z M901.5,195.9c-0.1-3-0.4-6-2-8.6c-0.7-1.1-1.6-2.6-3-2.1
		c-1.9,0.6-0.6,2.1-0.4,3.3c0.4,3.5,2,7.7-4.2,7.7c-1.4,0-1.4,1.1-1.2,2.2c0.4,2.1,0.8,4.2,2.1,6c2.3,3.3,4.5,3.1,6.6-0.5
		C900.8,201.4,901.4,198.7,901.5,195.9z"/>
	<path class="st3" d="M868.9,195c0.9,5.9-1.4,10.4-5.5,14.3c-2.3,2.1-4,2-5.8-0.2c-3.9-4.7-7.9-9.1-4.2-16.1
		c1.7-3.2,0.6-7.5,3.6-10.5c2.8-2.9,5.1-3.1,7.9-0.1C868.3,186,869.6,190.2,868.9,195z M865.9,192c-0.6-1.5-1.1-3.1-1.9-4.6
		c-0.7-1.3-1.7-2.9-3.4-2.1c-1.9,0.8-0.2,2.3,0.1,3.4c0.6,2.7,0.9,6.5-1.8,7.1c-7.7,1.6-2.9,5.7-1.7,8.2c1.8,4,4.7,3.6,6.9-0.3
		c1.7-3,1.5-6.4,2-9.7C867.2,193.2,867.1,192.6,865.9,192z"/>
	<path class="st9" d="M850.8,332c-6.4-0.8-12.6-3.1-19.2-3.4c0.1-0.5,0.2-1.1,0.3-1.6C838.4,328.1,845.1,327.9,850.8,332z"/>
	<path class="st7" d="M643.9,560c1.1,0.5,1.9,1.3,2,2.6c0.9,7.7,4.6,14.3,8.1,20.9c0.7,1.3,1.4,2.3,0,3.5c-4.7-5.9-7.9-12.5-9.1-20
		c0-1.3-0.6-2-1.9-2.1c0-1.7-0.1-3.3-0.1-5C643.3,560,643.6,560,643.9,560z"/>
	<path class="st7" d="M636,467c2.1,6,0.7,12.3,0.9,18.4c0.1,3.2,1.1,6.5-0.9,9.6c-0.3,0-0.7,0-1,0c0-9.3,0-18.7,0-28
		C635.3,467,635.7,467,636,467z"/>
	<path class="st7" d="M637,443c1,4.1,2.8,8.3-1,12c-0.3,0-0.7,0-1,0c0.9-4,1.2-8,1-12C636.3,443,636.7,443,637,443z"/>
	<path class="st7" d="M639.9,407c-0.7,2.7,2,6.1-1.9,8c-0.3,0-0.7,0-1,0c0-2.7,0-5.3,0-8C638,407,639,407,639.9,407z"/>
	<path class="st11" d="M635,455c0.3,0,0.7,0,1,0c0,4,0,8,0,12c-0.3,0-0.7,0-1,0C633,463,634,459,635,455z"/>
	<path class="st7" d="M639.9,539c0.5,3.1,2.5,5.8,2,9.1c-1,0-1.9,0-2.9-0.1c0-3-0.1-6-0.1-9C639.3,539,639.6,539,639.9,539z"/>
	<path class="st11" d="M635,495c0.3,0,0.7,0,1,0c0,3.3,0,6.7,0,10c0,0.4-0.1,0.7-0.1,1.1C633.2,502.6,633.4,498.9,635,495z"/>
	<path class="st7" d="M635.9,506.1c0-0.4,0.1-0.7,0.1-1.1c3.7,3,2,6.5,1,10c-0.3,0-0.7,0-1,0C636,512,635.9,509,635.9,506.1z"/>
	<path class="st7" d="M640,389c1.5,2.4,1.7,4.7-0.1,7c-2.1-1.9-1.9-4.5-1.8-7C638.7,389,639.4,389,640,389z"/>
	<path class="st11" d="M637,443c-0.3,0-0.7,0-1,0c-1-3.1-2.6-6.4,1-9C637,437,637,440,637,443z"/>
	<path class="st11" d="M639.9,407c-1,0-1.9,0-2.9,0.1c0.6-2.2-1.8-5.7,2.8-6.1C639.9,402.9,639.9,404.9,639.9,407z"/>
	<path class="st7" d="M668,598.1c3.3-0.8,6.1-0.2,8,2.9C673.2,600.3,669.8,601.5,668,598.1z"/>
	<path class="st11" d="M685,601c0,0.7,0,1.3,0,2c-2.6-0.8-6.1,1.9-8-2C679.7,601,682.3,601,685,601z"/>
	<path class="st7" d="M641.9,551c1,2.3,2.1,4.5,2,7.1c-1,0-1.9,0-2.9-0.1c0-2.3-0.1-4.6-0.1-7C641.3,551,641.6,551,641.9,551z"/>
	<path class="st7" d="M638,421c1.3,2.6,2.4,5.1-1,7c0-2.3,0-4.7,0-7C637.3,421,637.7,421,638,421z"/>
	<path class="st11" d="M636,515c0.3,0,0.7,0,1,0c0,2,0,4,0,6C633.6,519.5,634.9,517.2,636,515z"/>
	<path class="st11" d="M638,421c-0.3,0-0.7,0-1,0c-1.9-2-0.9-4,0-6c0.3,0,0.7,0,1,0C638,417,638,419,638,421z"/>
	<path class="st7" d="M638,531c3.3,0.7,1.6,3.2,2,5c-0.7,0-1.3,0-2,0C638,534.3,638,532.7,638,531z"/>
	<path class="st11" d="M640,389c-0.6,0-1.3,0-1.9,0c0.2-1.7-0.8-3.6,1-5C640.6,385.4,639.8,387.3,640,389z"/>
	<path class="st11" d="M641.9,551c-0.3,0-0.7,0-1,0c-2-0.2-1.9-1.6-1.9-3c1,0,1.9,0,2.9,0.1C641.9,549,641.9,550,641.9,551z"/>
	<path class="st11" d="M638,536c0.7,0,1.3,0,2,0c0,1,0,2,0,2.9c-0.3,0-0.7,0-1,0C636.8,538.6,636.4,537.6,638,536z"/>
	<path class="st7" d="M637,525c2.7,0.7,2.4,2.3,1,4c-0.3,0-0.7,0-1,0C637,527.7,637,526.3,637,525z"/>
	<path class="st11" d="M641,558c1,0,1.9,0,2.9,0.1c0,0.7,0,1.3,0,2c-0.3,0-0.7,0-1,0C641.6,559.9,641,559.3,641,558z"/>
	<path class="st11" d="M643,565c1.3,0.1,1.9,0.7,1.9,2.1C643.7,566.9,643,566.3,643,565z"/>
	<path class="st11" d="M637,529c0.3,0,0.7,0,1,0c0,0.7,0,1.4-0.1,2C636.7,530.8,635.5,530.5,637,529z"/>
	<path class="st11" d="M890,385.8c-0.4,0.3-0.8,0.8-1,0.7c-0.3-0.1-0.7-0.6-0.7-0.9c-0.1-0.7,0.3-1.3,1.1-1
		C889.6,384.6,889.7,385.2,890,385.8z"/>
	<path class="st11" d="M887.6,393.7c-0.1,0.3-0.2,0.6-0.4,0.8c-0.3-0.1-0.7-0.2-0.8-0.4c-0.1-0.2,0.2-0.5,0.3-0.8
		C887.1,393.5,887.4,393.6,887.6,393.7z"/>
	<path class="st2" d="M460.7,570.5c0,3.8,0.1,7.6,0,11.5c-0.1,3.3-1.8,4.3-5,2.9c-9.5-4.4-12.6-19.4-5.6-27.3c2.1-2.3,4.6-2.9,7.7-2
		c3.3,1,3,3.5,2.9,6C460.7,564.5,460.7,567.5,460.7,570.5C460.7,570.5,460.7,570.5,460.7,570.5z"/>
	<path class="st9" d="M819.1,363c3.9-0.3,6.8,2.3,10.4,3.1c0.9,0.2,1.5,0.8,1.2,1.8c-0.3,1-1.2,1-2,0.8c-0.3-0.1-0.6-0.3-0.9-0.3
		c-6.9-1.1-6.9-1.1-8.5,5.5c-0.3,1.2,0,2.8-1.7,3.3C816.6,372.2,820.3,367.9,819.1,363z"/>
	<path class="st9" d="M813.1,395c0.6,3.4-0.2,6.4-2.5,9.1C810.4,400.8,811.3,397.8,813.1,395z"/>
	<path class="st9" d="M810.1,406c1.2,2.2,0.2,3.7-1.4,5.1C808.3,409.2,808.5,407.4,810.1,406z"/>
	<path class="st1" d="M793,398c-1.1-0.8-1-1.9-0.5-3C794.4,395.7,794.5,396.7,793,398z"/>
	<path class="st1" d="M786.9,358c-1.1-0.8-1.1-1.9-0.5-3C788.4,355.6,788.5,356.7,786.9,358z"/>
	<path class="st1" d="M784.9,345c-1.1-0.8-1.1-1.9-0.5-3C786.4,342.7,786.5,343.7,784.9,345z"/>
	<path class="st9" d="M818.5,358.4c0.6,1.3,0.5,2.7,0.1,4.1C816.5,361.2,817,359.8,818.5,358.4z"/>
	<path class="st1" d="M791,385c-1.1-0.8-1.1-1.9-0.5-3C792.4,382.7,792.5,383.7,791,385z"/>
	<path class="st9" d="M831.5,328.7c0.6,1.2,0.2,2.1-1.1,2.4C830,329.9,830.4,329.1,831.5,328.7z"/>
	<path class="st1" d="M788.9,371c-0.9-0.5-0.9-1.2-0.4-2C789.9,369.4,790.4,370,788.9,371z"/>
	<path class="st1" d="M794.9,410c-0.8-0.5-0.9-1.2-0.4-2C795.9,408.4,796.4,409,794.9,410z"/>
	<path class="st1" d="M785.9,352c-0.8-0.6-0.9-1.2-0.3-2C786.9,350.4,787.4,351,785.9,352z"/>
	<path class="st9" d="M814.1,391c1.3,1.1,0.7,1.7-0.6,2.1C813,392.2,813.1,391.5,814.1,391z"/>
	<path class="st9" d="M815.1,387.1c1.2,1,0.6,1.6-0.5,2.1C814.1,388.3,814.3,387.6,815.1,387.1z"/>
	<path class="st1" d="M783.9,339c-0.8-0.5-0.9-1.2-0.3-2C784.9,337.4,785.4,338,783.9,339z"/>
	<path class="st9" d="M816.1,383.1c1.2,1.1,0.7,1.7-0.5,2.1C815,384.3,815.1,383.5,816.1,383.1z"/>
	<path class="st9" d="M817.1,379.1c1.2,1,0.6,1.6-0.5,2.1C816.1,380.3,816.3,379.6,817.1,379.1z"/>
	<path class="st9" d="M853.2,359.2c-2.4-1.4-2.1-3.9-2.1-6.1c0.2-4.4-0.9-8.8,0.4-13.1c0.4,0,0.8,0,1.1,0.1
		C852.9,346.5,853.1,352.8,853.2,359.2z"/>
	<path class="st1" d="M852.3,389c-0.7-2.1-0.8-4.1,0.4-6.1C854.5,385.1,855.1,387.2,852.3,389z"/>
	<path class="st1" d="M852.6,373.1c-0.9-0.4-1.3-1.1-0.9-1.9c0.4-0.8,1.3-0.9,2.1-0.4C854,371.9,853.8,372.7,852.6,373.1z"/>
	<path class="st1" d="M852.8,340.1c-0.4,0-0.8,0-1.1-0.1c0.2-0.7,0.4-1.4,0.7-2.1C854,338.3,854.3,339,852.8,340.1z"/>
	<path class="st10" d="M901.5,195.9c-0.1,2.9-0.7,5.5-2.2,8c-2.1,3.6-4.2,3.8-6.6,0.5c-1.3-1.8-1.8-3.9-2.1-6
		c-0.2-1-0.2-2.2,1.2-2.2c6.2,0,4.6-4.2,4.2-7.7c-0.1-1.2-1.5-2.7,0.4-3.3c1.5-0.5,2.4,1,3,2.1C901.1,189.9,901.4,192.9,901.5,195.9
		z"/>
	<path class="st10" d="M866,194c-0.5,3.3-0.2,6.7-2,9.7c-2.2,3.9-5.1,4.3-6.9,0.3c-1.2-2.5-6-6.6,1.7-8.2c2.7-0.6,2.4-4.3,1.8-7.1
		c-0.3-1.1-1.9-2.6-0.1-3.4c1.7-0.8,2.7,0.8,3.4,2.1c0.8,1.5,1.3,3.1,1.9,4.6C865.4,192.7,865.4,193.4,866,194z"/>
	<path class="st1" d="M866,194c-0.6-0.6-0.7-1.3-0.2-2C867.1,192.6,867.2,193.2,866,194z"/>
</g>
</svg>
