<?xml version="1.0" encoding="utf-8"?>
<!-- Generator: Adobe Illustrator 19.0.0, SVG Export Plug-In . SVG Version: 6.00 Build 0)  -->
<svg version="1.1" id="Слой_1" xmlns="http://www.w3.org/2000/svg" xmlns:xlink="http://www.w3.org/1999/xlink" x="0px" y="0px"
	 viewBox="0 0 216 133" style="enable-background:new 0 0 216 133;" xml:space="preserve">
<style type="text/css">
	.st0{fill-rule:evenodd;clip-rule:evenodd;fill:#01AE2D;stroke:#FFFFFF;stroke-width:5;stroke-miterlimit:10;}
	.st1{fill:none;}
	.st2{fill:#FFFFFF;}
</style>
<path class="st0" d="M96.5,75.4V104h-12l23.1,25.9l23.1-25.9h-12V75.4H96.5z"/>
<rect x="4.3" y="6.3" class="st0" width="206.7" height="60.2"/>
<g>
	<rect x="16.7" y="21.6" class="st1" width="190.7" height="43"/>
	<path class="st2" d="M20.1,23.2h7.6c3.5,0,6.1,0.5,7.7,1.5s2.4,2.7,2.4,4.9c0,1.5-0.4,2.7-1.2,3.7s-1.9,1.6-3.3,1.9v0.2
		c1.8,0.3,3.1,1,4,2s1.3,2.4,1.3,4.1c0,2.3-0.8,4.1-2.4,5.4s-3.9,2-6.7,2h-9.3V23.2z M24.3,33.9h4c1.8,0,3-0.3,3.8-0.8
		s1.2-1.5,1.2-2.8c0-1.2-0.4-2.1-1.3-2.6s-2.3-0.8-4.2-0.8h-3.6V33.9z M24.3,37.3v8.1h4.5c1.8,0,3.1-0.3,4-1s1.3-1.7,1.3-3.2
		c0-1.3-0.5-2.3-1.4-3s-2.3-1-4.2-1H24.3z"/>
	<path class="st2" d="M59.8,48.9l-2.6-7.1h-9.8l-2.5,7.1h-4.4L50,23.1h4.6l9.6,25.8H59.8z M56.1,38.2l-2.4-7
		C53.5,30.7,53.3,30,53,29s-0.5-1.7-0.6-2.2c-0.3,1.4-0.8,3-1.4,4.7l-2.3,6.7H56.1z"/>
	<path class="st2" d="M85.3,45.3h9.2V23.2h4.3v25.7H67.6V23.2h4.2v22.1h9.2V23.2h4.3V45.3z"/>
	<path class="st2" d="M130.2,23.2v3.6h-11.1v22.1H115V23.2H130.2z"/>
	<path class="st2" d="M151.4,31c0,2.7-0.9,4.7-2.6,6.2s-4.3,2.1-7.5,2.1h-2.7v9.6h-4.2V23.2h7.4c3.2,0,5.6,0.7,7.2,2
		S151.4,28.5,151.4,31z M138.6,35.8h2.2c2.2,0,3.7-0.4,4.7-1.1s1.5-1.9,1.5-3.5c0-1.5-0.5-2.6-1.4-3.3s-2.3-1.1-4.2-1.1h-2.9V35.8z"
		/>
	<path class="st2" d="M176.1,23.2L168,41.5c-1,2.2-1.9,3.9-2.7,4.9s-1.8,1.7-2.9,2.2s-2.4,0.7-4,0.7c-1.4,0-2.6-0.2-3.8-0.5V45
		c1.1,0.5,2.3,0.7,3.6,0.7c1.1,0,2-0.3,2.7-0.8s1.4-1.5,2-2.8l-9.5-18.8h4.5l6.3,12.9c0.6,1.2,0.9,2,1,2.4h0.2
		c0.1-0.3,0.2-0.8,0.5-1.5l5.8-13.9H176.1z"/>
	<path class="st2" d="M195.8,29.3c0,1.7-0.6,3-1.7,4.1s-2.6,1.7-4.6,2v0.1c2.3,0.3,4,0.9,5.1,2s1.8,2.4,1.8,4.2
		c0,2.4-0.9,4.3-2.8,5.6s-4.5,2-7.7,2c-3.4,0-6.2-0.5-8.2-1.4v-3.7c1.1,0.5,2.4,1,3.8,1.2s2.7,0.4,3.9,0.4c4.5,0,6.8-1.5,6.8-4.4
		c0-1.4-0.7-2.4-2-3.1s-3.4-1.1-6-1.1H181v-3.4h2.9c5.1,0,7.7-1.4,7.7-4.1c0-1.1-0.4-2-1.3-2.6s-2.1-0.9-3.7-0.9
		c-1.2,0-2.4,0.2-3.6,0.5s-2.3,0.9-3.5,1.7l-1.9-2.8c2.6-1.8,5.7-2.7,9.3-2.7c2.7,0,4.9,0.6,6.5,1.7S195.8,27.3,195.8,29.3z"/>
</g>
</svg>
