<svg id="Слой_1" xmlns="http://www.w3.org/2000/svg" viewBox="0 0 448.1 148.1"><style>.st0{fill:#fefefe}.st1{fill:#737372}.st2{fill:#44ac3d}</style><path class="st0" d="M79 .2h368.5c1 0 1.1.3 1.1 1.2v146c0 1-.2 1.2-1.2 1.2H1.4c-1.1 0-1.2-.3-1.2-1.3V1.3C.2.4.4.2 1.3.2h68.3c0 .1.1.2.1.2-4.4.2-8.7.9-12.9 1.9C17.1 11.9-7.6 53 2.8 92.6 12.9 131.2 51 154.8 90 146.4c38.6-8.2 65.2-46.2 56.7-87-5-24.3-19.3-41.7-41.6-52.4C96.8 3 88 .9 78.9.5c0-.1 0-.2.1-.3zm282.8 58.3c-.2-.6-.3-1-.4-1.3-1.6-6-3.2-11.9-4.7-17.9-.2-1-.6-1.2-1.5-1.1-2 .1-4 .1-6 0-1.1-.1-1.5.2-1.7 1.3-.8 3.5-1.6 7-2.5 10.5-1.1 4.4-2.1 8.8-3.2 13.3-.2 1 0 1.3 1 1.2 1-.1 1.9-.1 2.9 0 1.1.1 1.5-.4 1.7-1.4 1.4-6.3 2.9-12.6 4.4-19 .2.5.3.9.4 1.2 1.6 6 3.2 12.1 4.8 18.1.2.7.4 1.1 1.3 1 2.3-.1 4.6 0 6.8 0 .6 0 .9-.2 1-.8 2-8.2 3.9-16.4 5.9-24.7.2-.7-.1-.8-.7-.8-1.1 0-2.2.1-3.2 0-1.2-.1-1.5.3-1.8 1.4-1.5 6.2-3 12.5-4.5 19zM205 64.3h6.2c4.7 0 8-2.2 9.8-6.5 1.7-4 2.6-8.1 3.3-12.3.6-3.9-1.3-6.4-4.9-7.1-.9-.2-1.7-.2-2.6-.3h-12.4c-.8 0-1.1.2-1.3 1-1.9 8.1-3.8 16.1-5.8 24.2-.2.8-.1 1.1.8 1h6.9zm59.7-11c1.6-.5 2.8-1.3 3.5-2.7 1.4-2.7 2.1-5.5 1.9-8.5-.1-1.6-1-2.7-2.4-3.3-1.2-.5-2.5-.7-3.9-.7H254c-1.2 0-2.7-.5-3.5.2-.7.6-.7 2.1-1 3.2-1.7 7.2-3.5 14.5-5.2 21.7-.2.9 0 1 .8 1 1.2-.1 2.3-.1 3.5 0 .8.1 1.1-.3 1.3-1 .5-2.3 1-4.5 1.6-6.8.1-.4.1-.9.9-.9 2.1.1 4.2 0 6.4 0 2 .1 2.6 1 2.2 2.9-.4 1.6-.7 3.3-1.2 4.9-.2.6 0 .8.6.8h4.2c.5 0 .8-.2.9-.7.4-1.9.9-3.8 1.3-5.7.3-2-.3-3.2-2.1-4.4zm46 0c1.7-.5 3-1.5 3.7-3 1.1-2.3 1.8-4.7 1.8-7.3 0-2.6-1.1-4-3.6-4.6-.8-.2-1.6-.3-2.4-.3h-13c-.8 0-.9.3-1.1.9l-.9 3.6c-1.6 6.9-3.3 13.7-5 20.6-.2 1 0 1.2.9 1.1 1.1-.1 2.2-.1 3.4 0 .8.1 1.1-.3 1.3-1 .5-2.3 1.1-4.5 1.6-6.8.1-.7.4-.9 1.1-.9 2 .1 3.9 0 5.9 0 2.2 0 2.9 1 2.4 3.1-.4 1.6-.7 3.2-1.1 4.8-.2.6 0 .8.6.8h4.2c.5 0 .8-.2.9-.7.4-1.9 1-3.8 1.4-5.7.3-2.2-.2-3.4-2.1-4.6zm67.9 11.1c2.2 0 3.9 0 5.7-.2 3.2-.4 5.4-1.9 6.6-5 .5-1.4 1-2.8 1.2-4.3.5-3.6-.8-5.4-4.4-6-2.3-.4-4.7-.2-7.1-.4-.7-.1-1.5-.1-1.8-.9-.6-1.3.7-4.4 2.1-4.7 2.1-.6 4.2-.5 6.3-.2 1 .1 1.3.7 1.3 1.7 0 .6-.5 1.5 0 1.9.5.3 1.3.1 2 .1h.2c3.1 0 3.4-.2 3.4-3.5.1-2.5-1.1-4-3.6-4.5-3.3-.6-6.7-.4-10-.1-3.8.4-6 2.6-7 6.1-.3.9-.4 1.8-.6 2.7-.5 3.8.9 5.5 4.7 6h.5c2.2.4 4.5.2 6.7.4 1 .1 1.6.5 1.6 1.6.1 2.4-1.4 4.2-3.7 4.7-1.9.4-3.7 0-5.6-.1-1.1-.1-1.4-.8-1.4-1.9 0-.8.8-1.8.1-2.3-.6-.4-1.6-.1-2.5-.1-2.7 0-2.7 0-3.2 2.6-.6 3.6.8 5.6 4.4 6.1 1.5.3 3 .2 4.1.3zm-45.9-26.3c-.9 0-1.8.1-2.8 0-.8-.1-1.2.3-1.6.9-2.2 3.9-4.4 7.7-6.6 11.5l-7.2 12.6c-.7 1.2-.7 1.2.7 1.2h3.7c.6 0 .9-.2 1.2-.7.6-1.2 1.3-2.4 2-3.6.3-.5.6-.7 1.1-.7h8.9c.8 0 .9.3 1 1 0 1 .2 2.1.2 3.1 0 .7.3.9.9.9 1.2 0 2.5-.1 3.7 0 1.1.1 1.2-.4 1.1-1.3-.3-2.1-.4-4.1-.6-6.2-.6-5.9-1.2-11.8-1.7-17.8-.1-.7-.3-1-1-.9-1 .1-2 0-3 0zM232 64.3h5.4c1.2 0 2.7.5 3.5-.2.7-.7.7-2.2 1-3.4.3-1 0-1.2-1-1.2-3.4.1-6.8 0-10.2 0-1 0-1.1-.3-.9-1.2.4-1.5.8-3 1.1-4.5.1-.6.4-.8 1-.8h7.9c3.2 0 3.2 0 3.9-3.1.2-.9.1-1.3-1-1.2-3.2.1-6.4 0-9.6 0-.9 0-1.1-.3-.9-1.1.3-1.3.7-2.5.9-3.8.1-.8.5-1 1.3-1h10.4c.8 0 1.2-.1 1.3-1 .1-1 .4-2 .7-2.9.2-.7 0-.9-.7-.9h-16.3c-.7 0-.9.2-1 .8-1.9 8.1-3.9 16.3-5.9 24.4-.2.9.1 1 .8 1 2.9.1 5.6.1 8.3.1zm110.2 27.4c-.1 0-.2-.1-.2-.1l-.3-10.8c0-1 .4-2.4-.3-3-.7-.6-2.1-.1-3.1-.2-.8-.1-1.1.3-1.5.9-2.1 4.2-4.3 8.4-6.5 12.6-.1.3-.2.7-.7.8V80.5c0-2.9 0-2.9-3-2.8-.6 0-.9.1-.9.9l.3 16.9c0 .6.2.8.8.8 1.2 0 2.4-.1 3.6 0 .7 0 1.1-.2 1.4-.9 1.8-3.7 3.7-7.3 5.6-11 .2-.3.2-.8.6-1 .2.2.1.5.1.8.1 3.6.2 7.2.2 10.8 0 1 .3 1.3 1.3 1.2 1-.1 2.1-.1 3.1 0 .8.1 1.2-.3 1.5-1 2.5-5 5.1-10.1 7.6-15.1 1.3-2.5 1.3-2.5-1.6-2.6-.8 0-1.3.2-1.6 1-1.9 4-3.9 7.9-5.8 11.8-.2.6-.4 1-.6 1.4zm-58.5-53.6h-6.2c-1.3 0-3.1-.6-3.9.2-.8.8-.8 2.6-1.2 3.9-.2.7 0 .9.7.9h5.5c.7 0 .9.2.7.9-.4 1.3-.6 2.6-1 3.9-1.2 5.1-2.4 10.2-3.7 15.2-.2.9 0 1.2.9 1.1 1-.1 2.1-.1 3.1 0 1.2.2 1.5-.4 1.8-1.5 1.5-6.3 3-12.6 4.5-18.8.2-.7.4-.9 1.1-.9h5.8c.7 0 1-.2 1.1-.9.2-1.1.4-2.2.8-3.3.3-.8 0-.9-.7-.9-3.2.2-6.3.2-9.3.2zm139.7 53.7h-.2c-1.1-4.4-2.3-8.7-3.4-13.1-.2-.7-.5-1-1.3-1-1.3.1-2.6.1-3.8 0-1-.1-1.4.3-1.6 1.2-1.1 4.9-2.3 9.7-3.5 14.6-.7 2.8-.7 2.8 2.2 2.8.8 0 1-.3 1.2-1 .6-2.9 1.3-5.8 2-8.8.3-1.4.7-2.9 1-4.3.3.2.4.4.4.6 1.1 4.2 2.2 8.3 3.3 12.5.2.7.5 1 1.2.9 1.3-.1 2.6-.1 4 0 1 .1 1.3-.3 1.5-1.2 1.1-4.9 2.3-9.7 3.5-14.6.7-3 .7-2.9-2.4-2.9-.7 0-.9.3-1 .9-.5 2.1-1 4.3-1.5 6.4-.5 2.5-1 4.7-1.6 7zM228 86.7c2.5-1.5 2.9-3.7 3-6.1.1-1.3-.6-2.1-1.9-2.6-.7-.2-1.4-.3-2.1-.3h-8.9c-.8 0-1 .3-1.2 1-1.3 5.5-2.6 11.1-4 16.6-.2.9.1 1 .8 1h8.7c4 .1 6.2-1.7 6.9-6.5.3-1.2.1-2.4-1.3-3.1zm-50.9-22.4h7.8c.7 0 1.1-.1 1.2-.9.2-1.1.4-2.1.7-3.1.3-1-.1-1-.9-1h-7.4c-1 0-2.4.5-2.9-.2s.3-1.9.5-2.9c1.3-5.7 2.7-11.3 4.1-17 .2-.8 0-1-.8-1-1.2.1-2.5.1-3.7 0-.7 0-1 .2-1.1.9-1.9 8.1-3.9 16.3-5.8 24.4-.2.8-.1 1 .7.9 2.4-.1 5-.1 7.6-.1zm212.9 32h4.7c2.9-.1 5-1.4 6.2-4 1.5-3.1 2.3-6.5 2.7-9.9.3-2.4-.9-3.9-3.2-4.4-.7-.2-1.4-.2-2.1-.2h-8.5c-.7 0-1 .2-1.2.9-1.3 5.6-2.6 11.2-4 16.8-.2.9.1.9.8.9 1.4-.1 3-.1 4.6-.1zm53-10.1h-3.4c-.5 0-.8.1-.9.6-.7 2.4-.7 2.4 1.8 2.4h.1c.6.1 1.6-.3 1.9.2.3.7-.3 1.5-.7 2.2-.4.7-1.1 1.1-2 1.2-1.3.2-2.5.2-3.8.1-1.7-.2-2.1-.6-1.9-2.3.4-2.6 1-5.1 1.8-7.6.3-.9.9-1.6 1.9-1.9 1.7-.4 3.4-.5 5.1-.1.6.1 1.2.5 1.1 1.2-.2 1.4.6 1.3 1.5 1.3h1.7c.3 0 .5 0 .7-.3 1.3-2.1 0-5.1-2.5-5.5-2.3-.4-4.6-.3-6.9-.1-3.3.2-5.5 2.1-6.6 5.1-1.1 2.9-1.7 5.9-2 9-.3 2.3.9 3.8 3.2 4.3 2.5.6 5 .5 7.5.2 2.3-.2 3.9-1.4 4.9-3.5.8-1.8 1.1-3.8 1.6-5.8.1-.6-.1-.8-.7-.8-1.1.1-2.3.1-3.4.1zm-267.4 3.1c-.7 3-1.2 3.5-4 3.8-1 .1-1.9 0-2.9-.1-1.4-.2-1.9-.8-1.7-2.2.5-2.6 1-5.1 1.8-7.6.3-.9.8-1.7 1.8-1.9 1.7-.5 3.5-.5 5.2-.1.6.1 1.2.5 1.1 1.2-.2 1.4.6 1.3 1.5 1.3h1.7c.3 0 .5 0 .7-.3 1.3-2.3-.1-5.1-2.6-5.5-2.2-.3-4.5-.3-6.7-.1-2.8.2-5 1.5-6.2 4.1-1.5 3.3-2.2 6.8-2.5 10.4-.2 2.1.9 3.4 3 3.9 2.5.6 5.1.5 7.6.3 2.4-.2 4-1.4 5-3.6.8-1.8 1.1-3.8 1.6-5.8.2-.7-.2-.7-.7-.7h-4.9c-2.9 0-2.9 0-3.3 2.9 0 0 0 .1.1.2 1.5-.2 2.9-.2 4.4-.2zm206-.8c1-.4 1.8-.8 2.3-1.7 1.1-1.8 1.6-3.8 1.5-6 0-1.6-.9-2.4-2.4-2.9-.8-.2-1.6-.3-2.4-.3h-8.3c-.8 0-1.1.3-1.3 1-1.1 4.9-2.3 9.8-3.5 14.7-.7 3.1-.7 3.1 2.5 2.9.5 0 .8-.2.9-.7.3-1.5.8-3 1.1-4.5.1-.7.4-.8 1.1-.8h4.1c1.5 0 1.9.5 1.7 2-.2 1.1-.5 2.2-.7 3.3-.1.4-.2.7.4.8 2.8.4 3.3.1 4-2.6.1-.5.2-.9.4-1.4.1-1.5.1-2.9-1.4-3.8zm-62.7 0c1.7-.6 2.5-1.7 3-3.1.4-1.1.6-2.1.8-3.2.4-2.4-.6-3.8-3-4.3-.6-.1-1.2-.1-1.8-.1h-8.2c-.9 0-1.1.3-1.3 1.1-1.1 4.9-2.3 9.8-3.5 14.7-.7 2.9-.7 2.9 2.4 2.8.7 0 1-.3 1.1-.9.3-1.5.7-2.9 1-4.4.1-.5.3-.8.9-.7h4.4c1.3 0 1.7.5 1.5 1.8-.2 1.1-.5 2.2-.7 3.3-.2.7-.1 1.1.7 1 .8-.1 1.5-.1 2.3 0 .6 0 .8-.3 1-.8.3-1.2.5-2.3.8-3.5.2-1.6.1-2.8-1.4-3.7zm-116.8 8c1 .1 2.1-.1 3.2-.2 2.7-.4 4.6-1.7 5.6-4.3 1.1-3.1 1.9-6.3 2.4-9.6.3-2.2-.7-3.8-2.9-4.3-2.7-.7-5.4-.7-8.1 0-1.7.4-3.2 1.4-4 3.1-1.7 3.6-2.8 7.5-3 11.5-.1 1.9.9 3 2.6 3.5 1.4.2 2.7.3 4.2.3zm91.9-.1h1.7c3.3-.2 6.1-1.2 7.3-4.7 1-2.9 1.7-5.9 2.2-8.9.5-2.8-.7-4.5-3.4-5-1.8-.3-3.7-.4-5.5-.2-2.9.3-5.2 1.4-6.3 4.2-1.3 3.3-2.3 6.6-2.6 10.2-.2 2.3 1 3.8 3.3 4.3 1.1.1 2.2.2 3.3.1zm66.3-18.7h-2c-.5 0-.7.2-.9.6-3.3 5.8-6.6 11.5-9.9 17.2-.3.6-.2.7.4.8 3.1.2 3.1.2 4.7-2.5.1-.1.1-.2.2-.3.2-.5.5-.6 1-.6h6.1c.6 0 .8.2.8.8 0 .9-.2 2 .4 2.5.6.5 1.8.1 2.7.2h.2c.7.1 1-.1.9-.9-.5-4.9-1-9.8-1.5-14.8-.3-3-.3-3-3.1-3zm-117.5 0h-2c-.5 0-.7.2-1 .5-3.3 5.8-6.6 11.5-9.9 17.2-.3.5-.3.7.4.8 3.1.2 3.1.2 4.7-2.5.1-.1.1-.2.2-.3.2-.5.5-.6 1-.6h6.1c.6 0 .8.2.8.8 0 .9-.2 2 .4 2.5.6.6 1.8.1 2.7.2h.1c.8.1 1.1-.1 1-1l-1.5-14.7c-.3-2.9-.3-2.9-3-2.9zm-51.6-13.4h1.8c.8.1 1.1-.2 1.3-1 .3-1.4.7-2.8 1-4.2 1.6-6.7 3.2-13.3 4.8-20 .2-.8.1-1.1-.8-1-1.2.1-2.3.1-3.5 0-1-.1-1.2.4-1.4 1.2-1.8 7.5-3.6 14.9-5.3 22.3-.7 2.7-.7 2.7 2.1 2.7zm92.5 16.8h1.8c2.5 0 2.4 0 3.1-2.4.2-.9 0-1-.8-1-3.4 0-6.8.1-10.2 0-1 0-1.3.4-1.6 1.3-1.1 4.8-2.3 9.5-3.4 14.3-.8 3.2-.7 3.2 2.5 3 .6 0 .8-.2.9-.8.4-1.9.9-3.9 1.4-5.8.1-.7.4-.9 1.1-.9 1.6.1 3.2 0 4.8 0 2.4 0 2.4 0 2.9-2.3.2-.8 0-1-.8-1-2 .1-4.1 0-6.1 0-.3 0-.9.2-.8-.4.2-1.3.3-2.6.9-3.7.4-.7 1.6-.2 2.5-.3.7-.1 1.3 0 1.8 0zm-28.3 15.2h3.5c2.7 0 2.7 0 3.3-2.7.2-.7 0-.8-.6-.8h-6.2c-1.1 0-1.3-.3-1-1.3 1.1-4.3 2.1-8.5 3.1-12.8.1-.3.4-.8-.1-.9-1.1-.1-2.2 0-3.4 0-.3 0-.4.4-.4.6-1.4 5.7-2.7 11.3-4.1 17-.2.8.1.9.8.9h5.1zm-68.8 0h3.5c2.8 0 2.7 0 3.3-2.7.2-.8-.1-.9-.8-.9h-6.2c-.9 0-1.2-.1-.9-1.1 1.1-4.3 2.1-8.5 3.1-12.8.2-.8.1-1.2-.8-1.1-.7.1-1.4.1-2 0-.6 0-.9.2-1.1.8-1.3 5.6-2.7 11.3-4.1 16.9-.2.7 0 .9.7.9 1.7-.1 3.5 0 5.3 0zm218.1 0c1.9 0 1.9 0 2.3-1.8 1.1-4.7 2.3-9.4 3.4-14.1.6-2.7.6-2.7-2.1-2.7-.9 0-1.2.3-1.4 1.1-1.2 5.2-2.4 10.3-3.7 15.5-.5 2-.6 2 1.5 2zm23.6 24.5c-.3-.7-.5-1.1-.6-1.6-.9-2.2-1.8-4.5-2.6-6.7-.2-.5-.5-.7-1.1-.7-.4 0-.7.1-.8.6-.8 3.2-1.7 6.4-2.5 9.6-.1.2-.2.5.1.6.3.1.7.2.8-.2.1-.2.2-.5.2-.8.7-2.6 1.3-5.1 2-7.7.4.3.5.8.6 1.2l2.7 6.9c.2.5.5.7 1.1.7.4 0 .6-.1.8-.6.8-3.2 1.7-6.4 2.5-9.6.1-.2.2-.5-.1-.6-.3-.1-.7-.2-.9.2l-.3.9c-.5 2.5-1.2 5.1-1.9 7.8zm-168.7-7c.5.3.5.7.6 1.1.9 2.3 1.8 4.7 2.7 7 .2.5.5.7 1.1.7.6 0 .7-.3.8-.8l2.4-9.3c.1-.3.4-.6-.2-.7-.4 0-.7-.1-.8.4 0 .3-.2.5-.2.8-.7 2.5-1.3 5-2 7.7-1.1-2.9-2.2-5.5-3.2-8.2-.2-.6-.5-.8-1.1-.8-.7 0-.7.5-.9.9-.8 2.9-1.5 5.9-2.3 8.8-.1.3-.6.8.1 1 .6.2.8-.3.9-.8.7-2.5 1.4-5.1 2.1-7.8zm109 .1c.5.4.5.8.7 1.2.9 2.2 1.7 4.5 2.6 6.7.2.6.4.9 1.2.9.7 0 .7-.5.8-1 .8-2.9 1.5-5.9 2.3-8.8.1-.3.5-.8-.1-1-.6-.2-.8.2-.9.7l-1.8 7.2c-.1.2 0 .6-.4.6-.2-.4-.4-.9-.5-1.3-.9-2.2-1.8-4.5-2.6-6.7-.2-.5-.5-.6-1-.6-.4 0-.7.1-.8.5-.8 3.2-1.7 6.4-2.5 9.6-.1.2-.1.5.2.6.3.1.7.1.8-.3.1-.4.2-.8.3-1.1.4-2.3 1-4.7 1.7-7.2zm-201.1 5.3c0 2.4 1.6 3.7 4.1 3.5 3.5-.3 6.2-3.3 6.3-7.2.1-2.4-1.2-3.8-3.6-3.9-3.7-.1-6.8 3.3-6.8 7.6zm195.9-4c0-2.5-1.9-3.9-4.7-3.5-3.1.5-5.3 3-5.7 6.7-.3 3.1 1.2 4.6 4.3 4.3 3.5-.4 6.2-3.7 6.1-7.5zm-89.5-3.4h-1.2c-1-.2-1.5.2-1.7 1.3-.4 2.1-1.1 4.1-1.5 6.1-.3 1.1-1.2 2.6-.6 3.2.7.6 2.3.2 3.5.2 3.8-.3 6.7-3.5 6.5-7.4-.1-1.6-.9-2.7-2.5-3.1-.9-.3-1.7-.2-2.5-.3zm44.1 10.8c4.7 0 7.3-2.1 8-6.5.4-2.3-.9-4-3.3-4.2-1.1-.1-2.2 0-3.2-.1-.7 0-1 .2-1.1.9-.6 2.6-1.3 5.2-2 7.8-.6 2.1-.6 2.1 1.6 2.1zM187.7 117h-1.3c-.5 0-.6.4-.6.8 0 .5.4.3.6.4.5.2 1.5-.5 1.5.5.1 2.3-.8 3.2-3.2 3.1-.2 0-.5 0-.7-.1-1.7-.3-2.5-1.3-2.4-3 .2-4.2 3.5-6.6 7.5-5.5.6.2 1 .1 1.2-.5.2-.7-.5-.6-.8-.7-4.7-1.3-9.3 2.3-9.3 7.2 0 2 1.1 3.2 3 3.5 1 .2 2.1 0 3.1-.1 1.2-.1 2.1-.5 2.2-1.9 0-.6.3-1.2.5-1.9.6-1.9.6-1.9-1.3-1.8zm253.3-.1h-1.5c-.5 0-.6.4-.6.8s.4.2.6.3c.5.2 1.3-.4 1.5.4.3 1.8-.9 3.2-2.8 3.2-.4 0-.7 0-1.1-.1-1.8-.3-2.5-1.3-2.4-3.1.2-4.2 3.5-6.6 7.6-5.4.7.2 1.1 0 1.2-.5.2-.7-.5-.6-.8-.7-4.8-1.3-9.3 2.3-9.3 7.3 0 1.9 1.1 3.1 3 3.5 1.1.2 2.2 0 3.3-.1 1.2-.1 1.9-.5 2-1.8.1-.7.3-1.4.5-2.1.6-1.7.6-1.7-1.2-1.7zm-141-5s0-.1 0 0h-.8c-1.2-.2-1.6.3-1.9 1.5-.6 2.8-1.4 5.6-2.1 8.3-.1.3-.5.8.2.9.5.1.8-.1.9-.6.2-1 .5-1.9.7-2.9.1-.7.4-1.1 1.2-1 .7.1 1.4-.2 1.6.9.2 1.1.7 2.1 1 3.2.2.7.8.5 1.2.4.6-.1.2-.6.1-.8-.3-1.1-.7-2.1-1.1-3.2-.2-.5-.1-.8.5-1.1 1-.4 1.8-1.2 2.1-2.3.6-2-.1-3.1-2.2-3.3-.4-.1-.9 0-1.4 0zm-55.8 10.5c.9.4 1.3.1 1.6-.6.9-2.4 2.8-3.1 5.2-2.7.6.1 1 .2 1 .9s.2 1.3.2 2c.1.6.5.5.9.5.5 0 .4-.4.4-.7-.4-3.1-.8-6.3-1.2-9.4 0-.3 0-.7-.4-.8-.4-.1-.8.1-1 .5-2.2 3.5-4.4 6.9-6.7 10.3zm59.6.1c.8.3 1.2.1 1.6-.5.2-.5.6-.9.8-1.3.5-1.2 1.4-1.6 2.7-1.5 2.5.1 2.5 0 3 2.5.1.4 0 1 .8.9.9-.1.5-.7.5-1.1l-1.2-9c0-.3 0-.7-.4-.7-.4-.1-.7 0-.9.4-.4.6-.7 1.1-1.1 1.7-2 2.8-3.9 5.7-5.8 8.6zm81.6 0c1.2.1 1.3.1 2.1-1.3.8-1.6 2-2.2 3.8-2.1 2 .2 2-.3 2.2 2 0 .3.1.6.1.8 0 .6.4.7.9.7.6 0 .4-.5.3-.8-.4-3-.8-6.1-1.2-9.1 0-.4.1-.8-.5-.9-.5 0-.7.2-1 .5-2.2 3.4-4.4 6.7-6.7 10.2zm-54.7.1h2.6c.6 0 .7-.4.7-.8 0-.5-.4-.3-.7-.3h-.8c-3.2 0-3.2 0-2.3-3.1.2-.8.5-.9 1.2-.9h2.8c.5 0 .9-.1.9-.7s-.5-.3-.8-.4h-1.1c-2.5 0-2.5 0-1.8-2.5.2-.8.6-1.1 1.4-1.1 1 .1 2 0 3 0 .5 0 .8-.1.8-.7s-.5-.4-.8-.4h-4.1c-.7 0-1 .2-1.2.9-.5 2.3-1.2 4.6-1.8 6.9-.2.9-.9 2.2-.5 2.7.4.8 1.7.3 2.5.4zm-132 .1c2.8 0 4.5-1.1 5.1-3 .3-1.1 0-2-1-2.5-.7-.4-1.5-.6-2.2-1-1-.5-1.2-1.3-.6-2.2.4-.8 1.1-1.1 2-1.2.8-.1 1.7 0 2.5.4.6.2.7-.3.9-.6.2-.3 0-.4-.3-.5-1.7-.9-4.6-.3-5.8 1.2-1.2 1.5-.9 3.3.9 4.2.4.2.7.3 1.1.5.7.4 1.5.7 1.4 1.7-.1 1-.7 1.6-1.7 2-1.2.4-2.4.2-3.5-.2-.5-.2-.7-.1-.9.4-.1.5.1.7.5.7.6 0 1.2.1 1.6.1zm34.4.1c1.8-.1 3.2-.3 4.3-1.5 1.5-1.7 1.1-3.4-.8-4.3-.3-.2-.7-.3-1-.4-.8-.4-1.6-.8-1.4-1.9.2-1.1 1-1.6 2-1.7.9-.1 1.8 0 2.6.3.6.2.7-.3.8-.6.2-.4-.2-.5-.4-.5-1.8-.6-3.5-.6-5 .6-2 1.5-1.8 3.9.5 4.9.3.1.5.2.8.3.8.4 1.6.7 1.5 1.8-.1 1.1-.8 1.7-1.8 2-1.2.3-2.3.1-3.4-.2-.4-.1-.7-.1-.8.4-.1.4 0 .7.5.8.6-.2 1.2-.1 1.6 0zm146.3 0c2.7 0 4.4-1 5-2.8.4-1.3.1-2.1-1-2.7-.7-.4-1.4-.6-2-1-1.1-.6-1.2-1.7-.4-2.6.5-.5 1.1-.8 1.8-.8.8-.1 1.6 0 2.3.3.6.2.7-.2.9-.5.2-.5-.2-.5-.5-.6-1.7-.5-3.4-.5-4.9.6-2.1 1.5-1.8 3.8.5 4.9.3.1.6.2.9.4.7.3 1.5.7 1.4 1.7-.1 1-.7 1.6-1.7 1.9-1.2.4-2.3.2-3.4-.1-.4-.1-.8-.3-.9.3-.2.6.2.8.7.9.3 0 .9 0 1.3.1zm-29.9-1.4c-.9.1-1.8.3-2.6.3-1.5 0-2.6-.7-2.8-1.8-.4-2.2.3-4.1 1.8-5.7 1.4-1.4 3.1-1.7 5-1.1.7.3 1-.1 1.2-.6.2-.6-.5-.5-.8-.6-3.4-1-6.8.9-8.2 4.5-1.7 4.5.3 6.9 5 6.2.1 0 .2 0 .4-.1.8-.1 1.1-.4 1-1.1zm-120.7-9.7c-4 0-6.7 2.6-7.3 6.8-.2 1.5-.1 2.9 1.3 3.7 1.6 1 3.4.7 5.1.2.3-.1.4-.4.3-.7-.1-.5-.4-.2-.7-.2-.6.1-1.3.2-1.9.2-1.5 0-2.4-.6-2.8-1.8-.8-2.7 1.4-6.5 4.2-7 1-.2 1.9-.1 2.8.3.6.3.8-.2 1-.6.3-.6-.3-.5-.6-.6-.5-.2-1.2-.3-1.4-.3zm62.2.1h-3.5c-.4 0-.7.1-.7.6-.1.6.4.5.7.5h1.3c1-.1 1.2.3.9 1.2-.7 2.5-1.4 5.1-2 7.6-.1.2-.4.6.1.8.3.1.7.2.9-.2.1-.2.2-.5.2-.8.7-2.6 1.4-5.2 2-7.8.2-.7.5-1 1.2-1 .7.1 1.4 0 2 0 .4 0 .5-.3.6-.6.1-.5-.4-.4-.6-.4-.9.1-2 .1-3.1.1zm120.5 0h-3.4c-.5 0-.9.1-.9.7s.5.4.8.4h1.2c1-.1 1.3.2 1 1.2-.7 2.6-1.4 5.2-2 7.8-.1.2-.4.6.1.7.3.1.6 0 .8-.1.3-.1.2-.5.3-.7.7-2.6 1.4-5.2 2-7.8.2-.9.6-1.2 1.5-1.1.6.1 1.1 0 1.7 0 .5 0 .7-.3.7-.7 0-.5-.5-.3-.7-.3-1-.1-2-.1-3.1-.1zm-195.8.4c.1-.4-.2-.4-.4-.4h-7c-.4 0-.7.2-.7.6 0 .5.4.4.7.4h1.6c.9-.1 1 .2.8 1.1-.7 2.5-1.3 5-2 7.5-.1.3-.6.9.1 1.1.7.2.9-.3 1.1-.9.5-2 1-3.9 1.6-5.9.2-.9.3-2 .8-2.6.6-.7 1.7-.2 2.6-.3h.5c.2 0 .2-.3.3-.6zm184.8 10.4h2.4c.6 0 .7-.4.7-.8 0-.5-.4-.3-.7-.4-.9 0-1.8-.1-2.8 0-1.1.1-1.2-.3-.9-1.2.7-2.5 1.3-4.9 1.9-7.4.1-.3.5-.8-.1-1-.6-.2-.9.1-1.1.7-.6 2.6-1.4 5.2-2 7.8-.6 2.2-.6 2.2 1.8 2.2.3.1.6.1.8.1zm-239.2 0h2.5c.6 0 .9-.2.9-.7 0-.6-.5-.4-.8-.4-1 0-1.9-.1-2.9 0-.8 0-.9-.2-.7-1 .7-2.7 1.4-5.3 2.1-8 .1-.2.3-.5 0-.6-.3-.1-.7-.2-.9 0-.2.2-.2.5-.3.8l-1.8 6.9c-.2.9-.9 2.2-.5 2.7.3.8 1.6.2 2.4.3zm34.4-10.5c.1-.2-.1-.3-.4-.3-.5-.1-.8.1-.9.7-.8 3.1-1.6 6.1-2.4 9.1-.1.3-.6.8.1.9.6.1.9-.1 1-.7l1.5-5.7c.4-1.2.7-2.5 1.1-4zm23.8.4c0-.3.2-.6-.3-.6-.5-.1-.8 0-1 .6-.8 3.1-1.6 6.2-2.4 9.4-.1.3-.3.7.3.8.4.1.8.1.9-.5.8-3.3 1.7-6.5 2.5-9.7zm199.7.1c.2-.6 0-.8-.4-.8-.6-.1-.7.3-.9.7-.8 3-1.6 6-2.3 9-.1.3-.5.8.2 1 .6.2.8-.2 1-.7.5-2.1 1.1-4.1 1.6-6.1.2-1.1.5-2.2.8-3.1z"/><path class="st1" d="M79 .2c0 .1-.1.2-.1.2h-9.1c0-.1-.1-.2-.1-.2H79z"/><path class="st2" d="M69.7.5h9.1C88 .9 96.8 3 105.1 7c22.4 10.7 36.6 28.1 41.6 52.4 8.5 40.8-18.2 78.8-56.7 87-39 8.3-77.1-15.2-87.2-53.8C-7.6 53 17.1 11.9 56.8 2.4c4.3-1 8.6-1.8 12.9-1.9zm75.9 73.6c0-39.3-32-71.2-71.3-71.2S3.1 34.9 3.1 74.2c0 39.4 31.9 71.2 71.4 71.2 39.3 0 71.2-32 71.1-71.3z"/><path class="st1" d="M361.8 58.5c1.5-6.5 3-12.7 4.4-19 .2-1.1.6-1.5 1.8-1.4 1.1.1 2.2 0 3.2 0 .6 0 .8.1.7.8-2 8.2-4 16.4-5.9 24.7-.1.5-.4.8-1 .8-2.3 0-4.6-.1-6.8 0-.8 0-1.1-.4-1.3-1-1.6-6.1-3.2-12.1-4.8-18.1-.1-.3-.2-.7-.4-1.2-1.5 6.5-3 12.7-4.4 19-.2 1-.6 1.5-1.7 1.4-.9-.1-1.9-.1-2.9 0s-1.2-.2-1-1.2c1.1-4.4 2.2-8.8 3.2-13.3.8-3.5 1.7-7 2.5-10.5.2-1.1.7-1.4 1.7-1.3 2 .1 4 .1 6 0 .9 0 1.3.2 1.5 1.1 1.5 6 3.1 12 4.7 17.9.2.3.3.7.5 1.3zM205 64.3h-6.8c-.9 0-1-.2-.8-1 2-8.1 3.9-16.1 5.8-24.2.2-.8.5-1 1.3-1h12.4c.9 0 1.8.1 2.6.3 3.6.7 5.5 3.2 4.9 7.1-.6 4.2-1.6 8.4-3.3 12.3-1.8 4.3-5.1 6.5-9.8 6.5H205zm2.9-4.9h2.9c2.1-.1 4-.6 4.9-2.7 1.6-3.6 2.3-7.4 2.8-11.2.2-1.4-.5-2-1.9-2.3-.6-.1-1.3-.2-1.9-.2h-5.6c-.9 0-1.2.3-1.4 1.1-1.1 4.7-2.2 9.3-3.3 14-.3 1.4-.3 1.4 1.2 1.4.7-.1 1.5-.1 2.3-.1zm56.8-6.1c1.9 1.2 2.4 2.4 1.9 4.6-.4 1.9-.9 3.8-1.3 5.7-.1.5-.4.7-.9.7h-4.2c-.6 0-.7-.2-.6-.8.4-1.6.8-3.3 1.2-4.9.4-1.9-.2-2.9-2.2-2.9-2.1-.1-4.2 0-6.4 0-.7 0-.7.4-.9.9-.5 2.2-1.1 4.5-1.6 6.8-.2.8-.5 1.1-1.3 1-1.2-.1-2.3-.1-3.5 0-.8 0-1-.1-.8-1 1.8-7.2 3.5-14.5 5.2-21.7.3-1.1.3-2.6 1-3.2.8-.7 2.3-.2 3.5-.2h9.8c1.3 0 2.6.2 3.9.7 1.5.6 2.3 1.7 2.4 3.3.2 3-.5 5.9-1.9 8.5-.5 1.2-1.8 2-3.3 2.5zm-5.8-10.2h-3.4c-.6 0-.9.2-1 .8-.5 2.1-1 4.3-1.5 6.4-.2.7-.1.9.6.8h4.1c4.8 0 5.7-.8 6.5-5.5v-.2c.2-1.3-.2-1.8-1.5-2.1-1.4-.4-2.7-.2-3.8-.2zm51.8 10.2c1.9 1.2 2.4 2.4 1.9 4.6-.4 1.9-.9 3.8-1.4 5.7-.1.5-.3.7-.9.7h-4.2c-.6 0-.8-.1-.6-.8.4-1.6.8-3.2 1.1-4.8.5-2.1-.2-3-2.4-3.1h-5.9c-.7 0-1 .2-1.1.9-.5 2.3-1.1 4.5-1.6 6.8-.2.7-.4 1.1-1.3 1-1.1-.1-2.2-.1-3.4 0-.9.1-1.2-.1-.9-1.1 1.7-6.9 3.3-13.7 5-20.6l.9-3.6c.1-.6.3-.9 1.1-.9h13c.8 0 1.6.1 2.4.3 2.5.6 3.7 2 3.6 4.6 0 2.6-.7 5-1.8 7.3-.5 1.5-1.7 2.5-3.5 3zm-5.8-10.2h-3.5c-.5 0-.8.1-.9.7-.5 2.2-1 4.4-1.6 6.6-.2.6.1.7.6.7h4.1c4.9 0 5.9-.8 6.6-5.7v-.2c.1-1.2-.3-1.7-1.4-1.9-1.4-.4-2.7-.2-3.9-.2zm73.7 21.3c-1.1 0-2.6.1-4-.2-3.6-.6-5-2.5-4.4-6.1.5-2.6.5-2.6 3.2-2.6.8 0 1.9-.3 2.5.1.6.5-.1 1.5-.1 2.3 0 1 .3 1.8 1.4 1.9 1.9.1 3.7.5 5.6.1 2.4-.5 3.8-2.3 3.7-4.7 0-1-.6-1.5-1.6-1.6-2.2-.3-4.5 0-6.7-.4h-.5c-3.8-.5-5.2-2.2-4.7-6 .1-.9.3-1.8.6-2.7 1.1-3.5 3.3-5.7 7-6.1 3.3-.4 6.7-.6 10 .1 2.5.5 3.6 2 3.6 4.5-.1 3.2-.3 3.5-3.4 3.5h-.2c-.7 0-1.5.2-2-.1-.5-.4 0-1.2 0-1.9 0-.9-.4-1.5-1.3-1.7-2.1-.3-4.2-.4-6.3.2-1.4.4-2.7 3.5-2.1 4.7.4.8 1.1.8 1.8.9 2.3.3 4.7.1 7.1.4 3.6.5 5 2.4 4.4 6-.2 1.5-.6 2.9-1.2 4.3-1.2 3-3.4 4.6-6.6 5-1.9 0-3.7.1-5.8.1zm-45.9-26.3c1 0 2 .1 3 0 .8-.1 1 .3 1 .9.6 5.9 1.2 11.8 1.7 17.8.2 2.1.4 4.1.6 6.2.1.9 0 1.4-1.1 1.3-1.2-.1-2.5-.1-3.7 0-.7 0-.9-.2-.9-.9 0-1-.2-2.1-.2-3.1 0-.7-.2-1-1-1h-8.9c-.6 0-.9.2-1.1.7-.6 1.2-1.3 2.4-2 3.6-.3.5-.6.8-1.2.7h-3.7c-1.4 0-1.4 0-.7-1.2l7.2-12.6c2.2-3.8 4.4-7.7 6.6-11.5.4-.7.8-1 1.6-.9.9.1 1.8 0 2.8 0zM324.9 55h5c.9 0 2 .3 2.5-.2.6-.6 0-1.7 0-2.6v-.6c-.3-2.7-.5-5.3-.8-8.3-2.3 4.1-4.4 7.8-6.7 11.7zM232 64.3h-8c-.7 0-1.1 0-.8-1 2-8.1 3.9-16.3 5.9-24.4.1-.6.4-.8 1-.8h16.3c.7 0 .9.2.7.9-.3 1-.6 1.9-.7 2.9-.1.8-.5 1-1.3 1h-10.4c-.8 0-1.2.2-1.3 1-.2 1.3-.6 2.6-.9 3.8-.2.8-.1 1.1.9 1.1 3.2-.1 6.4 0 9.6 0 1.1 0 1.2.3 1 1.2-.8 3.1-.7 3.1-3.9 3.1h-7.9c-.6 0-.9.2-1 .8-.3 1.5-.7 3-1.1 4.5-.2.9-.1 1.2.9 1.2 3.4-.1 6.8 0 10.2 0 1 0 1.3.3 1 1.2-.4 1.1-.3 2.7-1 3.4-.8.7-2.3.2-3.5.2-2.1 0-3.9-.1-5.7-.1zm110.2 27.4l.6-1.2c2-3.9 3.9-7.8 5.8-11.8.4-.8.8-1 1.6-1 2.9 0 2.9 0 1.6 2.6-2.5 5-5.1 10-7.6 15.1-.3.7-.7 1-1.5 1-1-.1-2.1-.1-3.1 0s-1.3-.2-1.3-1.2c0-3.6-.1-7.2-.2-10.8 0-.3.1-.5-.1-.8-.4.2-.5.6-.6 1-1.9 3.7-3.8 7.3-5.6 11-.3.6-.7.9-1.4.9-1.2-.1-2.4 0-3.6 0-.6 0-.8-.2-.8-.8l-.3-16.9c0-.7.3-.8.9-.9 3-.1 3-.1 3 2.8v11.4c.6-.1.6-.5.7-.8 2.2-4.2 4.3-8.4 6.5-12.6.3-.7.7-1 1.5-.9 1.1.1 2.4-.4 3.1.2.7.6.2 2 .3 3l.3 10.8c0-.1.1-.1.2-.1zm-58.5-53.6h9.2c.7 0 1 .1.7.9-.3 1.1-.6 2.2-.8 3.3-.1.7-.4.9-1.1.9h-5.8c-.7 0-1 .2-1.1.9-1.5 6.3-3 12.6-4.5 18.8-.2 1-.5 1.6-1.8 1.5-1-.1-2.1-.1-3.1 0-.9.1-1.2-.2-.9-1.1 1.3-5.1 2.5-10.1 3.7-15.2.3-1.3.6-2.6 1-3.9.2-.7 0-.9-.7-.9H273c-.7 0-.9-.2-.7-.9.4-1.3.3-3.1 1.2-3.9.8-.8 2.6-.2 3.9-.2 2.1-.2 4.2-.2 6.3-.2zm139.7 53.7c.5-2.3 1.1-4.6 1.6-6.8.5-2.1 1-4.3 1.5-6.4.1-.6.4-.8 1-.9 3.1-.1 3.1-.1 2.4 2.9-1.2 4.9-2.3 9.7-3.5 14.6-.2.9-.5 1.3-1.5 1.2-1.3-.1-2.6-.1-4 0-.8 0-1-.3-1.2-.9-1.1-4.2-2.2-8.3-3.3-12.5 0-.2-.1-.4-.4-.6-.3 1.4-.7 2.9-1 4.3-.7 2.9-1.4 5.8-2 8.8-.2.7-.4 1-1.2 1-2.9 0-2.9 0-2.2-2.8 1.2-4.9 2.4-9.7 3.5-14.6.2-1 .6-1.3 1.6-1.2 1.3.1 2.6.1 3.8 0 .8 0 1.1.3 1.3 1 1.1 4.4 2.3 8.7 3.4 13.1 0-.2.1-.2.2-.2zM228 86.7c1.4.7 1.6 1.9 1.4 3.1-.7 4.8-2.9 6.5-6.9 6.5h-8.7c-.8 0-1.1-.1-.8-1 1.4-5.5 2.7-11.1 4-16.6.2-.7.4-1 1.2-1 3 .1 5.9 0 8.9 0 .7 0 1.4.1 2.1.3 1.3.4 2 1.2 1.9 2.6-.2 2.3-.6 4.6-3.1 6.1zm-6.3 1.6c-3.1 0-3.1 0-3.8 3 0 .2-.1.4-.2.6-.2.7-.1 1.1.8 1.1 1.2-.1 2.4 0 3.6 0 2.3-.1 3-.7 3.3-2.9.2-1.2-.1-1.6-1.3-1.7-.8-.1-1.6-.1-2.4-.1zm1.7-7.2c-3 0-3 0-3.7 2.9-.1.2-.1.5-.2.7-.2.5 0 .6.5.6 1.6 0 3.1 0 4.7-.1 1.4-.1 2.6-2.2 2.2-3.5-.2-.5-.5-.6-.9-.6h-2.6zm-46.3-16.8h-7.7c-.8 0-.9-.2-.7-.9 2-8.1 3.9-16.3 5.8-24.4.2-.7.4-.9 1.1-.9 1.2.1 2.5.1 3.7 0 .8 0 1 .2.8 1-1.4 5.7-2.7 11.3-4.1 17-.2 1-1 2.3-.5 2.9.5.7 1.9.2 2.9.2h7.4c.8 0 1.2.1.9 1-.3 1-.6 2.1-.7 3.1-.1.8-.5.9-1.2.9-2.6.1-5.2.1-7.7.1zm212.9 32h-4.8c-.7 0-1 0-.8-.9 1.4-5.6 2.7-11.2 4-16.8.2-.7.5-.9 1.2-.9h8.5c.7 0 1.4 0 2.1.2 2.3.6 3.5 2.1 3.2 4.4-.4 3.4-1.1 6.8-2.7 9.9-1.2 2.6-3.4 3.9-6.2 4-1.4.1-3 .1-4.5.1zm-1-3.5c1.9 0 3.7.1 5.5 0 1.6-.1 2.7-1 3.2-2.5.8-2.2 1.3-4.4 1.7-6.7.3-1.7-.4-2.4-2.1-2.5-1.6-.1-3.2 0-4.8 0-.4 0-.7 0-.8.5-.9 3.7-1.8 7.4-2.7 11.2zm54-6.6h3.5c.6 0 .8.2.7.8-.5 1.9-.8 3.9-1.6 5.8-.9 2.1-2.6 3.3-4.9 3.5-2.5.3-5 .4-7.5-.2-2.3-.5-3.5-2-3.2-4.3.4-3.1 1-6.1 2-9 1.1-3.1 3.3-4.9 6.6-5.1 2.3-.2 4.6-.3 6.9.1 2.4.4 3.8 3.4 2.5 5.5-.2.3-.4.3-.7.3h-1.7c-.9 0-1.8.1-1.5-1.3.1-.7-.5-1.1-1.1-1.2-1.7-.4-3.4-.3-5.1.1-1 .2-1.6 1-1.9 1.9-.8 2.5-1.5 5-1.8 7.6-.2 1.7.2 2.1 1.9 2.3 1.3.2 2.6.1 3.8-.1.8-.1 1.5-.5 2-1.2.4-.7 1-1.5.7-2.2-.2-.5-1.2-.1-1.9-.2h-.1c-2.5 0-2.5 0-1.8-2.4.2-.6.4-.7.9-.6 1-.1 2.1-.1 3.3-.1zm-267.4 3.1h-4.3c0-.1-.1-.2-.1-.2.4-2.9.4-2.9 3.3-2.9h4.9c.5 0 .9 0 .7.7-.5 1.9-.8 3.9-1.6 5.8-.9 2.2-2.6 3.4-5 3.6-2.6.2-5.1.3-7.6-.3-2.1-.5-3.2-1.7-3-3.9.3-3.6.9-7.1 2.5-10.4 1.2-2.6 3.4-3.9 6.2-4.1 2.2-.2 4.5-.2 6.7.1 2.6.4 3.9 3.2 2.6 5.5-.2.3-.4.3-.7.3h-1.7c-.9 0-1.8.1-1.5-1.3.1-.7-.5-1.1-1.1-1.2-1.7-.4-3.5-.3-5.2.1-1 .3-1.5 1-1.8 1.9-.8 2.5-1.4 5-1.8 7.6-.2 1.4.3 2 1.7 2.2 1 .1 1.9.2 2.9.1 2.7-.2 3.3-.6 3.9-3.6zm206-.8c1.6 1 1.5 2.4 1.2 3.8-.1.5-.2.9-.4 1.4-.7 2.7-1.1 3-4 2.6-.7-.1-.5-.5-.4-.8.2-1.1.6-2.2.7-3.3.2-1.4-.2-1.9-1.7-2h-4.1c-.6 0-.9.2-1.1.8-.3 1.5-.7 3-1.1 4.5-.1.5-.3.7-.9.7-3.2.2-3.2.2-2.5-2.9 1.2-4.9 2.4-9.8 3.5-14.7.2-.8.5-1 1.3-1 2.8.1 5.5 0 8.3 0 .8 0 1.6 0 2.4.3 1.5.4 2.4 1.3 2.4 2.9 0 2.1-.5 4.1-1.5 6-.3.8-1.2 1.3-2.1 1.7zm-8.6-1.6h3.8c3.1 0 4.1-.9 4.4-3.9.1-1.3-.2-1.7-1.4-1.8-1.5-.1-3.1 0-4.7 0-.5 0-.7.1-.8.6-.5 1.6-.9 3.3-1.3 5.1zm-54.1 1.6c1.5.9 1.6 2.1 1.3 3.5-.3 1.2-.6 2.3-.8 3.5-.1.5-.3.8-1 .8-.8-.1-1.5-.1-2.3 0-.9.1-.9-.4-.7-1 .3-1.1.6-2.2.7-3.3.2-1.2-.2-1.7-1.5-1.8-1.5-.1-3 0-4.4 0-.6 0-.8.2-.9.7-.3 1.5-.7 2.9-1 4.4-.1.6-.4.9-1.1.9-3 0-3 .1-2.4-2.8 1.2-4.9 2.4-9.8 3.5-14.7.2-.8.4-1.1 1.3-1.1 2.7.1 5.4 0 8.2 0 .6 0 1.2 0 1.8.1 2.4.4 3.4 1.8 3 4.3-.2 1.1-.4 2.2-.8 3.2-.4 1.6-1.2 2.7-2.9 3.3zm-4.2-7.3h-2.3c-.5 0-.8.1-.9.6-.3 1.5-.7 3-1.1 4.5-.1.5 0 .6.5.6h3.2c3 0 4-1 4.3-4 .1-1.2-.4-1.6-1.4-1.7-.7-.1-1.5 0-2.3 0zM202.1 96.5c-1.5 0-2.8 0-4-.4-1.8-.6-2.7-1.7-2.6-3.5.2-4 1.3-7.9 3-11.5.8-1.6 2.2-2.6 4-3.1 2.7-.7 5.4-.7 8.1 0 2.1.5 3.2 2.2 2.9 4.3-.5 3.3-1.3 6.5-2.4 9.6-.9 2.6-2.9 3.9-5.6 4.3-1.3.2-2.4.3-3.4.3zm3.9-15.6c-.8.1-1.5.1-2.3.2-.9.1-1.8.5-2.1 1.4-1.1 2.8-1.8 5.8-2.2 8.8-.1.9.4 1.5 1.4 1.6 1.1.1 2.1.1 3.2 0 1.8-.1 2.9-1.1 3.3-2.7l1.5-5.7c.8-3 .3-3.6-2.8-3.6zm88 15.5c-1.1.1-2.2 0-3.3-.2-2.3-.5-3.5-1.9-3.3-4.3.4-3.5 1.3-6.9 2.6-10.2 1.1-2.8 3.5-3.9 6.3-4.2 1.8-.2 3.7-.1 5.5.2 2.7.5 3.9 2.2 3.4 5-.5 3-1.2 6-2.2 8.9-1.2 3.5-4 4.5-7.3 4.7-.6.2-1.1.1-1.7.1zm.8-3.3c1.4-.1 3.3.1 4.2-1.8 1.2-2.7 1.8-5.7 2.2-8.6.1-.9-.4-1.4-1.3-1.5-1.2-.2-2.5-.1-3.7 0-1.5.2-2.5.9-2.9 2.4l-1.5 6c-.7 2.9-.2 3.5 3 3.5zm65.5-15.4c2.8 0 2.8 0 3.1 2.9.5 4.9 1 9.9 1.5 14.8.1.8-.2 1-.9.9h-.2c-.9-.1-2 .4-2.7-.2-.6-.5-.4-1.6-.4-2.5 0-.6-.2-.8-.8-.8h-6.1c-.5 0-.8.1-1 .6 0 .1-.1.2-.2.3-1.6 2.8-1.6 2.8-4.7 2.5-.7 0-.8-.2-.4-.8 3.3-5.7 6.6-11.5 9.9-17.2.2-.4.5-.6.9-.6.7.1 1.4.1 2 .1zm-5.5 12.1h5.1c.3 0 .5-.1.5-.5-.2-2.5-.5-5-.7-7.5-.1 0-.2 0-.2-.1-1.6 2.6-3.1 5.2-4.7 8.1zm-112-12.1c2.8 0 2.8 0 3 2.9.5 4.9.9 9.8 1.5 14.7.1 1-.2 1.1-1 1h-.1c-.9-.1-2 .4-2.7-.2-.6-.5-.4-1.6-.4-2.5 0-.6-.3-.8-.8-.8h-6.1c-.5 0-.8.1-1 .6 0 .1-.1.2-.2.3-1.6 2.8-1.6 2.8-4.7 2.5-.7 0-.7-.2-.4-.8 3.3-5.7 6.6-11.5 9.9-17.2.2-.4.5-.6 1-.5h2zm-.7 4.1c-.1 0-.2-.1-.3-.1-1.5 2.6-3 5.3-4.6 8.1h5c.5 0 .6-.2.6-.6-.3-2.5-.5-5-.7-7.4zm-50.9-17.5c-2.7 0-2.8 0-2.1-2.7 1.8-7.4 3.6-14.9 5.3-22.3.2-.8.4-1.2 1.4-1.2 1.1.1 2.3.1 3.5 0 .8 0 1 .2.8 1-1.6 6.7-3.2 13.3-4.8 20-.3 1.4-.7 2.8-1 4.2-.1.8-.5 1.1-1.3 1h-1.8zm92.5 16.8H282c-.9.1-2.1-.5-2.5.3-.6 1.1-.7 2.4-.9 3.7-.1.6.5.4.8.4h6.1c.8 0 1 .2.8 1-.5 2.3-.5 2.3-2.9 2.3h-4.8c-.7 0-1 .2-1.1.9-.4 1.9-.9 3.9-1.4 5.8-.1.6-.3.8-.9.8-3.3.1-3.3.2-2.5-3 1.1-4.8 2.3-9.5 3.4-14.3.2-.9.5-1.3 1.6-1.3 3.4.1 6.8 0 10.2 0 .8 0 1 .1.8 1-.6 2.4-.6 2.4-3.1 2.4h-1.9zm-28.3 15.2h-5.3c-.7 0-1 0-.8-.9 1.4-5.7 2.7-11.3 4.1-17 .1-.3.1-.6.4-.6 1.1 0 2.2-.1 3.4 0 .5.1.2.6.1.9-1 4.3-2 8.5-3.1 12.8-.3 1-.1 1.3 1 1.3 2.1-.1 4.2 0 6.2 0 .7 0 .8.1.6.8-.6 2.7-.6 2.7-3.3 2.7h-3.3zm-68.8 0h-5.3c-.7 0-.9-.2-.7-.9 1.4-5.6 2.7-11.3 4.1-16.9.1-.6.4-.8 1.1-.8.7.1 1.4.1 2 0 1-.1 1 .3.8 1.1-1.1 4.3-2 8.5-3.1 12.8-.3 1 0 1.2.9 1.1h6.2c.7 0 .9.1.8.9-.6 2.7-.5 2.7-3.3 2.7h-3.5zm218.1 0c-2 0-2 0-1.6-2 1.2-5.2 2.5-10.3 3.7-15.5.2-.8.5-1.1 1.4-1.1 2.8.1 2.8 0 2.1 2.7-1.1 4.7-2.3 9.4-3.4 14.1-.3 1.8-.3 1.8-2.2 1.8zm23.6 24.5c.7-2.8 1.4-5.3 2-7.8.1-.3.1-.6.3-.9.2-.4.6-.3.9-.2.4.1.2.4.1.6-.8 3.2-1.7 6.4-2.5 9.6-.1.5-.4.5-.8.6-.6 0-.9-.2-1.1-.7l-2.7-6.9c-.2-.4-.2-.9-.6-1.2-.7 2.6-1.3 5.2-2 7.7-.1.3-.1.5-.2.8-.2.4-.6.3-.8.2-.4-.1-.2-.4-.1-.6.8-3.2 1.7-6.4 2.5-9.6.1-.4.4-.5.8-.6.6 0 .9.2 1.1.7.8 2.2 1.7 4.5 2.6 6.7 0 .5.2 1 .5 1.6zm-168.7-7c-.7 2.7-1.4 5.3-2 7.9-.1.5-.3 1-.9.8-.7-.2-.2-.7-.1-1 .7-2.9 1.5-5.9 2.3-8.8.1-.5.2-.9.9-.9.6 0 .9.3 1.1.8 1 2.7 2.1 5.3 3.2 8.2.7-2.7 1.4-5.2 2-7.7.1-.3.2-.5.2-.8.1-.5.5-.5.8-.4.6.1.3.4.2.7l-2.4 9.3c-.1.5-.2.8-.8.8-.6 0-.9-.2-1.1-.7-.9-2.4-1.8-4.7-2.7-7-.3-.5-.3-.9-.7-1.2zm109 .1c-.6 2.5-1.3 4.9-1.9 7.3-.1.4-.2.8-.3 1.1-.2.4-.5.3-.8.3-.3-.1-.2-.4-.2-.6.8-3.2 1.7-6.4 2.5-9.6.1-.5.4-.5.8-.5.5 0 .8.1 1 .6.8 2.2 1.7 4.5 2.6 6.7.2.4.4.9.5 1.3.4-.1.4-.4.4-.6l1.8-7.2c.1-.6.3-.9.9-.7.6.2.2.7.1 1-.7 2.9-1.5 5.9-2.3 8.8-.1.4-.1.9-.8 1-.7 0-1-.3-1.2-.9-.9-2.2-1.7-4.5-2.6-6.7 0-.5-.1-.9-.5-1.3zm-201.1 5.3c0-4.3 3.1-7.7 6.9-7.6 2.4.1 3.7 1.5 3.6 3.9-.2 3.9-2.9 7-6.3 7.2-2.6.2-4.1-1.1-4.2-3.5zm9.2-3.7c0-1.5-.6-2.5-1.8-2.7-1.7-.3-3.2.1-4.4 1.5-1 1.2-1.4 2.6-1.6 4.1-.2 2.6 1.3 3.8 3.8 3.2 2.3-.6 3.9-3.1 4-6.1zm186.7-.3c0 3.9-2.6 7.2-6.1 7.5-3 .3-4.6-1.3-4.3-4.3.4-3.6 2.6-6.2 5.7-6.7 2.9-.5 4.7.9 4.7 3.5zm-4.1-2.4c-1.6 0-2.8.7-3.7 1.9-.7 1-1 2-1.3 3.2-.6 3 1.1 4.5 4 3.6 1-.3 1.7-.8 2.3-1.6.9-1.3 1.4-2.7 1.5-4.2.2-2-.8-3-2.8-2.9zm-85.4-1c.8 0 1.6-.1 2.5.2 1.6.5 2.4 1.5 2.5 3.1.1 3.8-2.7 7.1-6.5 7.4-1.2.1-2.8.4-3.5-.2-.6-.5.3-2.1.6-3.2.5-2.1 1.1-4.1 1.5-6.1.2-1 .7-1.4 1.7-1.3.4.2.7.1 1.2.1zm-2.3 9.7c2.4 0 4.2-1 5.3-3.2 1.6-3.6.3-5.6-3.6-5.5-.7 0-1 .2-1.2.9-.5 2.1-1.1 4.2-1.6 6.3-.4 1.5-.4 1.5 1.1 1.5zm46.4 1.1c-2.2 0-2.2 0-1.7-2.1.7-2.6 1.4-5.2 2-7.8.2-.7.4-.9 1.1-.9 1.1.1 2.2 0 3.2.1 2.4.2 3.7 1.9 3.3 4.2-.5 4.3-3.2 6.5-7.9 6.5zm1-1.1c2.4 0 4.2-1 5.1-3.2 1.6-3.7.3-5.7-3.7-5.5-.6 0-.9.2-1 .9-.5 2.1-1.1 4.2-1.6 6.3-.5 1.5-.5 1.5 1.2 1.5zM187.7 117c1.9 0 1.9 0 1.4 1.9-.2.6-.4 1.2-.5 1.9-.1 1.4-1 1.9-2.2 1.9-1 .1-2.1.2-3.1.1-2-.3-3-1.5-3-3.5 0-4.9 4.6-8.5 9.3-7.2.3.1 1 0 .8.7-.2.6-.6.7-1.2.5-4-1.2-7.3 1.3-7.5 5.5-.1 1.7.6 2.7 2.4 3 .2 0 .5.1.7.1 2.3.1 3.3-.8 3.2-3.1-.1-1-1-.3-1.5-.5-.2-.1-.6.1-.6-.4 0-.4.1-.7.6-.8.3-.2.8-.1 1.2-.1zm253.3-.1c1.8 0 1.8 0 1.4 1.7-.2.7-.5 1.4-.5 2.1-.1 1.3-.9 1.8-2 1.8-1.1.1-2.2.3-3.3.1-1.9-.3-2.9-1.5-3-3.5 0-5 4.5-8.5 9.3-7.3.3.1 1 0 .8.7-.2.5-.5.7-1.2.5-4-1.2-7.3 1.2-7.6 5.4-.1 1.8.7 2.8 2.4 3.1.4.1.7.1 1.1.1 1.9 0 3.1-1.4 2.8-3.2-.1-.9-1-.2-1.5-.4-.2-.1-.6.1-.6-.3s.1-.7.6-.8h1.3zm-141-5h1.4c2.1.1 2.8 1.3 2.2 3.3-.4 1.1-1.1 1.9-2.1 2.3-.6.3-.7.6-.5 1.1.4 1 .7 2.1 1.1 3.2.1.3.5.7-.1.8-.4.1-1 .3-1.2-.4-.3-1.1-.8-2.1-1-3.2-.2-1.1-1-.8-1.6-.9-.8-.1-1 .3-1.2 1-.2 1-.5 1.9-.7 2.9-.1.5-.4.8-.9.6-.7-.2-.3-.6-.2-.9.7-2.8 1.5-5.5 2.1-8.3.3-1.1.7-1.7 1.9-1.5.2 0 .5-.1.8 0 0-.1 0 0 0 0zm-.1.9c-1-.3-1.4.3-1.6 1.4 0 .2-.1.4-.2.6-.7 2.5-.3 2.8 2.3 2.2.2-.1.5-.1.7-.2 1-.5 1.6-1.7 1.4-2.7-.2-1.2-1.3-1-2.1-1.2-.1-.1-.3-.1-.5-.1zm-55.7 9.6c2.3-3.5 4.5-6.8 6.7-10.2.3-.4.6-.5 1-.5.4.1.4.5.4.8.4 3.1.8 6.3 1.2 9.4 0 .3.1.7-.4.7-.4 0-.8.1-.9-.5-.1-.7-.2-1.3-.2-2 0-.8-.4-.8-1-.9-2.4-.4-4.3.3-5.2 2.7-.2.6-.7.9-1.6.5zm7.1-9.1c-1.1 1.7-2 3.1-3 4.8h2.9c.4 0 .6-.2.5-.6-.1-1.3-.2-2.6-.4-4.2zm52.5 9.2c1.9-2.9 3.8-5.8 5.6-8.6.4-.6.8-1.1 1.1-1.7.2-.4.6-.4.9-.4.4.1.4.4.4.7l1.2 9c0 .4.4 1-.5 1.1-.8.1-.7-.5-.8-.9-.5-2.5-.5-2.4-3-2.5-1.3-.1-2.1.3-2.7 1.5-.2.5-.6.9-.8 1.3-.1.6-.6.7-1.4.5zm7.2-9.2c-.9 1.5-1.8 2.7-2.6 4-.2.3-.6.7.1.7.8.1 1.7 0 2.5 0 .5 0 .4-.4.4-.7-.1-1.2-.3-2.5-.4-4zm74.4 9.2c2.3-3.5 4.5-6.9 6.7-10.2.2-.4.5-.6 1-.5.6.1.5.6.5.9.4 3 .8 6.1 1.2 9.1 0 .3.3.7-.3.8-.5 0-.9 0-.9-.7 0-.3-.1-.5-.1-.8-.2-2.3-.2-1.8-2.2-2-1.8-.2-3 .4-3.8 2.1-.7 1.5-.9 1.4-2.1 1.3zm7.2-9.2c-.9 1.5-1.7 2.7-2.6 4-.3.5-.3.8.4.8h2c.5 0 .7-.2.6-.7-.1-1.3-.2-2.6-.4-4.1zm-61.9 9.3c-.8-.1-2.1.4-2.6-.2-.4-.5.3-1.8.5-2.7.6-2.3 1.3-4.6 1.8-6.9.2-.8.5-.9 1.2-.9h4.1c.3 0 .8-.2.8.4 0 .5-.3.7-.8.7-1 0-2 .1-3 0-.8-.1-1.2.2-1.4 1.1-.6 2.5-.7 2.5 1.8 2.5h1.1c.3 0 .8-.3.8.4 0 .6-.4.7-.9.7h-2.8c-.7 0-1 .2-1.2.9-.8 3.1-.9 3.1 2.3 3.1h.8c.3 0 .7-.2.7.3 0 .4-.1.8-.7.8-.7-.2-1.5-.2-2.5-.2zm-132 .1c-.4-.1-1-.1-1.7-.3-.4-.1-.7-.2-.5-.7.1-.5.4-.6.9-.4 1.2.4 2.3.6 3.5.2 1-.3 1.6-.9 1.7-2 .1-1-.7-1.3-1.4-1.7-.4-.2-.7-.3-1.1-.5-1.7-.9-2.1-2.6-.9-4.2 1.2-1.5 4.2-2.1 5.8-1.2.2.1.5.2.3.5s-.3.8-.9.6c-.8-.3-1.6-.4-2.5-.4-.8.1-1.5.4-2 1.2-.5 1-.3 1.7.6 2.2.7.4 1.5.6 2.2 1 1 .6 1.3 1.4 1 2.5-.5 2.2-2.2 3.3-5 3.2zm34.4.1c-.4-.1-1.1-.2-1.8-.3-.4-.1-.6-.4-.5-.8.1-.5.4-.5.8-.4 1.1.3 2.2.5 3.4.2 1-.3 1.7-.9 1.8-2 .1-1.1-.7-1.4-1.5-1.8-.3-.1-.5-.2-.8-.3-2.3-1-2.5-3.4-.5-4.9 1.5-1.1 3.3-1.1 5-.6.2.1.6.2.4.5-.2.3-.3.8-.8.6-.8-.3-1.7-.5-2.6-.3-1 .2-1.8.6-2 1.7-.2 1.1.5 1.6 1.4 1.9.3.1.7.3 1 .4 2 1 2.3 2.7.8 4.3-.9 1.4-2.3 1.7-4.1 1.8zm146.3 0c-.3 0-1-.1-1.6-.2-.5-.1-.8-.3-.7-.9.2-.6.5-.4.9-.3 1.1.3 2.3.5 3.4.1 1-.3 1.6-.9 1.7-1.9.1-1-.7-1.3-1.4-1.7-.3-.1-.6-.3-.9-.4-2.3-1.1-2.5-3.4-.5-4.9 1.5-1.1 3.2-1.1 4.9-.6.3.1.7.1.5.6-.2.3-.3.8-.9.5-.7-.3-1.5-.4-2.3-.3-.7.1-1.3.3-1.8.8-.8.9-.6 2 .4 2.6.7.4 1.4.6 2 1 1.1.6 1.4 1.5 1 2.7-.4 1.8-2 2.8-4.7 2.9zm-29.9-1.4c.1.7-.3 1.1-.9 1.2-.1 0-.2 0-.4.1-4.7.7-6.7-1.7-5-6.2 1.3-3.6 4.8-5.5 8.2-4.5.3.1.9 0 .8.6-.1.5-.5.8-1.2.6-1.8-.7-3.6-.4-5 1.1-1.6 1.6-2.2 3.5-1.8 5.7.2 1.2 1.3 1.9 2.8 1.8.8-.2 1.6-.3 2.5-.4zm-120.7-9.7c.3 0 .9.1 1.5.3.2.1.9 0 .6.6-.2.3-.3.9-1 .6-.9-.4-1.9-.5-2.8-.3-2.8.6-5 4.3-4.2 7 .3 1.2 1.3 1.8 2.8 1.8.6 0 1.3-.2 1.9-.2.2 0 .6-.3.7.2 0 .3 0 .6-.3.7-1.7.5-3.5.8-5.1-.2-1.4-.8-1.5-2.2-1.3-3.7.5-4.2 3.2-6.9 7.2-6.8zm62.2.1h3.2c.3 0 .7-.1.6.4 0 .4-.2.6-.6.6-.7 0-1.4.1-2 0-.7-.1-1 .3-1.2 1-.6 2.6-1.3 5.2-2 7.8-.1.3-.1.6-.2.8-.2.3-.6.2-.9.2-.5-.1-.2-.6-.1-.8.6-2.6 1.3-5.1 2-7.6.3-1 .1-1.4-.9-1.2h-1.3c-.3 0-.8.1-.7-.5 0-.4.3-.6.7-.6 1.1-.1 2.3-.1 3.4-.1zm120.5 0h3.1c.3 0 .7-.2.7.3s-.2.7-.7.7h-1.7c-.9-.1-1.3.2-1.5 1.1-.6 2.6-1.3 5.2-2 7.8-.1.3 0 .6-.3.7-.2.1-.6.1-.8.1-.5-.1-.2-.5-.1-.7.7-2.6 1.3-5.2 2-7.8.3-1 0-1.3-1-1.2H408c-.3 0-.8.2-.8-.4 0-.6.4-.7.9-.7 1.2.1 2.3.1 3.4.1zm-195.8.4c-.1.2-.1.5-.4.6h-.5c-.9.1-2-.4-2.6.3-.5.6-.6 1.7-.8 2.6-.5 2-1.1 3.9-1.6 5.9-.2.6-.4 1.1-1.1.9-.7-.2-.2-.8-.1-1.1.6-2.5 1.3-5 2-7.5.2-.8.1-1.1-.8-1.1h-1.6c-.3 0-.7.1-.7-.4 0-.4.2-.6.7-.6h7c.3 0 .5 0 .5.4zm184.8 10.4h-.7c-2.4 0-2.4 0-1.8-2.2.7-2.6 1.4-5.2 2-7.8.2-.7.5-.9 1.1-.7.6.2.2.7.1 1-.6 2.5-1.2 5-1.9 7.4-.3.9-.2 1.3.9 1.2.9-.1 1.8 0 2.8 0 .3 0 .7-.2.7.4 0 .4-.1.8-.7.8-.9-.1-1.7-.1-2.5-.1zm-239.2 0c-.8-.1-2.1.5-2.6-.2-.4-.5.3-1.8.5-2.7l1.8-6.9c.1-.3.1-.6.3-.8.2-.2.6-.2.9 0 .3.1.1.4 0 .6-.7 2.7-1.4 5.3-2.1 8-.2.7-.1 1 .7 1 1-.1 1.9 0 2.9 0 .3 0 .8-.2.8.4 0 .5-.3.8-.9.7-.6-.1-1.4-.1-2.3-.1zm34.4-10.5c-.4 1.4-.7 2.7-1.1 4.1l-1.5 5.7c-.1.6-.5.8-1 .7-.7-.2-.2-.7-.1-.9.8-3.1 1.6-6.1 2.4-9.1.1-.6.4-.7.9-.7.3 0 .5 0 .4.2zm23.8.4c-.8 3.2-1.7 6.4-2.5 9.6-.1.6-.5.6-.9.5-.5-.1-.3-.5-.3-.8.8-3.1 1.6-6.2 2.4-9.4.1-.6.5-.7 1-.6.5.1.4.4.3.7zm199.7.1c-.2.8-.5 1.9-.8 3.1-.5 2-1.1 4.1-1.6 6.1-.1.5-.4.9-1 .7-.6-.2-.3-.6-.2-1 .8-3 1.6-6 2.3-9 .1-.5.3-.8.9-.7.4.1.5.2.4.8z"/><path class="st0" d="M145.6 74.1c0 39.3-31.9 71.3-71.1 71.3-39.5 0-71.4-31.8-71.4-71.2C3.1 34.9 35 2.9 74.3 2.9c39.4 0 71.3 31.9 71.3 71.2zM27.8 46.8h-6.7c-.3 0-.6 0-.7.5-.6 2.3-1.2 4.6-1.8 7-.2.6 0 .7.6.7 2.2 0 4.4 0 6.6.1 1 0 1.4.5 1.1 1.4l-1.5 5.7c-.2.8-.6 1.1-1.4 1h-4.8c-1 0-2.3-.3-3 .2-.8.5-.7 2-1 3-.1.2-.1.4-.2.6-.1.8-.6 1-1.3 1h-3.2c-2.3 0-2.3 0-2.9 2.3-.2.7-.1 1 .7 1 1.5 0 3 .1 4.4 0 1.1 0 1.2.5 1 1.3-.2.8-.4 1.6-.6 2.3-.4 1-.3 1.7 1.1 1.5.3-.1.8-.1.8.4.1 1.2-.7 2.2-1.9 2.2h-.6c-1 .1-1.4-.2-1-1.2.3-.7 0-.8-.6-.8h-3c-.6 0-.7.2-.7.8.3 4.4.9 8.7 2 12.9.6 2.4 1.3 4.8 2.3 7.2.6-1.4.6-1.4 1.9-1.4 2 0 3.9.1 5.9.1.6 0 .9-.1 1.1-.8.4-1.6.9-3.2 1.3-4.8.2-.7.1-1-.7-1-1.3.1-2.6 0-4 .1-.8 0-1.1-.3-.8-1.1.4-1.3.7-2.5 1-3.8.2-.6.5-.9 1.2-.9 1.2.1 2.4 0 3.6.1 1.3.2 1.8-.3 2.1-1.6.4-1.8.5-1.7-1.4-1.7-2.1 0-2.1 0-1.5-2 .3-1 0-1.3-.9-1.1-.6.1-.9-.1-.7-.8.4-1.6.5-1.7 2.5-1.6.6.1.8.3.6.8-.5 1.1.2 1.1.9 1.1h1c1.5 0 1.5 0 1.2 1.5-.5 1.8-.5 1.8 1.4 1.8h.2c3 .1 3 0 2.3 3-.3 1.3-.8 1.8-2.2 1.7-3.3-.1-3.2 0-4.1 3.1-.2.9-.1 1.1.8 1.1h6.2c1.3 0 1.6.4 1.3 1.7-.4 1.5-.8 3.1-1.2 4.6-.2.6-.1.9.6.8h2.8c.7.1 1-.2 1.1-.9.3-1.2.7-2.5 1-3.7.2-.9.6-1.3 1.6-1.3 1.4.1 2.7.1 4.1.1 2.5 0 2.5 0 1.9 2.4-.4 1.3-.2 2.9-1.2 3.7-1 .8-2.6.3-4 .3-3.1.1-3.1 0-3.8 3.1-.2.7-.1 1 .7 1 2.3 0 4.6.1 7 .1 1.3 0 1.6.4 1.2 1.6-.4 1.7-.9 3.3-1.3 5-.2 1.1-.8 1.6-2 1.6-2.4-.1-4.8 0-7.2 0-.7 0-.9.4-.9.9-.1.8.6.5.9.5 1.2.1 2.3.1 3.5 0 .8 0 1 .3.8 1.1-.3 1-.6 2.1-.8 3.1-.1.7-.5.9-1.2.9h-3.5c-.7 0-1 .2-1.2.8-.5 2-.6 2 1.5 2.1h.4c.7 0 .8.3.7.9-.5 2.4-.5 2.5-2.9 2.5h-.5c-.4 0-.7 0-.8.5-.1.4 0 .8.4.9 1.1.4 1.5 1.4 2.4 2.1 15.8 12.5 33.7 17.5 53.6 14.2 20.3-3.4 35.9-14.2 46.6-31.8 7.5-12.2 10.4-25.7 9.3-40-.5-6-1.7-11.8-3.8-17.4-.2-.5-.3-.9-1-.9-.8 0-.7.6-.9 1 0 .1 0 .2-.1.4-.5 1.9-.5 1.9-2.5 1.9h-.5c-2.4 0-2.5 0-2-2.4.1-.6 0-.8-.6-.8h-4.6c-.4 0-.8.1-.9.6-.9 3.4-1.7 6.9-2.6 10.4h2.5c.8 0 1.1.3.9 1.1-.3.9-.5 1.8-.7 2.7-.2.8-.6 1.1-1.4 1.1h-2.9c-.6 0-.9.2-1.1.8-.3 1.5-.8 2.9-1.1 4.4-.2 1-.8 1.4-1.8 1.4h-6.1c-1.2 0-1.4-.4-1.2-1.5.3-1.4.8-2.8 1.1-4.2.3-1.2 1-1.7 2.2-1.7h5.3c.8 0 1.5-.9 1.4-1.9-.1-.8-.8-.4-1.2-.4h-13.2c-1.6 0-2.5-.8-2.1-2.3 1-4.2 2-8.4 3.3-12.6-2 0-4.1.1-6.2 0-1.3-.1-1.8.2-2.1 1.6-.6 2.9-1.4 5.7-2.2 8.6h2.9c.8 0 1 .2.8 1-.2.7-.4 1.5-.6 2.2-.1.5-.5.8-1 .8h-3.4c-.5 0-.8-.3-.6-.9.2-.8.4-1.5.6-2.3H82.3c-1.6 0-2.1-.6-1.7-2.2l1.8-7.2c.1-.2.4-.7-.2-.7-1.5 0-3.1-.3-4.5.1-.7.2-.6 1.8-.9 2.7v.1c-.2.8-.6 1.1-1.5 1.1H71c-.9 0-1.1-.4-.9-1.1.3-1 .5-2.1.8-3.1.2-.7.6-1.1 1.4-1.1h2.9c.9.1 1.3-.2 1.4-1.1.2-1.1.5-2.1.8-3.1.2-.8.7-1.3 1.5-1.3h5.9c.8 0 1.1.4.9 1.2-.2.9-.4 1.9-.7 2.8-.2.7 0 .9.7.9h10c.6 0 .9-.2 1-.8l.9-3.6c.2-.8.7-1.8.4-2.3-.4-.7-1.5-.3-2.3-.3-.9 0-1.1-.4-.9-1.2 1-3.4.2-2.8 3.5-2.8 2.2 0 2.2 0 1.7 2.1-.2.9 0 1 .8 1h7c1.3 0 1.6.4 1.3 1.7-.1.3-.2.7-.3 1-.4 1.7-.9 3.4-1.3 5.2h12.8c3.2 0 3.2 0 3.8-3.1v-.2h-1.6c-.3 0-.6.1-.7-.3-.3-.9.6-2.3 1.6-2.3h1.3c.6 0 .8.2.6.8-.3.7 0 .9.7.9h6.1c1.1 0 1.4.4 1.1 1.4l-.6 2.4c-.7 2.8-.7 2.8 2.3 2.6.3 0 .6 0 .7-.3.2-.8.6-1.5.2-2.4-12.3-27.4-41-43.6-71.2-39.2-15.7 2.6-28.8 9.7-39.6 21.2-.9.9-1.7 1.9-2.5 2.9 2.2.3 2.3.4 1.8 2.5l-1.2 4.5c-.2.7-.2 1 .7 1H29c.6 0 .8-.2 1-.8.4-1.6.9-3.2 1.3-4.9.2-1 .7-1.4 1.8-1.3 2.4.1 4.7.1 7.1.2 1.2 0 1.5.4 1.2 1.6-.4 1.6-.8 3.2-1.3 4.9-.2.6 0 .9.6.8h3.2c.7 0 1 .3.8 1.1-.3 1-.5 1.9-.8 2.9-.1.5-.4.8-.9.7h-4.2c-.7 0-.9-.3-.7-.9.2-.8.4-1.5.6-2.3.2-.6 0-.7-.5-.7h-7.3c-.5 0-.7.2-.8.7-.4 1.6-.8 3.2-1.3 4.9h1.8c2.5 0 2.5 0 1.9 2.4-.5 1-.2 1.1.5 1.1 2.2 0 4.3.1 6.5.1 1.1 0 1.4.4 1.1 1.5-.5 1.8-1 3.6-1.4 5.4-.2.9-.7 1.2-1.6 1.2h-7.3c-1.2 0-1.5-.4-1.1-1.6.5-1.7.9-3.5 1.4-5.2.2-.6.1-.9-.6-.8h-2.2c-.7 0-1.1-.1-.8-1 .4-.8.6-1.7.8-2.8zm-9.4 64.5c1.6 2.4 3.2 4.5 4.9 6.5.4.4.7 1.3 1.3 1.2.6-.1.5-1 .6-1.6.8-2.5.2-2 2.6-2s2.4 0 3-2.3c.4-1.4.4-1.4-1.1-1.4-.3 0-.9.2-1-.4-.2-1.1.8-2.2 1.9-2.1.9.1 1.2-.3 1.4-1 .4-1.8.9-3.6 1.5-5.4.2-.6.1-.8-.6-.7h-4.1c-.7 0-1-.2-.7-.9.3-.8.4-1.6.7-2.4.2-.6 0-.8-.6-.8h-7.1c-.5 0-.7.1-.8.6l-.9 3.6c-.2.7 0 .9.7.9 2.3 0 4.6.1 6.9.1 1.2 0 1.5.4 1.2 1.5-.4 1.7-1 3.5-1.3 5.2-.2 1.1-.8 1.4-1.8 1.4h-6.7zM7.9 67.4c.4-1.4.8-2.9 1.2-4.3.2-.7.5-1 1.3-.9 1.4.1 2.8 0 4.2.1.6 0 .8-.2 1-.7.4-1.7.9-3.4 1.4-5.1.2-.6.1-.9-.6-.8-1.9 0-3.8.1-5.7.1-.5 0-.8.1-.9.6-1.1 3.4-1.9 7.1-1.9 11zm8.8-21.5c.8.1 1.7 0 2.5.1.5 0 .7-.1.8-.6.4-1.6.9-3.1 1.3-4.7.1-.2.2-.6-.2-.7h-4.3c-.1 0-.3.2-.4.4-.9 1.6-1.7 3.2-2.6 4.8-.3.6 0 .7.5.7.8-.1 1.6 0 2.4 0zm1.7 58.1h-4.3c.9 1.8 1.7 3.4 2.9 5.1.5-1.8 1-3.5 1.4-5.1zm6.7 15.8c.8.8 1.3 1.4 1.9 2 .5.5 1.2.5 1.5.2.4-.5.6-1.3.5-2 0-.1-.3-.2-.4-.2h-3.5zm182.8-60.4h-2.4c-1.5 0-1.5 0-1.2-1.4 1.1-4.7 2.3-9.3 3.3-14 .2-.8.5-1.1 1.4-1.1 1.9.1 3.8 0 5.6 0 .6 0 1.3.1 1.9.2 1.4.3 2 .9 1.9 2.3-.5 3.8-1.2 7.7-2.8 11.2-.9 2-2.8 2.6-4.9 2.7-.9.2-1.9.1-2.8.1zm51-16.3c1.1.1 2.4-.1 3.7.1 1.3.2 1.7.7 1.5 2.1v.2c-.7 4.7-1.7 5.5-6.5 5.5h-4.1c-.7 0-.8-.2-.6-.8.6-2.1 1-4.3 1.5-6.4.1-.6.4-.8 1-.8 1.1.1 2.2.1 3.5.1zm46 0c1.1.1 2.5-.1 3.9.1 1.2.2 1.6.7 1.4 1.9v.2c-.7 4.9-1.7 5.7-6.6 5.7h-4.1c-.5 0-.7-.1-.6-.7.6-2.2 1.1-4.4 1.6-6.6.1-.5.4-.7.9-.7 1.1.1 2.2.1 3.5.1zm20 11.9c2.3-3.9 4.4-7.7 6.7-11.6.3 2.9.5 5.6.8 8.3v.6c0 .9.6 2.1 0 2.6-.5.4-1.7.2-2.5.2-1.6 0-3.2-.1-5-.1zM221.7 88.3h2.4c1.2.1 1.6.5 1.3 1.7-.4 2.2-1.1 2.8-3.3 2.9h-3.6c-.9 0-1-.3-.8-1.1.1-.2.1-.4.2-.6.7-2.9.7-2.9 3.8-2.9zm1.7-7.2h2.5c.4 0 .8.1.9.6.5 1.4-.7 3.4-2.2 3.5-1.6.1-3.1.1-4.7.1-.5 0-.7-.1-.5-.6.1-.2.1-.5.2-.7.8-3 .8-3 3.8-2.9zM389 92.8c.9-3.8 1.8-7.5 2.7-11.2.1-.5.4-.5.8-.5h4.8c1.7.1 2.3.8 2.1 2.5-.4 2.3-.9 4.5-1.7 6.7-.5 1.5-1.6 2.4-3.2 2.5-1.8.1-3.6 0-5.5 0zm-16-5.9c.4-1.8.8-3.4 1.2-5.1.1-.5.4-.6.8-.6h4.7c1.3.1 1.6.5 1.4 1.8-.3 3.1-1.3 3.9-4.4 3.9H373zm-58.3-5.7h2.4c1.1 0 1.6.5 1.4 1.7-.3 3.1-1.3 4-4.3 4H311c-.5 0-.6-.1-.5-.6.4-1.5.7-3 1.1-4.5.1-.5.4-.6.9-.6h2.2zM206 80.9c3.1 0 3.6.6 2.9 3.7l-1.5 5.7c-.5 1.7-1.5 2.6-3.3 2.7-1.1.1-2.1.1-3.2 0-1-.1-1.5-.7-1.4-1.6.4-3 1.1-6 2.2-8.8.3-.9 1.2-1.3 2.1-1.4.7-.2 1.5-.2 2.2-.3zm88.8 12.2c-3.3 0-3.7-.5-3-3.6l1.5-6c.4-1.5 1.4-2.2 2.9-2.4 1.2-.1 2.5-.2 3.7 0 .9.2 1.4.6 1.3 1.5-.4 3-1 5.9-2.2 8.6-.8 2-2.7 1.7-4.2 1.9zm60-3.3c1.6-2.8 3.1-5.4 4.6-8.1.1 0 .2 0 .2.1.2 2.5.5 5 .7 7.5 0 .4-.2.5-.5.5h-5zm-112.7-8c.2 2.4.4 4.9.7 7.3 0 .5-.1.6-.6.6h-5c1.6-2.8 3.1-5.4 4.6-8.1.1.1.2.2.3.2zm-65.4 33.7c-.1 3-1.7 5.4-4 6-2.5.6-4-.6-3.8-3.2.1-1.5.6-2.9 1.6-4.1 1.2-1.4 2.7-1.8 4.4-1.5 1.2.3 1.8 1.3 1.8 2.8zm182.6-2.7c2 0 3 1 2.8 2.9-.1 1.5-.6 3-1.5 4.2-.6.8-1.3 1.4-2.3 1.6-2.9.8-4.5-.7-4-3.6.2-1.2.6-2.2 1.3-3.2 1-1.3 2.2-2 3.7-1.9zm-87.7 8.7c-1.6 0-1.6 0-1.2-1.6.6-2.1 1.1-4.2 1.6-6.3.2-.7.5-.9 1.2-.9 4-.1 5.3 1.9 3.6 5.5-.9 2.3-2.7 3.4-5.2 3.3zm47.4 0c-1.7 0-1.7 0-1.3-1.6.6-2.1 1.1-4.2 1.6-6.3.1-.6.4-.8 1-.9 4-.2 5.4 1.8 3.7 5.5-.9 2.3-2.6 3.3-5 3.3zm-19.1-8.7h.5c.8.2 1.9 0 2.1 1.2.2 1-.4 2.2-1.4 2.7-.2.1-.4.2-.7.2-2.6.6-2.9.3-2.3-2.2.1-.2.1-.4.2-.6.1-.9.6-1.6 1.6-1.3zm-48.6.5c.2 1.6.3 2.9.5 4.2 0 .4-.1.6-.5.6h-2.9c.9-1.7 1.8-3.1 2.9-4.8zm59.7 0c.2 1.5.3 2.8.4 4.1 0 .3.1.7-.4.7-.8 0-1.7.1-2.5 0-.7-.1-.3-.5-.1-.7.8-1.4 1.6-2.6 2.6-4.1zm81.6 0c.2 1.5.3 2.8.5 4 .1.5-.1.7-.6.7h-2c-.7 0-.7-.3-.4-.8.7-1.1 1.6-2.4 2.5-3.9z"/><path class="st2" d="M27.8 46.8c-.3 1.1-.5 2-.8 2.9-.3.8 0 1 .8 1H30c.7 0 .8.2.6.8-.5 1.7-1 3.5-1.4 5.2-.3 1.2-.1 1.6 1.1 1.6h7.3c.9 0 1.4-.3 1.6-1.2.4-1.8 1-3.6 1.4-5.4.3-1.1 0-1.5-1.1-1.5-2.1-.1-4.3-.2-6.5-.2-.7 0-1-.1-.8-.9.6-2.4.6-2.4-1.9-2.4h-1.8c.5-1.7.9-3.3 1.3-4.9.1-.4.3-.7.8-.7h7.3c.5 0 .7.1.5.7-.2.8-.4 1.5-.6 2.3-.2.6 0 .9.7.9h4.2c.5 0 .8-.2.9-.7.2-1 .5-1.9.8-2.9.2-.8 0-1.1-.8-1.1-1.1 0-2.2-.1-3.2 0-.7 0-.8-.2-.6-.8.5-1.6.9-3.2 1.3-4.9.3-1.2 0-1.5-1.2-1.6-2.4-.1-4.7-.1-7.1-.2-1 0-1.5.3-1.8 1.3-.4 1.6-.9 3.2-1.3 4.9-.1.6-.4.8-1 .8-1.7 0-3.4-.1-5.2 0-.9 0-.9-.3-.7-1 .5-1.5.8-3 1.2-4.5.5-2.1.5-2.2-1.8-2.5.9-1 1.7-2 2.5-2.9C35.5 17.4 48.7 10.3 64.3 8c30.2-4.4 58.9 11.8 71.2 39.2.4.9 0 1.6-.2 2.4-.1.4-.4.3-.7.3-3 .3-3 .3-2.3-2.6l.6-2.4c.2-1 0-1.4-1.1-1.4h-6.1c-.7 0-1-.1-.7-.9.2-.6 0-.8-.6-.8h-1.3c-.9 0-1.9 1.4-1.6 2.3.1.4.4.3.7.3h1.6v.2c-.6 3.1-.6 3.1-3.8 3.1h-12.8c.4-1.8.9-3.5 1.3-5.2.1-.3.2-.7.3-1 .3-1.2 0-1.6-1.3-1.7h-7c-.8 0-1-.1-.8-1 .6-2.1.5-2.2-1.7-2.1-3.3 0-2.6-.5-3.5 2.8-.2.8-.1 1.2.9 1.2.8 0 1.9-.4 2.3.3.3.5-.3 1.5-.4 2.3l-.9 3.6c-.1.6-.4.8-1 .8h-10c-.7 0-.9-.3-.7-.9.3-.9.5-1.9.7-2.8.2-.8-.1-1.2-.9-1.2h-5.9c-.8 0-1.3.5-1.5 1.3-.3 1-.6 2.1-.8 3.1-.1.9-.6 1.1-1.4 1.1-1-.1-1.9 0-2.9 0-.8 0-1.2.4-1.4 1.1-.3 1-.5 2.1-.8 3.1-.2.7 0 1.1.9 1.1H75c.8 0 1.3-.4 1.5-1.1v-.1c.3-.9.2-2.5.9-2.7 1.4-.4 3-.2 4.5-.1.6 0 .2.5.2.7l-1.8 7.2c-.4 1.6.1 2.2 1.7 2.2h11.6c-.2.8-.3 1.6-.6 2.3-.2.6.1.8.6.9H97c.6 0 .9-.3 1-.8.2-.7.4-1.5.6-2.2.2-.7-.1-1-.8-1h-2.9c.8-2.9 1.6-5.7 2.2-8.6.3-1.4.8-1.7 2.1-1.6 2.1.1 4.1 0 6.2 0-1.4 4.2-2.3 8.4-3.3 12.6-.4 1.4.5 2.3 2.1 2.3h13.2c.4 0 1.1-.4 1.2.4.1 1-.6 1.9-1.4 1.9h-5.3c-1.2 0-1.9.4-2.2 1.7-.3 1.4-.7 2.8-1.1 4.2-.3 1.1 0 1.5 1.2 1.5h6.1c1 0 1.6-.5 1.8-1.4.4-1.5.8-2.9 1.1-4.4.1-.6.4-.8 1.1-.8h2.9c.8 0 1.3-.3 1.4-1.1.2-.9.4-1.8.7-2.7.2-.8-.1-1.1-.9-1.1h-2.5c.9-3.5 1.8-6.9 2.6-10.4.1-.5.4-.6.9-.6h4.6c.6 0 .7.1.6.8-.5 2.4-.5 2.4 2 2.4h.5c2 0 2 0 2.5-1.9 0-.1 0-.2.1-.4.2-.4.1-1 .9-1 .7 0 .8.5 1 .9 2 5.6 3.3 11.4 3.8 17.4 1.1 14.3-1.8 27.7-9.3 40-10.7 17.5-26.3 28.4-46.6 31.8-19.9 3.3-37.8-1.7-53.6-14.2-.8-.7-1.3-1.7-2.4-2.1-.3-.1-.5-.5-.4-.9.1-.5.4-.5.8-.5h.5c2.4 0 2.4 0 2.9-2.5.1-.6 0-.9-.7-.9h-.4c-2.1-.1-2.1 0-1.5-2.1.2-.7.5-.9 1.2-.8 1.2.1 2.3 0 3.5 0 .7 0 1-.2 1.2-.9.2-1.1.5-2.1.8-3.1.2-.7-.1-1.1-.8-1.1h-3.5c-.3 0-1 .3-.9-.5.1-.6.2-.9.9-.9h7.2c1.2 0 1.7-.4 2-1.6.4-1.7.9-3.3 1.3-5 .3-1.2 0-1.6-1.2-1.6-2.3-.1-4.6-.1-7-.1-.8 0-.9-.3-.7-1 .7-3 .7-3 3.8-3.1 1.3 0 2.9.5 4-.3 1-.8.8-2.4 1.2-3.7.7-2.3.6-2.4-1.9-2.4-1.4 0-2.7 0-4.1-.1-1-.1-1.4.4-1.6 1.3-.3 1.2-.7 2.5-1 3.7-.1.7-.4 1-1.1.9-.9-.1-1.8-.1-2.8 0-.7 0-.8-.2-.6-.8.4-1.5.8-3.1 1.2-4.6.3-1.3 0-1.7-1.3-1.7-2.1 0-4.2-.1-6.2 0-.9 0-1-.2-.8-1.1.8-3.1.8-3.2 4.1-3.1 1.4 0 1.9-.4 2.2-1.7.7-2.9.7-2.9-2.3-3h-.2c-1.9 0-1.9 0-1.4-1.8.4-1.4.4-1.4-1.2-1.5h-1c-.8 0-1.4 0-.9-1.1.2-.5 0-.8-.6-.8-2-.2-2.1-.1-2.5 1.6-.2.7.1.9.7.8.9-.1 1.3.1.9 1.1-.6 2-.6 2 1.5 2 1.8 0 1.8 0 1.4 1.7-.3 1.2-.7 1.8-2.1 1.6-1.2-.2-2.4-.1-3.6-.1-.7 0-1 .3-1.2.9-.3 1.3-.7 2.6-1 3.8-.2.8 0 1.1.8 1.1 1.3 0 2.6 0 4-.1.8 0 .9.3.7 1-.5 1.6-.9 3.2-1.3 4.8-.2.7-.5.8-1.1.8-2-.1-3.9-.1-5.9-.1-1.4 0-1.4 0-1.9 1.4-1-2.4-1.7-4.8-2.3-7.2-1.1-4.2-1.7-8.5-2-12.9.4-1.1.5-1.3 1.1-1.3h3c.6 0 .9.1.6.8-.4 1 0 1.3 1 1.2h.6c1.2 0 2.1-1 1.9-2.2-.1-.6-.5-.5-.8-.4-1.4.2-1.4-.4-1.1-1.5.3-.7.4-1.5.6-2.3.2-.9.1-1.4-1-1.3-1.5 0-3-.1-4.4 0-.8 0-.9-.3-.7-1 .5-2.3.5-2.3 2.9-2.3h3.2c.8 0 1.2-.2 1.3-1 0-.2.1-.4.2-.6.3-1 .2-2.4 1-3 .7-.5 2-.2 3-.2h4.8c.8 0 1.2-.3 1.4-1l1.5-5.7c.2-1-.1-1.4-1.1-1.4-2.2 0-4.4-.1-6.6-.1-.6 0-.8-.1-.6-.7.6-2.3 1.2-4.6 1.8-7 .1-.4.4-.5.7-.5h6.6zm56.7 31.4c.6-2.1 1.1-4 1.6-5.9.3-1.1 0-1.5-1.1-1.5-2.2-.1-4.5-.1-6.7-.2-1 0-1.4.4-1.7 1.3-.4 1.8-1 3.5-1.4 5.3-.2.9-.9.6-1.4.5-.6-.1-.2-.6-.1-.8.1-.6.3-1.2.4-1.7.1-.4 0-.7-.5-.7-1.3 0-2.8-.4-3.9.1-.8.4-.6 1.8-1 2.7-.3.8.1 1 .8 1H72c.6 0 .8.2.6.8-.1.3-.4.7 0 1 .6.5 2.5-.1 2.7-.8.1-.4.3-.7.8-.7h7.2c-.5 1.7-.9 3.3-1.3 4.9-.2.7-.5.8-1.2.8-2.6-.1-5.3-.1-7.9-.2-1.1 0-1.6.3-1.9 1.4-.5 2.1-1.1 4.2-1.7 6.2-.4 1.4-.1 1.7 1.3 1.7H78c.9 0 1 .3.8 1-.4 1.5-.8 2.9-1.2 4.4-.5 1.7-.4 1.8 1.5 1.8h6c.3 0 .9-.2.7.4-.2.8-.3 1.6-.7 2.3-.3.5-1 .1-1.6.2h-.4c-.5.1-1.2 1.9-.9 2.1.6.4 1.4.1 2.1.1.5 0 .6-.4.6-.7.1-.9.6-1.1 1.4-1 .4.1.8 0 1.2 0 1.9 0 1.9 0 1.4 1.8-.8 2.7-.8 2.7-3.5 2.7-2.3 0-2.3 0-2.9 2.2-.6 2.2-.6 2.2 1.7 2.2 1 0 2.3.4 3.1-.2.8-.6.7-1.9 1-2.9.2-.6.4-.8 1.1-.8H94c.7 0 1-.2 1.2-.9.3-1.1.6-2.2.9-3.4.2-.8 0-1.1-.9-1.1h-3.4c-1.9-.1-1.8 0-1.4-1.9.2-1 .7-1.4 1.7-1.3 1.3.1 2.6 0 4 0 .6 0 1-.1 1.2-.8l.9-3.6c.2-.7-.1-1-.8-1h-2.6c-2.9 0-2.9 0-3.7 2.7-.7 2.5-.7 2.4-3.2 2.3-.7 0-.8-.2-.6-.9.5-1.6.9-3.2 1.3-4.9.3-1.1 0-1.5-1.2-1.5-2 0-3.9-.1-5.9-.1-.8 0-1-.2-.8-1 .6-2 1.1-4.1 1.6-6.1.1-.6.5-.6.9-.6h4.2c1.9 0 1.9 0 1.4 1.8-.5 1.9-.5 1.9 1.5 1.9 3 0 2.9 0 3.6-2.9.2-.8-.1-.9-.7-.9h-3.1c.4-1.7.8-3.1 1.2-4.6.1-.5.4-.8 1-.8h6.5c.8 0 .9.2.7 1-.8 2.8-.7 2.8 2.2 2.8 1.6 0 1.6.1 1.1 1.6-.2.5-.4.6-.9.6h-2.4c-2.2 0-1.9-.5-2.5 1.9-.8 2.8-.8 2.8 2.2 2.8 2.9 0 2.9 0 3.6-2.8.2-.9.6-1.1 1.6-1.1 2.4.1 2.4 0 3-2.3 0-.1 0-.2.1-.2.2-.6 0-.8-.6-.9-.7-.1-1.8.3-2.1-.3-.3-.6.3-1.5.4-2.3 0-.1 0-.2.1-.2.2-.8 0-1.2-.9-1.2h-3.7c.5-1.9 1-3.6 1.4-5.3.3-1.2 0-1.6-1.3-1.6-2.2 0-4.5 0-6.7-.1-.9 0-1.3.3-1.5 1.2-.4 1.5-.8 3.1-1.2 4.6-.1.5-.2.8-.8.8-2.1-.2-4.1-.2-6.1-.2zM60.5 31h2.8c.6 0 .7.2.6.7-.1.3-.1.5-.2.8-.3.7-.1 1 .7 1h3c.5 0 .8-.1 1-.6.3-.8.1-1.9.9-2.2.7-.3 1.7-.1 2.5-.1h.7c2.2 0 1.9.3 2.4-1.9.8-3 1.3-2.8-2.1-2.9-2.9-.1-2.9-.1-3.8 2.8-.3 1-1 1.4-2.1 1-.8-.3-.1-.9 0-1.4 0-.6.3-1.2.4-1.7.5-2 .5-2 2.6-2 2.7 0 2.1.2 2.7-2.1.7-2.3.6-2.3-1.8-2.3h-.4c-2.6 0-2.6 0-3.4 2.5-.2.6-.4.9-1.1.9-2.1-.1-4.2-.1-6.2-.2-.8 0-1.2.3-1.4 1.1-.5 1.9-1 3.7-1.5 5.5-.3.9.1 1.3 1 1.3.9-.2 1.8-.2 2.7-.2zM35.4 69.9c-.4 2.3-.4 2.2 1.6 2.2 1.4 0 1.1-1.1 1.2-1.8.2-.8-.7-.4-1.1-.5-.2-.1-.5 0-.7 0-.4 0-.6-.2-.5-.6.5-1.3-.4-1-1.1-1.1-1.2-.1-1.1.8-1.2 1.4-.1.9.7.3 1.1.5.3-.1.5-.1.7-.1z"/><path class="st2" d="M18.4 111.3h6.7c1.1 0 1.6-.4 1.8-1.4.4-1.8.9-3.5 1.3-5.2.3-1.2 0-1.5-1.2-1.5-2.3-.1-4.6-.1-6.9-.1-.7 0-.9-.2-.7-.9.3-1.2.7-2.4.9-3.6.1-.5.4-.6.8-.6h7.1c.6 0 .8.1.6.8-.3.8-.4 1.6-.7 2.4-.2.7.1.9.7.9h4.1c.6 0 .7.1.6.7l-1.5 5.4c-.2.8-.5 1.1-1.4 1-1.2-.1-2.1 1-1.9 2.1.1.6.6.4 1 .4 1.4.1 1.4 0 1.1 1.4-.6 2.4-.6 2.3-3 2.3-2.5 0-1.9-.4-2.6 2-.2.6-.1 1.4-.6 1.6-.5.1-.9-.7-1.3-1.2-1.7-1.9-3.3-4-4.9-6.5zM7.9 67.4c0-3.8.8-7.5 1.8-11.2.1-.5.4-.6.9-.6 1.9 0 3.8 0 5.7-.1.7 0 .8.2.6.8-.5 1.7-1 3.4-1.4 5.1-.1.6-.4.8-1 .7-1.4-.1-2.8 0-4.2-.1-.7 0-1.1.2-1.3.9-.3 1.6-.7 3-1.1 4.5zm8.8-21.5h-2.4c-.5 0-.8-.1-.5-.7.9-1.6 1.7-3.2 2.6-4.8.1-.2.3-.4.4-.4 1.4 0 2.9-.1 4.3 0 .4 0 .3.4.2.7-.4 1.6-.9 3.1-1.3 4.7-.1.5-.4.6-.8.6-.9-.1-1.7-.1-2.5-.1zm1.7 58.1c-.5 1.7-.9 3.3-1.4 5.1-1.1-1.7-2-3.3-2.9-5.1h4.3zm6.7 15.8h3.5c.1 0 .4.1.4.2.1.7-.1 1.5-.5 2-.3.4-1 .3-1.5-.2-.6-.6-1.1-1.2-1.9-2z"/><path class="st0" d="M84.5 78.2h5.9c.6 0 .7-.3.8-.8.4-1.5.8-3.1 1.2-4.6.2-.8.6-1.2 1.5-1.2 2.2.1 4.5.1 6.7.1 1.3 0 1.6.4 1.3 1.6-.4 1.7-.9 3.5-1.4 5.3h3.7c.9 0 1.1.4.9 1.2 0 .1 0 .2-.1.2-.2.8-.8 1.7-.4 2.3.3.6 1.4.2 2.1.3.6.1.8.3.6.9 0 .1 0 .2-.1.2-.6 2.4-.6 2.4-3 2.3-.9 0-1.3.2-1.6 1.1-.7 2.8-.7 2.8-3.6 2.8-3 0-3 0-2.2-2.8.6-2.4.4-1.9 2.5-1.9h2.4c.5 0 .7-.1.9-.6.5-1.5.5-1.6-1.1-1.6-2.9 0-2.9 0-2.2-2.8.2-.8.1-1-.7-1-2.2.1-4.3.1-6.5 0-.6 0-.9.2-1 .8-.4 1.5-.8 2.9-1.2 4.6H93c.7 0 .9.2.7.9-.6 2.9-.6 2.9-3.6 2.9-2 0-2 0-1.5-1.9.5-1.8.5-1.8-1.4-1.8H83c-.5 0-.8 0-.9.6-.5 2.1-1 4.1-1.6 6.1-.2.8 0 1 .8 1 2 0 3.9.1 5.9.1 1.1 0 1.4.4 1.2 1.5-.4 1.6-.8 3.2-1.3 4.9-.2.6 0 .8.6.9 2.5.1 2.5.2 3.2-2.3.8-2.8.8-2.8 3.7-2.7h2.6c.7 0 1 .3.8 1-.3 1.2-.7 2.4-.9 3.6-.2.7-.6.8-1.2.8-1.3 0-2.6.1-4 0-1-.1-1.5.3-1.7 1.3-.4 1.9-.5 1.8 1.4 1.9 1.1 0 2.2.1 3.4 0 .8 0 1.1.4.9 1.1-.3 1.1-.6 2.2-.9 3.4-.2.7-.5.9-1.2.9h-4.6c-.6 0-.9.2-1.1.8-.3 1-.2 2.3-1 2.9-.8.6-2 .2-3.1.2-2.3 0-2.3 0-1.7-2.2.6-2.2.6-2.2 2.9-2.2 2.8 0 2.8 0 3.5-2.7.5-1.8.5-1.8-1.4-1.8h-1.2c-.8-.1-1.3.1-1.4 1 0 .4-.2.7-.6.7-.7 0-1.5.2-2.1-.1-.4-.2.4-2 .9-2.1h.4c.5-.1 1.3.3 1.6-.2.4-.7.5-1.5.7-2.3.1-.7-.5-.4-.7-.4h-6c-1.8 0-1.9-.1-1.5-1.8.4-1.5.8-2.9 1.2-4.4.2-.7.1-1.1-.8-1-2.5.1-5 0-7.4 0-1.5 0-1.7-.3-1.3-1.7.6-2.1 1.2-4.2 1.7-6.2.3-1 .8-1.4 1.9-1.4 2.6.1 5.3.1 7.9.2.7 0 1-.1 1.2-.8.4-1.6.8-3.2 1.3-4.9h-7.2c-.5 0-.7.2-.8.7-.2.7-2.1 1.3-2.7.8-.4-.3-.1-.7 0-1 .2-.6 0-.8-.6-.8h-2.5c-.7 0-1.1-.2-.8-1 .3-.9.2-2.3 1-2.7 1.1-.6 2.6-.1 3.9-.1.5 0 .6.3.5.7-.1.6-.3 1.2-.4 1.7-.1.3-.5.7.1.8.5.1 1.1.3 1.4-.5.5-1.8 1-3.5 1.4-5.3.2-.9.7-1.3 1.7-1.3 2.2.1 4.5.1 6.7.2 1.1 0 1.4.4 1.1 1.5-.3 2.1-.8 4-1.4 6.1zM60.5 31h-2.8c-.9 0-1.3-.4-1-1.3.5-1.8 1.1-3.7 1.5-5.5.2-.8.6-1.1 1.4-1.1 2.1.1 4.2.1 6.2.2.7 0 1-.2 1.1-.9.7-2.5.7-2.5 3.4-2.5h.4c2.5 0 2.5 0 1.8 2.3-.7 2.4-.1 2.1-2.7 2.1-2.1 0-2.1 0-2.6 2-.2.6-.4 1.2-.4 1.7s-.8 1.1 0 1.4c1 .4 1.8 0 2.1-1 .8-2.9.8-2.9 3.8-2.8 3.4.1 2.9-.2 2.1 2.9-.6 2.2-.2 1.8-2.4 1.9h-.7c-.8 0-1.8-.2-2.5.1-.8.3-.6 1.5-.9 2.2-.2.5-.5.7-1 .6h-3c-.8 0-1-.3-.7-1 .1-.3.2-.5.2-.8.2-.5 0-.7-.6-.7-.9.2-1.8.2-2.7.2zM35.4 69.9c-.2 0-.5 0-.7-.1-.4-.1-1.1.4-1.1-.5.1-.6 0-1.5 1.2-1.4.7.1 1.7-.2 1.1 1.1-.2.4 0 .6.5.6h.7c.4.1 1.3-.3 1.1.5-.1.7.1 1.8-1.2 1.8-1.9.2-1.9.2-1.6-2z"/></svg>