<svg id="Слой_1" xmlns="http://www.w3.org/2000/svg" viewBox="444 18 1500 758"><style>.st0{fill:#599893}.st1{fill:#fefdfc}.st2{fill:#d73e02}.st3{fill:#2e3033}.st4{fill:#81b1ad}.st5{fill:#2c2e2f}.st6{fill:#94c5c0}.st7{fill:#9dcbc6}.st8{fill:#498e89}.st9{fill:#2f3134}.st10{fill:#303235}.st11{fill:#842600}.st12{fill:#b1b2b3}</style><path class="st0" d="M1015 19h54c1.3 3.4 4.3 1.9 6.5 1.9 137 .1 274.1.1 411.1 0 1.8 0 3.7.5 5.3-.7 4.2 1 8.5 1.7 12.2 4 12.1 7.3 19 17.8 19 32.3v474c0 2-.1 4 .2 6 .7 4.1.1 7.9-1.1 11.8-1.8 1.4-2.3 3.6-3.4 5.4-6.7 10.7-15 17.7-28.9 17.7-335.5-.2-670.9-.2-1006.4 0-10.2 0-17.3-4.5-23.7-11.5-4.7-5.1-6.2-11.7-8.8-17.8l.3-5.1c2.3-1 1.6-3.1 1.6-4.8.1-158.4.1-316.7.1-475.1 0-1.8.4-3.7-1.1-5.2 1-15.3 14.8-29.8 29.5-31.3 1.9.1 3.7.4 5.5.4h431.8c5.8 0 11.5-.4 17.3-.3 24.8.5 49.6.2 74.5.2 1.7 0 3.8.7 4.5-1.9zm443.1 45c-.4-.3-.7-.6-1.1-1-1-.4-1.9-.8-2.9-1.2-.8-.9-2-.8-3.1-1-.6-.3-1.3-.6-1.9-1-5.1-1.7-10.5-.8-15.7-.7-7.2.1-14.5-1.1-21.6.7-.3 0-.6 0-.8.1-3.7.9-7.5 1.5-10.6 4.1-6.8 5.7-10.4 12.6-10.3 21.7.1 142.6 0 285.2 0 427.8 0 1.3-.2 2.7.1 4 1.4 5.7 2.2 11.9 8.7 14.6 2.2 5.5 7.1 6.5 12.1 7 .6 0 1.2.1 1.7.1 1.2.8 2.5.8 3.8.8 10.1 0 20.2-.1 30.4-.1l2.1-.6c5.4-.6 9.7-3 13.2-7.2l.8-.8c3-2.3 4.7-5.4 5.2-9.2 1-.7 1-1.8 1-2.9 1.2-1.8.8-3.9.8-5.8V85.8c0-2.3.1-4.7-.9-6.9 0-.8-.2-1.5-.9-1.9-.3-2.4-.8-4.7-3.2-6-.1-1.5-.9-2.4-2-3.2-.6-.6-1.2-1.2-1.9-1.8-.7-1.1-1.6-2.1-3-2 0-.1 0 0 0 0zm-777 235.5V513c0 16 11.1 27.1 27 27.1 8.3 0 16.7-.5 25 .1 15.8 1.2 28.9-11 28.9-28.9-.2-129.1-.1-258.2-.1-387.4V86.4c0-16.3-11-27.4-27.2-27.4h-24.5c-18.8 0-29 10.3-29 29.1-.1 70.5-.1 140.9-.1 211.4zm611.9.2V84.8c0-15-10.8-25.7-25.8-25.8h-26.5c-17.2 0-27.7 10.4-27.7 27.6V512c0 17.8 10.3 28.1 28.3 28.1 8.3 0 16.7-.3 25 .1 16.1.7 27.1-13.3 27-27-.5-71.2-.3-142.3-.3-213.5zm-257-.4v215.4c0 9.8 4.5 16.8 12.4 21.9 3.9 2.5 8.2 3.5 12.8 3.5h28c15.8 0 26.7-10.8 26.7-26.6V83.2c-.6-11.4-9.1-21.5-20.3-23.4-11-1.9-22.3-.2-33.4-.8-15.2-.8-26.5 12.8-26.4 26.4.4 71.2.2 142.5.2 213.9zm-451.9.2c0-71.8-.1-143.7.1-215.5.1-13.2-12-25.3-25.1-25.1-8.7.2-17.3 0-26 0-18.8 0-29 10.2-29 29v426.5c.5 14.9 11.5 25.5 26.4 25.6H556c18.2 0 28.1-9.8 28.1-28.1V299.5zm274.8-.4v215c0 15.4 10.6 26 26.1 26h28.5c4.2 0 8.3-.8 11.9-3.1 9.4-5.8 13.5-14.1 13.5-25.1-.1-135.3 0-270.6 0-405.9 0-6.7.1-13.3 0-20-.3-16.6-10.9-27-27.5-27h-24c-18.9 0-28.5 9.6-28.5 28.6v211.5z"/><path transform="rotate(-3.696 1904.73 570.31) scale(.99998)" class="st1" d="M1868.8 528.8h72v83.3h-72z"/><path class="st2" d="M1880.9 538c-1.5.7-2.2 1.8-2.1 3.5-1.2 1-1.2 2.2-.9 3.5-1.1 14.1-.4 28.2-.4 42.3 0 5.9-1 11.9.6 17.7 1.5 2 3.6 1.3 5.5 1.3h55.1c1.7 0 3.7-.7 5 1.2-.4.9-.4 1.7.1 2.6-.9 6.4 1.4 12.6 1 19v5c-2.2.1-4.3.3-6.5.3h-97.4c-2.2-.4-2.5-2.5-3.5-4-15.7-24.5-36-43.9-64.2-52.8-37.3-11.8-70.6-3-99.9 22-11.8 10.1-21.9 21.7-29.5 35.5-.4.3-.8.7-1.2 1h.3c-32.4-1.1-64.8-2.1-97.2-3.2-.3-17.3-.8-34.6-.9-52-.6-83.1-.7-166.3.9-249.4.4-22 1-44 3-65.9.9-10.5 2.6-12.4 13-13.9 23.2-3.3 46.5-3.2 69.8-2.2 10.9.5 21.6-.6 32.4-1.3 20.6-1.2 41.2-2.2 61.9-1.3 7.8.4 13.6 3 18.3 9.8 22 32.1 42.6 65.2 64.1 97.7 12.8 19.5 25.3 39.2 39.2 57.9 2.2 3 4.7 5.6 7.3 8.1 25.9 25 51 50.7 73.8 78.7 3.9 4.7 8.1 9.4 9 15.8l1.2 12.9c0 1.4.1 2.8.1 4.2-.6.6-1.1 1.2-1.7 1.8-3.6-.4-7.1-.2-10.7.2-1.3-.3-2.6-.4-3.9.1-2-.3-4.1-.3-6.1.2-8.6.3-17.2.6-25.9.9-2.1-.4-4.1-.3-6.1.6-1.1.2-2.5.6-3.5 2.2zm-69.4-106.4c-.7-1.3-1-1.8-1.4-2.4-29.4-45-58.8-90-88.1-135.1-1.7-2.7-3.8-3.2-6.6-3.2-41.7.1-83.3.1-125-.1-4.4 0-5.6.9-5.5 5.5.7 42.3 1.2 84.6 1.8 126.9.1 6.8.1 6.7 6.8 6.8l177.9 1.5c13.1.2 26.2.1 40.1.1zm-192.6 60.3h20.5c6.5-.1 11.6-4.8 11.5-10.6-.1-5.7-4.8-10.2-11.3-10.3-14-.1-28-.1-41.9 0-6 0-10.6 4.7-10.7 10.3-.1 5.8 4.6 10.4 10.9 10.5 7 .2 14 .1 21 .1z"/><path class="st3" d="M1841.1 634.3h97.4c2.2 0 4.3-.2 6.5-.3v47c-29-1-57.9-2.1-86.9-3.1-3.4-.1-4.9-.7-5.4-4.5-1.7-13.6-6.6-26.3-11.6-39.1z"/><path class="st4" d="M481.4 20.6c.2-.6.4-1.1.6-1.6h533c-.7 2.6-2.8 1.9-4.5 1.9-24.8 0-49.7.3-74.5-.2-5.8-.1-11.5.3-17.3.3H486.9c-1.8 0-3.6-.3-5.5-.4zM1492 19c0 .4-.1.8-.1 1.2-1.6 1.3-3.5.7-5.3.7-137 0-274.1 0-411.1-.1-2.2 0-5.2 1.5-6.5-1.9 141 .1 282 .1 423 .1z"/><path class="st1" d="M1945 629c.3-6.4-1.9-12.6-1-19h1v19z"/><path class="st5" d="M1522.2 548.2c.1 21.2.1 42.3.3 63.5 0 3.2-1.5 3.5-4 3.5-9.8-.1-19.7 0-29.5 0-43 0-86 0-129 .1-3.5 0-5.8-1.1-8.2-3.5-17.7-17.7-39.7-26.9-63.9-31.3-41.7-7.4-77.6 4.6-108.8 32.4-2.1 1.9-4.2 2.3-6.8 2.3-25.3-.1-50.7 0-76 0-99 0-197.9 0-296.9.1-3.8 0-6.1-.8-8.4-4.3-8.9-13.4-22.3-20.9-37.2-25.3-27.6-8.3-55.6-10.5-83.7-2.2-18.1 5.3-33.6 15.1-46.6 28.8-2.2 2.3-4.3 3.1-7.3 3.1-53.5-.1-107-.1-160.5 0-4.1 0-5.3-1-5.3-5.2.2-20.8.1-41.7.1-62.5 0-1.8.2-3.6.3-5.5 2.5 6.1 4.1 12.7 8.8 17.8 6.4 7 13.5 11.5 23.7 11.5 335.5-.1 670.9-.2 1006.4 0 13.9 0 22.3-7 28.9-17.7 1.4-2 1.8-4.2 3.6-5.6z"/><path class="st6" d="M681.1 299.5V88.1c0-18.8 10.3-29.1 29-29.1h24.5c16.2 0 27.2 11 27.2 27.4v37.5c0 129.1-.1 258.2.1 387.4 0 17.9-13.1 30.1-28.9 28.9-8.3-.6-16.7-.1-25-.1-15.9 0-27-11.1-27-27.1V379c.1-26.5.1-53 .1-79.5zm611.9.2c0 71.1-.2 142.3.2 213.4.1 13.7-10.9 27.7-27 27-8.3-.4-16.7-.1-25-.1-17.9 0-28.3-10.3-28.3-28.1V86.5c0-17.2 10.5-27.6 27.7-27.6h26.5c15 .1 25.8 10.8 25.8 25.8.1 71.7.1 143.4.1 215zm-257-.4c0-71.3.2-142.6-.2-213.9-.1-13.6 11.3-27.2 26.4-26.4 11.1.6 22.4-1.1 33.4.8 11.2 1.9 19.6 12.1 20.3 23.4v430.3c0 15.7-10.9 26.5-26.7 26.6h-28c-4.6 0-9-1-12.8-3.5-7.9-5.1-12.5-12.1-12.4-21.9V299.3zm-451.9.2V512c0 18.2-9.8 28-28.1 28.1h-25.5c-14.9-.1-25.9-10.7-26.4-25.6V88c0-18.8 10.2-29 29-29 8.7 0 17.3.1 26 0 13.1-.2 25.2 11.9 25.1 25.1-.3 71.8-.1 143.6-.1 215.4zm274.8-.4V87.6c0-19 9.6-28.6 28.5-28.6h24c16.6 0 27.2 10.4 27.5 27 .1 6.7 0 13.3 0 20v405.9c0 10.9-4.1 19.3-13.5 25.1-3.7 2.3-7.7 3-11.9 3.1H885c-15.5-.1-26.1-10.6-26.1-26v-215zm609.3-222.2c.7.5.9 1.1.9 1.9-1.6 1.6-1.1 3.7-1.1 5.7v429c0 1.9-.5 4.1 1.2 5.7 0 1.1 0 2.1-1 2.9-3.6 2-4.1 5.8-5.2 9.2l-.8.8c-4.7 1.8-9.8 3-13.2 7.2l-2.1.6c-.5-2-2.1-1.9-3.6-1.9h-27c-1.4 0-2.7.2-3.7 1.2-.6 0-1.2-.1-1.7-.1-3.3-3.6-7.7-5.4-12.1-7-7.6-9.6-5.9-20.9-5.9-31.9 0-138.8.1-277.6-.1-416.4 0-9.8 7.4-18.7 14.9-20.7 1.8-.5 3.1-1.2 3.3-3.2.3-.1.5-.1.8-.1.7.4 1.5 1 2.2 1 11 .1 21.9.1 32.9 0 .7 0 1.5-.7 2.2-1 .6.3 1.3.6 1.9 1 .4 2.3 1.5 2.6 3.1 1 1 .4 1.9.8 2.9 1.2.4.3.7.6 1.1 1v-.1c.2 2 1.6 2.1 3.2 2 .6.6 1.2 1.2 1.9 1.8-.1 1.5 0 3 2 3.2.2 2.4-.2 5.2 3 6z"/><path class="st7" d="M1411 59.9c-.2 2-1.4 2.7-3.3 3.2-7.4 2-14.9 10.9-14.9 20.7.2 138.8.1 277.6.1 416.4 0 11-1.7 22.3 5.9 31.9-6.5-2.7-7.3-8.9-8.7-14.6-.3-1.3-.1-2.7-.1-4V85.7c0-9 3.6-16 10.3-21.7 3.2-2.6 7-3.1 10.7-4.1z"/><path class="st8" d="M451.4 537c0-2.5-.1-5-.1-7.5V60.9c0-3-.3-6 .6-8.9 1.5 1.4 1.1 3.3 1.1 5.1v475.1c0 1.7.7 3.8-1.6 4.8z"/><path class="st7" d="M1469.2 519.2c-1.7-1.6-1.2-3.7-1.2-5.7v-429c0-1.9-.5-4 1.1-5.7 1 2.2.9 4.5.9 6.9v427.6c0 2 .4 4.1-.8 5.9zm-20.1-459.3c-.7.4-1.5 1-2.2 1-11 .1-21.9.1-32.9 0-.7 0-1.5-.7-2.2-1 7.1-1.8 14.4-.6 21.6-.7 5.3-.1 10.6-1.1 15.7.7zm-36.3 479.3c1-1.1 2.3-1.2 3.7-1.2h27c1.5 0 3.1-.1 3.6 1.9-10.1 0-20.2.1-30.4.1-1.4 0-2.8 0-3.9-.8zm-13.9-7.1c4.4 1.7 8.8 3.4 12.1 7-5-.5-9.9-1.5-12.1-7zm50.2 7.2c3.4-4.2 8.4-5.4 13.2-7.2-3.5 4.1-7.9 6.6-13.2 7.2zm14-8.1c1.1-3.4 1.6-7.2 5.2-9.2-.6 3.8-2.2 6.9-5.2 9.2zm5.1-454.3c-3.3-.8-2.9-3.6-3.2-6 2.4 1.3 2.9 3.7 3.2 6zm-14.1-15.1c-1.6 1.6-2.7 1.3-3.1-1 1.1.2 2.3.1 3.1 1zm7.1 4.1c-1.5.1-2.9 0-3.2-2 1.5 0 2.4 1 3.2 2zm3.9 5c-2-.2-2.1-1.6-2-3.2 1.1.8 1.9 1.8 2 3.2z"/><path class="st7" d="M1458.1 64c-.4-.3-.7-.6-1.1-1 .4.3.7.7 1.1 1z"/><path class="st9" d="M1166.3 637c-5.9 13.9-8.2 28.5-10.2 43.1-.5 3.7-2.8 3.1-5 3.1-17.5.1-35 .3-52.5.4-89.4.3-178.9.7-268.3 0-4.5 0-9.8 1.4-13.2-1.1-3.2-2.4-2.3-8-3.4-12.1-2.6-9.5-4.9-19-7.7-28.4-1.1-3.5.1-4.1 3.1-4 1.3.1 2.7 0 4 0 110.1-.1 220.2-.1 330.3-1.1 7.5 0 15 .1 22.9.1z"/><path class="st3" d="M615.8 685c0-49.8 40-89.9 89.8-89.9 49.6 0 90 40.2 90.2 89.8.2 49.4-40.4 90.2-89.8 90.3-49.9.1-90.2-40.2-90.2-90.2zm88.8 56.2c31.9-.1 57.2-25.4 57.2-57.1 0-31.6-25.7-57.2-57.3-57.1-31.8.1-57.1 25.9-56.9 58 .2 30.9 25.9 56.3 57 56.2zm649.6-56c-.1 50-40.4 90.2-90.4 90-49.2-.2-89.6-40.7-89.6-90-.1-49.8 40.5-90.2 90.4-90.1 49.8.1 89.7 40.2 89.6 90.1zm-91.4 56c31.4.4 57.2-24.6 57.8-56.1.6-31.1-24.9-57.6-55.9-58.1-32.4-.5-57.9 24.4-58.3 57-.4 31.3 24.7 56.7 56.4 57.2zm571.4-55.8c-.2 50-40.6 90.1-90.5 89.8-49.2-.3-89.5-40.9-89.5-90.1 0-49.8 40.6-90.1 90.5-90 49.8.2 89.7 40.4 89.5 90.3zm-91.3 55.8c31.3.4 57.2-24.7 57.8-56.2.5-31.2-24.9-57.6-56-58.1-32.3-.5-57.9 24.5-58.3 57-.3 31.4 24.7 56.9 56.5 57.3zm-196.8-108.4c32.4 1.1 64.8 2.1 97.2 3.2-5.8 13.5-8.1 27.7-8.9 42.2-.2 4-1.6 5-5.4 4.9-78.3-.3-156.6-.5-234.9-.7-5.3 0-10.7-.1-16 0-1.9 0-3.1-.3-3-2.7.4-16.1-4.2-31.1-10.3-46.8h5.5c57 0 113.9.1 170.9.1 1.5.1 3.2-.1 4.9-.2z"/><path class="st10" d="M523.4 680.9c-22.5 0-45-.1-67.5.1-3.7 0-5.2-.5-5.1-4.8.3-12.7.2-25.3 0-38 0-3.1.9-3.9 3.9-3.9 49.5.1 99 .1 148.5 0 2.7 0 3.8.1 2.8 3.5-3.9 13.4-8.2 26.8-9.7 40.7-.4 3.4-2.8 2.3-4.5 2.2-19.3-.2-38.6-.5-58-.7h-10.5c.1.4.1.7.1.9z"/><path class="st3" d="M1643 636.1c.4-.3.8-.7 1.2-1-.2.6-.4 1.2-1.2 1z"/><path class="st1" d="M1811.5 431.6c-13.9 0-27 .1-40.1 0l-177.9-1.5c-6.7-.1-6.7 0-6.8-6.8-.6-42.3-1-84.6-1.8-126.9-.1-4.5 1.2-5.5 5.5-5.5 41.7.2 83.3.1 125 .1 2.9 0 4.9.5 6.6 3.2 29.3 45.1 58.7 90.1 88.1 135.1.4.4.7 1 1.4 2.3z"/><path class="st11" d="M1618.9 491.9c-7 0-14 .1-21 0-6.3-.1-11-4.7-10.9-10.5.1-5.6 4.7-10.3 10.7-10.3 14-.1 28-.1 41.9 0 6.5.1 11.2 4.6 11.3 10.3.1 5.8-5 10.5-11.5 10.6h-.5c-6.7-.1-13.4-.1-20-.1z"/><path class="st12" d="M704.6 741.2c-31.1.1-56.9-25.3-57-56.2-.2-32.1 25.2-57.9 56.9-58 31.6-.1 57.3 25.5 57.3 57.1 0 31.7-25.2 56.9-57.2 57.1zm558.2 0c-31.8-.4-56.8-25.9-56.4-57.3.4-32.5 26-57.4 58.3-57 31 .5 56.5 27 55.9 58.1-.5 31.5-26.4 56.6-57.8 56.2zm480.1 0c-31.8-.4-56.9-25.8-56.5-57.2.4-32.5 25.9-57.5 58.3-57 31 .5 56.5 26.9 56 58.1-.6 31.3-26.4 56.5-57.8 56.1z"/></svg>