<svg xmlns="http://www.w3.org/2000/svg" viewBox="-174 -7.5 1353.1 535.5"><style>.st0{fill:#f3b000}.st1{fill:#b68400}</style><g id="Слой_1__x28_копия_x29_"><title>Ресурс 1</title><g id="Слой_2_1_"><g id="Layer_1_1_"><path class="st0" d="M-174 267H87v261h-261z"/><path d="M-12.5 474.8V442h-36.7v32.9c0 8.7 6.1 16.1 14.5 17.9v17.1c-7.1.6-12.7 2.6-14.2 5.2H-13c-1.5-2.6-7.1-4.7-14.1-5.2v-17.1c8.5-1.9 14.6-9.4 14.6-18zM8 515h50.9v-7.5L8 507.4zm7.9-10.4h7.6v-50.9h8l-11.8-11.8L8 453.7h7.9zm27.5 0h7.5v-50.9h8l-11.7-11.8-11.8 11.8h8z"/><path class="st1" d="M-72.4 267h57.8v70.4h-57.8z"/></g></g></g><g id="Слой_1"><title>Ресурс 1</title><g id="Слой_2"><g id="Layer_1"><path class="st0" d="M100 267h261v261H100z"/><path d="M261.5 474.8V442h-36.7v32.9c0 8.7 6.1 16.1 14.5 17.9v17.1c-7.1.6-12.7 2.6-14.2 5.2H261c-1.5-2.6-7.1-4.7-14.1-5.2v-17.1c8.5-1.9 14.6-9.4 14.6-18zM282 515h50.9v-7.5l-50.9-.1zm8-10.4h7.5v-50.9h8l-11.8-11.8-11.7 11.8h8zm27.4 0h7.6v-50.9h7.9l-11.7-11.8-11.8 11.8h8z"/><path class="st1" d="M201.6 267h57.8v70.4h-57.8z"/></g></g><g id="Слой_2_5_"><g id="Layer_1_5_"><path class="st0" d="M100-.1h261v261H100z"/><path d="M261.5 207.7v-32.8h-36.6v32.9c0 8.7 6.1 16.1 14.5 17.9v17.1c-7.1.6-12.7 2.6-14.2 5.2h35.9c-1.5-2.6-7.1-4.7-14.1-5.2v-17.1c8.4-1.8 14.5-9.3 14.5-18zM282 248h50.9v-7.6H282zm7.9-10.4h7.6v-51h8l-11.8-11.7-11.7 11.7h7.9zm27.5 0h7.5v-51h8l-11.7-11.7-11.8 11.7h8z"/><path class="st1" d="M201.6-.1h57.8v70.4h-57.8z"/></g></g><g id="Слой_2_2_"><g id="Layer_1_2_"><path class="st0" d="M373.8 267h261v261h-261z"/><path d="M535.3 474.8V442h-36.6v32.9c0 8.7 6.1 16.1 14.5 17.9v17.1c-7.1.6-12.7 2.6-14.1 5.2H535c-1.5-2.6-7.1-4.7-14.1-5.2v-17.1c8.4-1.9 14.4-9.4 14.4-18zm20.5 40.2h50.9v-7.5l-50.9-.1zm8-10.4h7.5v-50.9h8l-11.7-11.8-11.8 11.8h8zm27.4 0h7.6v-50.9h7.9L595 441.9l-11.8 11.8h8z"/><path class="st1" d="M475.5 267h57.8v70.4h-57.8z"/></g></g><g id="Слой_2_6_"><g id="Layer_1_6_"><path class="st0" d="M373.8.5h261v261h-261z"/><path d="M535.3 208.3v-32.8h-36.6v32.9c0 8.7 6.1 16.1 14.5 17.9v17.1c-7.1.6-12.7 2.6-14.1 5.2H535c-1.5-2.6-7.1-4.7-14.1-5.2v-17.1c8.4-1.9 14.4-9.3 14.4-18zm20.5 40.2h50.9V241h-50.9zm8-10.4h7.5v-50.9h8l-11.7-11.7-11.8 11.7h8zm27.4 0h7.6v-50.9h7.9L595 175.5l-11.8 11.7h8z"/><path class="st1" d="M475.5.5h57.8v70.4h-57.8z"/></g></g><g id="Слой_2_3_"><g id="Layer_1_3_"><path class="st0" d="M647.7 267h261v261h-261z"/><path d="M809.2 474.8V442h-36.7v32.9c0 8.7 6.1 16.1 14.5 17.9v17.1c-7.1.6-12.7 2.6-14.2 5.2h35.9c-1.5-2.6-7.1-4.7-14.1-5.2v-17.1c8.6-1.9 14.6-9.4 14.6-18zm20.5 40.2h50.9v-7.5l-50.9-.1zm8-10.4h7.5v-50.9h8l-11.7-11.8-11.8 11.8h8zm27.4 0h7.6v-50.9h7.9l-11.7-11.8-11.8 11.8h8z"/><path class="st1" d="M749.4 267h57.8v70.4h-57.8z"/></g></g><g id="Слой_2_4_"><g id="Layer_1_4_"><path class="st0" d="M918.1 267h261v261h-261z"/><path d="M1079.6 474.8V442h-36.7v32.9c0 8.7 6.1 16.1 14.5 17.9v17.1c-7.1.6-12.7 2.6-14.2 5.2h35.9c-1.5-2.6-7.1-4.7-14.1-5.2v-17.1c8.5-1.9 14.6-9.4 14.6-18zM1100 515h51v-7.5l-51-.1zm8-10.4h7.6v-50.9h7.9l-11.7-11.8-11.8 11.8h8zm27.4 0h7.6v-50.9h8l-11.8-11.8-11.7 11.8h7.9z"/><path class="st1" d="M1019.7 267h57.8v70.4h-57.8z"/></g></g></g></svg>