<svg id="Слой_1" xmlns="http://www.w3.org/2000/svg" viewBox="-166 693.5 700 346.5"><style>.st0{fill:#091d39}.st1,.st2{fill:#294166}.st2{opacity:.3;enable-background:new}.st3{fill:#35517c}.st4{fill:#213658}.st5{opacity:.5;fill:#35517c;enable-background:new}.st6{fill:#406191}.st7{fill:#31729c}.st8{fill:#c3cfd3}.st9{opacity:.5;fill:#9ec5d1;enable-background:new}.st10,.st11{fill:#7799a4}.st11{opacity:.5;enable-background:new}.st12{fill:#618c9a}.st13{opacity:.5;fill:#7e9da7;enable-background:new}.st14{fill:#23441b}.st15{fill:#365a28}.st16{fill:#456c2d}.st17{fill:#5e8b2a}.st18,.st19{fill:#aaaaad}.st19{opacity:.5;enable-background:new}.st20{fill:#1e3054}.st21{fill:#051836}.st22{opacity:.3;fill:#1e3054;enable-background:new}.st23,.st24{fill:#2a4069}.st24{opacity:.3;enable-background:new}.st25{fill:#37517a}.st26{fill:#246686}.st27{fill:#346672}.st28{fill:#1d454e}.st29{fill:#153b43}.st30{opacity:.5;fill:#346672;enable-background:new}.st31{fill:#d8cfce}.st32{fill:#7f7b7c}.st33{opacity:.5;fill:#6e6a6c;enable-background:new}.st34{fill:#63b0c2}.st35{fill:#99d6e0}.st36{opacity:.5;fill:#63b0c2;enable-background:new}.st37{fill:#366975}.st38{opacity:.2;fill:#231f20;enable-background:new}.st39{fill:#e5dfdf}.st40,.st41{fill:#649fa8}.st41{opacity:.5;enable-background:new}.st42,.st43{fill:#85ced8}.st43{opacity:.5;enable-background:new}.st44{fill:#a3e7ec}.st45{fill:#538890}.st46{fill:#7bae38}.st47{fill:#8cc63f}.st48,.st49{fill:#8c6239}.st49{opacity:.5;enable-background:new}.st50,.st51{fill:#b9b2b2}.st51,.st52{opacity:.5;enable-background:new}.st52{opacity:.31;fill:#6e6a6c}.st53{fill:#e8e2e2}.st54{fill:#b2eaea}.st55{fill:#6ba5b1}.st56{opacity:.5;fill:#429eb0;enable-background:new}.st57{fill:#d6f2f1}.st58{fill:#83a6af}.st59{fill:#bcd1d3}.st60{fill:#a8bcc1}.st61{fill:#d5d5d5}.st62{fill:#a5d274}</style><title>city</title><g id="Слой_2"><g id="OBJECTS"><path class="st0" d="M424.5 956.3v-7.4h-10.8v10.8h-7.3v-19.4h-15.7v-22.9h-9.1v9.5H323v-18h-12.6v11.4h-38v-8.5h-5.1v-49.3h-56.9v61.1h-6.3V990H434v-33.7zM-4.7 944.2h-5.5V926h-14.5v31h-10.5v-17.7h-23.9v14.6H-66V990h12v-.1h67.5v-80.3H-4.7zm63.9-75.7h34.9v122.7H59.2zm65 20.3h36.2v101.1h-36.2z"/><path class="st1" d="M250.8 802.2h107v31.9h-107z"/><path class="st2" d="M250.8 817.2h107v16.9h-107z"/><path class="st2" d="M250.8 802.2h41.7v31.9h-41.7z"/><path class="st3" d="M250.8 822.3h107v167.5h-107z"/><path class="st4" d="M256.2 826.1h6.4v6.4h-6.4zm11.2 0h6.4v6.4h-6.4zm11.2 0h6.4v6.4h-6.4zm11.3 0h6.4v6.4h-6.4zm11.2 0h6.4v6.4h-6.4zm11.2 0h6.4v6.4h-6.4zm11.2 0h6.4v6.4h-6.4zm11.2 0h6.4v6.4h-6.4zm11.3 0h6.4v6.4H346zm-89.8 10.1h6.4v6.4h-6.4zm11.2 0h6.4v6.4h-6.4zm11.2 0h6.4v6.4h-6.4zm11.3 0h6.4v6.4h-6.4zm11.2 0h6.4v6.4h-6.4zm11.2 0h6.4v6.4h-6.4zm11.2 0h6.4v6.4h-6.4zm11.2 0h6.4v6.4h-6.4zm11.3 0h6.4v6.4H346zm-89.8 10.1h6.4v6.4h-6.4zm11.2 0h6.4v6.4h-6.4zm11.2 0h6.4v6.4h-6.4zm11.3 0h6.4v6.4h-6.4zm11.2 0h6.4v6.4h-6.4zm11.2 0h6.4v6.4h-6.4zm11.2 0h6.4v6.4h-6.4zm11.2 0h6.4v6.4h-6.4zm11.3 0h6.4v6.4H346zm-89.8 10h6.4v6.4h-6.4zm11.2 0h6.4v6.4h-6.4zm11.2 0h6.4v6.4h-6.4zm11.3 0h6.4v6.4h-6.4zm11.2 0h6.4v6.4h-6.4zm11.2 0h6.4v6.4h-6.4zm11.2 0h6.4v6.4h-6.4zm11.2 0h6.4v6.4h-6.4zm11.3 0h6.4v6.4H346zm-89.8 10.1h6.4v6.4h-6.4zm11.2 0h6.4v6.4h-6.4zm11.2 0h6.4v6.4h-6.4zm11.3 0h6.4v6.4h-6.4zm11.2 0h6.4v6.4h-6.4zm11.2 0h6.4v6.4h-6.4zm11.2 0h6.4v6.4h-6.4zm11.2 0h6.4v6.4h-6.4zm11.3 0h6.4v6.4H346zm-89.8 10.1h6.4v6.4h-6.4zm11.2 0h6.4v6.4h-6.4zm11.2 0h6.4v6.4h-6.4zm11.3 0h6.4v6.4h-6.4zm11.2 0h6.4v6.4h-6.4zm11.2 0h6.4v6.4h-6.4zm11.2 0h6.4v6.4h-6.4zm11.2 0h6.4v6.4h-6.4zm11.3 0h6.4v6.4H346zm-89.8 10.1h6.4v6.4h-6.4zm11.2 0h6.4v6.4h-6.4zm11.2 0h6.4v6.4h-6.4zm11.3 0h6.4v6.4h-6.4zm11.2 0h6.4v6.4h-6.4zm11.2 0h6.4v6.4h-6.4zm11.2 0h6.4v6.4h-6.4zm11.2 0h6.4v6.4h-6.4zm11.3 0h6.4v6.4H346zm-89.8 10.1h6.4v6.4h-6.4zm11.2 0h6.4v6.4h-6.4zm11.2 0h6.4v6.4h-6.4zm11.3 0h6.4v6.4h-6.4zm11.2 0h6.4v6.4h-6.4zm11.2 0h6.4v6.4h-6.4zm11.2 0h6.4v6.4h-6.4zm11.2 0h6.4v6.4h-6.4zm11.3 0h6.4v6.4H346zm-89.8 10.1h6.4v6.4h-6.4zm11.2 0h6.4v6.4h-6.4zm11.2 0h6.4v6.4h-6.4zm11.3 0h6.4v6.4h-6.4zm11.2 0h6.4v6.4h-6.4zm11.2 0h6.4v6.4h-6.4zm11.2 0h6.4v6.4h-6.4zm11.2 0h6.4v6.4h-6.4zm11.3 0h6.4v6.4H346zm-89.8 10.1h6.4v6.4h-6.4zm11.2 0h6.4v6.4h-6.4zm11.2 0h6.4v6.4h-6.4zm11.3 0h6.4v6.4h-6.4zm11.2 0h6.4v6.4h-6.4zm11.2 0h6.4v6.4h-6.4zm11.2 0h6.4v6.4h-6.4zm11.2 0h6.4v6.4h-6.4zm11.3 0h6.4v6.4H346zM256.2 927h6.4v6.4h-6.4zm11.2 0h6.4v6.4h-6.4zm11.2 0h6.4v6.4h-6.4zm11.3 0h6.4v6.4h-6.4zm11.2 0h6.4v6.4h-6.4zm11.2 0h6.4v6.4h-6.4zm11.2 0h6.4v6.4h-6.4zm11.2 0h6.4v6.4h-6.4zm11.3 0h6.4v6.4H346zm-89.8 10h6.4v6.4h-6.4zm11.2 0h6.4v6.4h-6.4zm11.2 0h6.4v6.4h-6.4zm11.3 0h6.4v6.4h-6.4zm11.2 0h6.4v6.4h-6.4zm11.2 0h6.4v6.4h-6.4zm11.2 0h6.4v6.4h-6.4zm11.2 0h6.4v6.4h-6.4zm11.3 0h6.4v6.4H346zm-89.8 10.1h6.4v6.4h-6.4zm11.2 0h6.4v6.4h-6.4zm11.2 0h6.4v6.4h-6.4zm11.3 0h6.4v6.4h-6.4zm11.2 0h6.4v6.4h-6.4zm11.2 0h6.4v6.4h-6.4zm11.2 0h6.4v6.4h-6.4zm11.2 0h6.4v6.4h-6.4zm11.3 0h6.4v6.4H346zm-89.8 10.1h6.4v6.4h-6.4zm11.2 0h6.4v6.4h-6.4zm11.2 0h6.4v6.4h-6.4zm11.3 0h6.4v6.4h-6.4zm11.2 0h6.4v6.4h-6.4zm11.2 0h6.4v6.4h-6.4zm11.2 0h6.4v6.4h-6.4zm11.2 0h6.4v6.4h-6.4zm11.3 0h6.4v6.4H346z"/><path class="st5" d="M250.8 822.3h41.7v167.5h-41.7z"/><path class="st6" d="M245.9 964.9h116.9v24.9H245.9z"/><path class="st7" d="M241.6 985.7H367v4.3H241.6z"/><path class="st4" d="M294.8 968.3h19v21.5h-19zm-14.3 0h11V986h-11zm-14.6 0h11V986h-11zm-14.6 0h11V986h-11zm94.9 0h11V986h-11zm-14.6 0h11V986h-11zm-14.6 0h11V986h-11z"/><path class="st8" d="M218.5 776.7v213.1H144V757.3c8.5-1.3 17.1-1.6 25.6-.7 14.8 1.3 33.5 6.2 48.9 20.1z"/><path class="st9" d="M169.6 756.6v233.2H144V757.3c8.5-1.3 17.1-1.6 25.6-.7z"/><path class="st10" d="M218.5 776.7v4.6H144v-24c8.5-1.3 17.1-1.6 25.6-.7 14.8 1.3 33.5 6.2 48.9 20.1z"/><path class="st11" d="M169.6 756.6v24.7H144v-24c8.5-1.3 17.1-1.6 25.6-.7z"/><path class="st11" d="M144 776.8h74.5v4.4H144z"/><path class="st12" d="M147.2 785.3h5.3v5.7h-5.3zm7.8 0h5.3v5.7H155zm7.9 0h5.3v5.7h-5.3zm7.8 0h5.3v5.7h-5.3zm7.9 0h5.3v5.7h-5.3zm7.8 0h5.3v5.7h-5.3zm7.9 0h5.3v5.7h-5.3zm7.8 0h5.3v5.7h-5.3zm7.9 0h5.3v5.7H210zm-62.8 9h5.3v5.7h-5.3zm7.8 0h5.3v5.7H155zm7.9 0h5.3v5.7h-5.3zm7.8 0h5.3v5.7h-5.3zm7.9 0h5.3v5.7h-5.3zm7.8 0h5.3v5.7h-5.3zm7.9 0h5.3v5.7h-5.3zm7.8 0h5.3v5.7h-5.3zm7.9 0h5.3v5.7H210zm-62.8 9h5.3v5.7h-5.3zm7.8 0h5.3v5.7H155zm7.9 0h5.3v5.7h-5.3zm7.8 0h5.3v5.7h-5.3zm7.9 0h5.3v5.7h-5.3zm7.8 0h5.3v5.7h-5.3zm7.9 0h5.3v5.7h-5.3zm7.8 0h5.3v5.7h-5.3zm7.9 0h5.3v5.7H210zm-62.8 8.9h5.3v5.7h-5.3zm7.8 0h5.3v5.7H155zm7.9 0h5.3v5.7h-5.3zm7.8 0h5.3v5.7h-5.3zm7.9 0h5.3v5.7h-5.3zm7.8 0h5.3v5.7h-5.3zm7.9 0h5.3v5.7h-5.3zm7.8 0h5.3v5.7h-5.3zm7.9 0h5.3v5.7H210zm-62.8 9h5.3v5.7h-5.3zm7.8 0h5.3v5.7H155zm7.9 0h5.3v5.7h-5.3zm7.8 0h5.3v5.7h-5.3zm7.9 0h5.3v5.7h-5.3zm7.8 0h5.3v5.7h-5.3zm7.9 0h5.3v5.7h-5.3zm7.8 0h5.3v5.7h-5.3zm7.9 0h5.3v5.7H210zm-62.8 8.9h5.3v5.7h-5.3zm7.8 0h5.3v5.7H155zm7.9 0h5.3v5.7h-5.3zm7.8 0h5.3v5.7h-5.3zm7.9 0h5.3v5.7h-5.3zm7.8 0h5.3v5.7h-5.3zm7.9 0h5.3v5.7h-5.3zm7.8 0h5.3v5.7h-5.3zm7.9 0h5.3v5.7H210zm-62.8 9h5.3v5.7h-5.3zm7.8 0h5.3v5.7H155zm7.9 0h5.3v5.7h-5.3zm7.8 0h5.3v5.7h-5.3zm7.9 0h5.3v5.7h-5.3zm7.8 0h5.3v5.7h-5.3zm7.9 0h5.3v5.7h-5.3zm7.8 0h5.3v5.7h-5.3zm7.9 0h5.3v5.7H210zm-62.8 9h5.3v5.7h-5.3zm7.8 0h5.3v5.7H155zm7.9 0h5.3v5.7h-5.3zm7.8 0h5.3v5.7h-5.3zm7.9 0h5.3v5.7h-5.3zm7.8 0h5.3v5.7h-5.3zm7.9 0h5.3v5.7h-5.3zm7.8 0h5.3v5.7h-5.3zm7.9 0h5.3v5.7H210zm-62.8 8.9h5.3v5.7h-5.3zm7.8 0h5.3v5.7H155zm7.9 0h5.3v5.7h-5.3zm7.8 0h5.3v5.7h-5.3zm7.9 0h5.3v5.7h-5.3zm7.8 0h5.3v5.7h-5.3zm7.9 0h5.3v5.7h-5.3zm7.8 0h5.3v5.7h-5.3zm7.9 0h5.3v5.7H210zm-62.8 9h5.3v5.7h-5.3zm7.8 0h5.3v5.7H155zm7.9 0h5.3v5.7h-5.3zm7.8 0h5.3v5.7h-5.3zm7.9 0h5.3v5.7h-5.3zm7.8 0h5.3v5.7h-5.3zm7.9 0h5.3v5.7h-5.3zm7.8 0h5.3v5.7h-5.3zm7.9 0h5.3v5.7H210zm-62.8 9h5.3v5.7h-5.3zm7.8 0h5.3v5.7H155zm7.9 0h5.3v5.7h-5.3zm7.8 0h5.3v5.7h-5.3zm7.9 0h5.3v5.7h-5.3zm7.8 0h5.3v5.7h-5.3zm7.9 0h5.3v5.7h-5.3zm7.8 0h5.3v5.7h-5.3zm7.9 0h5.3v5.7H210zm-62.8 8.9h5.3v5.7h-5.3zm7.8 0h5.3v5.7H155zm7.9 0h5.3v5.7h-5.3zm7.8 0h5.3v5.7h-5.3zm7.9 0h5.3v5.7h-5.3zm7.8 0h5.3v5.7h-5.3zm7.9 0h5.3v5.7h-5.3zm7.8 0h5.3v5.7h-5.3zm7.9 0h5.3v5.7H210zm-62.8 9h5.3v5.7h-5.3zm7.8 0h5.3v5.7H155zm7.9 0h5.3v5.7h-5.3zm7.8 0h5.3v5.7h-5.3zm7.9 0h5.3v5.7h-5.3zm7.8 0h5.3v5.7h-5.3zm7.9 0h5.3v5.7h-5.3zm7.8 0h5.3v5.7h-5.3zm7.9 0h5.3v5.7H210zm-62.8 8.9h5.3v5.7h-5.3zm7.8 0h5.3v5.7H155zm7.9 0h5.3v5.7h-5.3zm7.8 0h5.3v5.7h-5.3zm7.9 0h5.3v5.7h-5.3zm7.8 0h5.3v5.7h-5.3zm7.9 0h5.3v5.7h-5.3zm7.8 0h5.3v5.7h-5.3zm7.9 0h5.3v5.7H210zm-62.8 9h5.3v5.7h-5.3zm7.8 0h5.3v5.7H155zm7.9 0h5.3v5.7h-5.3zm7.8 0h5.3v5.7h-5.3zm7.9 0h5.3v5.7h-5.3zm7.8 0h5.3v5.7h-5.3zm7.9 0h5.3v5.7h-5.3zm7.8 0h5.3v5.7h-5.3zm7.9 0h5.3v5.7H210zm-62.8 9h5.3v5.7h-5.3zm7.8 0h5.3v5.7H155zm7.9 0h5.3v5.7h-5.3zm7.8 0h5.3v5.7h-5.3zm7.9 0h5.3v5.7h-5.3zm7.8 0h5.3v5.7h-5.3zm7.9 0h5.3v5.7h-5.3zm7.8 0h5.3v5.7h-5.3zm7.9 0h5.3v5.7H210zm-62.8 8.9h5.3v5.7h-5.3zm7.8 0h5.3v5.7H155zm7.9 0h5.3v5.7h-5.3zm7.8 0h5.3v5.7h-5.3zm7.9 0h5.3v5.7h-5.3zm7.8 0h5.3v5.7h-5.3zm7.9 0h5.3v5.7h-5.3zm7.8 0h5.3v5.7h-5.3zm7.9 0h5.3v5.7H210zm-62.8 9h5.3v5.7h-5.3zm7.8 0h5.3v5.7H155zm7.9 0h5.3v5.7h-5.3zm7.8 0h5.3v5.7h-5.3zm7.9 0h5.3v5.7h-5.3zm7.8 0h5.3v5.7h-5.3zm7.9 0h5.3v5.7h-5.3zm7.8 0h5.3v5.7h-5.3zm7.9 0h5.3v5.7H210zm-62.8 9h5.3v5.7h-5.3zm7.8 0h5.3v5.7H155zm7.9 0h5.3v5.7h-5.3zm7.8 0h5.3v5.7h-5.3zm7.9 0h5.3v5.7h-5.3zm7.8 0h5.3v5.7h-5.3zm7.9 0h5.3v5.7h-5.3zm7.8 0h5.3v5.7h-5.3zm7.9 0h5.3v5.7H210zm-62.8 8.9h5.3v5.7h-5.3zm7.8 0h5.3v5.7H155zm7.9 0h5.3v5.7h-5.3zm7.8 0h5.3v5.7h-5.3zm7.9 0h5.3v5.7h-5.3zm7.8 0h5.3v5.7h-5.3zm7.9 0h5.3v5.7h-5.3zm7.8 0h5.3v5.7h-5.3zm7.9 0h5.3v5.7H210zm-62.8 9h5.3v5.7h-5.3zm7.8 0h5.3v5.7H155zm7.9 0h5.3v5.7h-5.3zm7.8 0h5.3v5.7h-5.3zm7.9 0h5.3v5.7h-5.3zm7.8 0h5.3v5.7h-5.3zm7.9 0h5.3v5.7h-5.3zm7.8 0h5.3v5.7h-5.3zm7.9 0h5.3v5.7H210zm-62.8 9h5.3v5.7h-5.3zm7.8 0h5.3v5.7H155zm7.9 0h5.3v5.7h-5.3zm7.8 0h5.3v5.7h-5.3zm7.9 0h5.3v5.7h-5.3zm7.8 0h5.3v5.7h-5.3zm7.9 0h5.3v5.7h-5.3zm7.8 0h5.3v5.7h-5.3zm7.9 0h5.3v5.7H210z"/><circle class="st8" cx="155.1" cy="768.8" r="4.4"/><path class="st13" d="M218.5 861.3V978H144v-44.2z"/><path class="st14" d="M11.6 989.8c-.2-2.3-2.1-4-4.4-3.8-.6 0-1.2.2-1.7.5-.9-2-3-3.3-5.2-3.3h-.5c1.2-2.2.4-4.9-1.8-6-1.5-.8-3.3-.7-4.7.3-.2-1.8-1.8-3.2-3.6-3.2h-.2v-.4c0-2.3-1.8-4.1-4.1-4.2-2 0-3.7 1.4-4.1 3.4-1.9 0-3.5 1.2-4 3-3 .4-5.2 3.1-4.8 6.1 0 .3.1.6.2.9-2.2-.8-4.7.4-5.5 2.6-.1.3-.2.7-.2 1-2.2-.6-4.5.7-5.1 3v.1h49.7z"/><path class="st15" d="M-8.4 989.8c-.1-2-1.8-3.5-3.8-3.4-.5 0-1.1.2-1.5.4-.8-1.8-2.6-2.9-4.6-2.9h-.4c1-1.9.3-4.3-1.6-5.3-1.3-.7-2.8-.6-4 .2-.2-1.6-1.5-2.8-3.2-2.8h-.2v-.4c0-2-1.6-3.6-3.6-3.6-1.7 0-3.2 1.2-3.5 3-1.6 0-3 1.1-3.5 2.6-2.7.3-4.5 2.7-4.2 5.4 0 .2.1.5.1.7-2-.7-4.1.3-4.9 2.2-.1.3-.2.6-.2 1-2-.5-3.9.7-4.5 2.6v.1l43.6.2z"/><path class="st16" d="M-13.5 989.8c-.1-1.4-1.3-2.5-2.7-2.4-.4 0-.7.1-1.1.3-.6-1.3-1.8-2.1-3.2-2.1h-.3c.7-1.4.2-3.1-1.2-3.8-.9-.5-1.9-.4-2.8.1-.1-1.1-1.1-2-2.2-2h-.2v-.3c0-1.4-1.1-2.6-2.6-2.6-1.2 0-2.3.9-2.5 2.1-1.1 0-2.2.8-2.5 1.9-1.9.2-3.2 2-3 3.8 0 .2.1.3.1.5-1.4-.5-2.9.2-3.5 1.6-.1.2-.1.5-.2.7-1.4-.4-2.8.5-3.2 1.9v.1l31.1.2z"/><path class="st17" d="M4.5 989.8c-.1-1.6-1.4-2.8-3-2.7-.4 0-.8.1-1.2.3-.7-1.4-2-2.3-3.6-2.3h-.3c.8-1.5.3-3.4-1.2-4.2-1-.6-2.3-.5-3.2.2-.2-1.1-1.3-2.1-2.5-2.1h-.2v-.3c0-1.6-1.3-2.8-2.9-2.8-1.4 0-2.5 1-2.8 2.3-1.3 0-2.3.9-2.7 2.1-2.1.3-3.6 2.2-3.3 4.2 0 .2.1.4.1.6-1.6-.6-3.3.2-3.8 1.8-.1.2-.1.5-.2.7-1.5-.4-3.1.5-3.5 2v.1l34.3.1zm-35.6 0c-.1-1-.9-1.7-1.9-1.7-.3 0-.5.1-.8.2-.4-.9-1.3-1.4-2.2-1.4h-.2c.4-1 0-2.2-1-2.6-.6-.3-1.2-.2-1.8.1-.1-.8-.8-1.4-1.6-1.4h-.1v-.2c0-1-.8-1.8-1.8-1.8-.9 0-1.6.6-1.8 1.5-.8 0-1.5.5-1.7 1.3-1.3.2-2.2 1.4-2.1 2.7 0 .1 0 .2.1.3-1-.4-2.1.1-2.5 1-.1.2-.1.4-.1.7-1-.3-2 .3-2.2 1.3v.1l21.7-.1z"/><path class="st14" d="M334.2 989.8c-.1-2.3-2.1-4-4.3-3.9-.6 0-1.2.2-1.7.5-.9-2-3-3.3-5.2-3.3h-.5c1.2-2.2.4-4.9-1.8-6-1.5-.8-3.3-.7-4.7.3-.2-1.8-1.8-3.2-3.6-3.2h-.2v-.4c0-2.3-1.8-4.1-4.1-4.2-2 0-3.7 1.4-4.1 3.4-1.9 0-3.5 1.2-4 3-3 .4-5.2 3.1-4.8 6.1 0 .3.1.6.2.9-2.2-.8-4.7.3-5.5 2.6-.1.4-.2.7-.2 1.1-2.2-.6-4.5.7-5.1 3v.1h49.6z"/><path class="st15" d="M314.3 989.8c-.1-2-1.8-3.5-3.8-3.4-.5 0-1.1.2-1.5.4-.8-1.8-2.6-2.9-4.6-2.9h-.4c1-1.9.3-4.3-1.6-5.3-1.3-.7-2.8-.6-4 .2-.2-1.6-1.5-2.8-3.1-2.8h-.2v-.4c0-2-1.6-3.6-3.6-3.6-1.7 0-3.2 1.2-3.5 3-1.6 0-3 1.1-3.5 2.6-2.7.3-4.5 2.7-4.2 5.4 0 .2.1.5.1.7-2-.7-4.1.3-4.9 2.2-.1.3-.2.6-.2 1-2-.5-3.9.7-4.5 2.6v.1l43.5.2z"/><path class="st16" d="M309.2 989.8c-.1-1.4-1.3-2.5-2.7-2.4-.4 0-.7.1-1.1.3-.6-1.3-1.8-2.1-3.2-2.1h-.3c.7-1.4.2-3.1-1.2-3.8-.9-.5-1.9-.4-2.8.1-.1-1.1-1.1-2-2.2-2h-.1v-.3c0-1.4-1.1-2.6-2.6-2.6-1.2 0-2.3.9-2.5 2.1-1.1 0-2.2.8-2.5 1.9-1.9.2-3.2 2-3 3.8 0 .2.1.3.1.5-1.4-.5-2.9.2-3.5 1.6-.1.2-.1.5-.2.7-1.4-.4-2.8.5-3.2 1.9v.1l31 .2z"/><path class="st17" d="M327.1 989.8c-.1-1.6-1.4-2.8-3-2.7-.4 0-.8.1-1.2.3-.7-1.4-2-2.3-3.6-2.3h-.3c.8-1.5.3-3.4-1.2-4.2-1-.6-2.3-.5-3.2.2-.2-1.3-1.2-2.2-2.5-2.2h-.1v-.3c0-1.6-1.3-2.8-2.9-2.8-1.4 0-2.5 1-2.8 2.3-1.3 0-2.4.9-2.7 2.1-2.1.3-3.6 2.2-3.3 4.2 0 .2.1.4.1.6-1.6-.6-3.3.2-3.8 1.8-.1.2-.1.5-.2.7-1.5-.4-3.1.5-3.5 2v.1l34.2.2zm-35.6 0c-.1-1-.9-1.7-1.9-1.7-.3 0-.5.1-.8.2-.4-.9-1.3-1.4-2.3-1.5h-.2c.4-1 0-2.2-1-2.6-.6-.3-1.2-.2-1.8.1-.1-.8-.7-1.4-1.5-1.4h-.1v-.2c0-1-.8-1.8-1.8-1.8-.9 0-1.6.6-1.8 1.5-.8 0-1.5.5-1.7 1.3-1.3.2-2.2 1.4-2.1 2.7 0 .1 0 .2.1.3-1-.4-2.1.1-2.5 1-.1.2-.1.4-.1.6-1-.3-2 .3-2.2 1.3v.1l21.7.1z"/><path class="st14" d="M420.9 989.8c-.1-2.3-2.1-4-4.3-3.9-.6 0-1.2.2-1.7.5-.9-2-3-3.3-5.2-3.3h-.5c1.2-2.2.4-4.9-1.8-6-1.5-.8-3.3-.7-4.7.3-.2-1.8-1.8-3.2-3.6-3.2h-.2v-.4c0-2.3-1.8-4.1-4.1-4.2-2 0-3.7 1.4-4.1 3.4-1.9 0-3.5 1.2-4 3-3 .4-5.2 3.1-4.8 6.1 0 .3.1.6.2.9-2.2-.8-4.7.3-5.5 2.6-.1.4-.2.7-.2 1.1-2.2-.6-4.5.7-5.1 3v.1h49.6z"/><path class="st15" d="M400.9 989.8c-.1-2-1.8-3.5-3.8-3.4-.5 0-1.1.2-1.5.4-.8-1.8-2.6-2.9-4.6-2.9h-.4c1-1.9.3-4.3-1.6-5.3-1.3-.7-2.9-.6-4.1.2-.2-1.6-1.5-2.8-3.1-2.8h-.2v-.4c0-2-1.6-3.6-3.6-3.6-1.7 0-3.2 1.2-3.5 3-1.6 0-3 1.1-3.5 2.6-2.7.3-4.5 2.7-4.2 5.4 0 .2.1.5.1.7-2-.7-4.1.3-4.9 2.2-.1.3-.2.6-.2 1-2-.5-3.9.7-4.5 2.6v.1l43.6.2z"/><path class="st16" d="M395.8 989.8c-.1-1.4-1.3-2.5-2.7-2.4-.4 0-.7.1-1.1.3-.6-1.3-1.8-2.1-3.2-2.1h-.3c.7-1.4.2-3.1-1.2-3.8-.9-.5-1.9-.4-2.8.1-.1-1.1-1.1-2-2.2-2h-.1v-.3c0-1.4-1.1-2.6-2.6-2.6-1.2 0-2.3.9-2.5 2.1-1.1 0-2.2.8-2.5 1.9-1.9.2-3.2 2-3 3.8 0 .2.1.3.1.5-1.4-.5-2.9.2-3.5 1.5-.1.3-.2.5-.2.8-1.4-.4-2.8.5-3.2 1.9v.1l31 .2z"/><path class="st17" d="M413.8 989.8c-.1-1.6-1.4-2.8-3-2.7-.4 0-.8.1-1.2.3-.7-1.4-2-2.3-3.6-2.3h-.3c.8-1.5.3-3.4-1.2-4.2-1-.6-2.3-.5-3.2.2-.2-1.3-1.2-2.2-2.5-2.2h-.1v-.3c0-1.6-1.3-2.8-2.9-2.8-1.4 0-2.5 1-2.8 2.3-1.3 0-2.4.9-2.7 2.1-2.1.3-3.6 2.2-3.3 4.2 0 .2.1.4.1.6-1.6-.6-3.3.2-3.8 1.8-.1.2-.1.5-.2.7-1.5-.4-3.1.5-3.5 2v.1l34.2.2zm-35.6 0c-.1-1-.9-1.7-1.9-1.7-.3 0-.5.1-.8.2-.4-.9-1.3-1.4-2.3-1.5h-.2c.4-1 0-2.2-1-2.6-.6-.3-1.2-.2-1.8.1-.1-.8-.8-1.4-1.6-1.4h-.1v-.2c-.1-1-1-1.7-2-1.6-.7.1-1.3.6-1.5 1.3-.8 0-1.5.5-1.7 1.3-1.3.2-2.2 1.4-2.1 2.7 0 .1 0 .2.1.3-1-.4-2.1.1-2.4 1.1-.1.2-.1.3-.1.5-1-.3-2 .3-2.2 1.3v.1l21.6.1z"/><path class="st18" d="M-14.2 802.2H66v48.7h-80.2z"/><path class="st19" d="M-14.2 802.2h40.6v48.7h-40.6z"/><path class="st19" d="M-14.2 823.8H66v27.1h-80.2z"/><path class="st20" d="M-6.5 815h64.7v33.6H-6.5z"/><path class="st21" d="M-3.9 818.3h5.6v5.6h-5.6zm9 0h5.6v5.6H5.1zm9 0h5.6v5.6h-5.6zm9 0h5.6v5.6h-5.6zm8.9 0h5.6v5.6H32zm9 0h5.6v5.6H41zm9 0h5.6v5.6H50z"/><path class="st22" d="M-6.5 825.8h64.7v22.9H-6.5z"/><path class="st23" d="M-14.2 830H66v159.9h-80.2z"/><path class="st20" d="M-10.6 833.6h6v6h-6zm9.5 0h6v6h-6zm9.6 0h6v6h-6zm9.6 0h6v6h-6zm9.6 0h6v6h-6zm9.5 0h6v6h-6zm9.6 0h6v6h-6zm9.6 0h6v6h-6zm-67 9.3h6v6h-6zm9.5 0h6v6h-6zm9.6 0h6v6h-6zm9.6 0h6v6h-6zm9.6 0h6v6h-6zm9.5 0h6v6h-6zm9.6 0h6v6h-6zm9.6 0h6v6h-6zm-67 9.2h6v6h-6zm9.5 0h6v6h-6zm9.6 0h6v6h-6zm9.6 0h6v6h-6zm9.6 0h6v6h-6zm9.5 0h6v6h-6zm9.6 0h6v6h-6zm9.6 0h6v6h-6zm-67 9.2h6v6h-6zm9.5 0h6v6h-6zm9.6 0h6v6h-6zm9.6 0h6v6h-6zm9.6 0h6v6h-6zm9.5 0h6v6h-6zm9.6 0h6v6h-6zm9.6 0h6v6h-6zm-67 9.3h6v6h-6zm9.5 0h6v6h-6zm9.6 0h6v6h-6zm9.6 0h6v6h-6zm9.6 0h6v6h-6zm9.5 0h6v6h-6zm9.6 0h6v6h-6zm9.6 0h6v6h-6zm-67 9.2h6v6h-6zm9.5 0h6v6h-6zm9.6 0h6v6h-6zm9.6 0h6v6h-6zm9.6 0h6v6h-6zm9.5 0h6v6h-6zm9.6 0h6v6h-6zm9.6 0h6v6h-6zm-67 9.2h6v6h-6zm9.5 0h6v6h-6zm9.6 0h6v6h-6zm9.6 0h6v6h-6zm9.6 0h6v6h-6zm9.5 0h6v6h-6zm9.6 0h6v6h-6zm9.6 0h6v6h-6zm-67 9.3h6v6h-6zm9.5 0h6v6h-6zm9.6 0h6v6h-6zm9.6 0h6v6h-6zm9.6 0h6v6h-6zm9.5 0h6v6h-6zm9.6 0h6v6h-6zm9.6 0h6v6h-6zm-67 9.2h6v6h-6zm9.5 0h6v6h-6zm9.6 0h6v6h-6zm9.6 0h6v6h-6zm9.6 0h6v6h-6zm9.5 0h6v6h-6zm9.6 0h6v6h-6zm9.6 0h6v6h-6zm-67 9.2h6v6h-6zm9.5 0h6v6h-6zm9.6 0h6v6h-6zm9.6 0h6v6h-6zm9.6 0h6v6h-6zm9.5 0h6v6h-6zm9.6 0h6v6h-6zm9.6 0h6v6h-6zm-67 9.3h6v6h-6zm9.5 0h6v6h-6zm9.6 0h6v6h-6zm9.6 0h6v6h-6zm9.6 0h6v6h-6zm9.5 0h6v6h-6zm9.6 0h6v6h-6zm9.6 0h6v6h-6zm-67 9.2h6v6h-6zm9.5 0h6v6h-6zm9.6 0h6v6h-6zm9.6 0h6v6h-6zm9.6 0h6v6h-6zm9.5 0h6v6h-6zm9.6 0h6v6h-6zm9.6 0h6v6h-6zm-67 9.2h6v6h-6zm9.5 0h6v6h-6zm9.6 0h6v6h-6zm9.6 0h6v6h-6zm9.6 0h6v6h-6zm9.5 0h6v6h-6zm9.6 0h6v6h-6zm9.6 0h6v6h-6zm-67 9.2h6v6h-6zm9.5 0h6v6h-6zm9.6 0h6v6h-6zm9.6 0h6v6h-6zm9.6 0h6v6h-6zm9.5 0h6v6h-6zm9.6 0h6v6h-6zm9.6 0h6v6h-6z"/><path class="st24" d="M-14.2 830h39.3v159.9h-39.3z"/><path class="st25" d="M-18.5 964h88.7v25.8h-88.7z"/><path class="st26" d="M-21.8 986.4h95.5v3.5h-95.5z"/><path class="st23" d="M13 970.2h25.8v19.7H13zm-14.8 2.2H9.8v10.4H-1.8zm-13.6 0h11.5v10.4h-11.5zm71 0h11.6v10.4H55.6zm-13.5 0h11.6v10.4H42.1z"/><path class="st27" d="M128.5 693.5l-4.6 4.6v10.5H99.3l1.6-9.7.1-.8.7-4.6z"/><path class="st28" d="M123.9 698.1v.8h-23l.1-.8z"/><path class="st29" d="M103.6 699.4h3.5v3h-3.5zm4.6 0h3.5v3h-3.5zm4.7 0h3.5v3h-3.5zm4.6 0h3.5v3h-3.5zm-13.9 3.7h3.5v3h-3.5zm4.6 0h3.5v3h-3.5zm4.7 0h3.5v3h-3.5zm4.6 0h3.5v3h-3.5z"/><path class="st30" d="M105.5 693.5v15.1h-6.2l2.4-15.1z"/><path class="st31" d="M98.5 706.7h30v283.2h-30z"/><path class="st32" d="M103.6 709.7h3.2v4.4h-3.2zm4.7 0h3.2v4.4h-3.2zm4.8 0h3.2v4.4h-3.2zm4.7 0h3.2v4.4h-3.2zm4.7 0h3.2v4.4h-3.2zm-18.9 5h3.2v4.4h-3.2zm4.7 0h3.2v4.4h-3.2zm4.8 0h3.2v4.4h-3.2zm4.7 0h3.2v4.4h-3.2zm4.7 0h3.2v4.4h-3.2zm-18.9 6.6h3.2v3.5h-3.2zm4.7 0h3.2v3.5h-3.2zm4.8 0h3.2v3.5h-3.2zm4.7 0h3.2v3.5h-3.2zm4.7 0h3.2v3.5h-3.2zm-18.9 5.2h3.2v3.5h-3.2zm4.7 0h3.2v3.5h-3.2zm4.8 0h3.2v3.5h-3.2zm4.7 0h3.2v3.5h-3.2zm4.7 0h3.2v3.5h-3.2zm-18.9 5.1h3.2v3.5h-3.2zm4.7 0h3.2v3.5h-3.2zm4.8 0h3.2v3.5h-3.2zm4.7 0h3.2v3.5h-3.2zm4.7 0h3.2v3.5h-3.2zm-18.9 5.2h3.2v3.5h-3.2zm4.7 0h3.2v3.5h-3.2zm4.8 0h3.2v3.5h-3.2zm4.7 0h3.2v3.5h-3.2zm4.7 0h3.2v3.5h-3.2zm-18.9 5.2h3.2v3.5h-3.2zm4.7 0h3.2v3.5h-3.2zm4.8 0h3.2v3.5h-3.2zm4.7 0h3.2v3.5h-3.2zm4.7 0h3.2v3.5h-3.2zm-18.9 5.2h3.2v3.5h-3.2zm4.7 0h3.2v3.5h-3.2zm4.8 0h3.2v3.5h-3.2zm4.7 0h3.2v3.5h-3.2zm4.7 0h3.2v3.5h-3.2zm-18.9 5.1h3.2v3.5h-3.2zm4.7 0h3.2v3.5h-3.2zm4.8 0h3.2v3.5h-3.2zm4.7 0h3.2v3.5h-3.2zm4.7 0h3.2v3.5h-3.2zm-18.9 5.2h3.2v3.5h-3.2zm4.7 0h3.2v3.5h-3.2zm4.8 0h3.2v3.5h-3.2zm4.7 0h3.2v3.5h-3.2zm4.7 0h3.2v3.5h-3.2zm-18.9 5.2h3.2v3.5h-3.2zm4.7 0h3.2v3.5h-3.2zm4.8 0h3.2v3.5h-3.2zm4.7 0h3.2v3.5h-3.2zm4.7 0h3.2v3.5h-3.2zm-18.9 5.1h3.2v3.5h-3.2zm4.7 0h3.2v3.5h-3.2zm4.8 0h3.2v3.5h-3.2zm4.7 0h3.2v3.5h-3.2zm4.7 0h3.2v3.5h-3.2zm-18.9 5.2h3.2v3.5h-3.2zm4.7 0h3.2v3.5h-3.2zm4.8 0h3.2v3.5h-3.2zm4.7 0h3.2v3.5h-3.2zm4.7 0h3.2v3.5h-3.2zm-18.9 5.2h3.2v3.5h-3.2zm4.7 0h3.2v3.5h-3.2zm4.8 0h3.2v3.5h-3.2zm4.7 0h3.2v3.5h-3.2zm4.7 0h3.2v3.5h-3.2zm-18.9 5.2h3.2v3.5h-3.2zm4.7 0h3.2v3.5h-3.2zm4.8 0h3.2v3.5h-3.2zm4.7 0h3.2v3.5h-3.2zm4.7 0h3.2v3.5h-3.2zm-18.9 5.1h3.2v3.5h-3.2zm4.7 0h3.2v3.5h-3.2zm4.8 0h3.2v3.5h-3.2zm4.7 0h3.2v3.5h-3.2zm4.7 0h3.2v3.5h-3.2zm-18.9 5.2h3.2v3.5h-3.2zm4.7 0h3.2v3.5h-3.2zm4.8 0h3.2v3.5h-3.2zm4.7 0h3.2v3.5h-3.2zm4.7 0h3.2v3.5h-3.2zm-18.9 5.2h3.2v3.5h-3.2zm4.7 0h3.2v3.5h-3.2zm4.8 0h3.2v3.5h-3.2zm4.7 0h3.2v3.5h-3.2zm4.7 0h3.2v3.5h-3.2zm-18.9 5.1h3.2v3.5h-3.2zm4.7 0h3.2v3.5h-3.2zm4.8 0h3.2v3.5h-3.2zm4.7 0h3.2v3.5h-3.2zm4.7 0h3.2v3.5h-3.2zm-18.9 5.2h3.2v3.5h-3.2zm4.7 0h3.2v3.5h-3.2zm4.8 0h3.2v3.5h-3.2zm4.7 0h3.2v3.5h-3.2zm4.7 0h3.2v3.5h-3.2zm-18.9 5.2h3.2v3.5h-3.2zm4.7 0h3.2v3.5h-3.2zm4.8 0h3.2v3.5h-3.2zm4.7 0h3.2v3.5h-3.2zm4.7 0h3.2v3.5h-3.2zm-18.9 5.2h3.2v3.5h-3.2zm4.7 0h3.2v3.5h-3.2zm4.8 0h3.2v3.5h-3.2zm4.7 0h3.2v3.5h-3.2zm4.7 0h3.2v3.5h-3.2zm-18.9 5.1h3.2v3.5h-3.2zm4.7 0h3.2v3.5h-3.2zm4.8 0h3.2v3.5h-3.2zm4.7 0h3.2v3.5h-3.2zm4.7 0h3.2v3.5h-3.2zm-18.9 5.2h3.2v3.5h-3.2zm4.7 0h3.2v3.5h-3.2zm4.8 0h3.2v3.5h-3.2zm4.7 0h3.2v3.5h-3.2zm4.7 0h3.2v3.5h-3.2zm-18.9 5.2h3.2v3.5h-3.2zm4.7 0h3.2v3.5h-3.2zm4.8 0h3.2v3.5h-3.2zm4.7 0h3.2v3.5h-3.2zm4.7 0h3.2v3.5h-3.2zm-18.9 5.2h3.2v3.5h-3.2zm4.7 0h3.2v3.5h-3.2zm4.8 0h3.2v3.5h-3.2zm4.7 0h3.2v3.5h-3.2zm4.7 0h3.2v3.5h-3.2zm-18.9 5.1h3.2v3.5h-3.2zm4.7 0h3.2v3.5h-3.2zm4.8 0h3.2v3.5h-3.2zm4.7 0h3.2v3.5h-3.2zm4.7 0h3.2v3.5h-3.2zm-18.9 5.2h3.2v3.5h-3.2zm4.7 0h3.2v3.5h-3.2zm4.8 0h3.2v3.5h-3.2zm4.7 0h3.2v3.5h-3.2zm4.7 0h3.2v3.5h-3.2zm-18.9 5.2h3.2v3.5h-3.2zm4.7 0h3.2v3.5h-3.2zm4.8 0h3.2v3.5h-3.2zm4.7 0h3.2v3.5h-3.2zm4.7 0h3.2v3.5h-3.2zm-18.9 5.1h3.2v3.5h-3.2zm4.7 0h3.2v3.5h-3.2zm4.8 0h3.2v3.5h-3.2zm4.7 0h3.2v3.5h-3.2zm4.7 0h3.2v3.5h-3.2zm-18.9 5.2h3.2v3.5h-3.2zm4.7 0h3.2v3.5h-3.2zm4.8 0h3.2v3.5h-3.2zm4.7 0h3.2v3.5h-3.2zm4.7 0h3.2v3.5h-3.2zm-18.9 5.2h3.2v3.5h-3.2zm4.7 0h3.2v3.5h-3.2zm4.8 0h3.2v3.5h-3.2zm4.7 0h3.2v3.5h-3.2zm4.7 0h3.2v3.5h-3.2zm-18.9 5.2h3.2v3.5h-3.2zm4.7 0h3.2v3.5h-3.2zm4.8 0h3.2v3.5h-3.2zm4.7 0h3.2v3.5h-3.2zm4.7 0h3.2v3.5h-3.2zm-18.9 5.1h3.2v3.5h-3.2zm4.7 0h3.2v3.5h-3.2zm4.8 0h3.2v3.5h-3.2zm4.7 0h3.2v3.5h-3.2zm4.7 0h3.2v3.5h-3.2zm-18.9 5.2h3.2v3.5h-3.2zm4.7 0h3.2v3.5h-3.2zm4.8 0h3.2v3.5h-3.2zm4.7 0h3.2v3.5h-3.2zm4.7 0h3.2v3.5h-3.2zm-18.9 5.2h3.2v3.5h-3.2zm4.7 0h3.2v3.5h-3.2zm4.8 0h3.2v3.5h-3.2zm4.7 0h3.2v3.5h-3.2zm4.7 0h3.2v3.5h-3.2zm-18.9 5.1h3.2v3.5h-3.2zm4.7 0h3.2v3.5h-3.2zm4.8 0h3.2v3.5h-3.2zm4.7 0h3.2v3.5h-3.2zm4.7 0h3.2v3.5h-3.2zm-18.9 5.2h3.2v3.5h-3.2zm4.7 0h3.2v3.5h-3.2zm4.8 0h3.2v3.5h-3.2zm4.7 0h3.2v3.5h-3.2zm4.7 0h3.2v3.5h-3.2zm-18.9 5.2h3.2v3.5h-3.2zm4.7 0h3.2v3.5h-3.2zm4.8 0h3.2v3.5h-3.2zm4.7 0h3.2v3.5h-3.2zm4.7 0h3.2v3.5h-3.2zm-18.9 5.2h3.2v3.5h-3.2zm4.7 0h3.2v3.5h-3.2zm4.8 0h3.2v3.5h-3.2zm4.7 0h3.2v3.5h-3.2zm4.7 0h3.2v3.5h-3.2zm-18.9 5.1h3.2v3.5h-3.2zm4.7 0h3.2v3.5h-3.2zm4.8 0h3.2v3.5h-3.2zm4.7 0h3.2v3.5h-3.2zm4.7 0h3.2v3.5h-3.2zm-18.9 5.2h3.2v3.5h-3.2zm4.7 0h3.2v3.5h-3.2zm4.8 0h3.2v3.5h-3.2zm4.7 0h3.2v3.5h-3.2zm4.7 0h3.2v3.5h-3.2zm-18.9 5.2h3.2v3.5h-3.2zm4.7 0h3.2v3.5h-3.2zm4.8 0h3.2v3.5h-3.2zm4.7 0h3.2v3.5h-3.2zm4.7 0h3.2v3.5h-3.2zm-18.9 5.1h3.2v3.5h-3.2zm4.7 0h3.2v3.5h-3.2zm4.8 0h3.2v3.5h-3.2zm4.7 0h3.2v3.5h-3.2zm4.7 0h3.2v3.5h-3.2zm-18.9 5.2h3.2v3.5h-3.2zm4.7 0h3.2v3.5h-3.2zm4.8 0h3.2v3.5h-3.2zm4.7 0h3.2v3.5h-3.2zm4.7 0h3.2v3.5h-3.2zm-18.9 5.2h3.2v3.5h-3.2zm4.7 0h3.2v3.5h-3.2zm4.8 0h3.2v3.5h-3.2zm4.7 0h3.2v3.5h-3.2zm4.7 0h3.2v3.5h-3.2zm-18.9 5.2h3.2v3.5h-3.2zm4.7 0h3.2v3.5h-3.2zm4.8 0h3.2v3.5h-3.2zm4.7 0h3.2v3.5h-3.2zm4.7 0h3.2v3.5h-3.2zm-18.9 5.1h3.2v3.5h-3.2zm4.7 0h3.2v3.5h-3.2zm4.8 0h3.2v3.5h-3.2zm4.7 0h3.2v3.5h-3.2zm4.7 0h3.2v3.5h-3.2zm-18.9 5.2h3.2v3.5h-3.2zm4.7 0h3.2v3.5h-3.2zm4.8 0h3.2v3.5h-3.2zm4.7 0h3.2v3.5h-3.2zm4.7 0h3.2v3.5h-3.2zm-18.9 5.2h3.2v3.5h-3.2zm4.7 0h3.2v3.5h-3.2zm4.8 0h3.2v3.5h-3.2zm4.7 0h3.2v3.5h-3.2zm4.7 0h3.2v3.5h-3.2zm-18.9 5.1h3.2v3.5h-3.2zm4.7 0h3.2v3.5h-3.2zm4.8 0h3.2v3.5h-3.2zm4.7 0h3.2v3.5h-3.2zm4.7 0h3.2v3.5h-3.2zm-18.9 5.2h3.2v3.5h-3.2zm4.7 0h3.2v3.5h-3.2zm4.8 0h3.2v3.5h-3.2zm4.7 0h3.2v3.5h-3.2zm4.7 0h3.2v3.5h-3.2zm-18.9 5.2h3.2v3.5h-3.2zm4.7 0h3.2v3.5h-3.2zm4.8 0h3.2v3.5h-3.2zm4.7 0h3.2v3.5h-3.2zm4.7 0h3.2v3.5h-3.2z"/><path class="st33" d="M98.5 706.7h9.8v283.2h-9.8z"/><path class="st34" d="M101.7 693.5v296.3H74.4V726.1L88 709.9z"/><path class="st35" d="M95.2 706.8h3.4v3.4h-3.4zm-6.1 6.8h3.4v3.4h-3.4zm6.1 0h3.4v3.4h-3.4zm-12.1 6.8h3.4v3.4h-3.4zm6 0h3.4v3.4h-3.4zm6.1 0h3.4v3.4h-3.4zM77 727.3h3.4v3.4H77zm6.1 0h3.4v3.4h-3.4zm6 0h3.4v3.4h-3.4zm6.1 0h3.4v3.4h-3.4zM77 734.1h3.4v3.4H77zm6.1 0h3.4v3.4h-3.4zm6 0h3.4v3.4h-3.4zm6.1 0h3.4v3.4h-3.4zM77 740.9h3.4v3.4H77zm6.1 0h3.4v3.4h-3.4zm6 0h3.4v3.4h-3.4zm6.1 0h3.4v3.4h-3.4zM77 747.8h3.4v3.4H77zm6.1 0h3.4v3.4h-3.4zm6 0h3.4v3.4h-3.4zm6.1 0h3.4v3.4h-3.4zM77 754.6h3.4v3.4H77zm6.1 0h3.4v3.4h-3.4zm6 0h3.4v3.4h-3.4zm6.1 0h3.4v3.4h-3.4zM77 761.4h3.4v3.4H77zm6.1 0h3.4v3.4h-3.4zm6 0h3.4v3.4h-3.4zm6.1 0h3.4v3.4h-3.4zM77 768.3h3.4v3.4H77zm6.1 0h3.4v3.4h-3.4zm6 0h3.4v3.4h-3.4zm6.1 0h3.4v3.4h-3.4zM77 775.1h3.4v3.4H77zm6.1 0h3.4v3.4h-3.4zm6 0h3.4v3.4h-3.4zm6.1 0h3.4v3.4h-3.4zM77 781.9h3.4v3.4H77zm6.1 0h3.4v3.4h-3.4zm6 0h3.4v3.4h-3.4zm6.1 0h3.4v3.4h-3.4zM77 788.7h3.4v3.4H77zm6.1 0h3.4v3.4h-3.4zm6 0h3.4v3.4h-3.4zm6.1 0h3.4v3.4h-3.4zM77 795.6h3.4v3.4H77zm6.1 0h3.4v3.4h-3.4zm6 0h3.4v3.4h-3.4zm6.1 0h3.4v3.4h-3.4zM77 802.4h3.4v3.4H77zm6.1 0h3.4v3.4h-3.4zm6 0h3.4v3.4h-3.4zm6.1 0h3.4v3.4h-3.4zM77 809.2h3.4v3.4H77zm6.1 0h3.4v3.4h-3.4zm6 0h3.4v3.4h-3.4zm6.1 0h3.4v3.4h-3.4zM77 816h3.4v3.4H77zm6.1 0h3.4v3.4h-3.4zm6 0h3.4v3.4h-3.4zm6.1 0h3.4v3.4h-3.4zM77 822.9h3.4v3.4H77zm6.1 0h3.4v3.4h-3.4zm6 0h3.4v3.4h-3.4zm6.1 0h3.4v3.4h-3.4zM77 829.7h3.4v3.4H77zm6.1 0h3.4v3.4h-3.4zm6 0h3.4v3.4h-3.4zm6.1 0h3.4v3.4h-3.4zM77 836.5h3.4v3.4H77zm6.1 0h3.4v3.4h-3.4zm6 0h3.4v3.4h-3.4zm6.1 0h3.4v3.4h-3.4zM77 843.4h3.4v3.4H77zm6.1 0h3.4v3.4h-3.4zm6 0h3.4v3.4h-3.4zm6.1 0h3.4v3.4h-3.4zM77 850.2h3.4v3.4H77zm6.1 0h3.4v3.4h-3.4zm6 0h3.4v3.4h-3.4zm6.1 0h3.4v3.4h-3.4zM77 857h3.4v3.4H77zm6.1 0h3.4v3.4h-3.4zm6 0h3.4v3.4h-3.4zm6.1 0h3.4v3.4h-3.4zM77 863.8h3.4v3.4H77zm6.1 0h3.4v3.4h-3.4zm6 0h3.4v3.4h-3.4zm6.1 0h3.4v3.4h-3.4zM77 870.7h3.4v3.4H77zm6.1 0h3.4v3.4h-3.4zm6 0h3.4v3.4h-3.4zm6.1 0h3.4v3.4h-3.4zM77 877.5h3.4v3.4H77zm6.1 0h3.4v3.4h-3.4zm6 0h3.4v3.4h-3.4zm6.1 0h3.4v3.4h-3.4zM77 884.3h3.4v3.4H77zm6.1 0h3.4v3.4h-3.4zm6 0h3.4v3.4h-3.4zm6.1 0h3.4v3.4h-3.4zM77 891.2h3.4v3.4H77zm6.1 0h3.4v3.4h-3.4zm6 0h3.4v3.4h-3.4zm6.1 0h3.4v3.4h-3.4zM77 898h3.4v3.4H77zm6.1 0h3.4v3.4h-3.4zm6 0h3.4v3.4h-3.4zm6.1 0h3.4v3.4h-3.4zM77 904.8h3.4v3.4H77zm6.1 0h3.4v3.4h-3.4zm6 0h3.4v3.4h-3.4zm6.1 0h3.4v3.4h-3.4zM77 911.6h3.4v3.4H77zm6.1 0h3.4v3.4h-3.4zm6 0h3.4v3.4h-3.4zm6.1 0h3.4v3.4h-3.4zM77 918.5h3.4v3.4H77zm6.1 0h3.4v3.4h-3.4zm6 0h3.4v3.4h-3.4zm6.1 0h3.4v3.4h-3.4zM77 925.3h3.4v3.4H77zm6.1 0h3.4v3.4h-3.4zm6 0h3.4v3.4h-3.4zm6.1 0h3.4v3.4h-3.4zM77 932.1h3.4v3.4H77zm6.1 0h3.4v3.4h-3.4zm6 0h3.4v3.4h-3.4zm6.1 0h3.4v3.4h-3.4zM77 939h3.4v3.4H77zm6.1 0h3.4v3.4h-3.4zm6 0h3.4v3.4h-3.4zm6.1 0h3.4v3.4h-3.4zM77 945.8h3.4v3.4H77zm6.1 0h3.4v3.4h-3.4zm6 0h3.4v3.4h-3.4zm6.1 0h3.4v3.4h-3.4zM77 952.6h3.4v3.4H77zm6.1 0h3.4v3.4h-3.4zm6 0h3.4v3.4h-3.4zm6.1 0h3.4v3.4h-3.4zM77 959.4h3.4v3.4H77zm6.1 0h3.4v3.4h-3.4zm6 0h3.4v3.4h-3.4zm6.1 0h3.4v3.4h-3.4zM77 966.3h3.4v3.4H77zm6.1 0h3.4v3.4h-3.4zm6 0h3.4v3.4h-3.4zm6.1 0h3.4v3.4h-3.4zM77 973.1h3.4v3.4H77zm6.1 0h3.4v3.4h-3.4zm6 0h3.4v3.4h-3.4zm6.1 0h3.4v3.4h-3.4zM77 979.9h3.4v3.4H77zm6.1 0h3.4v3.4h-3.4zm6 0h3.4v3.4h-3.4zm6.1 0h3.4v3.4h-3.4z"/><path class="st36" d="M101.7 693.5v296.3H88V709.9z"/><path class="st37" d="M74.4 779.6h27.3v.9H74.4zm0 54.6h27.3v.9H74.4zm0 54.5h27.3v.9H74.4zm0 54.6h27.3v.9H74.4z"/><path class="st38" d="M74.4 969.7h54.1v12.4H74.4z"/><path class="st31" d="M73.2 972.8h56.6v17H73.2z"/><path class="st39" d="M71.4 988.4h60.1v1.4H71.4z"/><path class="st32" d="M96.9 976.4h9.1v13.4h-9.1zm11.1 0h5.2v10.3H108zm6.5 0h5.2v10.3h-5.2zm6.5 0h5.2v10.3H121zm-44.3 0h5.2v10.3h-5.2zm6.5 0h5.2v10.3h-5.2zm6.5 0h5.2v10.3h-5.2z"/><path class="st40" d="M34.6 883.6h52.1v14.2H34.6z"/><path class="st41" d="M34.6 883.6h21v14.2h-21z"/><path class="st41" d="M34.6 890.8h52.1v7.1H34.6z"/><path class="st42" d="M32.5 893.2h56.3v96.6H32.5z"/><path class="st43" d="M32.5 893.2h22.9v96.6H32.5z"/><path class="st44" d="M30.5 986.5h60.3v3.3H30.5z"/><path class="st45" d="M35.8 897.1h7.7v7.6h-7.7zm10.5 0H54v7.6h-7.7zm10.5 0h7.6v7.6h-7.6zm10.5 0h7.6v7.6h-7.6zm10.5 0h7.6v7.6h-7.6zm-42 10.1h7.7v7.6h-7.7zm10.5 0H54v7.6h-7.7zm10.5 0h7.6v7.6h-7.6zm10.5 0h7.6v7.6h-7.6zm10.5 0h7.6v7.6h-7.6zm-42 10.2h7.7v7.6h-7.7zm10.5 0H54v7.6h-7.7zm10.5 0h7.6v7.6h-7.6zm10.5 0h7.6v7.6h-7.6zm10.5 0h7.6v7.6h-7.6zm-42 10.1h7.7v7.6h-7.7zm10.5 0H54v7.6h-7.7zm10.5 0h7.6v7.6h-7.6zm10.5 0h7.6v7.6h-7.6zm10.5 0h7.6v7.6h-7.6zm-42 10.1h7.7v7.6h-7.7zm10.5 0H54v7.6h-7.7zm10.5 0h7.6v7.6h-7.6zm10.5 0h7.6v7.6h-7.6zm10.5 0h7.6v7.6h-7.6zm-42 10.2h7.7v7.7h-7.7zm10.5 0H54v7.7h-7.7zm10.5 0h7.6v7.7h-7.6zm10.5 0h7.6v7.7h-7.6zm10.5 0h7.6v7.7h-7.6zm-42 10.1h7.7v7.6h-7.7zm10.5 0H54v7.6h-7.7zm10.5 0h7.6v7.6h-7.6zm10.5 0h7.6v7.6h-7.6zm10.5 0h7.6v7.6h-7.6zm-27.5 11.7h20.8v20.3H50.3zm-7.4 0h5.3v13.9h-5.3zm-7.1 0h5.3v13.9h-5.3zm44.4 0h5.3v13.9h-5.3zm-7.1 0h5.3v13.9h-5.3z"/><path class="st16" d="M99.7 989.8c-.1-.9-.9-1.6-1.8-1.5-.2 0-.5.1-.7.2-.4-.8-1.2-1.3-2.1-1.3h-.2c.5-.9.1-2-.7-2.5-.6-.3-1.3-.3-1.9.1-.1-.7-.7-1.3-1.5-1.3h-.1v-.2c0-.9-.8-1.7-1.7-1.7-.8 0-1.5.6-1.6 1.4-.7 0-1.4.5-1.6 1.2-1.2.2-2.1 1.3-2 2.5 0 .1 0 .2.1.3-.9-.3-1.9.1-2.3 1-.1.1-.1.3-.1.5-.9-.2-1.8.3-2.1 1.2l20.3.1z"/><path class="st17" d="M85.8 989.8c0-.6-.5-1-1.1-.9-.1 0-.3 0-.4.1-.2-.5-.7-.8-1.3-.8h-.1c.3-.5.1-1.2-.4-1.5-.4-.2-.8-.2-1.1.1-.1-.4-.4-.8-.9-.8v-.1c0-.6-.4-1-.9-1.1-.6 0-1 .4-1.1.9-.5 0-.9.3-1 .7-.7.1-1.2.8-1.2 1.5v.2c-.5-.2-1.1 0-1.3.5 0 .1-.1.2-.1.4-.5-.1-1.1.2-1.2.7l12.1.1z"/><path class="st46" d="M92.9 989.8c-.1-.7-.7-1.2-1.4-1.2-.2 0-.4.1-.5.2-.3-.6-.9-1-1.6-1h-.1c.4-.7.1-1.5-.5-1.9-.5-.3-1-.2-1.5.1-.1-.6-.5-1-1.1-1h-.1v-.1c.1-.7-.4-1.3-1.1-1.4-.7-.1-1.3.4-1.4 1.1-.6 0-1.1.4-1.2.9-.9.1-1.6 1-1.5 1.9v.2c-.7-.3-1.5.1-1.7.8 0 .1-.1.2-.1.3-.7-.2-1.4.2-1.6.9v.1l15.4.1z"/><path class="st47" d="M94.5 989.8c-.1-.5-.6-.9-1.1-.9-.1 0-.2 0-.3.1-.2-.5-.7-.8-1.2-.8h-.1c.3-.5.1-1.1-.4-1.4-.3-.2-.8-.2-1.1.1-.1-.4-.4-.7-.8-.8v-.1c-.1-.5-.6-.9-1.2-.8-.3.1-.6.3-.8.6-.4 0-.8.3-.9.7-.7.1-1.2.7-1.1 1.5v.2c-.5-.2-1.1.1-1.3.6 0 .1-.1.2-.1.3-.5-.1-1.1.2-1.2.7h11.6z"/><path class="st48" d="M34.7 975.8l-2 3.2-1.6 2.5v8.3h-1v-8.5c-.1-.5-.1-1-.2-1.5l-1.4-1.7-1.7-2.1.7.1 2 2.3.4.5v-.4c-.1-1.7-.1-3.6-.1-3.6h1.3l-.1 3.9v1.9l.9-1.8 1.7-3.2 1.1.1z"/><path class="st49" d="M27.5 976.1l2 2.3-.9-.3-1.7-2.1.6.1zm2.3-1.2h1.3l-.1 3.9c-.4-.1-.8-.2-1.1-.3-.1-1.7-.1-3.6-.1-3.6zm4.9.9l-2 3.2-.8-.1 1.7-3.2 1.1.1z"/><path class="st17" d="M37.4 972.6c.6-1.1.2-2.6-.9-3.2-.5-.3-1.1-.4-1.7-.2.6-1.4 0-3-1.5-3.7-1.2-.5-2.7-.1-3.4 1-.8-.3-1.7.1-1.9.9 0 .1-.1.2-.1.3-.6.1-1.2.5-1.5 1-1-.3-2 .2-2.4 1.2-.2.7 0 1.4.4 1.9-.1.2-.1.4-.1.6v.1c-1.4.3-2.3 1.7-1.9 3.1.3 1.4 1.7 2.3 3.1 1.9.6-.1 1.2-.5 1.5-1 .7 1 2.1 1.4 3.2.8.3.7 1.2 1.1 1.9.7.3-.1.5-.3.6-.5.7.2 1.5 0 2.1-.4 1.2.8 2.8.6 3.6-.6.8-1.2.6-2.8-.6-3.6-.1-.2-.3-.3-.4-.3z"/><circle class="st47" cx="25.5" cy="969.7" r=".5"/><circle class="st47" cx="32.1" cy="966.8" r=".7"/><circle class="st47" cx="24.3" cy="974" r=".6"/><circle class="st47" cx="29.7" cy="972" r=".6"/><path class="st48" d="M-18.9 977.2l-1.8 2.9-1.4 2.3v7.5h-.9v-7.7c-.1-.4-.1-.9-.1-1.3l-1.3-1.5-1.6-1.9.6.1 1.8 2 .4.4v-3.6h1.1l-.1 3.5v1.8l.8-1.6 1.5-2.9h1z"/><path class="st49" d="M-25.4 977.4l1.8 2-.9-.3-1.5-1.8.6.1zm2.1-1.1h1.1l-.1 3.5c-.3-.1-.7-.2-1-.2v-3.3zm4.4.9l-1.8 2.9-.7-.1 1.5-2.9 1 .1z"/><path class="st17" d="M-16.5 974.2c.6-1 .2-2.3-.8-2.9-.5-.3-1-.3-1.6-.2.5-1.3-.2-2.8-1.5-3.2-1.1-.4-2.3 0-2.9.9-.7-.2-1.5.2-1.7.9v.2c-.6.1-1.1.4-1.4.9-.9-.3-1.8.2-2.1 1.1-.2.6 0 1.2.4 1.7-.1.2-.1.3-.1.5-1.3.3-2 1.6-1.7 2.8.3 1.3 1.6 2 2.8 1.7.6-.1 1-.5 1.4-.9.7.9 1.9 1.2 2.9.8.3.7 1.1 1 1.7.7.2-.1.4-.3.6-.5.6.1 1.3 0 1.9-.4 1.1.8 2.5.5 3.3-.5s.5-2.5-.5-3.3c-.3-.2-.5-.3-.7-.3z"/><circle class="st47" cx="-27.2" cy="971.6" r=".5"/><circle class="st47" cx="-21.2" cy="968.9" r=".6"/><circle class="st47" cx="-28.2" cy="975.5" r=".6"/><circle class="st47" cx="-23.4" cy="973.7" r=".5"/><path class="st16" d="M42.3 989.8c-.1-1-.9-1.8-2-1.7-.3 0-.5.1-.8.2-.4-.9-1.3-1.5-2.3-1.5H37c.5-1 .2-2.2-.8-2.7-.7-.4-1.5-.3-2.1.1-.1-.8-.8-1.4-1.6-1.4h-.1v-.2c0-1-.8-1.8-1.9-1.8-.9 0-1.7.6-1.8 1.5-.8 0-1.6.6-1.8 1.3-1.4.2-2.3 1.4-2.2 2.8 0 .1 0 .3.1.4-1-.4-2.1.1-2.5 1.2-.1.2-.1.3-.1.5-1-.3-2 .3-2.3 1.3v.1l22.4-.1z"/><path class="st17" d="M33.3 989.8c0-.9-.8-1.6-1.7-1.5-.2 0-.5.1-.7.2-.4-.8-1.2-1.3-2.1-1.3h-.2c.5-.9.1-1.9-.7-2.4-.6-.3-1.3-.3-1.9.1-.1-.7-.7-1.3-1.4-1.3h-.1v-.2c0-.9-.8-1.6-1.7-1.6-.7 0-1.4.6-1.5 1.3-.7 0-1.4.5-1.6 1.2-1.2.2-2 1.3-1.9 2.5 0 .1 0 .2.1.3-.9-.3-1.9.1-2.2 1-.1.1-.1.3-.1.4-.9-.2-1.8.3-2 1.2l19.7.1z"/><path class="st46" d="M31 989.8c0-.6-.6-1.1-1.2-1.1-.2 0-.3.1-.5.1-.3-.6-.8-.9-1.5-.9h-.1c.3-.6.1-1.4-.5-1.7-.4-.2-.9-.2-1.3.1-.1-.5-.5-.9-1-.9h-.1v-.1c0-.6-.5-1.2-1.2-1.2-.6 0-1 .4-1.1.9-.5 0-1 .3-1.1.8-.9.1-1.5.9-1.4 1.7 0 .1 0 .2.1.3-.6-.2-1.3.1-1.6.7 0 .1-.1.2-.1.3-.6-.2-1.3.2-1.4.8l14 .2z"/><path class="st47" d="M39.1 989.8c-.1-.7-.7-1.2-1.4-1.2-.2 0-.3.1-.5.2-.3-.6-.9-1-1.6-1h-.2c.4-.7.1-1.5-.6-1.9-.4-.2-1-.2-1.4.1-.1-.6-.5-1-1.1-1h-.1v-.1c0-.7-.6-1.3-1.3-1.3-.6 0-1.2.4-1.3 1.1-.6 0-1.1.4-1.2.9-.9.1-1.6.9-1.5 1.9v.2c-.7-.3-1.5.1-1.7.8 0 .1-.1.2-.1.3-.7-.2-1.4.2-1.6.9v.1h15.6zm-16.1 0c0-.4-.4-.8-.9-.8-.1 0-.2 0-.3.1-.2-.4-.6-.6-1-.6h-.1c.2-.4.1-1-.4-1.2-.3-.2-.6-.1-.9 0 0-.4-.3-.6-.7-.6v-.1c0-.4-.3-.8-.7-.9-.4 0-.8.3-.9.7-.4 0-.7.2-.8.6-.6.1-1 .6-1 1.2v.2c-.4-.2-.9.1-1.1.5v.2H14c-.4 0-.7.3-.8.6l9.8.1z"/><path class="st50" d="M331.7 867.3H383v24.8h-51.3z"/><path class="st51" d="M331.7 871.1H383v21h-51.3z"/><path class="st31" d="M328.9 873.5h56.7v116.4h-56.7z"/><path class="st52" d="M328.9 873.5h24.3v116.4h-24.3z"/><path class="st53" d="M325.7 984.7h63.1v5.1h-63.1z"/><path class="st32" d="M331.8 876.9h8v8h-8zm10.7 0h8v8h-8zm10.8 0h8v8h-8zm10.7 0h8v8h-8zm10.7 0h8v8h-8zM331.8 888h8v8h-8zm10.7 0h8v8h-8zm10.8 0h8v8h-8zm10.7 0h8v8h-8zm10.7 0h8v8h-8zm-42.9 11.1h8v8h-8zm10.7 0h8v8h-8zm10.8 0h8v8h-8zm10.7 0h8v8h-8zm10.7 0h8v8h-8zm-42.9 11.1h8v8h-8zm10.7 0h8v8h-8zm10.8 0h8v8h-8zm10.7 0h8v8h-8zm10.7 0h8v8h-8zm-42.9 11.1h8v8h-8zm10.7 0h8v8h-8zm10.8 0h8v8h-8zm10.7 0h8v8h-8zm10.7 0h8v8h-8zm-42.9 11.2h8v8h-8zm10.7 0h8v8h-8zm10.8 0h8v8h-8zm10.7 0h8v8h-8zm10.7 0h8v8h-8zm-42.9 11.1h8v8h-8zm10.7 0h8v8h-8zm10.8 0h8v8h-8zm10.7 0h8v8h-8zm10.7 0h8v8h-8zm-42.9 11.1h8v8h-8zm10.7 0h8v8h-8zm10.8 0h8v8h-8zm10.7 0h8v8h-8zm10.7 0h8v8h-8zm-28.1 11.5h21.3v23.7h-21.3zm-7.6 0h5.4v16.2H339zm-7.2 0h5.4v16.2h-5.4zm45.5 0h5.4v16.2h-5.4zm-7.3 0h5.4v16.2H370z"/><path class="st54" d="M282.4 813.8V969H127.2l20.6-20.6 6.9-6.9 3.5-3.5 6.9-6.9 72.4-72.4 3.5-3.5 6.9-6.9 10.3-10.3 3.5-3.5 6.9-6.9z"/><path class="st55" d="M158.2 952v6.7h-17.3l6.7-6.7zm3 0h27.4v6.7h-27.4zm30.3 0h27.4v6.7h-27.4zm30.3 0h27.4v6.7h-27.4zm30.3 0h27.4v6.7h-27.4zm-93.9-10.1v6.7H151l6.7-6.7zm3 0h27.4v6.7h-27.4zm30.3 0h27.4v6.7h-27.4zm30.3 0h27.4v6.7h-27.4zm30.3 0h27.4v6.7h-27.4zm-63.6-10.1v6.7h-27.3l6.6-6.7zm3 0h27.4v6.7h-27.4zm30.3 0h27.4v6.7h-27.4zm30.3 0h27.4v6.7h-27.4zm-63.6-10.1v6.7h-17.3l6.7-6.7zm3 0h27.4v6.7h-27.4zm30.3 0h27.4v6.7h-27.4zm30.3 0h27.4v6.7h-27.4zm-63.6-10.1v6.7h-7.2l6.7-6.7zm3 0h27.4v6.7h-27.4zm30.3 0h27.4v6.7h-27.4zm30.3 0h27.4v6.7h-27.4zm-33.3-10.1v6.7h-27.3v-.1l6.6-6.6zm3 0h27.4v6.7h-27.4zm30.3 0h27.4v6.7h-27.4zm-33.3-10.1v6.7h-17.3l6.7-6.7zm3 0h27.4v6.7h-27.4zm30.3 0h27.4v6.7h-27.4zm-33.3-10.1v6.7h-7.2l6.7-6.7zm3 0h27.4v6.7h-27.4zm30.3 0h27.4v6.7h-27.4zm-3-10.1v6.7h-27.3l6.6-6.7zm3 0h27.4v6.7h-27.4zm-3-10.1v6.7h-17.3l6.7-6.7zm3 0h27.4v6.7h-27.4zm-3-10.1v6.7h-7.2l6.7-6.7zm3 0h27.4v6.7h-27.4zm27.3-10.1v6.7h-27.3l6.6-6.7zm0-10.1v6.7h-17.3l6.7-6.7zm0-10.1v6.7h-7.1l6.6-6.7z"/><path class="st56" d="M207.6 969h-80.4l20.6-20.7 6.9-6.9 3.5-3.5 6.8-6.8 42.5-42.5c0 21.7 0 53.9.1 80.4z"/><path class="st56" d="M282.4 958.7V969H127.2l10.3-10.3z"/><path class="st57" d="M124.4 962.1h160.7v27.7H124.4z"/><path class="st58" d="M129.7 966.7h6.1v23.2h-6.1zm10.2 0h6.1v23.2h-6.1zm10.3 0h6.1v23.2h-6.1zm10.2 0h6.1v23.2h-6.1zm10.3 0h6.1v23.2h-6.1zm10.3 0h6.1v23.2H181zm10.2 0h6.1v23.2h-6.1zm10.3 0h6.1v23.2h-6.1zm10.2 0h6.1v23.2h-6.1zm10.3 0h6.1v23.2H222zm10.3 0h6.1v23.2h-6.1zm10.2 0h6.1v23.2h-6.1zm10.3 0h6.1v23.2h-6.1zm10.2 0h6.1v23.2H263zm10.3 0h6.1v23.2h-6.1z"/><path class="st59" d="M124.4 962.1h69.8v27.7h-69.8z"/><path class="st48" d="M115.6 978.6l-1.6 2.6-1.3 2v6.6h-.8V983c-.1-.4-.1-.8-.1-1.2l-1.1-1.3-1.4-1.7.5.1 1.6 1.8.3.4v-3.2h1l-.1 3.1v1.6l.8-1.4 1.4-2.6h.8z"/><path class="st49" d="M109.8 978.9l1.6 1.8-.8-.2-1.4-1.7.6.1zm1.9-1h1l-.1 3.1-.9-.2v-2.9zm3.9.7l-1.6 2.6-.6-.1 1.4-2.6.8.1z"/><path class="st17" d="M117.7 976c.5-.9.2-2.1-.7-2.6-.4-.2-.9-.3-1.4-.2.4-1.2-.2-2.4-1.3-2.9-.9-.3-2 0-2.6.8-.6-.2-1.3.1-1.5.8v.2c-.5.1-1 .4-1.2.8-.8-.3-1.6.2-1.9.9-.2.5 0 1.1.4 1.5 0 .1-.1.3-.1.4-1.1.3-1.8 1.4-1.5 2.5s1.4 1.8 2.5 1.5c.5-.1.9-.4 1.2-.8.6.8 1.7 1.1 2.6.7.3.6 1 .8 1.6.5.2-.1.3-.2.4-.4.6.1 1.2 0 1.6-.3 1 .6 2.2.4 2.9-.6.6-1 .4-2.2-.6-2.9-.2.2-.3.1-.4.1z"/><circle class="st47" cx="108.2" cy="973.8" r=".4"/><circle class="st47" cx="113.5" cy="971.4" r=".5"/><circle class="st47" cx="107.3" cy="977.2" r=".5"/><circle class="st47" cx="111.5" cy="975.6" r=".5"/><path class="st48" d="M127.1 976.3l-1.9 3.1-1.5 2.4v8h-1v-8.3c-.1-.5-.1-1-.1-1.4l-1.3-1.7-1.6-2 .6.1 1.9 2.2.4.5v-.3c-.1-1.7-.1-3.5-.1-3.5h1.2l-.1 3.8v1.9l.9-1.7 1.6-3.1h1z"/><path class="st49" d="M120.2 976.6l1.9 2.2-.9-.3-1.6-2 .6.1zm2.3-1.2h1.2l-.1 3.8c-.4-.1-.7-.2-1.1-.3v-3.5zm4.6.9l-1.9 3.1-.7-.1 1.6-3.1 1 .1z"/><path class="st17" d="M129.7 973.2c.6-1.1.2-2.5-.9-3.1-.5-.3-1.1-.4-1.7-.2.5-1.4-.2-2.9-1.6-3.4-1.1-.4-2.4 0-3.1.9-.8-.2-1.6.2-1.9.9v.2c-.6.1-1.2.5-1.5 1-.9-.3-2 .2-2.3 1.1-.2.7 0 1.4.4 1.9-.1.2-.1.4-.1.5-1.3.3-2.2 1.7-1.8 3 .3 1.3 1.7 2.2 3 1.8.6-.1 1.1-.5 1.4-1 .7 1 2 1.3 3.1.8.3.7 1.2 1 1.9.7.2-.1.4-.3.6-.5.7.2 1.4 0 2-.4 1.1.8 2.7.5 3.5-.6s.5-2.7-.6-3.5c0 0-.2 0-.4-.1z"/><circle class="st47" cx="118.3" cy="970.4" r=".5"/><circle class="st47" cx="124.7" cy="967.6" r=".6"/><circle class="st47" cx="117.2" cy="974.6" r=".6"/><circle class="st47" cx="122.3" cy="972.6" r=".6"/><path class="st16" d="M141.2 989.8c-.1-1-.9-1.7-1.9-1.6-.3 0-.5.1-.7.2-.4-.9-1.3-1.4-2.2-1.4h-.2c.5-.9.1-2.1-.8-2.6-.6-.3-1.4-.3-2 .1-.1-.8-.8-1.4-1.5-1.4h-.1v-.2c0-1-.8-1.7-1.8-1.7-.8 0-1.6.6-1.7 1.4-.8 0-1.5.5-1.7 1.3-1.3.1-2.2 1.3-2.1 2.6 0 .1 0 .3.1.4-.9-.3-2 .1-2.3 1.1-.1.2-.1.3-.1.5-.9-.2-1.9.3-2.2 1.3v.1l21.2-.1z"/><path class="st17" d="M126.7 989.8c0-.6-.4-1-1-1-.2 0-.4.1-.5.2-.2-.5-.7-.8-1.3-.8h-.1c.3-.5.1-1.2-.4-1.5-.4-.2-.8-.2-1.2.1-.1-.5-.4-.8-.9-.8v-.1c.1-.6-.4-1.1-.9-1.1-.6-.1-1.1.4-1.1.9-.5 0-.9.3-1 .8-.8.1-1.3.8-1.2 1.5v.2c-.6-.2-1.2.1-1.4.6 0 .1-.1.2-.1.3-.5-.2-1.1.1-1.3.6v.1h12.4z"/><path class="st46" d="M134 989.8c0-.7-.7-1.3-1.4-1.2-.2 0-.4.1-.6.2-.3-.6-.9-1.1-1.7-1.1h-.2c.4-.7.1-1.6-.6-1.9-.5-.2-1-.2-1.5.1-.1-.6-.6-1-1.1-1v-.1c0-.7-.6-1.3-1.4-1.3-.6 0-1.1.4-1.3 1-.6 0-1.1.4-1.3 1-1 .1-1.7 1-1.5 2 0 .1 0 .2.1.3-.7-.3-1.5.1-1.8.8 0 .1-.1.2-.1.4-.7-.2-1.4.2-1.6.9v.1l16-.2z"/><path class="st47" d="M135.8 989.8c0-.6-.5-1-1-.9-.2 0-.3.1-.4.1-.2-.5-.7-.8-1.3-.8h-.1c.3-.5.1-1.2-.4-1.5-.4-.2-.8-.2-1.2.1-.1-.4-.4-.8-.9-.8v-.1c0-.6-.4-1-.9-1.1-.6 0-1 .4-1.1.9-.5 0-.9.3-1 .7-.7.1-1.3.8-1.2 1.5v.2c-.5-.2-1.2.1-1.4.6 0 .1-.1.2-.1.3-.5-.1-1.1.2-1.2.7v.1h12.2z"/><path class="st48" d="M268 975.8l-2 3.2-1.6 2.5v8.3h-1v-8.5c-.1-.5-.1-1-.1-1.5l-1.4-1.7-1.7-2.1.7.1 2 2.3.4.5v-4h1.3l-.1 3.9v1.9l.9-1.8 1.7-3.2.9.1z"/><path class="st49" d="M260.8 976.1l2 2.3-1-.3-1.7-2.1.7.1zm2.4-1.2h1.3l-.1 3.9c-.4-.1-.8-.2-1.1-.3-.1-1.7-.1-3.6-.1-3.6zm4.8.9l-2 3.2-.8-.1 1.7-3.2 1.1.1z"/><path class="st17" d="M270.7 972.6c.6-1.1.2-2.6-.9-3.2-.5-.3-1.1-.4-1.7-.2.6-1.4-.2-3-1.6-3.6-1.2-.5-2.5-.1-3.3 1-.8-.3-1.7.1-1.9.9 0 .1-.1.2-.1.3-.6.1-1.2.5-1.5 1-1-.3-2 .2-2.4 1.2-.2.7 0 1.4.4 1.9-.1.2-.1.4-.1.6v.1c-1.4.3-2.3 1.7-1.9 3.1.3 1.4 1.7 2.3 3.1 1.9.6-.1 1.2-.5 1.5-1 .7 1 2.1 1.4 3.2.8.3.7 1.2 1.1 1.9.7.3-.1.5-.3.6-.5 1.1-.6 2.5-.6 3.5.1 1.4 0 2.6-1.1 2.6-2.5.3-1.3-.4-2.3-1.4-2.6z"/><circle class="st47" cx="258.9" cy="969.7" r=".5"/><circle class="st47" cx="265.5" cy="966.8" r=".7"/><circle class="st47" cx="257.7" cy="974" r=".6"/><circle class="st47" cx="263" cy="972" r=".6"/><path class="st48" d="M328.9 979.1l-1.6 2.4-1.2 2v6.4h-.8v-6.6c-.1-.4-.1-.8-.1-1.1l-1.1-1.3-1.3-1.6.5.1 1.5 1.7.3.4v-3.1h1l-.1 3v1.5l.7-1.4 1.2-2.5 1 .1z"/><path class="st49" d="M323.3 979.3l1.5 1.7-.7-.2-1.3-1.6.5.1zm1.8-1h1l-.1 3-.9-.2v-2.8zm3.8.8l-1.6 2.4-.6-.1 1.3-2.4.9.1z"/><path class="st17" d="M330.9 976.5c.5-.9.2-2-.7-2.5-.4-.2-.8-.3-1.3-.2.4-1.1-.2-2.3-1.3-2.8-.9-.3-1.9 0-2.5.8-.6-.2-1.3.1-1.5.7v.2c-.5.1-.9.4-1.2.8-.8-.2-1.6.2-1.8.9-.2.5 0 1.1.3 1.4 0 .1-.1.3-.1.4-.3 1.9 1 3.6 2.9 3.9.6.1 1.2 0 1.7-.2.2.6.9.8 1.5.6.2-.1.4-.3.5-.5.8-.5 1.9-.5 2.7 0 1.1 0 2-.9 2-2 .1-.5-.4-1.2-1.2-1.5z"/><circle class="st47" cx="321.8" cy="974.4" r=".4"/><circle class="st47" cx="326.9" cy="972.1" r=".5"/><circle class="st47" cx="320.9" cy="977.7" r=".5"/><circle class="st47" cx="325" cy="976.1" r=".5"/><path class="st48" d="M412.5 974.3l-2.2 3.5-1.8 2.8v9.2h-1.1v-9.5c-.1-.5-.2-1.1-.2-1.7l-1.6-1.9-1.9-2.3.7.1 2.2 2.5.5.5v-.4c-.1-1.9-.1-4-.1-4h1.4l-.1 4.3v2.2l1-2 1.9-3.6 1.3.3z"/><path class="st49" d="M404.5 974.6l2.2 2.5-1-.3-1.9-2.3.7.1zm2.7-1.4h1.4l-.1 4.3c-.4-.1-.9-.2-1.3-.3v-4zm5.3 1.1l-2.2 3.5-.9-.1 1.9-3.5 1.2.1z"/><path class="st17" d="M415.5 970.6c.7-1.3.2-2.8-1-3.6-.6-.3-1.3-.4-1.9-.3.6-1.6-.2-3.4-1.8-4-1.3-.5-2.8-.1-3.6 1.1-.9-.3-1.8.2-2.1 1.1 0 .1 0 .2-.1.3-.7.1-1.3.5-1.7 1.1-1.1-.3-2.3.3-2.6 1.4-.2.7 0 1.5.5 2.1-.1.2-.1.4-.1.6v.1c-.4 2.7 1.4 5.2 4.1 5.6.8.1 1.7 0 2.5-.2.4.8 1.3 1.2 2.1.8.3-.1.5-.3.7-.6 1.2-.7 2.7-.6 3.9.1 1.6 0 2.9-1.3 2.9-2.9 0-1.2-.7-2.2-1.8-2.7z"/><circle class="st47" cx="402.3" cy="967.5" r=".6"/><circle class="st47" cx="409.7" cy="964.2" r=".7"/><circle class="st47" cx="401.1" cy="972.3" r=".7"/><circle class="st47" cx="407" cy="970" r=".7"/><path class="st60" d="M-66 988.7h500v6.3H-66z"/></g></g><g id="Слой_2_2_"><g id="OBJECTS_2_"><path class="st0" d="M495.3 944.2h-5.5V926h-14.5v31h-10.5v-17.7h-23.9v14.6H434V990h12v-.1h67.5v-80.3h-18.2z"/><path class="st14" d="M511.6 989.8c-.2-2.3-2.1-4-4.4-3.8-.6 0-1.2.2-1.7.5-.9-2-3-3.3-5.2-3.3h-.5c1.2-2.2.4-4.9-1.8-6-1.5-.8-3.3-.7-4.7.3-.2-1.8-1.8-3.2-3.6-3.2h-.2v-.4c0-2.3-1.8-4.1-4.1-4.2-2 0-3.7 1.4-4.1 3.4-1.9 0-3.5 1.2-4 3-3 .4-5.2 3.1-4.8 6.1 0 .3.1.6.2.9-2.2-.8-4.7.4-5.5 2.6-.1.3-.2.7-.2 1-2.2-.6-4.5.7-5.1 3v.1h49.7z"/><path class="st15" d="M491.6 989.8c-.1-2-1.8-3.5-3.8-3.4-.5 0-1.1.2-1.5.4-.8-1.8-2.6-2.9-4.6-2.9h-.4c1-1.9.3-4.3-1.6-5.3-1.3-.7-2.8-.6-4 .2-.2-1.6-1.5-2.8-3.2-2.8h-.2v-.4c0-2-1.6-3.6-3.6-3.6-1.7 0-3.2 1.2-3.5 3-1.6 0-3 1.1-3.5 2.6-2.7.3-4.5 2.7-4.2 5.4 0 .2.1.5.1.7-2-.7-4.1.3-4.9 2.2-.1.3-.2.6-.2 1-2-.5-3.9.7-4.5 2.6v.1l43.6.2z"/><path class="st16" d="M486.5 989.8c-.1-1.4-1.3-2.5-2.7-2.4-.4 0-.7.1-1.1.3-.6-1.3-1.8-2.1-3.2-2.1h-.3c.7-1.4.2-3.1-1.2-3.8-.9-.5-1.9-.4-2.8.1-.1-1.1-1.1-2-2.2-2h-.2v-.3c0-1.4-1.1-2.6-2.6-2.6-1.2 0-2.3.9-2.5 2.1-1.1 0-2.2.8-2.5 1.9-1.9.2-3.2 2-3 3.8 0 .2.1.3.1.5-1.4-.5-2.9.2-3.5 1.6-.1.2-.1.5-.2.7-1.4-.4-2.8.5-3.2 1.9v.1l31.1.2z"/><path class="st17" d="M504.5 989.8c-.1-1.6-1.4-2.8-3-2.7-.4 0-.8.1-1.2.3-.7-1.4-2-2.3-3.6-2.3h-.3c.8-1.5.3-3.4-1.2-4.2-1-.6-2.3-.5-3.2.2-.2-1.1-1.3-2.1-2.5-2.1h-.2v-.3c0-1.6-1.3-2.8-2.9-2.8-1.4 0-2.5 1-2.8 2.3-1.3 0-2.3.9-2.7 2.1-2.1.3-3.6 2.2-3.3 4.2 0 .2.1.4.1.6-1.6-.6-3.3.2-3.8 1.8-.1.2-.1.5-.2.7-1.5-.4-3.1.5-3.5 2v.1l34.3.1zm-35.6 0c-.1-1-.9-1.7-1.9-1.7-.3 0-.5.1-.8.2-.4-.9-1.3-1.4-2.2-1.4h-.2c.4-1 0-2.2-1-2.6-.6-.3-1.2-.2-1.8.1-.1-.8-.8-1.4-1.6-1.4h-.1v-.2c0-1-.8-1.8-1.8-1.8-.9 0-1.6.6-1.8 1.5-.8 0-1.5.5-1.7 1.3-1.3.2-2.2 1.4-2.1 2.7 0 .1 0 .2.1.3-1-.4-2.1.1-2.5 1-.1.2-.1.4-.1.7-1-.3-2 .3-2.2 1.3v.1l21.7-.1z"/><path class="st18" d="M535.4 820.9c-.8-6.1-.4-12.4-.7-18.7h-48.9v48.7h49.1c.2-2.3.4-4.6.8-6.8-.5-3.5-.8-7.1-1-10.6-.1-4.3.1-8.5.7-12.6z"/><path class="st19" d="M485.8 802.2h40.6v48.7h-40.6z"/><path class="st19" d="M534.8 833.5c-.1-3.3 0-6.5.3-9.7h-49.3v27.1h49.1c.2-2.3.4-4.6.8-6.8-.5-3.5-.8-7.1-.9-10.6z"/><path class="st20" d="M535.4 820.9c-.2-2-.4-3.9-.5-5.9h-41.5v33.6H535l.6-4.5c-.5-3.5-.8-7.1-1-10.6 0-4.3.2-8.5.8-12.6z"/><path class="st21" d="M496.1 818.3h5.6v5.6h-5.6zm9 0h5.6v5.6h-5.6zm9 0h5.6v5.6h-5.6zm9 0h5.6v5.6h-5.6zm12 0H532v5.6h3c.1-1 .2-2 .4-3-.1-.9-.2-1.7-.3-2.6z"/><path class="st22" d="M534.8 833.5c-.1-2.6 0-5.2.1-7.7h-41.4v22.9h41.6c.2-1.5.4-3.1.6-4.6-.5-3.5-.8-7.1-.9-10.6z"/><path class="st23" d="M534.9 938c-1.4-6 .2-11.7.6-17.8.4-7.1.1-14.4.1-21.5 0-.6.1-1.2.3-1.7-1-5-1.3-10.1-1.1-15.5v-1c0-4.1.3-8.2.9-12.2-.4-3.3-.7-6.6-.9-9.8-.2-4.9.1-9.7 1-14.4-.5-3.5-.8-7.1-1-10.6 0-1.2-.1-2.3 0-3.5h-48.9v159.9h49c.7-9.4.2-18.7-.2-28.1-.5-7.9-.9-15.9.2-23.8z"/><path class="st20" d="M489.4 833.6h6v6h-6zm9.5 0h6v6h-6zm9.6 0h6v6h-6zm9.6 0h6v6h-6zm9.6 0h6v6h-6zm-38.3 9.3h6v6h-6zm9.5 0h6v6h-6zm9.6 0h6v6h-6zm9.6 0h6v6h-6zm9.6 0h6v6h-6zm-38.3 9.2h6v6h-6zm9.5 0h6v6h-6zm9.6 0h6v6h-6zm9.6 0h6v6h-6zm9.6 0h6v6h-6zm-38.3 9.2h6v6h-6zm9.5 0h6v6h-6zm9.6 0h6v6h-6zm9.6 0h6v6h-6zm9.6 0h6v6h-6zm-38.3 9.3h6v6h-6zm9.5 0h6v6h-6zm9.6 0h6v6h-6zm9.6 0h6v6h-6zm9.6 0h6v6h-6zm-38.3 9.2h6v6h-6zm9.5 0h6v6h-6zm9.6 0h6v6h-6zm9.6 0h6v6h-6zm9.6 0h6v6h-6zm-38.3 9.2h6v6h-6zm9.5 0h6v6h-6zm9.6 0h6v6h-6zm9.6 0h6v6h-6zm9.6 0h6v6h-6zm-38.3 9.3h6v6h-6zm9.5 0h6v6h-6zm9.6 0h6v6h-6zm9.6 0h6v6h-6zm9.6 0h6v6h-6zm-38.3 9.2h6v6h-6zm9.5 0h6v6h-6zm9.6 0h6v6h-6zm9.6 0h6v6h-6zm9.6 0h6v6h-6zm-38.3 9.2h6v6h-6zm9.5 0h6v6h-6zm9.6 0h6v6h-6zm9.6 0h6v6h-6zm9.6 0h6v6h-6zm-38.3 9.3h6v6h-6zm9.5 0h6v6h-6zm9.6 0h6v6h-6zm9.6 0h6v6h-6zm9.6 0h6v6h-6zm-38.3 9.2h6v6h-6zm9.5 0h6v6h-6zm9.6 0h6v6h-6zm9.6 0h6v6h-6zm9.6 0h6v6h-6zm-38.3 9.2h6v6h-6zm9.5 0h6v6h-6zm9.6 0h6v6h-6zm9.6 0h6v6h-6zm9.6 0h6v6h-6zm-38.3 9.2h6v6h-6zm9.5 0h6v6h-6zm9.6 0h6v6h-6zm9.6 0h6v6h-6zm9.6 0h6v6h-6z"/><path class="st24" d="M485.8 830h39.3v159.9h-39.3z"/><path class="st25" d="M534.7 964h-53.2v25.8h53.3c.6-8.6.2-17.2-.1-25.8z"/><path class="st26" d="M535 986.4h-56.8v3.5h56.6c0-1.2.1-2.3.2-3.5z"/><path class="st23" d="M534.9 970.2H513v19.7h21.8c.4-6.6.3-13.1.1-19.7zm-36.7 2.2h11.6v10.4h-11.6zm-13.6 0h11.5v10.4h-11.5z"/><path class="st40" d="M535.9 896.9c-.8-4.3-1.2-8.8-1.2-13.3h-.1v14.2h1l.3-.9z"/><path class="st41" d="M535.9 896.9c-.8-4.3-1.2-8.8-1.2-13.3h-.1v14.2h1l.3-.9z"/><path class="st41" d="M535.9 896.9c-.4-2-.7-4.1-.9-6.1h-.4v7.1h1c.1-.3.2-.7.3-1z"/><path class="st42" d="M534.9 938c-1.4-6 .2-11.7.6-17.8.4-7.1.1-14.4.1-21.5 0-.7.1-1.2.3-1.7-.2-1.2-.4-2.5-.6-3.8h-2.8v96.6h2.3c.6-9.3.2-18.7-.2-28-.4-7.9-.8-15.9.3-23.8z"/><path class="st43" d="M534.9 938c-1.4-6 .2-11.7.6-17.8.4-7.1.1-14.4.1-21.5 0-.7.1-1.2.3-1.7-.2-1.2-.4-2.5-.6-3.8h-2.8v96.6h2.3c.6-9.3.2-18.7-.2-28-.4-7.9-.8-15.9.3-23.8z"/><path class="st44" d="M535 986.5h-4.5v3.3h4.3c0-1.1.1-2.2.2-3.3z"/><path class="st48" d="M534.7 975.8l-2 3.2-1.6 2.5v8.3h-1v-8.5c-.1-.5-.1-1-.2-1.5l-1.4-1.7-1.7-2.1.7.1 2 2.3.4.5v-.4c-.1-1.7-.1-3.6-.1-3.6h1.3l-.1 3.9v1.9l.9-1.8 1.7-3.2 1.1.1z"/><path class="st49" d="M527.5 976.1l2 2.3-.9-.3-1.7-2.1.6.1zm2.3-1.2h1.3l-.1 3.9c-.4-.1-.8-.2-1.1-.3-.1-1.7-.1-3.6-.1-3.6zm4.9.9l-2 3.2-.8-.1 1.7-3.2 1.1.1z"/><path class="st17" d="M535.1 977.2c0-2.7-.1-5.4-.2-8.1h-.1c0-.1 0-.2.1-.2 0-.7-.1-1.3-.1-2-.3-.6-.8-1.2-1.5-1.5-1.2-.5-2.7-.1-3.4 1-.8-.3-1.7.1-1.9.9 0 .1-.1.2-.1.3-.6.1-1.2.5-1.5 1-1-.3-2 .2-2.4 1.2-.2.7 0 1.4.4 1.9-.1.2-.1.4-.1.6v.1c-1.4.3-2.3 1.7-1.9 3.1.3 1.4 1.7 2.3 3.1 1.9.6-.1 1.2-.5 1.5-1 .7 1 2.1 1.4 3.2.8.3.7 1.2 1.1 1.9.7.3-.1.5-.3.6-.5.7.2 1.5 0 2.1-.4.1.2.2.2.3.2z"/><circle class="st47" cx="525.5" cy="969.7" r=".5"/><circle class="st47" cx="532.1" cy="966.8" r=".7"/><circle class="st47" cx="524.3" cy="974" r=".6"/><circle class="st47" cx="529.7" cy="972" r=".6"/><path class="st48" d="M481.1 977.2l-1.8 2.9-1.4 2.3v7.5h-.9v-7.7c-.1-.4-.1-.9-.1-1.3l-1.3-1.5-1.6-1.9.6.1 1.8 2 .4.4v-3.6h1.1l-.1 3.5v1.8l.8-1.6 1.5-2.9h1z"/><path class="st49" d="M474.6 977.4l1.8 2-.9-.3-1.5-1.8.6.1zm2.1-1.1h1.1l-.1 3.5c-.3-.1-.7-.2-1-.2v-3.3zm4.4.9l-1.8 2.9-.7-.1 1.5-2.9 1 .1z"/><path class="st17" d="M483.5 974.2c.6-1 .2-2.3-.8-2.9-.5-.3-1-.3-1.6-.2.5-1.3-.2-2.8-1.5-3.2-1.1-.4-2.3 0-2.9.9-.7-.2-1.5.2-1.7.9v.2c-.6.1-1.1.4-1.4.9-.9-.3-1.8.2-2.1 1.1-.2.6 0 1.2.4 1.7-.1.2-.1.3-.1.5-1.3.3-2 1.6-1.7 2.8.3 1.3 1.6 2 2.8 1.7.6-.1 1-.5 1.4-.9.7.9 1.9 1.2 2.9.8.3.7 1.1 1 1.7.7.2-.1.4-.3.6-.5.6.1 1.3 0 1.9-.4 1.1.8 2.5.5 3.3-.5s.5-2.5-.5-3.3c-.3-.2-.5-.3-.7-.3z"/><circle class="st47" cx="472.8" cy="971.6" r=".5"/><circle class="st47" cx="478.8" cy="968.9" r=".6"/><circle class="st47" cx="471.8" cy="975.5" r=".6"/><circle class="st47" cx="476.6" cy="973.7" r=".5"/><path class="st16" d="M535.1 983.9c-.3 0-.7.1-1 .3-.1-.8-.8-1.4-1.6-1.4h-.1v-.2c0-1-.8-1.8-1.9-1.8-.9 0-1.7.6-1.8 1.5-.8 0-1.6.6-1.8 1.3-1.4.2-2.3 1.4-2.2 2.8 0 .1 0 .3.1.4-1-.4-2.1.1-2.5 1.2-.1.2-.1.3-.1.5-1-.3-2 .3-2.3 1.3v.1l14.9-.1c.1-2 .2-3.9.3-5.9z"/><path class="st17" d="M533.3 989.8c0-.9-.8-1.6-1.7-1.5-.2 0-.5.1-.7.2-.4-.8-1.2-1.3-2.1-1.3h-.2c.5-.9.1-1.9-.7-2.4-.6-.3-1.3-.3-1.9.1-.1-.7-.7-1.3-1.4-1.3h-.1v-.2c0-.9-.8-1.6-1.7-1.6-.7 0-1.4.6-1.5 1.3-.7 0-1.4.5-1.6 1.2-1.2.2-2 1.3-1.9 2.5 0 .1 0 .2.1.3-.9-.3-1.9.1-2.2 1-.1.1-.1.3-.1.4-.9-.2-1.8.3-2 1.2l19.7.1z"/><path class="st46" d="M531 989.8c0-.6-.6-1.1-1.2-1.1-.2 0-.3.1-.5.1-.3-.6-.8-.9-1.5-.9h-.1c.3-.6.1-1.4-.5-1.7-.4-.2-.9-.2-1.3.1-.1-.5-.5-.9-1-.9h-.1v-.1c0-.6-.5-1.2-1.2-1.2-.6 0-1 .4-1.1.9-.5 0-1 .3-1.1.8-.9.1-1.5.9-1.4 1.7 0 .1 0 .2.1.3-.6-.2-1.3.1-1.6.7 0 .1-.1.2-.1.3-.6-.2-1.3.2-1.4.8l14 .2z"/><path class="st47" d="M535 986c-.1 0-.1-.1-.2-.1-.4-.2-1-.2-1.4.1-.1-.6-.5-1-1.1-1h-.1v-.1c0-.7-.6-1.3-1.3-1.3-.6 0-1.2.4-1.3 1.1-.6 0-1.1.4-1.2.9-.9.1-1.6.9-1.5 1.9v.2c-.7-.3-1.5.1-1.7.8 0 .1-.1.2-.1.3-.7-.2-1.4.2-1.6.9v.1h11.3c.1-1.3.1-2.5.2-3.8zm-12 3.8c0-.4-.4-.8-.9-.8-.1 0-.2 0-.3.1-.2-.4-.6-.6-1-.6h-.1c.2-.4.1-1-.4-1.2-.3-.2-.6-.1-.9 0 0-.4-.3-.6-.7-.6v-.1c0-.4-.3-.8-.7-.9-.4 0-.8.3-.9.7-.4 0-.7.2-.8.6-.6.1-1 .6-1 1.2v.2c-.4-.2-.9.1-1.1.5v.2h-.2c-.4 0-.7.3-.8.6l9.8.1z"/><path class="st60" d="M534.4 994.3c0-1 .1-2 .3-3 .1-.9.1-1.7.2-2.6H434v6.3h100.4v-.7z"/></g></g><g id="Слой_2_1_"><g id="OBJECTS_1_"><path class="st0" d="M-75.5 956.3v-7.4h-10.8v10.8h-7.3v-19.4h-15.7v-22.9h-9.1v9.5h-48.3c0 .3-.1.6-.1.9.1 3.3.2 6.7.2 10 0 .4 0 .7-.1 1 0 3.8.1 7.6-.4 11.3.2.5.3 1.1.3 1.9-.5 5.8.3 11.4-.4 17.3.1.8.2 1.6.4 2.3.1.6.2 1.2.1 1.7.3.5.4 1.1.5 1.8.2 4.9-.4 9.9-.7 14.8h101v-33.7h-9.6z"/><path class="st1" d="M-166.5 802.2c.5 4.3.3 8.6-.3 12.8.1.4.2.7.2 1.1v-.1c0 .2.1.4.1.5 0 .3.1.5.1.8.1.9.3 1.8.3 2.7 0 .4-.1.9-.2 1.2 0 .7-.2 1.4-.6 2.1-.1.1-.1.3-.2.4.4 1.1.4 2.5-.2 3.6.1.3.2.6.2 1 .2 1.9.3 3.7.3 5.6h24.4V802h-24.1z"/><path class="st2" d="M-166.4 817.2v.2c.1.9.3 1.8.3 2.7 0 .4-.1.9-.2 1.2 0 .7-.2 1.4-.6 2.1-.1.1-.1.3-.2.4.4 1.1.4 2.5-.2 3.6.1.3.2.6.2 1 .2 1.9.3 3.7.3 5.6h24.4v-16.9h-24z"/><path class="st3" d="M-166.3 822.3c-.1.4-.3.8-.5 1.2-.1.1-.1.3-.2.4.4 1.1.4 2.5-.2 3.6.1.3.2.6.2 1 .6 5.6.3 11.1.3 16.7 0 .7-.1 1.3-.4 1.8 0 1.1 0 2.2-.1 3.3.1.3.2.6.2 1 .2 2.5.6 5 .2 7.5.1.3.1.6.1 1 .1 5.2 1.2 10.6.1 15.8-.1.3-.1.5-.2.7.3 3.2.2 6.4.2 9.6 0 2.9.1 5.9-.2 8.8.4.6.7 1.4.6 2.2-.4 3.5-.5 7-1 10.5 1.4 6.4 1.2 14.1.3 20.6.1 3.3.2 6.7.2 10 0 .4 0 .7-.1 1 0 3.8.1 7.6-.4 11.3.2.5.3 1.1.3 1.9-.5 5.8.3 11.4-.4 17.3.1.8.2 1.6.4 2.3.1.6.2 1.2.1 1.7.3.5.4 1.1.5 1.8.2 4.8-.4 9.7-.7 14.6h24.8V822.3h-24.1z"/><path class="st4" d="M-165.3 826.1h6.4v6.4h-6.4zm11.3 0h6.4v6.4h-6.4zm-11.3 10.1h6.4v6.4h-6.4zm11.3 0h6.4v6.4h-6.4zm-11.3 10.1h6.4v6.4h-6.4zm11.3 0h6.4v6.4h-6.4zm-11.3 10h6.4v6.4h-6.4zm11.3 0h6.4v6.4h-6.4zm-11.3 10.1h6.4v6.4h-6.4zm11.3 0h6.4v6.4h-6.4zm-11.3 10.1h6.4v6.4h-6.4zm11.3 0h6.4v6.4h-6.4zm-11.3 10.1h6.4v6.4h-6.4zm11.3 0h6.4v6.4h-6.4zm-11.3 10.1h6.4v6.4h-6.4zm11.3 0h6.4v6.4h-6.4zm-11.3 10.1h6.4v6.4h-6.4zm11.3 0h6.4v6.4h-6.4zm-11.3 10.1h6.4v6.4h-6.4zm11.3 0h6.4v6.4h-6.4zm-11.3 10.1h6.4v6.4h-6.4zm11.3 0h6.4v6.4h-6.4zm-11.3 10h6.4v6.4h-6.4zm11.3 0h6.4v6.4h-6.4zm-11.3 10.1h6.4v6.4h-6.4zm11.3 0h6.4v6.4h-6.4zm-11.3 10.1h6.4v6.4h-6.4zm11.3 0h6.4v6.4h-6.4z"/><path class="st6" d="M-166.9 964.9c0 1.5-.1 2.9-.3 4.4.1.8.2 1.6.4 2.3.1.6.2 1.2.1 1.7.3.5.4 1.1.5 1.8.2 4.8-.4 9.7-.7 14.6h29.8v-24.9h-29.8z"/><path class="st7" d="M-166.7 985.7c-.1 1.4-.2 2.9-.3 4.3h34v-4.3h-33.7z"/><path class="st4" d="M-153.8 968.3h11V986h-11zm-13.3 0c0 .3-.1.7-.1 1 .1.8.2 1.6.4 2.3.1.6.2 1.2.1 1.7.3.5.4 1.1.5 1.8.1 3.6-.2 7.2-.4 10.8h9.3v-17.7h-9.8z"/><path class="st14" d="M-79.1 989.8c-.1-2.3-2.1-4-4.3-3.9-.6 0-1.2.2-1.7.5-.9-2-3-3.3-5.2-3.3h-.5c1.2-2.2.4-4.9-1.8-6-1.5-.8-3.3-.7-4.7.3-.2-1.8-1.8-3.2-3.6-3.2h-.2v-.4c0-2.3-1.8-4.1-4.1-4.2-2 0-3.7 1.4-4.1 3.4-1.9 0-3.5 1.2-4 3-3 .4-5.2 3.1-4.8 6.1 0 .3.1.6.2.9-2.2-.8-4.7.3-5.5 2.6-.1.4-.2.7-.2 1.1-2.2-.6-4.5.7-5.1 3v.1h49.6z"/><path class="st15" d="M-99.1 989.8c-.1-2-1.8-3.5-3.8-3.4-.5 0-1.1.2-1.5.4-.8-1.8-2.6-2.9-4.6-2.9h-.4c1-1.9.3-4.3-1.6-5.3-1.3-.7-2.9-.6-4.1.2-.2-1.6-1.5-2.8-3.1-2.8h-.2v-.4c0-2-1.6-3.6-3.6-3.6-1.7 0-3.2 1.2-3.5 3-1.6 0-3 1.1-3.5 2.6-2.7.3-4.5 2.7-4.2 5.4 0 .2.1.5.1.7-2-.7-4.1.3-4.9 2.2-.1.3-.2.6-.2 1-2-.5-3.9.7-4.5 2.6v.1l43.6.2z"/><path class="st16" d="M-104.2 989.8c-.1-1.4-1.3-2.5-2.7-2.4-.4 0-.7.1-1.1.3-.6-1.3-1.8-2.1-3.2-2.1h-.3c.7-1.4.2-3.1-1.2-3.8-.9-.5-1.9-.4-2.8.1-.1-1.1-1.1-2-2.2-2h-.1v-.3c0-1.4-1.1-2.6-2.6-2.6-1.2 0-2.3.9-2.5 2.1-1.1 0-2.2.8-2.5 1.9-1.9.2-3.2 2-3 3.8 0 .2.1.3.1.5-1.4-.5-2.9.2-3.5 1.5-.1.3-.2.5-.2.8-1.4-.4-2.8.5-3.2 1.9v.1l31 .2z"/><path class="st17" d="M-86.2 989.8c-.1-1.6-1.4-2.8-3-2.7-.4 0-.8.1-1.2.3-.7-1.4-2-2.3-3.6-2.3h-.3c.8-1.5.3-3.4-1.2-4.2-1-.6-2.3-.5-3.2.2-.2-1.3-1.2-2.2-2.5-2.2h-.1v-.3c0-1.6-1.3-2.8-2.9-2.8-1.4 0-2.5 1-2.8 2.3-1.3 0-2.4.9-2.7 2.1-2.1.3-3.6 2.2-3.3 4.2 0 .2.1.4.1.6-1.6-.6-3.3.2-3.8 1.8-.1.2-.1.5-.2.7-1.5-.4-3.1.5-3.5 2v.1l34.2.2zm-35.6 0c-.1-1-.9-1.7-1.9-1.7-.3 0-.5.1-.8.2-.4-.9-1.3-1.4-2.3-1.5h-.2c.4-1 0-2.2-1-2.6-.6-.3-1.2-.2-1.8.1-.1-.8-.8-1.4-1.6-1.4h-.1v-.2c-.1-1-1-1.7-2-1.6-.7.1-1.3.6-1.5 1.3-.8 0-1.5.5-1.7 1.3-1.3.2-2.2 1.4-2.1 2.7 0 .1 0 .2.1.3-1-.4-2.1.1-2.4 1.1-.1.2-.1.3-.1.5-1-.3-2 .3-2.2 1.3v.1l21.6.1z"/><path class="st50" d="M-166.1 867.3c.2 2.8.2 5.5-.4 8.2-.1.3-.1.5-.2.7.3 3.2.2 6.4.2 9.6v6.3h49.6v-24.8h-49.2z"/><path class="st51" d="M-166 871.1c0 1.5-.2 3-.5 4.4-.1.3-.1.5-.2.7.3 3.2.2 6.4.2 9.6v6.3h49.6v-21H-166z"/><path class="st31" d="M-166.2 873.5c-.1.7-.2 1.4-.3 2-.1.3-.1.5-.2.7.3 3.2.2 6.4.2 9.6 0 2.9.1 5.9-.2 8.8.4.6.7 1.4.6 2.2-.4 3.5-.5 7-1 10.5 1.4 6.4 1.2 14.1.3 20.6.1 3.3.2 6.7.2 10 0 .4 0 .7-.1 1 0 3.8.1 7.5-.4 11.3.2.5.3 1.1.3 1.9-.5 5.8.3 11.4-.4 17.3.1.8.2 1.6.4 2.3.1.6.2 1.2.1 1.7.3.5.4 1.1.5 1.8.2 4.9-.4 9.8-.7 14.7h52.6V873.5h-51.9z"/><path class="st52" d="M-166.2 873.5c-.1.7-.2 1.4-.3 2-.1.3-.1.5-.2.7.3 3.2.2 6.4.2 9.6 0 2.9.1 5.9-.2 8.8.4.6.7 1.4.6 2.2-.4 3.5-.5 7-1 10.5 1.4 6.4 1.2 14.1.3 20.6.1 3.3.2 6.7.2 10 0 .4 0 .7-.1 1 0 3.8.1 7.5-.4 11.3.2.5.3 1.1.3 1.9-.5 5.8.3 11.4-.4 17.3.1.8.2 1.6.4 2.3.1.6.2 1.2.1 1.7.3.5.4 1.1.5 1.8.2 4.9-.4 9.8-.7 14.7h20.2V873.5h-19.5z"/><path class="st53" d="M-166.6 984.7c-.1 1.7-.3 3.4-.4 5.1h55.8v-5.1h-55.4z"/><path class="st32" d="M-166.6 876.9c.2 2.7.1 5.3.1 8h6.3v-8h-6.4zm9.1 0h8v8h-8zm10.8 0h8v8h-8zm10.7 0h8v8h-8zm10.7 0h8v8h-8zm-41.2 11.1c0 2.2 0 4.4-.2 6.6.3.4.5.9.6 1.4h6v-8h-6.4zm9 0h8v8h-8zm10.8 0h8v8h-8zm10.7 0h8v8h-8zm10.7 0h8v8h-8zm-41.1 11.1c-.2 2.7-.4 5.3-.7 8h6.9v-8h-6.2zm8.9 0h8v8h-8zm10.8 0h8v8h-8zm10.7 0h8v8h-8zm10.7 0h8v8h-8zm-41.3 11.1c.4 2.6.5 5.3.5 8h5.9v-8h-6.4zm9.1 0h8v8h-8zm10.8 0h8v8h-8zm10.7 0h8v8h-8zm10.7 0h8v8h-8zm-40.9 11.1c-.1 2.3-.3 4.5-.6 6.5 0 .5 0 .9.1 1.4h6.6v-8h-6.1zm8.7 0h8v8h-8zm10.8 0h8v8h-8zm10.7 0h8v8h-8zm10.7 0h8v8h-8zm-41.4 11.2c0 1.8.1 3.6.1 5.4 0 .4 0 .7-.1 1v1.6h6.5v-8h-6.5zm9.2 0h8v8h-8zm10.8 0h8v8h-8zm10.7 0h8v8h-8zm10.7 0h8v8h-8zm-41.4 11.1c0 2.2-.1 4.5-.4 6.7.2.4.3.8.3 1.3h6.6v-8h-6.5zm9.2 0h8v8h-8zm10.8 0h8v8h-8zm10.7 0h8v8h-8zm10.7 0h8v8h-8zm-41.7 11.1c-.1 2.7 0 5.3.1 8h6.7v-8h-6.8zm9.5 0h8v8h-8zm10.8 0h8v8h-8zm10.7 0h8v8h-8zm10.7 0h8v8h-8zm-28.1 11.5h21.3v23.7h-21.3zm-7.6 0h5.4v16.2h-5.4zm-6 0c0 1-.1 2.1-.2 3.1.1.8.2 1.6.4 2.3.1.6.2 1.2.1 1.7.3.5.4 1.1.5 1.8.1 2.4 0 4.8-.2 7.2h3.6v-16.2h-4.2zm44.3 0h5.4v16.2h-5.4zm-7.3 0h5.4v16.2h-5.4z"/><path class="st48" d="M-87.5 974.3l-2.2 3.5-1.8 2.8v9.2h-1.1v-9.5c-.1-.5-.2-1.1-.2-1.7l-1.6-1.9-1.9-2.3.7.1 2.2 2.5.5.5v-.4c-.1-1.9-.1-4-.1-4h1.4l-.1 4.3v2.2l1-2 1.9-3.6 1.3.3z"/><path class="st49" d="M-95.5 974.6l2.2 2.5-1-.3-1.9-2.3.7.1zm2.7-1.4h1.4l-.1 4.3c-.4-.1-.9-.2-1.3-.3v-4zm5.3 1.1l-2.2 3.5-.9-.1 1.9-3.5 1.2.1z"/><path class="st17" d="M-84.5 970.6c.7-1.3.2-2.8-1-3.6-.6-.3-1.3-.4-1.9-.3.6-1.6-.2-3.4-1.8-4-1.3-.5-2.8-.1-3.6 1.1-.9-.3-1.8.2-2.1 1.1 0 .1 0 .2-.1.3-.7.1-1.3.5-1.7 1.1-1.1-.3-2.3.3-2.6 1.4-.2.7 0 1.5.5 2.1-.1.2-.1.4-.1.6v.1c-.4 2.7 1.4 5.2 4.1 5.6.8.1 1.7 0 2.5-.2.4.8 1.3 1.2 2.1.8.3-.1.5-.3.7-.6 1.2-.7 2.7-.6 3.9.1 1.6 0 2.9-1.3 2.9-2.9 0-1.2-.7-2.2-1.8-2.7z"/><circle class="st47" cx="-97.7" cy="967.5" r=".6"/><circle class="st47" cx="-90.3" cy="964.2" r=".7"/><circle class="st47" cx="-98.9" cy="972.3" r=".7"/><circle class="st47" cx="-93" cy="970" r=".7"/><path class="st60" d="M-166.9 988.7c-.1 1.6-.2 3.2-.3 4.7 0 .6-.1 1.1-.3 1.6H-66v-6.3h-100.9z"/></g></g><path class="st61" d="M-166 995h700v25.1h-700z"/><path class="st62" d="M-166 1020.2h700v19.8h-700z"/></svg>