<svg id="Слой_1" xmlns="http://www.w3.org/2000/svg" viewBox="0 0 1130 824"><style>.st0{fill:#f9c684}.st1{fill:#fff}.st2{fill:#00ad2c}.st3{fill:#039023}.st4{fill:#069025}</style><path class="st0" d="M19.2 175.3c-4.7-3.4-5.8-8.8-5.9-13.7-.5-26.4 1.4-52.5 9.1-77.9 4-13.9 10.6-17.8 25.2-18.9 10.9-.8 22 0 32.8-2.6 4.3-1.1 7-3.3 8.6-7.4 3.3-8.2 8.6-15 15.5-20.5 3.3-2.7 7.1-4.2 11.5-4.3 9.5-.1 19-.1 28.4-.8 6.7-.5 11.6-3 15.7-8.1 4.6-5.7 9-11.6 15.1-15.9 4.7-3.4 9.6-4 15.1-2.3 6.8 2 12.5 6.2 18.5 9.8 2.7 1.6 5.3 2.7 8.4 2.5 13.8-.8 27.6 1 41.4.9 3.7 0 5.2 2.2 6.8 4.8 14.1 22.7 23.3 47.4 29.7 73.2 2.8 11.1 6.1 22.1 11.8 32.3 5.8 10.5 15.6 17.1 24.2 25 4.1 3.7 8.1 7.5 12.6 10.6 3.6 2.5 2.8 4.3.7 7.1-12.2 16.5-24.2 33-36.3 49.5-17.2 23.5-34.5 47-51.6 70.5-2.1 2.9-4.1 3.6-7.6 2.3-18.7-7.1-38.2-11.5-58-13.9-13.4-1.6-26.9-1.1-40.3.3-15.9 1.6-31.8 2.9-47.6 4.5-10.5 1.1-20.9 1.5-31.2-.9-6.8-1.6-13.3-4.2-19.6-7.2-7.2-3.3-12-8.8-14.9-16.1-2.1-5.4-4.5-10.8-6-16.4-4.3-16-14.5-27.7-25.4-39.1-1.7-1.8-3.3-3.7-4.9-5.6v-4c3-4.2 7.7-5.4 12.2-7.1 4.7 3.4 8.9-.1 13.3-1.1 1.1.3 2.2.8 3.3 1 15.8 2.2 29 8.8 39.3 21.3 7.6 9.3 17 15.7 29.4 17.2 7.7.9 15.3.5 22.9.6 9.6.1 13.4-4.5 11.2-13.9-4.3-18-12.8-33.4-27.8-44.8-3.7-2.8-7.3-5.8-10.1-9.5 18.1-8.2 36.8-15.3 55.2-22.9 3.2-1.3 6.2-2.6 10-1.9 3.5.6 6.3-1.5 8.5-4.3 5-6.3 5.1-16.4.2-22.9-4.6-6.1-11.6-6.3-16.5-.5-1.2 1.4-2.1 2.9-3.9 3.8-23 11.9-46 23.9-69 35.8-3.6-4.3-8.2-7.2-13.3-9.4-7.4-3.2-11.9-1.3-15.1 6.2-3 6.9-4.9 14-6.6 21.3-8.4 4.5-16.7 9-25 13.4z"/><path transform="rotate(-143.884 311.172 255.465)" class="st1" d="M283.4 151.1H339v208.7h-55.6z"/><path class="st2" d="M311.7 295.6c10.5-14.8 21-29.6 31.5-44.3 16.8-23.8 34.1-47.2 49.4-72.3 12.2 8.7 23.5 18.5 34.9 28.2C537.6 301 646 396.7 754.5 492.3c123.1 108.5 246 217.4 368.9 326.1 2.3 2 5.2 3.5 6.5 6.6h-236c0-2.1-1.6-3.2-3-4.4-6.3-5.7-12.6-11.3-18.9-17-18.6-16.8-37.1-33.7-55.6-50.6-14.5-13.2-29-26.3-43.5-39.5-18.5-16.9-37.1-33.7-55.6-50.6-14.5-13.2-29-26.3-43.5-39.5-14.7-13.4-29.5-26.8-44.2-40.2-14.6-13.3-29.2-26.6-43.8-39.8-14.7-13.4-29.5-26.8-44.2-40.2-14.6-13.3-29.2-26.6-43.8-39.8-14.7-13.4-29.5-26.8-44.2-40.2-14.6-13.3-29.2-26.6-43.8-39.8-18.4-16.7-36.9-33.5-55.2-50.3-12.7-11.6-25.4-23.4-38.1-35.1-1.4-1.4-2.9-2.1-4.8-2.4z"/><path class="st3" d="M311.7 295.6c1.8.3 3.4 1 4.8 2.4 12.6 11.8 25.3 23.5 38.1 35.1 18.4 16.8 36.8 33.5 55.2 50.3 14.6 13.3 29.2 26.6 43.8 39.8 14.7 13.4 29.5 26.8 44.2 40.2 14.6 13.3 29.2 26.6 43.8 39.8 14.7 13.4 29.5 26.8 44.2 40.2 14.6 13.3 29.2 26.6 43.8 39.8 14.7 13.4 29.5 26.8 44.2 40.2 14.5 13.2 29 26.3 43.5 39.5 18.5 16.9 37.1 33.7 55.6 50.6 14.5 13.2 29 26.3 43.5 39.5 18.5 16.9 37.1 33.7 55.6 50.6 6.3 5.7 12.6 11.3 18.9 17 1.3 1.2 3 2.3 3 4.4h-178c-92.2-94.2-185.6-187.2-278.4-280.7-57.2-57.6-114.5-115-171.8-172.5-5.2-5.3-5.3-5.3-.9-11.4 15.3-21.2 30.6-42.3 45.9-63.5.4-.4.7-.8 1-1.3z"/><path class="st4" d="M26.4 184.9c-4.4 1-8.5 4.5-13.3 1.1-2.3-1.3-3-2.5-.4-4.5 2.3-1.8 4.3-4.1 6.4-6.2 8.3-4.4 16.6-8.9 25-13.3 12-5.5 23.5-11.9 35-18.1 23-12 46-23.9 69-35.8 1.7-.9 2.7-2.4 3.9-3.8 4.9-5.8 11.9-5.6 16.5.5 4.8 6.4 4.7 16.6-.2 22.9-2.2 2.7-5 4.9-8.5 4.3-3.8-.7-6.8.6-10 1.9-18.4 7.6-37 14.7-55.1 22.9-3.8 1.5-7.7 2.8-11.5 4.4-19.1 7.8-37.9 15.8-56.8 23.7z"/><path class="st2" d="M311.7 295.7c-.3.4-.6.9-.9 1.3.3-.5.6-.9.9-1.3z"/></svg>