<svg id="Слой_1" xmlns="http://www.w3.org/2000/svg" viewBox="0 0 356 1000"><style>.st0{fill:#fff}.st1{fill:#898989}.st2{fill:#2c2c2c}.st3{fill:#f8c785}.st4{fill:#8b8c8b}.st5{fill:#6f6f6f}.st6{fill:#f8c684}.st7{fill:#2c2e2d}</style><path transform="rotate(23.691 65.49 160.909)" class="st0" d="M28.1 136.4h74.7v49.1H28.1z"/><path class="st1" d="M14.4 189.8c.1-.6.3-1.2.4-1.8 1-.5 1.1-1.2.3-2 .1-1.2.3-2.4.4-3.6 1-.6 1.5-1.4.9-2.6.2-.9.3-1.9.5-2.8.8-.5 1.1-1.2.7-2.2 3.3-12.9 3.3-13 15.3-8.1 27 11.1 53.1 23.7 76.8 41.1 5.1 3.8 10 7.8 14.1 12.6 5.5 6.4 9.4 13.2 10.7 22 3.4 23.7 7.9 47.2 11.9 70.8.6 3.3.9 6.6 1.4 9.8-3.3-.8-4.3-4-6.2-6.1-15-16.3-26.6-34.9-37.5-53.9-6-10.5-11-21.5-16.7-32.1-4.7-8.6-11.6-14.5-21.9-14.9-10.3-.4-18.8 6.1-23.9 17.9-9.3 21.5-7.1 42.5 3.8 62.6 11.6 21.2 28.9 37.6 47 53 13.6 11.6 28.5 21.6 42.9 32.3 3.8 2.8 7.7 4.8 12.2 6.4 3.2 1.1 6.5.7 9.5 2.1-2.4.9-1.8 2.9-1.8 4.7.5 30.1 2.3 60.1 5.5 90 1.7 16.2 3.3 32.4 5.8 48.5.5 3-.9 3.4-3.3 3.3-7-.3-14-.5-20.9-.7-8.6-.2-8.5-.2-8.7 8.6-.1 5.4.8 10.9-.7 16.3-1.5-1.3-.9-3.1-1-4.7-.1-5.5 0-11 0-16.5 0-1.9.2-3.7-2.6-3.9-3-.2-5.9-1-8.9-.9-19.6.6-39.2-1-58.8-1.1-8.1 0-16.3.7-24.4-.8-2.4-.5-5-.5-7.3.9-1.8-1.2-3.8-.9-5.8-1-7.8-.3-15.5-.7-23.3-1v-7c3.3-2.6 1.7-5.9 1.2-9 .1-3.3.3-6.6.4-9.9 2.2-1.8 1.2-4.1.8-6.3.2-3.3.3-6.5.5-9.8 1.3-1.9 1.4-3.9.4-6 .2-1.7.4-3.3.6-5 1.4-1.3 1.2-2.6.2-4 .2-4 .4-8 .7-12 1.9-2.6 1.1-5.4.7-8.2.2-3.9.3-7.9.5-11.8 1.6-2.6 1.1-5.4.6-8.2.1-2.9.3-5.9.4-8.8 1-1 1-2 .1-3 .2-4.7.4-9.4.7-14 1.9-4.3 1.4-8.6.5-13l.6-21c.9-.7 1-1.6 1-2.7v-32.6c0-1-.1-2-1-2.7l-.6-15c.8-3.5 1.7-7.1-.8-10.4-.5-18.1-.4-36.2 0-54.3 2.6-4.3 1.5-8.8.8-13.4.2-4.3.4-8.7.6-13 1.8-2.2 1.1-4.7.8-7.1.1-2.3.2-4.6.4-6.8.8-.6 1-1.3.1-2 .1-1.2.2-2.5.2-3.7 2.1-1.5 1.8-3.3.8-5.3l.6-6c1.5-1.2 1.2-2.6.8-4.2.1-1.3.3-2.5.4-3.8.9-.6 1.1-1.3.6-2.2z"/><path class="st2" d="M41 1001c.2-.8.8-1.7.7-2.4-2.8-12.2-.2-24.4-.5-36.6 13.8-.3 27.5-.6 41.3-1 3.8-.1 7.6-.3 11.4-.5 10.2-.5 20.5-.4 30.7-.5 11.8 7.7 24.4 12.8 38.7 12.4 6.7-.2 13.3-.7 20 .1 8 1 12.2 4.4 13.4 10.6 1.1 5.8-.3 8.4-5.7 10.6-6.2 2.5-12.9 3.5-19.5 4.2-23.9 2.4-47.9 2.4-71.8-.7-3.5-.4-7-.3-10.5-.8-4.1-.5-4.7 1.2-3.3 4.5-14.9.1-29.9.1-44.9.1z"/><path class="st3" d="M288.4 340c2.7.4 4.8-1.2 7.1-1.9 10-3.2 20-2 30 .3 4.8 1.1 9.6 2.5 14.6 2.8 4.2.3 7.5 3.3 10.6 6.1 2.1 1.9 4.1 3.8 6.2 5.7v3c-2.5 3.8-3 8.3-4.4 12.5-3.8 11.5-11.3 17.1-23.4 16.4-13.6-.7-27.2-1.3-40.8-1 .2-14.6.1-29.2.1-43.9z"/><path class="st4" d="M70 2.2V1h20v1.3c-6.7.6-13.3.8-20-.1zM101 1c-1.4 1 .1 1.7.2 2.5-2.2.6-4.3.8-6.2-.7.6-1.3 3 .6 3-1.8h3z"/><path class="st5" d="M124.6 960c-10.2.1-20.5 0-30.7.5-3.8.2-7.6.4-11.4.5-13.8.4-27.5.7-41.3 1-7.2.6-7.2.6-7.3-6.2-.8-85-1.5-169.9-2.3-254.9-.4-40.5-.6-81-1-121.4-.1-15.2-.4-30.3-.6-45.5 2.3-1.4 4.9-1.3 7.3-.9 8.1 1.6 16.3.8 24.4.8 19.6.1 39.2 1.7 58.8 1.1 2.9-.1 5.9.7 8.9.9 2.8.2 2.6 2 2.6 3.9 0 5.5-.1 11 0 16.5 0 1.6-.6 3.4 1 4.7l-.9 113c-1.6 2-1.6 4 0 6l-.9 115.3c-.4 52.9-.9 105.8-1.2 158.7-.2 4.1-1 6.3-5.4 6zm163.8-620c0 14.7.1 29.3.1 44-.9 1.8-2.8 1.7-4.3 1.9-37.8 4.8-75.6 8.6-113.8 6.4-4.5-.3-8.9-1.1-13.3-1.7-3-1.4-6.3-1-9.5-2.1-4.5-1.6-8.5-3.6-12.2-6.4-14.4-10.7-29.3-20.7-42.9-32.3-18.1-15.5-35.5-31.8-47-53-11-20.1-13.1-41.1-3.8-62.6 5.1-11.8 13.6-18.3 23.9-17.9 10.4.4 17.2 6.3 21.9 14.9 5.8 10.6 10.7 21.6 16.7 32.1 10.9 19 22.5 37.6 37.3 53.9 2 2.2 2.9 5.4 6.2 6.1 5.1 6.2 11.2 10.5 19.7 11 38.7 2.6 77.4 2.9 116.1 4 1.7-.1 4.2-1.3 4.9 1.7z"/><path class="st1" d="M132.1 680c-1.6-2-1.6-4 0-6 .8 2 .9 4 0 6z"/><path class="st6" d="M123.7 28c3 6.4 6.2 12.8 9.1 19.2 6.6 14.7 11.3 30 9.9 46.1-1.1 13.1-3.3 26.1-6.9 38.9-3.1 10.9-6.9 21.3-13.6 30.5-4.2 5.8-9.9 9.3-16.8 10.8-4.1.9-7.8-.1-11.4-2.2-14.8-8.9-29.7-17.6-44.6-26.5-4.5-2.7-9.7-4.5-12.6-9.3 1.7-3.5.1-9.4 6.7-9.7.3 0 .5-1.8.6-2.7.3-2.9-.4-5.6-1.3-8.3-1.5-4.8-.6-9.1 3.5-12.1 10.2-7.6 14-18.6 16.4-30.4 1.8-8.8 3-17.7 7.1-25.8C72.2 41.6 76 39 81.2 38c5.7-1.1 11.3-2.6 17-3.8 8.6-1.6 16.7-5.4 25.5-6.2z"/><path class="st7" d="M123.7 28c-8.8.8-16.9 4.6-25.5 6.3-5.7 1.1-11.3 2.7-17 3.8-5.3 1-9 3.6-11.4 8.5-4 8.2-5.3 17.1-7.1 25.8-2.4 11.8-6.2 22.7-16.4 30.4-4 3-5 7.3-3.5 12.1.9 2.7 1.6 5.4 1.3 8.3-.1 1-.4 2.7-.6 2.7-6.6.3-5 6.1-6.7 9.7-.2.1-.3.1-.4.2-11.5 8.8-18.2 7.3-21.6-6.5-5.9-23.7-9.6-47.9-.8-71.7 7.8-21.2 22.7-37.3 41.3-49.8 4.5-3 9.6-4.5 14.8-5.7 6.6 1 13.3.8 19.9.2 1.7.2 3.3.3 5 .5 1.9 1.5 4.1 1.4 6.3.7 3.9.2 7.8.3 11.8.5 2.1 1 4.2 1.2 6.4.4.9.1 1.8.2 2.6.3.9 1.2 1.9 1.2 3 .4 1.2.2 2.5.4 3.7.5.6 1 1.5 1.4 2.6.8.6.1 1.1.3 1.7.4.5.8 1.2 1.2 2.1 1 5 2 8.4 5.7 10.5 10.6 1.7 4.2.8 5.9-3.8 7-6 1.6-12.3.7-18.2 2.6z"/><path class="st4" d="M119.4 4.4c-2.2.8-4.3.6-6.4-.4 2.2-.7 4.3-1 6.4.4zm5.6.7c-1.1.9-2.1.8-3-.4 1.1-.9 2.1-.4 3 .4zm6.3 1.4c-1.1.6-2 .2-2.6-.8 1.1-.6 2-.1 2.6.8zm3.8 1.4c-1 .3-1.6-.2-2.1-1 1.1-.7 1.8-.2 2.1 1z"/></svg>