<svg id="Слой_1" xmlns="http://www.w3.org/2000/svg" viewBox="0 0 379 1000"><style>.st0{fill:#f7fbf8}.st1{fill:#03ac29}.st2{fill:#059024}.st3{fill:#04ac29}.st4{fill:#fed9a8}.st5{fill:#cfd0cf}.st6{fill:#d0d0d0}.st7{fill:#069025}.st8{fill:#d0d1d0}.st9{fill:#717171}.st10{fill:#606060}.st11{fill:#fdd8a7}.st12{fill:#bb6109}.st13{fill:#fdd8a8}</style><path transform="rotate(-17.259 310.654 187.425)" class="st0" d="M274.7 144.4h71.8v86h-71.8z"/><path class="st1" d="M212 335c4.3-21.9 8.4-43.8 14.7-65.2 4.8-16.3 9.7-32.5 17.8-47.5 3-5.6 6.9-9.9 12.5-13.2 24.1-14.2 47.4-29.6 72.2-42.4 3.1-1.6 6.3-3 9.5-4.3 6.1-2.3 8.2-1.7 11.5 4 6.9 11.8 9.8 25 12.7 38.2 9 41.6 13.8 83.7 15.8 126.2.1 1.1-.8 2.8 1.3 3.2v5c-1.1.1-1.3.9-1.2 1.7l.3 17.2c-.1.7-.2 1.3-.3 2-1.7 33-9.3 64.8-20 95.9-.8 2.2-1.4 4.1-4.6 4.2-6.6.2-6.6.4-6.3 7.3.1 1.8.4 3.6.6 5.4l-22 .3c1.5-16.9 2.8-33.8 4.5-50.7 1.7-17.4 1.6-34.9 3.1-52.3 1.6-19.6 8-38.4 9.6-58.1 2.5-29.9-5.6-57.1-20.9-82.3-8.3-13.7-24.7-14.5-35.8-3-7.3 7.5-10 16.7-10.6 26.8-1.8 28.2.5 56.3 1.2 84.4.6 21.6 1.3 43.3-2.4 64.8-2 11.7-3.9 23.3-4.4 35.1-.5 11.8-1.4 23.6-2.1 35.4-11.4-.3-22.8.6-34.3-.5.6-4.9-.7-8.2-5.4-11.4-11.8-7.9-16.1-20.7-19.1-33.8-2.6-11.2-2.9-22.7-3.1-34.2.3-6.4.7-12.9 1-19.3.5-13.1 2.9-26 4.2-38.9z"/><path class="st2" d="M326.4 473l22-.3c10.5.7 21-.8 31.6.3v115c-12.3 0-24.7-.1-37-.1l-26.8-.3.3-18.7c.8-7.4 1.5-14.8 2.3-22.2 2.6-24.6 5.1-49.1 7.6-73.7z"/><path class="st3" d="M296 1c1.2 2.3 3.5 1.3 5.2 1.7 30 8.4 50.7 35.1 55.7 63.1.1.4-.2 1-.3 1.4-3.8-2.4-8.2-2.5-12.5-2.8-14.1-1.1-28.1-1.3-42.2.2-22.3-.2-44.5 2-66.8 3.7-10.8-.4-20.4 4-30.3 7.2-8.6 2.8-17.3 5.9-27 6.4 1.3-3.4 4.1-4.3 6.4-5.6 10.9-5.8 22.4-10 34.1-13.8 4.4-1.4 6.2-3.6 7.9-8 10.3-27 29.7-44.2 57.7-51.8 1.4-.4 3.5.5 4.1-1.8 2.7.1 5.3.1 8 .1z"/><path class="st4" d="M1 355c5.1-3.9 8.9-10.1 15.6-11.1 8.4-1.3 16.4-3.6 24.8-5 15.1-2.5 27.8 3.8 40.6 10v35.2c-9.5 1.3-19.1 2.3-28.8 1.9-8.8-.4-17.6 1-26.4 1.1-9.9.1-17.4-5.2-20.8-14.6-1.8-4.8-2.2-10-5-14.5v-3z"/><path class="st5" d="M380 358h-.5l-.5-.1-.3-17.2c0-.9.2-1.6 1.2-1.7.1 6.3.1 12.7.1 19z"/><path class="st6" d="M316.2 587.6l26.8.3c0 39 .8 78-.3 116.9-1 37.8.3 75.6-.9 113.4-1 33 0 65.9-1.1 98.9-.4 11.6-.6 23.3-.6 34.9 0 4.1-.9 6.6-5.3 7-2.9-1.3-5.9-.8-8.9-.6-18.1 1.1-36.1 1.5-54.2 1.8-3.8.1-7.6.7-11.4.6-5.1-.2-10.4 1.7-15.4-.9 0-23.7.6-47.3-.2-71-1.5-41.3.2-82.6-1-123.9-1-31 .3-61.9-1-92.9-1.1-26-.2-51.9-.7-77.9 0-2.2-.3-4.4 1-6.3 9.2-.1 18.5-.1 27.7-.2 2.2 1.8 1.1 4.3 1.2 6.5.5 7 4.5 12 9.4 16.4 3.4 3 6.9 0 10.3-.5 1.8-.2 3.6-.7 5.3-1.1 12.6-2.4 18.5-9.1 19.3-21.4z"/><path class="st7" d="M270.7 587.8c-9.2.1-18.5.1-27.7.2-10.1-.1-20.3-.3-30.4-.2-3.4 0-4.5-.8-4.5-4.4.1-35.6.1-71.2 0-106.8 0-3.4 1-4.2 4.2-4.2 7.3.2 14.6 0 21.9 0 11.4 1.1 22.8.2 34.3.5.1 1 .2 2 .2 3l-2.1 81.6c-.1 2.5.1 4.6 2.9 5.4 0 3.1-.1 6.2-.1 9.3-.1 5.3 2.2 10.3 1.3 15.6z"/><path class="st8" d="M81.9 384.1v-35.2c.1-8.8.1-8.8 9.1-8.9 21.3-.3 42.6-.2 63.9-1.3 16.7-.8 33.5-.5 50.2-2.7 2.3-.3 4.3-2.9 6.9-1.1-1.3 13-3.7 25.8-4.4 38.8-.3 6.4-.7 12.9-1 19.3-13.3 2.4-26.8 2.4-40.1 1.7-20-.9-40-1.8-59.8-4.5-6.7-.9-13.5-1.5-20.2-2.3-2.4-.2-4.7-.6-4.6-3.8z"/><path class="st9" d="M245 959.9c5 2.6 10.3.7 15.4.9 3.8.1 7.6-.5 11.4-.6 18.1-.3 36.2-.7 54.2-1.8 2.9-.2 6-.7 8.9.6.1.3.2.6.2 1 1.2 6.4 4.4 12.6-2.1 18.7-5.3 5-10.1 9.1-17.8 9.6-23.4 1.5-46.9 1.6-70.3 1-.3-.4-.6-1.1-.9-1.1-9.3-.1-18.6-.1-28 0-.3 0-.6.7-1 1.1-11.5.7-22.9-1.3-34.3-2.5-3.2-.3-1.7-2.8-1.1-4.2 3.5-8.6 10.5-13.1 19-15.5 5-1.5 10.1-2.1 15.3-1.7 10.9.7 21.3-.7 31.1-5.5z"/><path class="st10" d="M215.1 989.3c.3-.4.6-1.1 1-1.1 9.3-.1 18.6-.1 28 0 .3 0 .6.7.9 1.1-10 .6-20 .7-29.9 0z"/><path class="st11" d="M235.1 68.4c22.2-1.7 44.4-3.9 66.8-3.7 1.8 5.3 3.3 10.7 4.5 16.3 2 9.5 6 17.9 14.1 23.8 5.4 3.9 7 8.9 4.7 15.3-.5 1.4-.8 2.9-.9 4.4-.1 2.8-.6 5.9 3.8 5.9 1.9 0 2.2 1.8 2.2 3.4 0 2.4 1.3 4.4 2.4 6.4-6 3.6-12.1 7.2-18.1 10.8-13.1 7.8-26.4 15.5-39.4 23.5-9.2 5.7-19 1.5-24.7-5.5-5-6.1-7.3-13.6-9.8-20.9-2.2-6.4-3.4-13.2-4-19.6-.9-9.7-3.3-19.2-3-29.1.4-10.4.3-20.7 1.4-31z"/><path class="st12" d="M332.8 140.1c-1.2-2-2.4-3.9-2.4-6.4 0-1.5-.3-3.3-2.2-3.4-4.4-.1-3.9-3.2-3.8-5.9.1-1.5.4-3 .9-4.4 2.3-6.3.7-11.3-4.7-15.3-8.2-5.9-12.1-14.4-14.1-23.8-1.2-5.5-2.7-10.9-4.5-16.3 14.1-1.4 28.1-1.3 42.2-.2 4.3.3 8.7.3 12.5 2.8 4.8 21.6 2.2 43-2.4 64.3-.1.3-.2.6-.3 1-4.3 13.2-9.6 15.1-21.2 7.6z"/><path class="st5" d="M269.4 563c-2.8-.8-3-2.9-2.9-5.4.8-27.2 1.4-54.4 2.1-81.6 0-1-.1-2-.2-3 .7-11.8 1.6-23.6 2.1-35.4.5-11.8 2.4-23.5 4.4-35.1 3.7-21.5 3-43.1 2.4-64.8-.7-28.1-3-56.2-1.2-84.4.6-10.1 3.4-19.3 10.6-26.8 11.2-11.5 27.5-10.6 35.8 3 15.3 25.2 23.4 52.3 20.9 82.3-1.7 19.7-8 38.5-9.6 58.1-1.5 17.4-1.4 34.9-3.1 52.3-1.6 16.9-3 33.8-4.5 50.7-2.5 24.6-5.1 49.2-7.6 73.7-.8 7.4-1.5 14.8-2.3 22.2-4.4.3-8.5-1.1-12.8-1.5-11.2-1.2-22.5-3.8-34.1-4.3z"/><path class="st13" d="M269.4 563c11.6.5 22.9 3.1 34.4 4.4 4.3.5 8.4 1.9 12.8 1.5l-.3 18.7c-.8 12.3-6.7 18.9-19.2 21.5-1.8.4-3.5.8-5.3 1.1-3.4.5-6.9 3.5-10.3.5-4.9-4.4-8.9-9.4-9.4-16.4-.2-2.2 1-4.7-1.2-6.5.9-5.3-1.4-10.3-1.4-15.5-.2-3.1-.1-6.2-.1-9.3z"/></svg>