<svg id="Слой_1" xmlns="http://www.w3.org/2000/svg" viewBox="0 0 196 1000"><style>.st0{fill:#fbfbfb}.st1{fill:#898989}.st2{fill:#2d2e2d}.st3{fill:#2b2b2b}.st4{fill:#6f6f6f}.st5{fill:#f7c584}.st6{fill:#4c4b49}.st7{fill:#f3c68a}.st8{fill:#a7a8a8}.st9{fill:#d0d0d0}.st10{fill:#e5ad64}.st11{fill:#8f7656}</style><path transform="rotate(18.942 65.754 183.72)" class="st0" d="M22.8 143h85.8v81.3H22.8z"/><path class="st1" d="M156.3 396.3c-1.4 10.4-.6 20.9 0 31.3.9 15.4 2.3 30.8 3.5 46.2 1.5 19.7 3.9 39.3 6.7 58.9.5 3.6-.4 4.4-3.7 4.2-7.8-.4-15.6-.3-23.4-.9-4.3-.3-5.8.7-5.7 5.3.1 6.6.8 13.2-.7 19.8-2.3-5.1-.8-10.4-1-15.6-.3-8.7-.1-8.7-8.6-9.4-2-.2-3.9-.9-5.9-.9-18.1.3-36.2-.5-54.3-1.1-9.3-.3-18.6.9-27.9-.9-1.8-.3-3.7-.1-5.3.9-1.8-1.2-3.8-.9-5.8-1-7.8-.3-15.6.1-23.3-1v-7c3.3-2.6 1.7-5.9 1.2-9 .1-3.3.3-6.6.4-9.9 1.9-1.1 1.5-2.5.6-4 .6-7.7 1.1-15.4 1.7-23 1.2-.9 1.2-1.9.2-3 .2-4.3.5-8.7.7-13 1.7-1.9 1.4-3.9.4-6 .2-4.7.5-9.3.7-14 1.3-1.6 1.3-3.3.3-5 .8-16.6 1.9-33.2 2.5-49.8 1-30-.2-59.9-1.3-89.9-1.2-32.3.7-64.5 4.4-96.6 1.4-11.9 3.1-23.7 7.6-35 1-2.4 1.6-4.5 5.3-3 18.6 7.7 36.9 15.9 54.6 25.6 6.5 3.5 12.3 8.4 19.5 10.7 2.1 4.4 1.9 9.2 2.9 13.8 6 27.5 11.4 55 16.8 82.6 1.1 5.5 2.6 11 2.3 17.4-4.4-3.1-6.9-6.8-8.9-10.8-6.8-13.8-10.5-28.6-15.1-43.1-3.5-11.2-5.9-22.8-12.8-32.7-9.1-13-26.4-15.3-36.4-4.1-6.8 7.5-10.6 17-11.6 27-2.2 20.7 3.9 39.3 15 56.5 12.9 20.1 29.1 37.3 47.5 52.6 17.7 14.4 35.8 27.8 56.9 36.9z"/><path class="st2" d="M36.7 135.6c-11.7 9.1-18.6 7.6-22.1-6.4-5.9-23.7-9.6-48-.7-71.7 7.9-21.2 22.7-37.2 41.4-49.7 5-3.4 11-4.6 16.6-6.8h9c2.4 2.5 5.2 1.6 8 1.1 2.3.2 4.7.5 7 .7 2 1.4 4.1 1.2 6.2.7 4.3.2 8.5.3 12.8.5 2 1 4.1 1.3 6.2.6.6.1 1.2.2 1.8.2.6.8 1.2.8 2 .2 1.2.2 2.4.3 3.6.5.7.9 1.5 1.3 2.6.8.6.2 1.2.3 1.7.5.5.7 1.2 1.1 2.1 1 5 2.1 8.5 5.7 10.5 10.7 1.8 4.4.9 5.9-3.7 7.1-6 1.5-12.3.6-18.2 2.5-2-.3-3.9.4-5.8.9-11.5 3.3-22.9 7-34.8 8.7-8.3 1.2-12.6 5.7-15.2 13-2.6 7.2-3.7 14.8-5.4 22.2C60.1 82.5 58 92.5 50 99c-6.7 5.5-9.9 11-6.6 19.8 1.1 2.9 2.6 7.9-4 8.3-1.5.1-1.7 1.9-1.7 3.3.3 1.8-.2 3.5-1 5.2z"/><path class="st3" d="M41 1001c.2-.8.8-1.7.7-2.4-2.7-12.2-.2-24.4-.5-36.7 13.8-.3 27.5-.6 41.3-1 3.6-.1 7.3-.2 10.9-.4 10.4-.5 20.8-.4 31.3-.6 11.8 7.7 24.4 12.8 38.7 12.4 5.2-.1 10.3-.2 15.5-.2 7.4 0 14 1.8 18.1 8.8v9c-3 2.1-6 4.1-9.6 4.9-6.5 1.5-13 2.6-19.6 3.2-25.8 2.6-51.5 1-77.1-1.8-4.1-.4-5.9.5-5.6 4.6-14.8.2-29.4.2-44.1.2z"/><path class="st4" d="M124.7 960c-10.4.2-20.8.1-31.3.6-3.6.2-7.3.3-10.9.4-13.8.4-27.5.7-41.3 1-7.2.6-7.2.6-7.3-6.2L31.8 723c0-2.7.1-5.3.1-8 1.6-6.4 2.1-12.8-.3-19.1L31 648c-.1-18-.1-36-.2-54 1.6-3.4 1.8-6.7-.1-10.1-.8-16.6-.7-33.3-.7-50 1.7-1 3.5-1.3 5.3-.9 9.2 1.8 18.6.6 27.9.9 18.1.6 36.2 1.4 54.3 1.1 2 0 3.9.7 5.9.9 8.6.8 8.4.7 8.6 9.4.2 5.2-1.4 10.6 1 15.6l-.9 112.9c-1.9 3-1.7 6-.1 9.1l-.9 102.4c-.5 56.1-1 112.3-1.3 168.4.1 4.3-.9 6.3-5.1 6.3zM99.9 199.9c-1.4-9.3-4.6-18.3-5.3-27.7.6-.3 1.1-.7 1.7-1 9.6-2.5 18.7-6.1 27.8-9.9.3-.1.7-.2 1-.3 3.2.4 6.4-4 9.1-1.3 2 2 2.2 5.8 3.2 8.8 13.1 42.8 24.6 86.1 32.1 130.3 3.9 22.8 7.1 45.8 4.8 69.1-.7 7-2.1 13.9-5.7 20-2.7 4.6-6.3 8.2-12.1 8.4-21.1-9.1-39.2-22.5-56.8-37.1-18.4-15.3-34.5-32.4-47.5-52.6-11.1-17.2-17.2-35.9-15-56.5 1.1-10.1 4.8-19.5 11.6-27 10-11.1 27.3-8.8 36.4 4.1 6.9 9.9 9.3 21.5 12.8 32.7 4.6 14.5 8.3 29.4 15.1 43.1 2 4 4.5 7.7 8.9 10.8.3-6.4-1.2-11.9-2.3-17.4-5.4-27.6-10.8-55.2-16.8-82.6-1.2-4.6-1-9.5-3-13.9z"/><path class="st5" d="M96.2 171.2c-.6.3-1.1.7-1.7 1-7.6-6-16.4-10.1-24.5-15.1-8.9-5.5-17.9-10.8-27-15.9-2.5-1.4-4.6-3.1-6.2-5.5.8-1.7 1.2-3.4 1.2-5.3 0-1.3.2-3.2 1.7-3.3 6.6-.4 5-5.4 4-8.3-3.3-8.7-.1-14.3 6.6-19.8 8-6.5 10.1-16.5 12.3-26.1 1.7-7.4 2.7-15 5.4-22.2 2.7-7.3 6.9-11.8 15.2-13C95 35.9 106.5 32.3 118 29c1.9-.6 3.8-1.2 5.8-.9 2.9 5.9 6 11.8 8.6 17.8 6.5 14.8 11.1 30.2 10.5 46.6-.2 5.6-1.4 11.2-2.1 16.8-11.2-6.4-22.4-12.7-33.7-19.1-2.8-2.2-5.6-4.2-9.1-5.2-7.3-4.3-14.7-8.5-21.9-12.8-2.3-1.4-4.4-1.9-5.9.8-6.7 11.5-13.3 23-19.9 34.5-.8 1.4-1.1 3.3.2 4.1 6 3.6 11.6 8 18.4 10.2.3 11.3 3.6 21.4 10.5 30.6 5.1 6.8 11.6 12.2 16.8 18.8z"/><path class="st6" d="M107.1 90.1c11.2 6.4 22.4 12.7 33.7 19.1 2.5 1.9 2.1 4 .7 6.5-1.2 2.1-3.1 3.8-3.4 6.3-5 8.3-10 16.5-15 24.8-3-11.8-5.8-23.7-9.1-35.5-1.8-6.6-1.3-14.1-7-19.2 0-.7 0-1.3.1-2z"/><path class="st7" d="M123 146.8c5-8.3 10-16.5 15-24.8.8 3.6-1 6.7-1.8 9.9-2.1 8.2-4.7 16.2-9 23.6-1 1.7-1.5 3.7-2.2 5.5-.3.1-.7.2-1 .3.1-4.8.2-9.7-1-14.5z"/><path class="st1" d="M132.1 683c-1.7-3-1.8-6.1.1-9.1.8 3.1.9 6.1-.1 9.1z"/><path class="st8" d="M125 5c-.7.6-1.4.6-2-.2"/><path class="st9" d="M6.9 443c-1.2-1.7-1.4-3.4.3-5 1 1.7 1 3.4-.3 5z"/><path class="st1" d="M31.6 695.9c2.4 6.3 1.9 12.7.3 19.1-1.2-6.3-.9-12.7-.3-19.1zm-.8-112c1.9 3.3 1.7 6.7.1 10.1-1.1-3.3-1-6.7-.1-10.1z"/><path class="st10" d="M123 146.8c1.1 4.8 1 9.6.9 14.5-9.1 3.8-18.2 7.4-27.8 9.9-5.2-6.6-11.7-12-16.8-18.8-6.9-9.3-10.2-19.3-10.5-30.6-.8-5.6-1-11.2-1.7-16.8-.9-7.1 3.2-13 7-18.8.4-.5 1.5-.9 2.2-.9 7.3.4 14.7-1.1 21.8 1.5 2.9 1.8 5.9 3.5 8.8 5.3 5.8 5.1 5.2 12.6 7 19.2 3.3 11.8 6.1 23.7 9.1 35.5z"/><path class="st6" d="M98.1 86.8c-7.1-2.7-14.5-1.2-21.8-1.5-.7 0-1.8.3-2.2.9-3.7 5.7-7.8 11.7-7 18.8.7 5.6 1 11.3 1.7 16.8-6.8-2.1-12.4-6.6-18.4-10.2-1.4-.8-1-2.7-.2-4.1 6.7-11.5 13.3-23 20-34.5 1.6-2.7 3.6-2.2 5.9-.8C83.4 76.5 90.7 80.7 98 85c.1.6.1 1.2.1 1.8z"/><path class="st11" d="M98.1 86.8c0-.6-.1-1.3-.1-1.9 3.4 1 6.3 3 9.1 5.2-.1.6-.1 1.3-.2 1.9-2.9-1.7-5.9-3.4-8.8-5.2z"/></svg>