<svg id="Слой_1" xmlns="http://www.w3.org/2000/svg" viewBox="0 0 1709 1007"><style>.st0{fill:#04ae2f}.st1{fill:#f9ddcf}.st2{fill:#949494}.st3{fill:#fdf9db}.st4{fill:#5a3d1c}.st5{fill:#fefefe}.st6{fill:#5a5d65}.st7{fill:#4a4d56}.st8{fill:#636363}.st9{fill:#93704d}.st10{fill:#383838}.st11{fill:#474747}.st12{fill:#caad47}.st13{fill:#5e6065}.st14{fill:#88240c}</style><path class="st0" d="M1.9 385.3c2.6-37.1 15.7-70.6 35.8-101.5 23.6-36.4 54.4-66 88.7-92 55.4-41.9 116.8-72.6 181.3-97.7 67.9-26.5 137.9-45.6 209.3-60C567 24 617.3 16.5 668 11.3 719.4 6 770.9 2.8 822.6 2c.5 0 1-.1 1.5-.2H887c25.6.7 51.3 1.5 76.9 3 42.1 2.5 84 6.5 125.8 11.9 51.8 6.8 103.2 16 154.1 28.2 91.1 21.8 179.3 51.4 261.8 96.2 46.6 25.3 90.1 55 127.4 93 29.2 29.8 53 63.2 66.4 103.2 5.3 15.8 8.7 32.1 9.6 48.8v24.5c-2.3 37.3-15.3 71-35.4 102.1-23.8 36.9-54.9 66.8-89.7 93.1-55 41.6-116 72-179.9 97-67.9 26.5-137.8 45.7-209.2 60.1-49.1 9.9-98.7 17.5-148.5 22.7-86.6 9.1-173.5 12.1-260.5 8.5-13.3-.5-26.6-1.2-39.9-1.9-2.4-.1-3.7-.2-3 3 6.8 27.7-3 50.4-21.9 70-18.4 19.1-41.4 30.9-66.2 39.7-10 3.6-20.3 6.3-30.7 8.7-1.6.4-3.1.5-4.3 2.1-14 18.2-33.4 28.2-54.5 35.3-27.2 9.1-55.2 12.2-83.7 10.3-3.7-.2-5.2 0-4.6 4.4 1.4 9.6-2.2 17.7-8.7 24.5-9.2 9.7-20.9 14.5-33.8 16.8-.9.2-2.1-.2-2.6 1h-20c-4.6-1.3-9.2-2.4-13.7-3.9-7.9-2.5-15-6.5-20.9-12.2-14.5-14.1-14.2-33.4.8-47 4.2-3.8 9-6.8 14.1-9.3-.4-1.8-2-2.2-3.1-3.1-7.1-5.3-13.6-11.3-18.6-18.7-11.2-16.5-11.3-35-.2-51.5 3.6-5.3 7.8-9.9 12.7-14 1.6-1.4 2.2-2.4 1.1-4.5-15.5-31-8.4-58.3 13.6-83.2 6.6-7.5 14.4-13.7 23.3-19.9-12.5-3.7-24.2-7.1-35.8-10.7-69.3-21.3-136.3-48.2-199.1-84.9-43.5-25.4-83.9-55-117.9-92.4-28-30.8-49.9-65.3-60.5-106-3-11.5-5-23.1-5.7-34.9-.1-8.9-.1-17.7-.1-26.5zm543.4 368.9c.8.3 1.5.6 2.4.8 30.2 5.5 60.6 10.2 91.2 13.8 14.3 1.7 28.7 3.9 43.1 4.3.5.7 1.2.8 2 .5 4.4.4 8.9 1 13.3 1.3 15.5 1.1 31 2.4 46.6 3.3 22.7 1.2 45.3 2.9 68.1 2.7 3.7 0 7.3.1 11 .1 4.5.3 8.9.7 13.4.8 26.2.7 52.5-.7 78.7-1 11.6-.1 23.2-1.2 34.8-1.8 6.7-.3 13.3-.5 20-.9 42.2-2.4 84.3-6.6 126.2-12.4 65.6-9.1 130.5-21.9 194.4-39.7 22.2-6.2 44.4-12.6 66.1-20.7 3.5-1.1 7-2.1 10.4-3.3 23.1-8.2 46-16.8 68.3-27.1.5-.1 1-.2 1.4-.4 56-24.7 109.2-54 156.4-93.3 30.8-25.6 58-54.6 77.6-89.9 22.4-40.3 30.9-83 21.5-128.6-7.3-35.2-24.1-65.7-46.3-93.5-29-36.2-64.4-65-103.1-90-58.6-37.9-122-65.7-187.9-88.1-63.4-21.6-128.3-37.4-194.2-49.3-45.3-8.1-90.8-14.3-136.5-18.6-35.8-3.4-71.8-5.6-107.7-6.7-60-1.8-120-1.1-179.9 2.8C690 22.4 644 27.1 598.2 34c-17.6 2.7-35.2 5.2-52.6 8.9-2.3-.1-4.5.5-6.6 1.2-.7 0-1.3 0-2 .1-43.2 8.5-86.1 18.3-128.4 30.5C347 92.6 287.1 114.8 229.8 144c-24.5 12.5-48.4 25.8-70.8 41.8-2.6 1-4.8 2.7-6.8 4.5-1.9 1.3-3.9 2.5-5.8 3.9-15.9 11.5-31.3 23.8-45.7 37.2-28 26.1-51.9 55.3-68.1 90.3-13.9 30.3-19.8 62-16.3 95.2 3.4 32.4 15.3 61.8 33.1 88.9 26.7 40.7 62.1 72.7 101.8 100.3 2.9 2 5.9 3.9 8.8 5.9 5.3 4.6 11.4 7.9 17.3 11.6 15.9 9.9 32 19.4 48.9 27.5 4.3 2.9 8.9 5 13.7 6.9 1.4.8 2.8 1.7 4.3 2.4 28.9 13.9 58.5 26.4 88.6 37.4 53.9 19.6 109.1 35.1 165.2 47.1 13.6 2.9 27.2 6.1 41 8 1.9 1.3 4.2 1.1 6.3 1.3zM492.7 814c17.5.1 32.1 1.2 46.5 4.1 24.4 4.8 47.7 12.5 67.3 28.4 15.3 12.4 25.7 27.5 22.5 48.7-.4 2.8.6 3.2 2.9 2.4 7.1-2.3 14.4-4.1 21.4-6.7 23.3-8.7 45-20.2 61.6-39.3 14.2-16.4 20.3-34.9 13.7-56.4-.9-2.9-2.3-4.1-5.6-4.3-33.6-2.3-67-5.7-100.4-10.1-60.4-8-120.2-19.1-179.2-34.3-1.9-.5-3.8-.9-5.8.2-16.4 9.7-31.1 21.2-40.6 38.2-9.1 16.4-9.8 33.2-1.9 50.3.9 2 1.6 3.3 4.3 1.7 29.9-16.9 62.4-22.2 93.3-22.9zm.4 134c23.7-.2 44.5-2.6 64.6-9.1 18.2-5.8 35.5-13.6 48.4-28.4 12.9-14.7 12.9-30.1.2-44.9-8.9-10.4-20.1-17.5-32.5-22.5-49-19.7-98.5-20.2-148.2-3.1-16.2 5.6-31.1 13.8-41.9 27.7-10.5 13.4-10.3 27.2 0 40.7 6 7.8 13.8 13.4 22.1 18.5 3.8 2.4 7.7 3.2 12.2 2.9 17-1 32.8 2.7 46.2 13.7 2.6 2.2 5.3 3.2 8.6 3.4 7.7.4 15.3 1.4 20.3 1.1zm-71.6 46.1c12.4-.2 23.8-2.7 33.4-10.4 11.5-9.1 11.4-21-.1-30.1-17.3-13.7-48.8-13.6-65.9.2-11.1 8.9-11.3 20.5-.3 29.5 9.7 7.9 21.1 10.5 32.9 10.8z"/><path class="st1" d="M886.9 1.8H824c0-.3-.1-.5-.1-.8h63c.1.3.1.5 0 .8z"/><path class="st2" d="M1.9 385.3v26.5c-.3 0-.6.1-.9.3v-27c.3.1.6.2.9.2zm1707.2 25.4v-24.5c.3 0 .6-.1.9-.3v25c-.3 0-.6-.1-.9-.2z"/><path class="st3" d="M545.5 42.9c17.4-3.7 35-6.3 52.6-8.9C644 27.1 690 22.4 736.2 19.3c59.9-3.9 119.9-4.7 179.9-2.8 36 1.1 71.9 3.3 107.7 6.7 45.8 4.3 91.3 10.5 136.5 18.6 65.9 11.8 130.8 27.7 194.2 49.3 65.9 22.4 129.3 50.2 187.9 88.1 38.7 25 74.1 53.8 103.1 90 22.2 27.8 39.1 58.3 46.3 93.5 9.4 45.6.9 88.3-21.5 128.6-19.6 35.3-46.7 64.3-77.6 89.9-47.2 39.3-100.5 68.6-156.4 93.3-.5.2-1 .3-1.4.4.3-7.1-1.3-14.2.9-21.2 7.3 0 14.7 0 22 .2 3.5.1 4.7-1 4.6-4.5-.2-10.7-.3-21.3 0-32 .2-4.7-1.1-6.2-6-6.2-131.4.1-262.7.1-394.1.1-1.8 0-3.6-.2-5.5-.3V424.5c0-1.8-.3-3.6-.4-5.4-.2-2.9-1.7-4.5-4.6-4.6-10.6-.9-21.3-.2-32-.4-1-1.6-.9-3.5-1-5.3-.7-11.8-1.3-23.5-2.2-35.2-.7-9-3.9-17.1-9.7-24-3.9-4.7-9.4-8.2-11.4-14.4-.2-.7-.3-1.3-.5-2 0-.8.2-1.7 0-2.4-2.9-8.5-5.5-17-8.8-25.3-3.5-8.7-6-17.8-11.2-25.7-.3-.5-.6-1.1-.9-1.6-.5-4.1-2.5-7.5-4.9-10.7-.3-.5-.5-.9-.8-1.4.3-1.2-.3-2-1.3-2.6-.2-.5-.5-.9-.7-1.4.2-1.2-.4-2-1.3-2.6-.2-.5-.5-.9-.7-1.4-.2-1.8-.6-3.5-2.5-4.4-.5-.9-.9-1.8-1.4-2.7-.2-1.9-.9-3.4-2.6-4.4-.5-.9-1-1.7-1.4-2.6-.1-1.9-1-3.3-2.6-4.3 0-.3-.2-.5-.5-.7-1.2-4.1-3.5-7.4-6.6-10.2 0-.3-.2-.6-.5-.8.2-1.8-1-2.7-2.4-3.5 0-.3-.1-.5-.4-.6.1-1.2-.6-1.9-1.7-2.3 0-.3-.1-.5-.4-.7.1-1.3-.5-1.9-1.7-2.2-2.7-3.9-5.5-7.8-8.2-11.6-2.5-6.9.5-13.7.2-20.6-.2-5.1-.1-10.2.5-15.3.9-9 1.2-18.2-.2-27.3-1.5-9.6-3.9-19-5.2-28.7-.5-3.6-3.1-7.1-1.2-11 13.3-.1 21.7-7.9 28.6-18 2.6-3.8 2.8-7.9 1.8-12.4-1.4-6.6-5.3-12.2-7.1-18.6-.9-3.3-2.1-3.3-4.9-2.3-8.9 3.3-17.7 6.8-26.9 9-18.3 4.3-36.8 1.9-55.1.7-22.9-1.4-45.8-3.1-68.6.3-12 1.8-23.8 4.3-34.8 9.8-7.1 3.6-12.2 8.8-13.6 16.8-1.5 9-4.7 17.3-8.4 25.5-5.5 12-7.7 24.5-7.3 37.7.3 10.5 2.1 20.8 3.3 31.2-1.1.7-2.1 1.3-2.3 2.7-4.1 3.2-7.6 6.9-10.8 11-2.9 1.8-5.3 4.1-6.5 7.3-.5.6-1 1.1-1.4 1.7-2.8 1.7-4.6 4.2-5.6 7.3-.5.6-.9 1.1-1.4 1.7-4.1 3.8-7.3 8.2-9.5 13.3-.3.1-.5.3-.5.7-1.5.4-1.9 1.8-2.6 2.9-10.1 15.5-18.6 31.8-26.1 48.6-11.4 25.5-20.1 52-26.9 79.1-1.9 7.5-4.5 14.9-4.5 22.8-.1.7-.2 1.3-.3 2-2.1 2.7-2.4 5.8-1.8 9-.1.7-.2 1.3-.2 2-1.9 2.8-2.5 5.8-1.8 9-.1.7-.1 1.3-.2 2-1.5 3.5-2.5 7.1-1.8 11-.1.7-.1 1.3-.2 2-.3.8-.7 1.5-.8 2.3-2.2 14.1-3.3 28.4-4.4 42.6-2.5 33.1-2.4 66.1.8 99.1 1.6 15.9 4.6 31.5 8.3 47-1.3.1-2.6.2-4 .2h-82.3c-.1-1.3-.4-2.6-.4-4 .1-188 .1-376.1.1-564.3z"/><path class="st2" d="M158.9 185.8c22.4-16 46.4-29.3 70.8-41.8 57.2-29.2 117.1-51.4 178.8-69.3 42.3-12.3 85.2-22.1 128.4-30.5.6-.1 1.3-.1 2-.1v561.8c0 1.9-.1 3.7-1 5.3h-4.1c-.7-1.2-1.3-1.2-1.9 0-.4-.2-.8-.3-1.2-.5 0-25-.1-49.9 0-74.9 0-3.9-1.1-5.2-5-5.1-17.8.2-35.6.1-53.4.1-11.8 0-11.9 0-12.1 11.8-.1 3.2-.5 4.5-4.2 3.3-6.2-1.9-10.6.5-13.3 6.4-1.9 4-2.8 8.2-3.4 12.5-1.8 12.7 1.8 22.5 11.9 25.1 9.5 2.4 9.7 7.7 9 14.9-.2 2-.1 4-.1 6-2.7.1-5.3.3-8 .3H256.3c-32.1 0-64.3.1-96.4.1-1.4-2.3-1-4.8-1-7.3V192.3c.1-2.1 0-4.3 0-6.5zM195 338.7c-.8 16.5 13.5 32.8 30.5 33.1 16.8.3 31.9-15.6 31.3-33.5-.6-17.6-12.7-32-30.9-32.5-14.8-.4-31.3 13.8-30.9 32.9z"/><path class="st4" d="M534 611.3h4.1c2.6 0 5.2.1 7.8.1h82.3c1.3 0 2.6-.2 4-.2.6 0 1.2-.1 1.7-.1h104.2c2.1 1.3 4.5.9 6.8.9h281.2c10.3 0 20.6.8 30.8-.9 1.8.1 3.6.3 5.5.3 131.4 0 262.7 0 394.1-.1 4.9 0 6.2 1.4 6 6.2-.3 10.6-.2 21.3 0 32 .1 3.6-1.1 4.7-4.6 4.5-7.3-.3-14.6-.2-22-.2-1.3-2.1-3.2-2.6-5.5-2.6-23.3.1-46.6 0-69.9 0-2 0-4.2-.1-4.5 2.7h-354.3c-2 0-4 .3-6 .4-15-.1-29.9-.1-44.9-.2h-299c-.9-.2-1.8-1.6-2.8-.2H545.8c-2.6.2-5.3-1.1-7.9.1-1.4 0-2.7 0-4.1-.1-1.6-1.4-3.5-.8-5.3-.8H250.1c-1.8 0-3.7-.6-5.3.8h-4.1c-1.2-2-3-2.9-5.4-2.8-3.1.2-6.3.1-9.4.1-16.9-8.1-33-17.6-48.9-27.5-5.9-3.7-12-7-17.3-11.6.1-.3.1-.6.1-.9 32.1 0 64.3-.1 96.4-.1H452c2.7 0 5.3-.2 8-.3 2 .2 3.9.5 5.9.5h58.8c2 0 3.9-.3 5.9-.5.4.2.8.3 1.2.5.9.8 1.5.8 2.2 0z"/><path class="st3" d="M995.8 654.3c2-.1 4-.4 6-.4h354.3c.1 1.8.2 3.7.2 5.5.1 15.3.1 30.6.2 46-21.6 8.2-43.8 14.5-66.1 20.7-63.8 17.9-128.7 30.7-194.4 39.7-41.9 5.8-84 10-126.2 12.4-6.6.4-13.3.6-20 .9.1-13.1.4-26.1.2-39.2-.1-4.7.6-8.2 5.9-9 1-.1 2-.3 3-.4 1.8.7 3.5.6 5.1-.5 1.6-.2 3.3-.3 4.9-.5 2.9.6 5.6-.1 8.1-1.5 1.3-.2 2.6-.4 3.9-.5 2 .5 3.7-.1 5.1-1.5 1-.2 1.9-.4 2.9-.6 1.8.5 3-.2 4.1-1.6 3.9-1 7.3-2.8 9.3-6.5 1.2-.4 1.9-1.1 1.3-2.5.5-8.5-5.8-11.3-11.9-14.4-.6-1-1.3-1.7-2.6-1.5-2.6-1.1-5-2.8-8-3-1-1.4-2.3-2-4.1-1.6-.6-.1-1.3-.3-1.9-.4-.5-.8-1.1-1.1-2.1-.7-.8-.3-1.6-.5-2.3-.8-.7-1.1-.8-2.2-.3-3.4 11-9.6 19.8-21 25.4-34.7z"/><path class="st2" d="M151.1 606.2c-39.7-27.6-75-59.6-101.8-100.3-17.8-27.1-29.7-56.5-33.1-88.9-3.5-33.2 2.4-64.9 16.3-95.2 16.1-35 40.1-64.2 68.1-90.3 14.4-13.4 29.7-25.6 45.7-37.2 1.9-1.4 3.9-2.6 5.8-3.9v411.1c0 1.6.4 3.4-1 4.7zM114 338.1c.8-3.6-.4-7.8-2.1-11.8-4.4-10.9-12.3-18.3-24.1-20.1-12.8-1.9-22.9 3.5-29.7 14.3-8.1 13-7.1 26 1.3 38.8 5.2 8 19.3 14 28.7 12.3 15.2-2.8 27-17.6 25.9-33.5z"/><path class="st5" d="M492.7 814c-30.9.7-63.4 6-93.2 22.9-2.7 1.5-3.4.3-4.3-1.7-7.9-17.1-7.2-33.9 1.9-50.3 9.5-17 24.2-28.6 40.6-38.2 2-1.2 3.8-.7 5.8-.2 59 15.2 118.8 26.3 179.2 34.3 33.3 4.4 66.8 7.8 100.4 10.1 3.2.2 4.6 1.3 5.6 4.3 6.7 21.5.5 40-13.7 56.4-16.6 19.2-38.3 30.6-61.6 39.3-7 2.6-14.3 4.5-21.4 6.7-2.4.8-3.4.4-2.9-2.4 3.2-21.1-7.2-36.2-22.5-48.7-19.6-15.9-42.9-23.7-67.3-28.4-14.5-2.8-29.1-4-46.6-4.1z"/><path class="st5" d="M493.1 948c-5.1.3-12.7-.7-20.3-1.2-3.2-.2-5.9-1.2-8.6-3.4-13.4-11-29.3-14.6-46.2-13.7-4.6.3-8.4-.5-12.2-2.9-8.3-5.1-16.1-10.7-22.1-18.5-10.4-13.5-10.5-27.3 0-40.7 10.8-13.9 25.7-22.1 41.9-27.7 49.7-17.1 99.3-16.6 148.2 3.1 12.4 5 23.7 12.2 32.5 22.5 12.7 14.8 12.7 30.2-.2 44.9-13 14.8-30.2 22.6-48.4 28.4-20.1 6.6-40.9 9.1-64.6 9.2z"/><path class="st2" d="M241 653.8h4.1c1.4 1.7 3.4 1 5.1 1h278.6c1.7 0 3.7.7 5.1-1 1.4 0 2.7 0 4.1.1 1.1 1.8 1 3.8 1 5.8V753c-13.8-1.9-27.4-5.1-41-8-56.1-12-111.2-27.5-165.2-47.1-30.2-11-59.7-23.5-88.6-37.4-1.5-.7-2.9-1.6-4.3-2.4-.1-1.6.3-2.9 1.1-4.3z"/><path class="st6" d="M956 730.9c-5.4.8-6 4.3-5.9 9 .2 13-.1 26.1-.2 39.2-11.6.6-23.2 1.7-34.8 1.8-26.2.3-52.5 1.7-78.7 1-4.5-.1-8.9-.5-13.4-.8.6-5.7-.9-11.2-.9-16.8-.1-10.6 0-21.2 0-31.9 0-16.5 3.7-32 12-46.3-.3-2.2-1.2-2.7-2.9-1.1h-23c-1.3-1.4-4.3-1-3.4-4.8 2-8.5 2.4-17.3 2.4-26.1h143.9c-.1 8.6.6 17.1 1.9 25.7.3 2.2 1.3 5.6-3 5.2-5.3-.4-5.1 1.8-3.9 5.9 3.4 11.6 5.1 23.4 4.1 35.5-.2 2.5.4 3.9 3.2 3.6.9-.1 1.9-.1 2.6.9z"/><path class="st7" d="M807 654c0 8.8-.3 17.6-2.4 26.1-.9 3.8 2.1 3.4 3.4 4.8-2.7 1.7-1.7 3.9-.9 6.1 4.2 11.7 6 23.6 6 36.1 0 18-.4 35.9-1.1 53.8-22.7.2-45.4-1.5-68.1-2.7-15.6-.8-31.1-2.2-46.6-3.3-4.5-.3-8.9-.9-13.3-1.3 0-12.9 0-25.9.1-38.8 0-2.6-.4-4.9-2.1-6.9 0-12.6-.5-25.2 2.9-37.6.3-1.1.4-2.7-.2-3.4-2.5-3.3-1.5-7-1.7-10.6-.5-7.5.7-14.9 1-22.3h2c-.3 8.4-1.5 16.8-1 25.3.1 1.1-.6 2.7.9 3 1.9.4 1.6-1.5 2.2-2.6 2.8-5.5 5.1-11.3 8.8-16.4 2.3-3.2 6.1-5.2 7.1-9.3h77c.1.3 0 .8.2 1 6.9 6.2 13.2 12.9 18.1 20.7.5.8 1.5 1.4 2.6 1 1.4-.6 1-1.9 1.1-3 .7-6.5 1.3-13.1 2-19.6.7-.1 1.3-.1 2-.1z"/><path class="st3" d="M545.9 653.8h103.2c1.3 1.4 1.8 3.6 3.7 4.5 0 .3.1.5.4.6-.2 1.2.4 2.1 1.5 2.4 0 .3.2.5.4.6-.1 1.2.4 2 1.6 2.4 0 .3.2.5.4.6-.1 1.2.4 2 1.6 2.4.4.6.8 1.1 1.3 1.7 0 1.8 1.3 2.7 2.7 3.4 5.2 6.6 10.9 12.6 17.7 17.5-.1.7-.2 1.4-.3 2.2-.7.2-1.3.4-2 .6-2-.6-3.6.4-5.1 1.6-1.5-.1-2.8.4-3.9 1.4-4 .1-7.4 1.7-10.4 4.2-2.8.7-5.2 2.2-7.3 4.1-3.4 2.9-7.2 5.6-5.9 11-.5 1.3.1 2 1.4 2.3.5 1.5 1.5 2.4 3 2.9.3 1.3 1 1.8 2.3 1.4.5.2 1.1.5 1.6.7.4 1.2 1.1 1.7 2.4 1.3.6.2 1.3.3 1.9.5 1.1 1.3 2.3 2.1 4.1 1.5 1 .2 1.9.3 2.9.5 1.8 1.3 3.7 2.4 6 1.5.7.1 1.5.2 2.2.2.7.3 1.5.9 2.2 1 5.5.1 6.7 3.1 6.5 8.1-.3 12.1-.1 24.2-.1 36.4-14.5-.4-28.8-2.6-43.1-4.3-30.5-3.7-60.9-8.3-91.2-13.8-.8-.1-1.6-.5-2.3-.8.1-.8.2-1.7.2-2.5v-92.1c0-2.1-.6-4.1.4-6z"/><path class="st8" d="M545.9 611.3c-2.6 0-5.2-.1-7.8-.1.8-1.7 1-3.5 1-5.3V44.1c2.2-.7 4.3-1.3 6.6-1.2v564.4c-.2 1.4.1 2.7.2 4z"/><path class="st5" d="M421.5 994.1c-11.8-.3-23.2-2.9-32.8-10.8-11-9-10.8-20.6.3-29.5 17.1-13.8 48.6-13.9 65.9-.2 11.5 9.1 11.6 21 .1 30.1-9.8 7.7-21.2 10.3-33.5 10.4z"/><path class="st9" d="M1356.4 705.3c-.1-15.3-.1-30.6-.2-46 0-1.8-.1-3.7-.2-5.5.3-2.8 2.5-2.7 4.5-2.7h69.9c2.3 0 4.3.5 5.5 2.6-2.2 7-.5 14.1-.9 21.2-22.3 10.2-45.2 18.9-68.3 27.1-3.3 1.2-6.8 2.2-10.3 3.3z"/><path class="st8" d="M151.1 606.2c1.4-1.3 1-3.1 1-4.7V190.4c2-1.9 4.2-3.5 6.8-4.5 0 2.2.1 4.3.1 6.5V604c0 2.5-.4 5 1 7.3 0 .3 0 .6-.1.9-2.9-2-5.9-4-8.8-6z"/><path class="st10" d="M812 781c.7-17.9 1.1-35.9 1.1-53.8 0-12.4-1.8-24.4-6-36.1-.8-2.2-1.8-4.4.9-6.1h23c.7 1.2 1.9 1 2.9 1.1-8.2 14.4-12 29.9-12 46.3v31.9c0 5.6 1.5 11.2.9 16.8-3.5-.1-7.1-.1-10.8-.1z"/><path class="st8" d="M545.9 653.8c-1 1.9-.4 3.9-.4 5.9v92.1c0 .8-.1 1.7-.2 2.5-2.1-.2-4.4 0-6.3-1.2v-93.3c0-2 .1-4-1-5.8 2.6-1.3 5.3.1 7.9-.2zm136 119.3c0-12.1-.3-24.3.1-36.4.1-5-1.1-8-6.5-8.1-.7 0-1.5-.6-2.2-1 3-1.5 5.8.7 8.7.3 1.7 2 2.1 4.3 2.1 6.9-.1 12.9-.1 25.9-.1 38.8-.8.3-1.5.2-2.1-.5zM241 653.8c-.7 1.3-1.2 2.7-1.1 4.3-4.8-1.9-9.4-4.1-13.7-6.9 3.1 0 6.3.1 9.4-.1 2.4-.2 4.1.7 5.4 2.7z"/><path class="st11" d="M1056.9 611c-10.2 1.7-20.6.9-30.8.9-93.7.1-187.5 0-281.2 0-2.3 0-4.7.4-6.8-.9v-7c1.4-1.1.8-2.6.9-4-.1-4.7.6-9.4-.9-14 1.6-1.5.8-3.4 1-5.2.6-7.8-2.1-15.6-.8-23.3 1.4-8.3.5-16.6.8-24.8.1-1.6.6-3.4-.9-4.7 0-35.3 0-70.7-.1-106 0-2.7.3-4.9 3-6 1.4-.5 2.2-2.1 4-1.8 13.4 1.9 26.9.4 40.4.8 2.1.1 4.5.6 5.7-2v-3c2.8-.3 1.1 4.5 4.3 3.9 4.2 0 8.3 0 12.5-.1 14.4 0 28.8 0 43.2.1 6.1 0 12.2.2 18.2.1 3.2-.1 6.6.9 9.6-1.1 2 1.2 4.1 1.1 6.3 1.1h39.4c31.8 0 63.6.1 95.5.1 10.7.1 21.3-.6 32 .4.9 2.2 2.4 3.8 4.6 4.6.2 1.8.4 3.6.4 5.4-.2 62.2-.2 124.3-.3 186.5z"/><path class="st1" d="M926 104.3c-1.9 3.9.8 7.4 1.2 11 1.3 9.6 3.7 19.1 5.2 28.7 1.4 9 1.1 18.2.2 27.3-.5 5.1-.7 10.3-.5 15.3.3 6.9-2.7 13.8-.2 20.6-3.2.1-2.4 2.7-2.6 4.5-4 25.8-8 51.6-14.7 77-3.4 12.9-8.5 24.9-19.7 33.3-2 .1-1.4 1.7-1.6 2.9-11.3.2-22.4 2.3-33.5 3.5-2.7.3-7.1-1-8.3 3.6-.2.2-.4.2-.7.1-5.6-4.1-12.4-3.9-18.8-5-.6-1.2-1.1-2.3-2.3-3.1-10.1-6.7-18.9-15-27.8-23.2 2.5-7.5 3-15.2 3-23 0-.9-.4-2-1-2.8-7.9-10.4-13-22.4-19-33.9-4.2-8-8.8-16-19.6-16-.8 0-1.5-.6-2.3-.9-12.5-4.6-18.3-14.5-19.8-27-1-8.5-.2-17 4.5-24.6 3.1-5.1 7.8-6.1 12.9-3.1 2.1 1.3 4 2.9 5.9 4.6 3.1 2.8 5.5 6.2 7.9 9.6.7 1 1.7 1.8 2.9 1.2 1.3-.6 1.4-1.7 1-3-.6-2.1-.3-4.2.2-6.4 5.7-23.6 16.1-45 30.1-64.7 2.2-3.2 4.9-5.9 8.1-8.1 2.5-1.7 4.9-2.1 7.3 0 2.4 2.1 5.3 2.4 8.4 2.5 10.3.3 20.1-2.4 30-4.4 15.4-3.2 30.7-7.4 46.7-6.8 7.7.2 14.7 1.3 16.9 10.3zm-51.2 168.8c8.7.2 15.6-4.9 22.1-10.6.9-.8 1.3-2 .9-3.2-.5-1.4-1.8-1.2-2.9-1.3-5.8-.3-11.6.1-17.4-.5-9.5-1.1-18.9-2.8-28.4-4.4-1.2-.2-2.9-.7-3.6.8-1 1.7.7 2.7 1.7 3.7 2.3 2.1 4.6 4.4 7.2 6.1 6 4.1 11.5 9.6 20.4 9.4zm-16.4-122.9c-7 1.1-13.6 4.4-20 8.4-.7.4-1.3 1.2-1 2.1.5 1.2 1.6 1.1 2.5.8 2.4-.7 4.9-.7 7.4-.7 8.7.3 17.2 1.7 25.4 4.4 1.1.3 2.3 1 3.3 0 .3-.3.3-1.2.1-1.8-1.6-5.3-11.8-13.1-17.7-13.2zm30.1 17.7c11-1.4 20.7-2.6 30.4-3.9 1.2-.2 3 .5 3.4-1.2.4-1.5-1.1-2.3-2.2-3-11.2-8.5-23.7-6.6-31.9 4.9-.4.6-.9 1.5-.8 2.2.2 1.3 1.4 1 1.1 1zm16.4 27.7c.9-5.2-1.3-9.5-4.3-13.4-1.8-2.4-4.4-3.3-6.9-1.2-7.8 6.8-7.6 21.7.2 28.4 1.9 1.6 3.2 1.8 5.1.1 4.2-3.8 6.9-8.1 5.9-13.9zm-36-.6c.7-4.8-.6-9-4-12.7-2.8-3-5.1-2.8-7.9.1-3 3.1-1.9 7.3-3.6 10.5-3.7 7 .3 11.4 4.2 16.1 1.8 2.2 3.6 2.4 5.8.2 4.1-3.8 6.4-8.3 5.5-14.2z"/><path class="st12" d="M926 104.3c-2.2-9-9.2-10.1-16.9-10.4-16-.6-31.3 3.6-46.7 6.8-9.9 2.1-19.7 4.8-30 4.4-3.1-.1-6-.4-8.4-2.5-2.4-2.1-4.8-1.7-7.3 0-3.2 2.2-5.8 4.9-8.1 8.1-14 19.7-24.4 41.1-30.1 64.7-.5 2.2-.8 4.3-.2 6.4.3 1.3.2 2.4-1 3-1.3.6-2.2-.2-2.9-1.2-2.4-3.4-4.8-6.8-7.9-9.6-1.9-1.6-3.8-3.3-5.9-4.6-5.1-3.1-9.7-2-12.9 3.1-4.7 7.6-5.5 16.1-4.5 24.6 1.5 12.5 7.2 22.4 19.8 27 .8.3 1.5.9 2.3.9 10.9.1 15.4 8 19.6 16 6 11.5 11.1 23.5 19 33.9.6.8 1 1.8 1 2.8 0 7.8-.5 15.5-3 23-2.5-1.8-5-3.8-7.6-5.5-5.1-3.4-7.2-2.5-9.7 3.2-2 4.6-1.5 9.8-4.1 14.2-2.3-1.4-4.7-1.9-7.3-1.6-4.6-9-8.6-18.2-11.4-28-3.7-12.9-6.5-26.1-9.3-39.3-4.2-19.6-13.2-37.6-18.4-56.8.1-1.1-.1-2-1-2.7-1.2-10.4-3-20.7-3.3-31.2-.4-13.2 1.7-25.7 7.3-37.7 3.7-8.2 7-16.5 8.4-25.5 1.3-8 6.5-13.2 13.6-16.8 11-5.5 22.8-8 34.8-9.8 22.9-3.4 45.7-1.8 68.6-.3 18.4 1.1 36.8 3.6 55.1-.7 9.2-2.2 18-5.8 26.9-9 2.7-1 3.9-1 4.9 2.3 1.8 6.4 5.7 12 7.1 18.6 1 4.5.8 8.6-1.8 12.4-7 10-15.4 17.8-28.7 17.8z"/><path class="st10" d="M734.1 186.8c5.3 19.2 14.2 37.2 18.4 56.8 2.8 13.1 5.6 26.3 9.3 39.3 2.8 9.8 6.8 19 11.4 28-11.9 1.1-23.6 4-35.3 6.1-1.2.2-1.7.8-2 1.9H733c-3-1.7-4.5-.2-3.6 2.5 1.2 3.6-.8 4.6-3.3 5.4-6.3 2-12.6 3.9-19.1 5.3-9 2-18.2-.1-27.2 1.8-12.4 2.7-23.9 6.6-31.7 17.5-6.6 9.2-8.4 19.6-8.1 30.6-.8.5-.9 1.2-.9 2-1.8 1.4-.8 3.3-1 5-.1 2.5-.3 5 1.8 7v4.9c-4.6.4-2.2 3.9-2.8 6.1v8c-.9 2-1.9 4 0 6v7c0 2 0 4-.1 6-3.6 2.6-2 5.9-1 9 .2 4-.1 8-1 12-1 4-2 8 0 12v28c-1.6 3.8-1.8 7.6 1 11v9c-1 2.2-2.4 4.5 1 6 0 1.3 0 2.6.1 4v4c-1.5 1.5-.3 1.8 1 2v5c-1.5 1.6-1.1 2.6.9 3 0 3 .1 6 .1 9 0 1.4-.1 2.9 1.9 3 0 2.3.1 4.6.1 7 0 1.3.6 2 1.9 2 0 1.7.1 3.3.1 5 0 1.3.6 2 1.9 2.1 1.2 7.5 4.4 14.1 9.1 20 1.9 2 4.4 3.7 5.7 6 1.9 3.4 4.7 4.6 8.2 5 1.8 3.5 5.2 2.2 8 2.9h1c1.9 3.9 5.4 1.1 8 2 .1 1.1-.2 2.3 1 3v5h-52.1c-1.7-9.4-4.3-18.6-5.6-28.1-1.3-9.7-2.9-19.3-3.4-29-.3-6.3-.5-12.6-1.1-18.9-2-20.1-.8-40.2.4-60.2 1-16.2 1.9-32.4 4.7-48.4.3-2 .8-4.3-.6-6.3.1-.7.1-1.3.2-2 3.1-3.3 2.9-7.1 1.8-11 .1-.7.1-1.3.2-2 2.4-2.7 3.2-5.6 1.8-9 .1-.7.2-1.3.2-2 2.4-2.6 3.1-5.6 1.8-9 .1-.7.2-1.3.3-2 1.9-1.5 1.9-3.7 2.4-5.8 4.3-18.9 8.9-37.7 15.2-55.9 9.4-27.1 20.3-53.5 35.3-78.2 2.6-4.3 6.5-8.1 7.2-13.5 0-.3.2-.5.5-.7 4.8-3.3 7.4-8.1 9.5-13.3.5-.6.9-1.1 1.4-1.7 3.3-1.3 4.9-4 5.6-7.3.5-.6 1-1.1 1.4-1.7 3.1-1.6 5.7-3.7 6.5-7.3 3.3-4 6.8-7.8 10.8-11 1.4.1 2.5.1 3.7.1z"/><path class="st13" d="M893.4 324.8c.1-1.2-.5-2.7 1.6-2.9 1.3 3.5 2.6 7.1 4.4 12 .4-2.2.6-2.8.7-3.4.4-8.6.4-8.6 8.7-6.1l34.5 10.8c1.5.5 3 1.1 4.2-.2 1.9-2.2 4.4-2.1 6.9-2 6.5.3 13 .4 19.4 1.1 6.1.7 12 2.4 17.6 4.8 1.3.6 2.6 2.3 3.9 1.5 1.7-1-.4-2.7-.2-4.1.1-.4.4-.9.6-1.3 2 6.2 7.5 9.7 11.4 14.4 5.8 7 9 15.1 9.7 24 .9 11.7 1.5 23.5 2.2 35.2.1 1.8 0 3.7 1 5.3-31.8 0-63.6-.1-95.5-.1h-39.4c-2.2 0-4.3.1-6.3-1.1.1-1.1.1-2.3.5-3.4 6.7-22.1 12.1-44.5 17.7-66.9 1.5-6.3-.2-12.2-3.6-17.6zm-3.4 61c-.3-.5-.4-1.2-.7-1.3-.8-.2-1.2.4-1.1 1 0 .4.4.9.7.9.3.1.7-.3 1.1-.6zm-2.4 7.9c-.3-.1-.6-.2-.8-.4-.1.3-.4.6-.3.8.1.2.5.3.8.4.1-.2.2-.5.3-.8z"/><path class="st10" d="M995.7 335.1c-.2.4-.5.8-.6 1.3-.2 1.4 1.9 3 .2 4.1-1.3.8-2.6-1-3.9-1.5-5.7-2.4-11.6-4.2-17.6-4.8-6.4-.7-12.9-.8-19.4-1.1-2.5-.1-5-.2-6.9 2-1.2 1.4-2.7.7-4.2.2-11.5-3.6-23-7.3-34.5-10.8-8.3-2.6-8.3-2.5-8.7 6.1 0 .6-.2 1.2-.7 3.4-1.8-4.9-3.1-8.4-4.4-12 11.2-8.4 16.3-20.4 19.7-33.3 6.6-25.3 10.7-51.1 14.7-77 .3-1.8-.5-4.3 2.6-4.5 2.7 3.9 5.5 7.8 8.2 11.6-.2 1.3.3 2.1 1.7 2.2.3.1.4.4.4.7-.3 1.4.2 2.2 1.7 2.3.3.1.4.3.4.6-.4 2 .5 3 2.4 3.5.3.2.5.4.5.8 1 4.2 3.2 7.6 6.6 10.2.3.1.5.3.5.7-.1 2 .3 3.7 2.6 4.3.5.9 1 1.7 1.4 2.6-.1 2 .3 3.8 2.6 4.4.5.9.9 1.8 1.4 2.7-.1 1.9.3 3.7 2.5 4.4.2.5.5.9.7 1.4-.5 1.3-.2 2.3 1.3 2.6.2.5.5.9.7 1.4-.5 1.3-.3 2.3 1.3 2.6.3.5.5.9.8 1.4.1 4.3 2.2 7.6 4.9 10.7.3.5.6 1.1.9 1.6-.4 1.4 0 2.6.6 3.8 5.8 13 10.6 26.3 15.3 39.7 1.2 3.3 1.1 7.3 4.1 9.8-.2.6 0 1.3.2 1.9z"/><path class="st8" d="M628.3 420.1c1.4 2 .9 4.3.6 6.3-2.8 16-3.7 32.2-4.7 48.4-1.2 20-2.4 40.1-.4 60.2.6 6.3.8 12.6 1.1 18.9.5 9.8 2.1 19.4 3.4 29 1.3 9.5 3.8 18.7 5.6 28.1-.6 0-1.2.1-1.7.1-3.7-15.5-6.7-31.1-8.3-47-3.2-33-3.4-66-.8-99.1 1.1-14.3 2.2-28.5 4.4-42.6.1-.8.5-1.6.8-2.3zm66.6-190.3c-.8 5.4-4.6 9.2-7.2 13.5-14.9 24.7-25.9 51.1-35.3 78.2-6.4 18.3-10.9 37.1-15.2 55.9-.5 2.1-.5 4.3-2.4 5.8 0-7.9 2.6-15.3 4.5-22.8 6.8-27.1 15.4-53.6 26.9-79.1 7.6-16.8 16.1-33.2 26.1-48.6.6-1.1 1.1-2.5 2.6-2.9z"/><path class="st13" d="M995.2 333.1c-3.1-2.6-3-6.5-4.1-9.8-4.7-13.4-9.5-26.8-15.3-39.7-.6-1.2-1-2.5-.6-3.8 5.2 7.9 7.7 17 11.2 25.7 3.3 8.3 5.9 16.9 8.8 25.3.2.7 0 1.5 0 2.3z"/><path class="st8" d="M704.9 215.8c-2.1 5.2-4.7 10-9.5 13.3 2.2-5.1 5.3-9.6 9.5-13.3zm-74.5 191.3c1.1 4 1.3 7.8-1.8 11-.7-3.9.2-7.5 1.8-11z"/><path class="st13" d="M953.7 239.1c-3.4-2.6-5.6-6-6.6-10.2 3.2 2.7 5.4 6.1 6.6 10.2z"/><path class="st8" d="M632.3 396.1c1.4 3.4.6 6.4-1.8 9-.6-3.2-.1-6.3 1.8-9zm2.1-11c1.2 3.4.5 6.4-1.8 9-.6-3.2-.3-6.3 1.8-9z"/><path class="st13" d="M974.3 278.1c-2.7-3.1-4.8-6.4-4.9-10.7 2.4 3.3 4.4 6.6 4.9 10.7z"/><path class="st8" d="M719.9 197.8c-.8 3.7-3.4 5.7-6.5 7.3 1.2-3.3 3.6-5.5 6.5-7.3zm-8 9c-.8 3.3-2.3 6-5.6 7.3 1-3.1 2.8-5.6 5.6-7.3z"/><path class="st13" d="M1056.5 419.1c-2.2-.8-3.8-2.4-4.6-4.6 3 .1 4.4 1.7 4.6 4.6z"/><path class="st8" d="M734.1 186.8h-3.4c.2-1.4 1.2-2.1 2.3-2.7.9.7 1.2 1.6 1.1 2.7z"/><path class="st13" d="M964.6 258.1c-2.1-.7-2.5-2.4-2.5-4.4 1.9.9 2.4 2.6 2.5 4.4zm-3.8-7.1c-2.3-.6-2.7-2.3-2.6-4.4 1.7 1.1 2.4 2.6 2.6 4.4zm-4-6.9c-2.3-.6-2.7-2.3-2.6-4.3 1.6.9 2.5 2.3 2.6 4.3zm-10.2-16c-1.8-.4-2.8-1.5-2.4-3.5 1.4.8 2.6 1.7 2.4 3.5zm22.1 38c-1.6-.3-1.8-1.3-1.3-2.6.9.6 1.5 1.4 1.3 2.6zm-2-4c-1.6-.3-1.8-1.2-1.3-2.6.9.6 1.5 1.4 1.3 2.6zM943.9 224c-1.4-.1-2-.9-1.7-2.3 1.1.4 1.7 1.1 1.7 2.3zm-2.1-2.9c-1.4-.1-1.9-.9-1.7-2.2 1.1.2 1.8.9 1.7 2.2z"/><path class="st5" d="M530.8 610.8c-2 .2-3.9.5-5.9.5h-58.8c-2 0-3.9-.3-5.9-.5 0-2-.1-4 .1-6 .6-7.2.5-12.5-9-14.9-10-2.5-13.7-12.3-11.9-25.1.6-4.2 1.5-8.5 3.4-12.5 2.7-5.8 7.1-8.3 13.3-6.4 3.7 1.1 4.2-.1 4.2-3.3.2-11.8.3-11.8 12.1-11.8 17.8 0 35.6.1 53.4-.1 4 0 5.1 1.2 5 5.1-.1 25.1 0 50 0 75zm-70.1-40.3v-9c0-2.5.3-5.1-2.9-6-3-.9-5.6-.3-7.7 2-7.1 7.9-3.9 22.9 5.6 27.3 3.2 1.5 4.9.5 5-2.9.1-3.7 0-7.6 0-11.4z"/><path class="st8" d="M195 338.7c-.5-19.1 16.1-33.3 30.9-32.9 18.2.5 30.3 14.9 30.9 32.5.6 17.9-14.5 33.8-31.3 33.5-17-.2-31.3-16.5-30.5-33.1zm339 272.6c-.6.8-1.3.8-1.9 0 .6-1.2 1.2-1.2 1.9 0z"/><path class="st10" d="M956 730.9c-.6-1-1.7-1-2.7-.9-2.8.2-3.4-1.1-3.2-3.6 1-12.1-.7-24-4.1-35.5-1.2-4.1-1.4-6.3 3.9-5.9 4.3.4 3.3-3.1 3-5.2-1.3-8.5-2-17.1-1.9-25.7 15 .1 29.9.1 44.9.2-5.6 13.8-14.4 25.2-25.5 34.9-1.6-.2-2.4.6-2.2 2.2.2 1.4 1.3 1.6 2.5 1.2.8.3 1.6.5 2.3.8.3 1.4.8 2 2.1.7.6.1 1.3.3 1.9.4.9 1.6 1.9 3 4.1 1.6 3 .2 5.4 1.9 8 3 .2 1.7 1.2 2 2.6 1.5 6.1 3.1 12.4 5.9 11.9 14.4-1.3.4-1.6 1.3-1.3 2.5-2 3.7-5.3 5.5-9.3 6.5-2.1-1.3-3.1 0-4.1 1.6-1 .2-1.9.4-2.9.6-2.2-1.4-3.8-.5-5.1 1.5-1.3.2-2.6.4-3.9.5-3-1.3-5.7-.8-8.1 1.5-1.6.2-3.3.3-4.9.5-1.8-1.4-3.6-1.9-5.1.5-1-.1-2 .1-2.9.2zm-274-3c-2.9.5-5.8-1.8-8.7-.3-.7-.1-1.5-.1-2.2-.2-1.7-1.9-3.7-2.4-6-1.5-1-.2-1.9-.3-2.9-.5-1-1.5-2.1-2.9-4.1-1.5-.6-.2-1.3-.3-1.9-.5-.4-1.3-1.2-1.6-2.4-1.3-.5-.2-1.1-.5-1.6-.7-.3-1.2-1.1-1.7-2.3-1.4-1.5-.5-2.5-1.4-3-2.9.3-1.2-.1-2-1.4-2.3-1.3-5.4 2.6-8.1 5.9-11 2.1-1.8 4.5-3.4 7.3-4.1 3.8-.5 7.4-1.7 10.4-4.2 1.1-1 2.4-1.5 3.9-1.4 2.2 1 3.8.2 5.1-1.6.7-.2 1.3-.4 2-.6.8 0 1.6-.1 1.6-1.1 0-.7-.6-1-1.3-1-6.8-4.9-12.6-10.9-17.7-17.5.4-2.1-.6-3.2-2.7-3.4-.4-.6-.8-1.1-1.3-1.7.3-1.4-.1-2.2-1.6-2.4-.3-.1-.4-.3-.4-.6.3-1.4-.1-2.3-1.6-2.4-.3-.1-.4-.3-.4-.6.3-1.4-.1-2.2-1.5-2.4-.3-.1-.4-.3-.4-.6-.3-1.4-.6-2.9-.9-4.3H684c-.3 7.4-1.5 14.9-1 22.3.2 3.6-.8 7.3 1.7 10.6.6.8.5 2.3.2 3.4-3.4 12.5-2.9 25.1-2.9 37.7z"/><path class="st8" d="M534 653.8c-1.4 1.7-3.4 1-5.1 1H250.3c-1.7 0-3.7.7-5.1-1 1.6-1.4 3.5-.8 5.3-.8h278.4c1.5.1 3.5-.5 5.1.8z"/><path class="st6" d="M686 611v-5c2.7-3 6.3-3.1 10-3.1 12.1.2 24.2.1 36.2.1 2 0 4-.1 5.8 1v7h-52zm119 43c-.7 6.5-1.3 13.1-2 19.6-.1 1.1.3 2.4-1.1 3-1.1.4-2.1-.2-2.6-1-5-7.9-11.2-14.6-18.1-20.7-.2-.2-.1-.6-.2-1 8 .1 16 .1 24 .1zm-101 0c-1 4.1-4.8 6.1-7.1 9.3-3.7 5.1-6 10.9-8.8 16.4-.6 1.1-.3 3-2.2 2.6-1.4-.3-.8-2-.9-3-.5-8.5.7-16.8 1-25.3h18z"/><path class="st8" d="M651.9 654c.3 1.4.6 2.9.9 4.3-1.9-1-2.4-3.1-3.7-4.5 1.1-1.4 1.9 0 2.8.2z"/><path class="st6" d="M968.9 729.6c2.4-2.3 5-2.9 8.1-1.5-2.5 1.4-5.2 2.1-8.1 1.5zm-10 .9c1.5-2.3 3.2-1.9 5.1-.5-1.6 1.1-3.3 1.2-5.1.5zm22-3c1.3-2 2.9-2.9 5.1-1.5-1.4 1.5-3.1 2-5.1 1.5zm.1-31.5c-2.1 1.4-3.1 0-4.1-1.6 1.8-.4 3 .3 4.1 1.6zm-10.4-3.4c-1.2.4-2.3.2-2.5-1.2-.2-1.6.6-2.4 2.2-2.2-.5 1.2-.4 2.3.3 3.4zm18.3 32.9c1-1.5 2-2.9 4.1-1.6-1.1 1.3-2.3 2.1-4.1 1.6zM975 694c-1.2 1.4-1.8.7-2.1-.7.9-.4 1.6-.1 2.1.7zm16.6 6.5c-1.5.6-2.4.2-2.6-1.5 1.3-.2 2 .6 2.6 1.5zm10.6 16.9c-.3-1.2 0-2.1 1.3-2.5.7 1.4-.1 2.1-1.3 2.5z"/><path class="st8" d="M114 338.1c1.1 15.9-10.7 30.7-25.8 33.4-9.5 1.7-23.5-4.3-28.7-12.3-8.3-12.8-9.4-25.8-1.3-38.8 6.7-10.7 16.9-16.1 29.7-14.3 11.8 1.7 19.6 9.2 24.1 20.1 1.6 4.1 2.8 8.2 2 11.9z"/><path class="st7" d="M833.9 686.1c-1.1-.1-2.3.1-2.9-1.1 1.7-1.6 2.7-1.1 2.9 1.1z"/><path class="st8" d="M669.1 695.6c-3 2.5-6.6 3.7-10.4 4.2 3.1-2.5 6.4-4.1 10.4-4.2zm-4.1 30.3c2.4-.9 4.4-.4 6 1.5-2.3.9-4.2-.2-6-1.5zm13.1-33.3c-1.3 1.8-2.9 2.6-5.1 1.6 1.5-1.2 3.1-2.1 5.1-1.6zM658 723.9c2-1.4 3.1 0 4.1 1.5-1.7.6-3-.2-4.1-1.5zm2-54.9c2 .3 3.1 1.3 2.7 3.4-1.4-.7-2.6-1.6-2.7-3.4zm-6.8-10.1c1.5.2 1.9 1.1 1.5 2.4-1.1-.3-1.7-1.1-1.5-2.4zm4 6c1.5.2 1.9 1 1.6 2.4-1.2-.3-1.7-1.1-1.6-2.4zm23.2 25c.7 0 1.3.3 1.3 1 0 1-.8 1.2-1.6 1.1l.3-2.1zm-34.9 25c1.2.3 1.6 1.1 1.4 2.3-1.3-.3-1.9-1-1.4-2.3zm4.3 5.2c1.2-.2 2 .2 2.3 1.4-1.3.4-2-.1-2.3-1.4zm3.9 2.1c1.2-.4 2.1 0 2.4 1.3-1.2.4-2-.1-2.4-1.3zm1.5-60.3c1.5.2 1.9 1.1 1.6 2.4-1.2-.3-1.7-1.1-1.6-2.4z"/><path class="st6" d="M668 598.1c-3.5-.4-6.3-1.6-8.2-5-1.3-2.3-3.7-4-5.7-6 1.4-1.2.7-2.2 0-3.5-3.5-6.7-7.2-13.3-8.1-20.9-.1-1.3-.9-2.1-2-2.6v-2c.1-2.6-1-4.8-2-7.1v-2.9c.5-3.3-1.5-6-2-9.1v-2.9c-.4-1.8 1.3-4.4-1.9-5 0-.7 0-1.4.1-2 1.4-1.8 1.8-3.3-1-4 0-1.3 0-2.6-.1-4v-6c1-3.5 2.8-7-1-10v-10c2-3 1-6.4.9-9.6-.2-6.1 1.3-12.4-.9-18.4v-12c3.8-3.7 2-7.9 1-12v-9c0-2 0-4 .1-6 3.4-1.9 2.3-4.4 1-7v-6c3.9-1.9 1.2-5.4 1.9-8 0-2-.1-4-.1-6v-4.9c1.8-2.3 1.7-4.7.1-7-.2-1.7.6-3.6-.9-5 0-.8.1-1.5.9-2 1.8-.2 2.1-1.4 2-2.9-.4-4.9.8-9.5 2-14.2 1.9-7.7 5.7-14.2 12.1-18.9 14-10.2 30.2-11.7 46.8-11 2.5.1 3.9 1.6 4.1 4.1.7 9.7 1.9 19.5 1.9 29.2 0 15.1.8 30.2-.7 45.3-1 10-.6 20.2-.8 30.3-.4 23.2-2.1 46.4-2.3 69.7 0 2.8-.3 5.5-1.4 8.2-2.2 5.4 1.2 9.9 6.9 10 5.8 0 11.7.1 17.5 0 2.6-.1 3.7.6 4 3.5.7 7.1 1.8 14.3 3.1 21.3.8 3.9.7 7.8.9 11.8.3 5.8 1.2 11.6 1.9 17.4 1.5 4.6.8 9.3.9 14-16.3 0-32.5 0-48.8.1-1.7 0-3.7-.7-5.2 1h-9c-1.9-3.2-4.7-3.8-8-3z"/><path class="st6" d="M741 416c-2.8 1.1-3 3.3-3 6 .1 35.3.1 70.7.1 106-1.8 1.1-3.9 1.4-5.8.9-5.8-1.5-11.6-.8-17.4-.9-6.8-.1-7.9-.7-6.8-7.4 2-11.4.4-22.8 1.6-34.3 2-18.2 1.8-36.7 1.9-55 .2-31.5 2.3-63.2-1.6-94.6-.3-2.2.6-3.7 3-3.7 3.6 0 6.6-1.8 9.8-2.8 6.1-2 7.3-2 9 4 5.5 19.5 12.6 38.6 19.1 57.7 3 8.8 4 9.1-6 11.2-.6.1-1.2.5-1.8.8-6.4 2.8-6.5 2.8-3 8.8.7 1.1.9 2.1.9 3.3z"/><path class="st6" d="M733 318.9h2.9c3.1-.5 6.2-.9 9.3-1.5 8.8-1.5 17.4-3.8 26.3-4.4 2.7-.2 4.8.6 4.5 3.8-.6 5.6.1 10.9 1.9 16.3.7 2.1 2.6 3.8 2.2 6.4-1.2 7.6 3.3 14.7 2 22.4-.1.5.1 1 .3 1.4 2.8 6.4 1.9 13.5 3.5 20.2 2.2 8.7 2 17.9 5.1 26.5v3h-43c-2.4 0-4.4-.8-4.9-3.3-.6-2.8 1.7-3.1 3.6-3.8 2.7-.9 5.3-1.9 8-2.8 3.2-1.1 3.9-3.2 2.6-6.3-1.7-4.1-3.3-8.3-4.8-12.5-6.6-19.6-13.6-39-18.8-59-.4-2.2-2.6-4-.7-6.4z"/><path class="st5" d="M780.5 312.5c2.5-4.4 2.1-9.6 4.1-14.2 2.4-5.7 4.5-6.6 9.7-3.2 2.6 1.7 5.1 3.6 7.6 5.5 8.8 8.2 17.7 16.5 27.8 23.2 1.2.8 1.7 2 2.3 3.1-.1.5-.2 1.1-.3 1.6l-.1.1c-1.2.4-1.6 1.2-1.1 2.4-3.9 9.2-9.3 17.7-12 27.3-1.5 1.4-1.9 2.8.1 4.1.1.3.2.4.5.5 1.2 4.9-2.5 9.3-1.6 14.1-.1.6-.3 1.3-.4 1.9-.8.6-1 1.2-.5 2.1-.2.6-.4 1.3-.5 1.9-1 .5-1.1 1.2-.5 2.1-.2.6-.3 1.3-.5 1.9-.8.5-1 1.2-.5 2.1-.2.6-.4 1.3-.6 1.9-1 .5-1.1 1.2-.6 2.1-.1.6-.3 1.3-.4 1.9-1.8 2.8-2.6 5.8-2.5 9.1-.2.6-.4 1.3-.6 1.9-1.5 1.4-1.8 3.2-1.4 5.1l-.9 2.7c-4.2 0-8.3 0-12.5.1-.1-1.3-.3-2.6-.4-3.9 1.5-1 1.1-1.6-.4-2-1-3.3-1.5-6.6-1.5-10 1.5-1.3 1.4-2.3-.5-3-1-3.3-1.6-6.6-1.4-10 1.5-1.3 1.4-2.3-.5-3-1-3.6-1.6-7.2-1.6-11 1.5-1 1.1-1.6-.4-2-.9-3.6-1.7-7.2-1.6-11 1.6-1.3 1.5-2.3-.5-3-.2-1-.3-2-.5-3 1.5-.9 1-1.6-.3-2-.8-1.6-.9-3.3-.6-5 1.5-1.3 1.5-2.3-.5-3-.6-.9-.7-1.9-.5-3 1.4-.9 1-1.6-.3-2-1.1-2.1.2-4.8-1.6-6.6-3.3-3.6-3.4-7.6-2.1-12 .6-1.7.5-3.8.6-5.8zm112.9 12.3c3.5 5.5 5.2 11.4 3.6 17.8-5.6 22.4-11 44.8-17.7 66.9-.3 1.1-.3 2.3-.5 3.4-3 2-6.4 1.1-9.6 1.1-6.1.1-12.2-.1-18.2-.1.1-8.3.4-16.6 1.3-24.9 2.8-1.9 2.3-3.9.4-6.1v-9.8c1.2-.4 1.4-1.2 1.2-2.3 2.4-4 .9-7.8-.6-11.5-.2-6.4-.3-12.7-.5-19.1 1.6-1.1 1.2-1.8-.5-2.1-.3-2-.5-4.1-.8-6.1 1.3-4.5 5.6-3.3 8.3-3.6 11.2-1.4 22.3-3.5 33.6-3.6z"/><path class="st14" d="M851.5 331.8c.3 2 .5 4.1.8 6.1-.2.7-.4 1.4-.7 2.1-1.4 4.3-.3 8.7-.4 13.1-.1 2.2-.4 4.7 2.1 6.1 1.5 3.8 3 7.6.6 11.5-.8-.4-1.7-.3-2.1.4-.4.8 0 1.5.9 1.9v9.8c-1.1 2-1.1 4-.4 6.1-1 8.3-1.3 16.6-1.3 24.9-14.4 0-28.8 0-43.2-.1l.9-2.7c1.6-1.4 2.6-2.9 1.4-5.1.2-.6.4-1.3.6-1.9 2.2-2.6 3-5.7 2.5-9.1.1-.6.3-1.3.4-1.9 1.3-.4 1.8-1 .6-2.1.2-.6.4-1.3.6-1.9 1.1-.5 1.7-1.1.5-2.1.2-.6.3-1.3.5-1.9 1.2-.4 1.8-1 .5-2.1.2-.6.4-1.3.5-1.9 1.1-.5 1.7-1.1.5-2.1.1-.6.3-1.3.4-1.9 1.7-.5 1.4-2.1 1.7-3.3 1.7-6.6 1.6-6.6 8.5-5.5.3.1.6.3.9.3.8.2 1.7.2 2-.8.3-1-.3-1.6-1.2-1.8-3.6-.8-6.5-3.4-10.4-3.1-.3 0-.5-.2-.5-.5.4-1.4.5-2.7-.1-4.1 2.7-9.7 8.1-18.2 12-27.3 1.4-.3 1.7-1.2 1.1-2.4l.1-.1c6.5.2 12.7 2.6 19.2 3.4 0 .3.3.2.5 0z"/><path class="st7" d="M733 318.9c-1.9 2.4.3 4.2.8 6.4 5.2 20 12.3 39.5 18.8 59 1.4 4.2 3.1 8.4 4.8 12.5 1.2 3.1.6 5.1-2.6 6.3-2.7.9-5.3 1.9-8 2.8-1.9.7-4.2 1-3.6 3.8.5 2.5 2.4 3.4 4.9 3.3 2.8-.1 5.7 0 8.5 0h34.5c-1.2 2.6-3.6 2-5.7 2-13.5-.5-26.9 1.1-40.4-.8-1.8-.2-2.6 1.3-4 1.8 0-1.2-.2-2.2-.8-3.3-3.5-5.9-3.4-5.9 3-8.8.6-.3 1.2-.6 1.8-.8 9.9-2.2 9-2.5 6-11.2-6.5-19.2-13.6-38.2-19.1-57.7-1.7-6-2.8-6-9-4-3.2 1.1-6.3 2.9-9.8 2.8-2.3 0-3.2 1.4-3 3.7 3.9 31.5 1.8 63.1 1.6 94.6-.1 18.3 0 36.8-1.9 55-1.2 11.4.4 22.9-1.6 34.3-1.2 6.7-.1 7.3 6.8 7.4 5.8.1 11.6-.6 17.4.9 1.9.5 4 .2 5.8-.9 1.5 1.3 1 3.1.9 4.7-.3 8.3.6 16.5-.8 24.8-1.3 7.7 1.4 15.5.8 23.3-.1 1.8.6 3.7-1 5.2-.7-5.8-1.7-11.6-1.9-17.4-.2-3.9-.1-7.8-.9-11.8-1.3-7-2.4-14.2-3.1-21.3-.3-3-1.4-3.6-4-3.5-5.8.1-11.7.1-17.5 0-5.8 0-9.1-4.5-6.9-10 1.1-2.8 1.3-5.4 1.4-8.2.2-23.2 1.9-46.4 2.3-69.7.2-10.1-.2-20.3.8-30.3 1.6-15.1.8-30.2.7-45.3 0-9.7-1.2-19.5-1.9-29.2-.2-2.5-1.6-4-4.1-4.1-16.6-.7-32.8.8-46.8 11-6.4 4.6-10.2 11.2-12.1 18.9-1.1 4.7-2.4 9.3-2 14.2.1 1.4-.2 2.7-2 2.9-.3-11 1.5-21.4 8.1-30.6 7.8-10.9 19.3-14.8 31.7-17.5 9-1.9 18.2.2 27.2-1.8 6.5-1.5 12.8-3.3 19.1-5.3 2.5-.8 4.4-1.8 3.3-5.4-1-2.9.5-4.4 3.5-2.7zm52.9 33.1c.2 1 .3 2 .5 3-.5 1.1-.6 2.2.5 3-.1 3.8.6 7.4 1.6 11-.5.8-.5 1.5.4 2 0 3.7.6 7.4 1.6 11-.5 1.1-.6 2.2.5 3-.1 3.4.4 6.8 1.4 10-.5 1.1-.6 2.2.5 3 0 3.4.5 6.7 1.5 10-.5.8-.4 1.5.4 2 .1 1.3.3 2.6.4 3.9-3.2.6-1.4-4.1-4.3-3.9-3.2-8.6-3-17.8-5.1-26.5-1.7-6.7-.7-13.8-3.5-20.2-.2-.4-.4-1-.3-1.4 1.2-7.6-3.2-14.8-2-22.4.4-2.6-1.5-4.3-2.2-6.4-1.8-5.4-2.5-10.7-1.9-16.3.4-3.2-1.8-3.9-4.5-3.8-8.9.6-17.5 3-26.3 4.4l-9.3 1.5c.2-1.1.8-1.7 2-1.9 11.8-2.1 23.4-5 35.3-6.1 2.6-.3 5.1.3 7.3 1.6-.2 2 0 4-.6 5.9-1.3 4.4-1.2 8.4 2.1 12 1.7 1.9.4 4.5 1.6 6.6-.5.8-.5 1.5.3 2-.2 1.1-.1 2.1.5 3-.6 1.1-.6 2.1.5 3-.2 1.7-.2 3.4.6 5-.4.7-.3 1.4.5 2zM685 601c1.5-1.6 3.4-1 5.2-1 16.3-.1 32.5-.1 48.8-.1-.1 1.4.5 2.9-.9 4-1.8-1.1-3.8-1-5.8-1-12.1 0-24.2.1-36.2-.1-3.8-.1-7.3 0-10 3.1-1.2-.7-1-1.9-1-3-.1-.6-.1-1.2-.1-1.9z"/><path class="st5" d="M874.8 273.1c-8.8.2-14.3-5.3-20.5-9.4-2.6-1.7-4.8-4-7.2-6.1-1-1-2.7-2-1.7-3.7.8-1.4 2.4-1 3.6-.8 9.4 1.6 18.9 3.3 28.4 4.4 5.8.7 11.6.2 17.4.5 1.1.1 2.4-.2 2.9 1.3.4 1.2.1 2.4-.9 3.2-6.5 5.6-13.3 10.8-22 10.6z"/><path class="st9" d="M858.4 150.2c5.9.1 16.1 7.9 17.8 13.2.2.6.2 1.5-.1 1.8-1 1-2.2.3-3.3 0-8.3-2.7-16.8-4.1-25.4-4.4-2.5-.1-5-.1-7.4.7-.9.3-2.1.5-2.5-.8-.3-.9.3-1.6 1-2.1 6.3-4 13-7.3 19.9-8.4zm30.1 17.7c.4 0-.9.3-1.1-1-.1-.7.4-1.6.8-2.2 8.2-11.5 20.8-13.5 31.9-4.9 1 .8 2.5 1.6 2.2 3-.4 1.7-2.2 1-3.4 1.2-9.8 1.3-19.4 2.5-30.4 3.9z"/><path class="st3" d="M904.9 195.6c1 5.9-1.7 10.2-5.9 14-1.9 1.7-3.3 1.5-5.1-.1-7.8-6.7-8-21.6-.2-28.4 2.5-2.2 5.1-1.2 6.9 1.2 3 3.8 5.2 8 4.3 13.3zm-3.4.3c-.1-3-.4-6-2-8.6-.7-1.1-1.6-2.6-3-2.1-1.9.6-.6 2.1-.4 3.3.4 3.5 2 7.7-4.2 7.7-1.4 0-1.4 1.1-1.2 2.2.4 2.1.8 4.2 2.1 6 2.3 3.3 4.5 3.1 6.6-.5 1.4-2.5 2-5.2 2.1-8zm-32.6-.9c.9 5.9-1.4 10.4-5.5 14.3-2.3 2.1-4 2-5.8-.2-3.9-4.7-7.9-9.1-4.2-16.1 1.7-3.2.6-7.5 3.6-10.5 2.8-2.9 5.1-3.1 7.9-.1 3.4 3.6 4.7 7.8 4 12.6zm-3-3c-.6-1.5-1.1-3.1-1.9-4.6-.7-1.3-1.7-2.9-3.4-2.1-1.9.8-.2 2.3.1 3.4.6 2.7.9 6.5-1.8 7.1-7.7 1.6-2.9 5.7-1.7 8.2 1.8 4 4.7 3.6 6.9-.3 1.7-3 1.5-6.4 2-9.7 1.1-.8 1-1.4-.2-2z"/><path class="st9" d="M850.8 332c-6.4-.8-12.6-3.1-19.2-3.4.1-.5.2-1.1.3-1.6 6.5 1.1 13.2.9 18.9 5z"/><path class="st7" d="M643.9 560c1.1.5 1.9 1.3 2 2.6.9 7.7 4.6 14.3 8.1 20.9.7 1.3 1.4 2.3 0 3.5-4.7-5.9-7.9-12.5-9.1-20 0-1.3-.6-2-1.9-2.1 0-1.7-.1-3.3-.1-5 .4.1.7.1 1 .1zm-7.9-93c2.1 6 .7 12.3.9 18.4.1 3.2 1.1 6.5-.9 9.6h-1v-28h1zm1-24c1 4.1 2.8 8.3-1 12h-1c.9-4 1.2-8 1-12h1zm2.9-36c-.7 2.7 2 6.1-1.9 8h-1v-8h2.9z"/><path class="st11" d="M635 455h1v12h-1c-2-4-1-8 0-12z"/><path class="st7" d="M639.9 539c.5 3.1 2.5 5.8 2 9.1-1 0-1.9 0-2.9-.1 0-3-.1-6-.1-9h1z"/><path class="st11" d="M635 495h1v10c0 .4-.1.7-.1 1.1-2.7-3.5-2.5-7.2-.9-11.1z"/><path class="st7" d="M635.9 506.1c0-.4.1-.7.1-1.1 3.7 3 2 6.5 1 10h-1c0-3-.1-6-.1-8.9zM640 389c1.5 2.4 1.7 4.7-.1 7-2.1-1.9-1.9-4.5-1.8-7h1.9z"/><path class="st11" d="M637 443h-1c-1-3.1-2.6-6.4 1-9v9zm2.9-36c-1 0-1.9 0-2.9.1.6-2.2-1.8-5.7 2.8-6.1.1 1.9.1 3.9.1 6z"/><path class="st7" d="M668 598.1c3.3-.8 6.1-.2 8 2.9-2.8-.7-6.2.5-8-2.9z"/><path class="st11" d="M685 601v2c-2.6-.8-6.1 1.9-8-2h8z"/><path class="st7" d="M641.9 551c1 2.3 2.1 4.5 2 7.1-1 0-1.9 0-2.9-.1 0-2.3-.1-4.6-.1-7h1zM638 421c1.3 2.6 2.4 5.1-1 7v-7h1z"/><path class="st11" d="M636 515h1v6c-3.4-1.5-2.1-3.8-1-6zm2-94h-1c-1.9-2-.9-4 0-6h1v6z"/><path class="st7" d="M638 531c3.3.7 1.6 3.2 2 5h-2v-5z"/><path class="st11" d="M640 389h-1.9c.2-1.7-.8-3.6 1-5 1.5 1.4.7 3.3.9 5zm1.9 162h-1c-2-.2-1.9-1.6-1.9-3 1 0 1.9 0 2.9.1v2.9zm-3.9-15h2v2.9h-1c-2.2-.3-2.6-1.3-1-2.9z"/><path class="st7" d="M637 525c2.7.7 2.4 2.3 1 4h-1v-4z"/><path class="st11" d="M641 558c1 0 1.9 0 2.9.1v2h-1c-1.3-.2-1.9-.8-1.9-2.1zm2 7c1.3.1 1.9.7 1.9 2.1-1.2-.2-1.9-.8-1.9-2.1zm-6-36h1c0 .7 0 1.4-.1 2-1.2-.2-2.4-.5-.9-2zm253-143.2c-.4.3-.8.8-1 .7-.3-.1-.7-.6-.7-.9-.1-.7.3-1.3 1.1-1 .2 0 .3.6.6 1.2zm-2.4 7.9c-.1.3-.2.6-.4.8-.3-.1-.7-.2-.8-.4-.1-.2.2-.5.3-.8.4.2.7.3.9.4z"/><path class="st2" d="M460.7 570.5c0 3.8.1 7.6 0 11.5-.1 3.3-1.8 4.3-5 2.9-9.5-4.4-12.6-19.4-5.6-27.3 2.1-2.3 4.6-2.9 7.7-2 3.3 1 3 3.5 2.9 6v8.9z"/><path class="st9" d="M819.1 363c3.9-.3 6.8 2.3 10.4 3.1.9.2 1.5.8 1.2 1.8-.3 1-1.2 1-2 .8-.3-.1-.6-.3-.9-.3-6.9-1.1-6.9-1.1-8.5 5.5-.3 1.2 0 2.8-1.7 3.3-1-5 2.7-9.3 1.5-14.2zm-6 32c.6 3.4-.2 6.4-2.5 9.1-.2-3.3.7-6.3 2.5-9.1zm-3 11c1.2 2.2.2 3.7-1.4 5.1-.4-1.9-.2-3.7 1.4-5.1z"/><path class="st1" d="M793 398c-1.1-.8-1-1.9-.5-3 1.9.7 2 1.7.5 3zm-6.1-40c-1.1-.8-1.1-1.9-.5-3 2 .6 2.1 1.7.5 3zm-2-13c-1.1-.8-1.1-1.9-.5-3 2 .7 2.1 1.7.5 3z"/><path class="st9" d="M818.5 358.4c.6 1.3.5 2.7.1 4.1-2.1-1.3-1.6-2.7-.1-4.1z"/><path class="st1" d="M791 385c-1.1-.8-1.1-1.9-.5-3 1.9.7 2 1.7.5 3z"/><path class="st9" d="M831.5 328.7c.6 1.2.2 2.1-1.1 2.4-.4-1.2 0-2 1.1-2.4z"/><path class="st1" d="M788.9 371c-.9-.5-.9-1.2-.4-2 1.4.4 1.9 1 .4 2zm6 39c-.8-.5-.9-1.2-.4-2 1.4.4 1.9 1 .4 2zm-9-58c-.8-.6-.9-1.2-.3-2 1.3.4 1.8 1 .3 2z"/><path class="st9" d="M814.1 391c1.3 1.1.7 1.7-.6 2.1-.5-.9-.4-1.6.6-2.1zm1-3.9c1.2 1 .6 1.6-.5 2.1-.5-.9-.3-1.6.5-2.1z"/><path class="st1" d="M783.9 339c-.8-.5-.9-1.2-.3-2 1.3.4 1.8 1 .3 2z"/><path class="st9" d="M816.1 383.1c1.2 1.1.7 1.7-.5 2.1-.6-.9-.5-1.7.5-2.1zm1-4c1.2 1 .6 1.6-.5 2.1-.5-.9-.3-1.6.5-2.1zm36.1-19.9c-2.4-1.4-2.1-3.9-2.1-6.1.2-4.4-.9-8.8.4-13.1.4 0 .8 0 1.1.1.3 6.4.5 12.7.6 19.1z"/><path class="st1" d="M852.3 389c-.7-2.1-.8-4.1.4-6.1 1.8 2.2 2.4 4.3-.4 6.1zm.3-15.9c-.9-.4-1.3-1.1-.9-1.9.4-.8 1.3-.9 2.1-.4.2 1.1 0 1.9-1.2 2.3zm.2-33c-.4 0-.8 0-1.1-.1.2-.7.4-1.4.7-2.1 1.6.4 1.9 1.1.4 2.2z"/><path class="st10" d="M901.5 195.9c-.1 2.9-.7 5.5-2.2 8-2.1 3.6-4.2 3.8-6.6.5-1.3-1.8-1.8-3.9-2.1-6-.2-1-.2-2.2 1.2-2.2 6.2 0 4.6-4.2 4.2-7.7-.1-1.2-1.5-2.7.4-3.3 1.5-.5 2.4 1 3 2.1 1.7 2.6 2 5.6 2.1 8.6zM866 194c-.5 3.3-.2 6.7-2 9.7-2.2 3.9-5.1 4.3-6.9.3-1.2-2.5-6-6.6 1.7-8.2 2.7-.6 2.4-4.3 1.8-7.1-.3-1.1-1.9-2.6-.1-3.4 1.7-.8 2.7.8 3.4 2.1.8 1.5 1.3 3.1 1.9 4.6-.4.7-.4 1.4.2 2z"/><path class="st1" d="M866 194c-.6-.6-.7-1.3-.2-2 1.3.6 1.4 1.2.2 2z"/></svg>