<svg id="Слой_1" xmlns="http://www.w3.org/2000/svg" viewBox="0 0 216 133"><style>.st0{fill-rule:evenodd;clip-rule:evenodd;fill:#01ae2d;stroke:#fff;stroke-width:5;stroke-miterlimit:10}.st1{fill:none}.st2{fill:#fff}</style><path class="st0" d="M96.5 75.4V104h-12l23.1 25.9 23.1-25.9h-12V75.4H96.5zM4.3 6.3H211v60.2H4.3z"/><path class="st1" d="M16.7 21.6h190.7v43H16.7z"/><path class="st2" d="M20.1 23.2h7.6c3.5 0 6.1.5 7.7 1.5s2.4 2.7 2.4 4.9c0 1.5-.4 2.7-1.2 3.7s-1.9 1.6-3.3 1.9v.2c1.8.3 3.1 1 4 2s1.3 2.4 1.3 4.1c0 2.3-.8 4.1-2.4 5.4s-3.9 2-6.7 2h-9.3V23.2zm4.2 10.7h4c1.8 0 3-.3 3.8-.8s1.2-1.5 1.2-2.8c0-1.2-.4-2.1-1.3-2.6s-2.3-.8-4.2-.8h-3.6v7zm0 3.4v8.1h4.5c1.8 0 3.1-.3 4-1s1.3-1.7 1.3-3.2c0-1.3-.5-2.3-1.4-3s-2.3-1-4.2-1h-4.2zm35.5 11.6l-2.6-7.1h-9.8l-2.5 7.1h-4.4L50 23.1h4.6l9.6 25.8h-4.4zm-3.7-10.7l-2.4-7c-.2-.5-.4-1.2-.7-2.2s-.5-1.7-.6-2.2c-.3 1.4-.8 3-1.4 4.7l-2.3 6.7h7.4zm29.2 7.1h9.2V23.2h4.3v25.7H67.6V23.2h4.2v22.1H81V23.2h4.3v22.1zm44.9-22.1v3.6h-11.1v22.1H115V23.2h15.2zm21.2 7.8c0 2.7-.9 4.7-2.6 6.2s-4.3 2.1-7.5 2.1h-2.7v9.6h-4.2V23.2h7.4c3.2 0 5.6.7 7.2 2s2.4 3.3 2.4 5.8zm-12.8 4.8h2.2c2.2 0 3.7-.4 4.7-1.1s1.5-1.9 1.5-3.5c0-1.5-.5-2.6-1.4-3.3s-2.3-1.1-4.2-1.1h-2.9v9zm37.5-12.6L168 41.5c-1 2.2-1.9 3.9-2.7 4.9s-1.8 1.7-2.9 2.2-2.4.7-4 .7c-1.4 0-2.6-.2-3.8-.5V45c1.1.5 2.3.7 3.6.7 1.1 0 2-.3 2.7-.8s1.4-1.5 2-2.8l-9.5-18.8h4.5l6.3 12.9c.6 1.2.9 2 1 2.4h.2c.1-.3.2-.8.5-1.5l5.8-13.9h4.4zm19.7 6.1c0 1.7-.6 3-1.7 4.1s-2.6 1.7-4.6 2v.1c2.3.3 4 .9 5.1 2s1.8 2.4 1.8 4.2c0 2.4-.9 4.3-2.8 5.6s-4.5 2-7.7 2c-3.4 0-6.2-.5-8.2-1.4v-3.7c1.1.5 2.4 1 3.8 1.2s2.7.4 3.9.4c4.5 0 6.8-1.5 6.8-4.4 0-1.4-.7-2.4-2-3.1s-3.4-1.1-6-1.1H181v-3.4h2.9c5.1 0 7.7-1.4 7.7-4.1 0-1.1-.4-2-1.3-2.6s-2.1-.9-3.7-.9c-1.2 0-2.4.2-3.6.5s-2.3.9-3.5 1.7l-1.9-2.8c2.6-1.8 5.7-2.7 9.3-2.7 2.7 0 4.9.6 6.5 1.7s2.4 2.7 2.4 4.7z"/></svg>